<svg width="41" height="62" viewBox="0 0 41 62" fill="none" xmlns="http://www.w3.org/2000/svg">
<g id="Group 1690">
<path id="Vector" d="M13.2238 53.1304C13.2238 48.8082 13.2238 44.5064 13.2238 40.1842C13.2238 39.7968 13.039 39.7357 12.7105 39.7357C11.1499 39.7357 9.60986 39.7357 8.04928 39.7357C7.06365 39.7357 6.4271 39.0832 6.40657 38.1046C6.40657 36.6571 6.40657 35.2096 6.40657 33.7824C6.40657 32.9058 7.06365 32.2534 7.96715 32.2534C8.31622 32.2534 8.6653 32.233 9.01437 32.2534C9.32238 32.2534 9.44558 32.131 9.42505 31.8252C9.42505 28.1962 9.42505 24.5468 9.40452 20.9178C9.38398 19.6538 9.48665 18.4101 9.85626 17.2276C10.4107 15.5151 11.3142 14.0064 12.6283 12.7423C13.5524 11.8453 14.6201 11.1113 15.7906 10.622C17.8645 9.76574 20.0205 9.45992 22.2177 10.0308C23.1622 10.2754 24.0862 10.5812 24.9487 11.0094C26.078 11.5599 27.0431 12.3754 27.885 13.3132C29.5688 15.2296 30.5133 17.4519 30.5339 20.0004C30.575 23.9148 30.5544 27.8292 30.5339 31.7437C30.5339 32.131 30.6571 32.2738 31.0472 32.2534C31.3758 32.233 31.7248 32.2534 32.0534 32.2534C32.8953 32.2738 33.5524 32.9262 33.5729 33.7621C33.5934 35.2707 33.5524 36.759 33.5934 38.2677C33.614 38.9609 32.7515 39.7968 32.0534 39.7764C30.4723 39.7357 28.8912 39.756 27.3101 39.756C26.7967 39.756 26.7762 39.7968 26.7762 40.3065C26.7762 42.6103 26.7762 44.9141 26.7762 47.2179C26.7762 50.4392 26.7556 53.6605 26.7967 56.8817C26.8172 57.6972 25.9548 58.6147 25.1129 58.4923C24.4559 58.4108 23.7782 57.7788 23.7577 57.1264C23.7372 56.474 23.7577 55.8215 23.7577 55.1691C23.7577 50.2761 23.7577 45.4034 23.7577 40.5104C23.7577 40.4084 23.7577 40.3065 23.7782 40.225C23.8193 39.8784 23.6756 39.756 23.3265 39.756C21.2936 39.756 19.2813 39.756 17.2485 39.756C16.2423 39.756 16.2423 39.756 16.2423 40.8162C16.2423 49.114 16.2423 50.9489 16.2423 59.2671C16.2423 59.8991 16.037 60.368 15.5441 60.7758C15.0308 61.1835 14.0452 61.102 13.5524 60.4699C13.306 60.1641 13.1828 59.8379 13.1828 59.4302C13.2238 55.1691 13.2238 57.371 13.2238 53.1304ZM20.0205 32.2126C22.3614 32.2126 24.7228 32.2126 27.0637 32.2126C27.3717 32.2126 27.577 32.1718 27.577 31.7844C27.5565 28.0331 27.5565 24.2614 27.577 20.5101C27.577 18.7975 27.1253 17.2276 26.1191 15.8413C24.7228 13.9248 22.8131 12.9258 20.4517 12.7627C18.6858 12.6404 17.0842 13.1705 15.6263 14.1899C14.3532 15.0665 13.4908 16.2694 12.9569 17.6762C12.6283 18.5528 12.4846 19.4907 12.4846 20.4489C12.5051 24.2206 12.4846 27.9923 12.4846 31.7641C12.4846 32.1514 12.6489 32.233 12.9979 32.233C15.3388 32.2126 17.6797 32.2126 20.0205 32.2126ZM29.7536 36.7183C30.5544 36.7183 30.5544 36.7183 30.575 35.9028C30.575 35.8416 30.5749 35.8008 30.5955 35.7397C30.6571 35.3727 30.4928 35.2504 30.1232 35.2504C23.5113 35.2504 16.9199 35.2504 10.308 35.2504C9.50719 35.2504 9.50719 35.2504 9.48665 36.0251C9.48665 36.0863 9.46612 36.127 9.46612 36.1882C9.44558 36.6571 9.50719 36.7183 9.97947 36.7183C13.3265 36.7183 26.5092 36.7183 29.7536 36.7183Z" fill="black"/>
<path id="Vector_2" d="M36.2423 18.3489C37.0226 18.3489 37.8029 18.3489 38.5832 18.3489C39.3634 18.3693 40.0205 19.0421 40.0205 19.8372C40.0205 20.612 39.384 21.3459 38.6242 21.3663C37.0431 21.3867 35.4415 21.3867 33.8604 21.3663C33.3265 21.3663 32.6899 20.8362 32.5257 20.3265C32.3409 19.7761 32.5667 19.0829 33.039 18.7159C33.347 18.4713 33.6756 18.3489 34.0657 18.3489C34.7844 18.3693 35.5031 18.3489 36.2423 18.3489Z" fill="black"/>
<path id="Vector_3" d="M3.8193 18.3489C4.57906 18.3489 5.33881 18.3489 6.07803 18.3489C6.89938 18.3693 7.55647 19.0421 7.55647 19.8372C7.55647 20.6324 6.89939 21.3459 6.09856 21.3459C4.53799 21.3663 2.99795 21.3663 1.43737 21.3459C0.63655 21.3459 0 20.6324 0 19.8169C0 19.0421 0.677618 18.3489 1.45791 18.3489C2.25873 18.3489 3.03901 18.3489 3.8193 18.3489Z" fill="black"/>
<path id="Vector_4" d="M30.0616 11.6006C29.1786 11.5395 28.7064 11.1521 28.4394 10.5405C28.193 9.9696 28.3778 9.45991 28.7885 9.05215C29.8768 7.93083 31.0062 6.82989 32.1355 5.74935C32.731 5.17849 33.5934 5.26004 34.1684 5.8309C34.7433 6.40175 34.8049 7.27842 34.23 7.84928C33.1417 8.9706 32.0534 10.0715 30.924 11.1317C30.6571 11.3764 30.2669 11.4987 30.0616 11.6006Z" fill="black"/>
<path id="Vector_5" d="M11.7043 9.88805C11.6222 10.7443 11.2731 11.2336 10.6365 11.4987C10.0411 11.7433 9.52771 11.5598 9.0965 11.1521C7.98767 10.0715 6.89938 8.99099 5.81108 7.89005C5.23613 7.29881 5.2772 6.42214 5.89322 5.83089C6.4887 5.23965 7.37166 5.21926 7.96714 5.81051C9.05544 6.87067 10.1437 7.93083 11.191 9.01138C11.4579 9.25603 11.5811 9.66378 11.7043 9.88805Z" fill="black"/>
<path id="Vector_6" d="M18.501 3.69017C18.501 2.9766 18.501 2.28342 18.501 1.56985C18.501 0.672794 19.1581 0 20.0205 0C20.8419 0 21.5195 0.672794 21.5195 1.54947C21.5195 3.01738 21.5195 4.48529 21.5195 5.95321C21.5195 6.93182 20.6981 7.625 19.7125 7.48229C19.1376 7.40074 18.501 6.72794 18.4805 6.1367C18.501 5.32119 18.5216 4.50568 18.501 3.69017C18.501 3.69017 18.5216 3.69017 18.501 3.69017Z" fill="black"/>
</g>
</svg>
