<svg width="25" height="46" viewBox="0 0 25 46" fill="none" xmlns="http://www.w3.org/2000/svg">
<path d="M20.1011 0C20.1271 0 20.1531 0 20.1791 0.00898964C20.3006 0.0449482 20.4308 0.0809068 20.5523 0.116865C23.0774 0.629275 24.9778 2.99355 24.9865 5.63651C25.0039 10.8325 24.9865 16.0285 24.9865 21.2245V21.2785C24.9865 21.4403 24.8563 21.5751 24.7001 21.5751C24.3444 21.5751 23.9973 21.5662 23.6588 21.5751C22.8084 21.5931 22.2097 22.1954 22.2097 23.0225C22.2097 23.8315 22.8084 24.4249 23.6415 24.4428C23.9799 24.4518 24.3183 24.4428 24.6741 24.4428C24.8303 24.4428 24.9605 24.5777 24.9605 24.7395V32.7493C24.9605 32.9111 24.8303 33.0459 24.6741 33.0459H19.7366C19.5804 33.0459 19.4502 33.1808 19.4502 33.3426V44.7594C19.4502 45.4426 18.9209 45.991 18.2614 45.991H17.9664C17.2635 45.991 16.6908 45.3977 16.6908 44.6695V33.4145C16.6908 33.2527 16.5606 33.1178 16.4044 33.1178H8.62934C8.47314 33.1178 8.34298 33.2527 8.34298 33.4145V44.5706C8.34298 45.3617 7.72687 46 6.96325 46C6.19962 46 5.58352 45.3617 5.58352 44.5706V33.3875C5.58352 33.2257 5.45335 33.0909 5.29716 33.0909H0.316248C0.160052 33.0909 0.0298893 32.956 0.0298893 32.7942V24.7575C0.0298893 24.5957 0.160052 24.4608 0.316248 24.4608C0.62864 24.4608 0.949709 24.4608 1.2621 24.4608C2.16457 24.4518 2.77199 23.8765 2.78067 23.0405C2.78935 22.1774 2.17324 21.5931 1.24475 21.5841C0.941031 21.5841 0.62864 21.5841 0.298893 21.5841C0.142697 21.5841 0.0125342 21.4583 0.00385669 21.2965C0.00385669 21.2605 0.00385669 21.2245 0.00385669 21.1886C0.00385669 16.0195 -0.00482086 10.8505 0.00385669 5.68145C0.0125342 2.93062 1.97366 0.566347 4.5856 0.0898964C4.6637 0.0719171 4.7418 0.0449482 4.81989 0.0179793C4.84593 0.00898964 4.88064 0 4.90667 0L20.1011 0ZM3.07571 18.6625H21.932C22.0882 18.6625 22.2184 18.5277 22.2184 18.3658C22.2184 14.1857 22.2184 10.0055 22.2184 5.82529C22.2184 4.00039 21.1424 2.87669 19.3808 2.87669C14.8077 2.8677 10.2434 2.8677 5.67029 2.87669C3.84801 2.87669 2.78935 3.98241 2.78935 5.87024C2.78935 8.05472 2.78935 10.2482 2.78935 12.4327C2.78935 14.4014 2.78935 16.3701 2.78935 18.3658C2.78067 18.5277 2.91083 18.6625 3.07571 18.6625ZM21.9147 27.3555H3.11042C2.95422 27.3555 2.82406 27.4903 2.82406 27.6521V29.8816C2.82406 30.0434 2.95422 30.1782 3.11042 30.1782H21.9147C22.0709 30.1782 22.201 30.0434 22.201 29.8816V27.6521C22.201 27.4903 22.0709 27.3555 21.9147 27.3555ZM19.3287 21.6021H5.68765C5.49674 21.6021 5.3579 21.7999 5.40997 21.9887C5.60955 22.6809 5.60955 23.3641 5.41864 24.0383C5.36658 24.2271 5.50542 24.4159 5.69633 24.4159H19.3287C19.5197 24.4159 19.6585 24.2181 19.6064 24.0293C19.4068 23.3371 19.4155 22.6629 19.6064 21.9797C19.6585 21.7909 19.5197 21.6021 19.3287 21.6021Z" fill="black"/>
</svg>
