<svg width="25" height="35" viewBox="0 0 25 35" fill="none" xmlns="http://www.w3.org/2000/svg">
<path fill-rule="evenodd" clip-rule="evenodd" d="M12.5 28.5394C15.9518 28.5394 18.75 25.6903 18.75 22.1757C18.75 18.6612 15.9518 15.8121 12.5 15.8121C9.04822 15.8121 6.25 18.6612 6.25 22.1757C6.25 25.6903 9.04822 28.5394 12.5 28.5394ZM12.5 25.3575C14.2259 25.3575 15.625 23.933 15.625 22.1757C15.625 20.4185 14.2259 18.9939 12.5 18.9939C10.7741 18.9939 9.375 20.4185 9.375 22.1757C9.375 23.933 10.7741 25.3575 12.5 25.3575Z" fill="black"/>
<path d="M12.5 12.7973C14.2259 12.7973 15.625 11.3727 15.625 9.61546C15.625 7.85819 14.2259 6.43365 12.5 6.43365C10.7741 6.43365 9.375 7.85819 9.375 9.61546C9.375 11.3727 10.7741 12.7973 12.5 12.7973Z" fill="black"/>
<path fill-rule="evenodd" clip-rule="evenodd" d="M4.6875 0C2.09867 0 0 2.13682 0 4.77273V30.2273C0 32.8632 2.09867 35 4.6875 35H20.3125C22.9013 35 25 32.8632 25 30.2273V4.77273C25 2.13682 22.9013 0 20.3125 0H4.6875ZM20.3125 3.18182H4.6875C3.82455 3.18182 3.125 3.89409 3.125 4.77273V30.2273C3.125 31.1059 3.82456 31.8182 4.6875 31.8182H20.3125C21.1754 31.8182 21.875 31.1059 21.875 30.2273V4.77273C21.875 3.89409 21.1754 3.18182 20.3125 3.18182Z" fill="black"/>
</svg>
