<svg width="31" height="31" viewBox="0 0 31 31" fill="none" xmlns="http://www.w3.org/2000/svg">
<path fill-rule="evenodd" clip-rule="evenodd" d="M11.2727 29.5909C11.2727 30.3691 10.6419 31 9.86364 31C9.08542 31 8.45455 30.3691 8.45455 29.5909C8.45455 28.8127 9.08542 28.1818 9.86364 28.1818C10.6419 28.1818 11.2727 28.8127 11.2727 29.5909ZM16.9091 29.5909C16.9091 30.3691 16.2782 31 15.5 31C14.7218 31 14.0909 30.3691 14.0909 29.5909C14.0909 28.8127 14.7218 28.1818 15.5 28.1818C16.2782 28.1818 16.9091 28.8127 16.9091 29.5909ZM21.1364 31C21.9146 31 22.5455 30.3691 22.5455 29.5909C22.5455 28.8127 21.9146 28.1818 21.1364 28.1818C20.3581 28.1818 19.7273 28.8127 19.7273 29.5909C19.7273 30.3691 20.3581 31 21.1364 31Z" fill="black"/>
<path fill-rule="evenodd" clip-rule="evenodd" d="M11.2727 1.40909C11.2727 2.18731 10.6419 2.81818 9.86364 2.81818C9.08542 2.81818 8.45455 2.18731 8.45455 1.40909C8.45455 0.630872 9.08542 0 9.86364 0C10.6419 0 11.2727 0.630872 11.2727 1.40909ZM16.9091 1.40909C16.9091 2.18731 16.2782 2.81818 15.5 2.81818C14.7218 2.81818 14.0909 2.18731 14.0909 1.40909C14.0909 0.630872 14.7218 0 15.5 0C16.2782 0 16.9091 0.630872 16.9091 1.40909ZM21.1364 2.81818C21.9146 2.81818 22.5455 2.18731 22.5455 1.40909C22.5455 0.630872 21.9146 0 21.1364 0C20.3581 0 19.7273 0.630872 19.7273 1.40909C19.7273 2.18731 20.3581 2.81818 21.1364 2.81818ZM11.2727 29.5909C11.2727 30.3691 10.6419 31 9.86364 31C9.08542 31 8.45455 30.3691 8.45455 29.5909C8.45455 28.8127 9.08542 28.1818 9.86364 28.1818C10.6419 28.1818 11.2727 28.8127 11.2727 29.5909ZM16.9091 29.5909C16.9091 30.3691 16.2782 31 15.5 31C14.7218 31 14.0909 30.3691 14.0909 29.5909C14.0909 28.8127 14.7218 28.1818 15.5 28.1818C16.2782 28.1818 16.9091 28.8127 16.9091 29.5909ZM21.1364 31C21.9146 31 22.5455 30.3691 22.5455 29.5909C22.5455 28.8127 21.9146 28.1818 21.1364 28.1818C20.3581 28.1818 19.7273 28.8127 19.7273 29.5909C19.7273 30.3691 20.3581 31 21.1364 31ZM31 21.1364C31 20.3581 30.3691 19.7273 29.5909 19.7273C28.8127 19.7273 28.1818 20.3581 28.1818 21.1364C28.1818 21.9146 28.8127 22.5455 29.5909 22.5455C30.3691 22.5455 31 21.9146 31 21.1364ZM31 15.5C31 14.7218 30.3691 14.0909 29.5909 14.0909C28.8127 14.0909 28.1818 14.7218 28.1818 15.5C28.1818 16.2782 28.8127 16.9091 29.5909 16.9091C30.3691 16.9091 31 16.2782 31 15.5ZM29.5909 8.45455C30.3691 8.45455 31 9.08542 31 9.86364C31 10.6419 30.3691 11.2727 29.5909 11.2727C28.8127 11.2727 28.1818 10.6419 28.1818 9.86364C28.1818 9.08542 28.8127 8.45455 29.5909 8.45455ZM1.40909 19.7273C2.18731 19.7273 2.81818 20.3581 2.81818 21.1364C2.81818 21.9146 2.18731 22.5455 1.40909 22.5455C0.630872 22.5455 0 21.9146 0 21.1364C0 20.3581 0.630872 19.7273 1.40909 19.7273ZM1.40909 14.0909C2.18731 14.0909 2.81818 14.7218 2.81818 15.5C2.81818 16.2782 2.18731 16.9091 1.40909 16.9091C0.630872 16.9091 0 16.2782 0 15.5C0 14.7218 0.630872 14.0909 1.40909 14.0909ZM2.81818 9.86364C2.81818 9.08542 2.18731 8.45455 1.40909 8.45455C0.630872 8.45455 0 9.08542 0 9.86364C0 10.6419 0.630872 11.2727 1.40909 11.2727C2.18731 11.2727 2.81818 10.6419 2.81818 9.86364ZM22.5455 7.04545H8.45455C7.67633 7.04545 7.04545 7.67633 7.04545 8.45455V22.5455C7.04545 23.3237 7.67633 23.9545 8.45455 23.9545H22.5455C23.3237 23.9545 23.9545 23.3237 23.9545 22.5455V8.45455C23.9545 7.67633 23.3237 7.04545 22.5455 7.04545ZM8.45455 4.22727C6.11989 4.22727 4.22727 6.11989 4.22727 8.45455V22.5455C4.22727 24.8801 6.11989 26.7727 8.45455 26.7727H22.5455C24.8801 26.7727 26.7727 24.8801 26.7727 22.5455V8.45455C26.7727 6.11989 24.8801 4.22727 22.5455 4.22727H8.45455ZM18.3182 12.6818H12.6818V18.3182H18.3182V12.6818ZM9.86364 9.86364V21.1364H21.1364V9.86364H9.86364Z" fill="black"/>
</svg>
