<svg width="35" height="39" viewBox="0 0 35 39" fill="none" xmlns="http://www.w3.org/2000/svg">
<path d="M15.9228 34.0977C15.1554 34.0541 14.4307 34.0323 13.7059 33.9452C12.3204 33.7926 10.9349 33.6837 9.54943 33.444C8.33445 33.2479 7.14078 32.9211 5.9258 32.6597C5.69133 33.0083 5.35029 33.5094 5.05187 33.9887C4.56161 34.7295 3.60242 34.9256 2.87769 34.4245L2.85637 34.4027C2.13165 33.9234 1.93981 32.9429 2.40875 32.2021L2.87769 31.4396C2.40875 31.1128 1.93981 30.8295 1.5135 30.4809C0.703513 29.8055 0.14931 28.9558 0.0214176 27.8664C0.0214176 27.801 0.0214176 27.7139 0.0214176 27.6485C0.0214176 22.8334 0.0214176 18.0183 0.0214176 13.225C0.0214176 11.9614 0.532989 10.9809 1.42824 10.1748C2.57927 9.12895 3.94346 8.54068 5.3716 8.08314C7.37525 7.45129 9.42154 7.03733 11.5105 6.86303C11.9154 6.84124 12.2991 6.77588 12.7254 6.7323C12.7254 5.38146 12.7468 4.03062 12.7254 2.67979C12.7041 1.91721 13.0452 1.35073 13.6207 0.91498C14.3454 0.392075 15.1554 0.15241 16.008 0.0652592C17.2017 -0.0654671 18.3954 -0.0654671 19.5677 0.174198C20.4416 0.3485 21.209 0.675315 21.8271 1.37252C22.0829 1.65576 22.2321 2.00437 22.2321 2.39654C22.2321 3.7256 22.2321 5.03286 22.2535 6.36191V6.71051C23.0208 6.79766 23.7668 6.86303 24.5129 6.97197C27.0281 7.32057 29.522 7.82169 31.8241 8.97643C32.7193 9.43398 33.5293 10.0005 34.1688 10.7848C34.7017 11.4602 35.0001 12.2228 35.0001 13.1161C35.0001 17.844 34.9788 22.572 35.0001 27.3217C35.0001 28.6072 34.5098 29.6312 33.572 30.4373C33.1243 30.8295 32.6341 31.1345 32.1438 31.4831L32.7833 32.5072C33.1457 33.0954 32.9964 33.858 32.4209 34.2502L31.8241 34.6424C31.2486 35.0345 30.5025 34.8602 30.1189 34.2938C29.8418 33.858 29.5647 33.4222 29.2876 32.9865C29.117 32.725 28.9891 32.6379 28.6694 32.7468C26.8576 33.2697 25.0031 33.6183 23.1274 33.7926C21.8485 33.9016 20.5482 33.9887 19.2693 34.0759C19.2053 34.0759 19.1627 34.0759 19.0774 34.0977V37.3658C19.0774 38.2591 18.374 38.9999 17.4788 38.9999C16.6049 38.9999 15.8801 38.2809 15.8801 37.3658L15.9228 34.0977ZM30.4173 28.7597C30.8436 28.4547 31.2486 28.1932 31.6323 27.8664C31.7388 27.7792 31.8028 27.5831 31.8028 27.4306C31.8028 24.4457 31.8028 21.4608 31.8028 18.4977C31.8028 18.0183 31.8028 17.5172 31.8028 17.0379C31.0994 17.3211 30.4386 17.6262 29.7565 17.8658C27.6036 18.6066 25.3655 18.9988 23.1061 19.2384C21.7419 19.3692 20.3777 19.4563 19.0135 19.4999C17.7133 19.5435 16.4343 19.5217 15.1341 19.4781C14.1962 19.4563 13.2583 19.391 12.3204 19.282C10.9563 19.1077 9.57075 18.9116 8.22787 18.672C6.65053 18.3887 5.11581 17.953 3.66636 17.234C3.51715 17.1686 3.34663 17.0815 3.17611 17.0161C3.17611 17.1904 3.17611 17.2993 3.17611 17.4301C3.17611 20.6546 3.19742 23.8574 3.15479 27.082C3.15479 27.6703 3.34663 28.0189 3.79426 28.2803C4.05004 28.4329 4.32714 28.5636 4.60424 28.7161C4.64687 28.6725 4.66819 28.629 4.68951 28.6072C5.62739 27.1692 6.54395 25.7094 7.48183 24.2932C7.75893 23.8574 8.07867 23.4435 8.3984 23.0295C8.69681 22.6591 9.08049 22.463 9.54943 22.4848C10.9136 22.5502 11.5105 24.0317 10.807 25.0776C9.99706 26.2977 9.20839 27.5396 8.41971 28.7597C8.18524 29.1083 7.97209 29.4787 7.73762 29.8491C10.4234 30.4809 13.1304 30.7641 15.8588 30.8513C15.8801 30.5681 15.9014 30.3284 15.9014 30.0887C15.9014 28.6943 15.8801 27.3217 15.8801 25.9273C15.8801 25.7094 15.9014 25.5133 15.9441 25.3172C16.1785 24.5111 16.9246 24.01 17.7133 24.1189C18.4806 24.2278 19.0561 24.925 19.0561 25.753C19.0774 26.777 19.0561 27.801 19.0561 28.825C19.0561 29.5005 19.0561 30.1541 19.0561 30.8513C21.8058 30.7424 24.4916 30.4809 27.1986 29.8273C26.7723 29.1519 26.346 28.52 25.941 27.8664C25.2802 26.8206 24.6408 25.7966 24.0013 24.7507C23.5111 23.9446 24.044 22.8116 24.9179 22.5502C25.8558 22.2887 26.3887 22.6591 26.8789 23.3563C27.4331 24.1625 27.9447 25.0122 28.4776 25.8183C29.117 26.777 29.7352 27.7139 30.4173 28.7597ZM22.2748 10.0658C22.2748 10.7848 22.2748 11.4384 22.2748 12.0921C22.2748 12.5932 22.1042 13.0507 21.7419 13.3993C21.2303 13.9005 20.6335 14.2273 19.9514 14.3798C18.7364 14.6848 17.5001 14.7284 16.2638 14.5759C15.5178 14.4887 14.7717 14.358 14.0896 13.9876C13.1944 13.5083 12.6402 12.8329 12.7254 11.7217C12.7681 11.2641 12.7254 10.8066 12.7254 10.3491C12.7254 10.2619 12.7254 10.1748 12.7041 10.0658C12.2991 10.1094 11.9154 10.153 11.5105 10.1965C9.80522 10.3708 8.09998 10.6541 6.45869 11.1552C5.43555 11.4602 4.45504 11.8524 3.62373 12.5496C3.13348 12.9636 3.04821 13.0072 3.62373 13.4647C4.43372 14.1183 5.39292 14.4887 6.37343 14.8155C7.97209 15.3384 9.61338 15.6871 11.2973 15.8614C12.832 16.0139 14.3454 16.1664 15.8801 16.2317C18.8003 16.3407 21.6993 16.1882 24.5768 15.7524C26.2394 15.491 27.8594 15.1641 29.4368 14.5541C30.2041 14.2491 30.9715 13.9005 31.5896 13.334C31.8667 13.0943 31.8454 12.9854 31.5896 12.7457C31.483 12.6368 31.3552 12.5278 31.2273 12.4407C30.2041 11.6999 29.0318 11.2641 27.8381 10.9809C26.6231 10.6977 25.4081 10.5016 24.1718 10.2837C23.5537 10.153 22.9355 10.1312 22.2748 10.0658ZM15.9441 3.46414C15.9441 3.52951 15.9228 3.55129 15.9228 3.57308C15.9228 6.03509 15.9228 8.4971 15.9228 10.9591C15.9228 11.1334 15.9867 11.177 16.1359 11.2206C17.0312 11.4167 17.9051 11.4167 18.8003 11.2424C19.0561 11.1988 19.0988 11.0898 19.0988 10.8502C19.0988 8.4971 19.0988 6.12224 19.0988 3.76917C19.0988 3.66023 19.0988 3.57308 19.0988 3.46414C18.0117 3.20269 16.9885 3.20269 15.9441 3.46414Z" fill="black"/>
</svg>
