<svg width="40" height="46" viewBox="0 0 40 46" fill="none" xmlns="http://www.w3.org/2000/svg">
<path d="M36.8711 10.0912C37.3853 11.2388 37.5413 12.3681 37.4036 13.5433C37.0639 16.4813 35.2185 18.5012 32.2896 19.0796C30.5177 19.4285 28.7916 19.3459 27.1481 18.5288C26.4963 19.3459 26.7442 20.163 27.7541 20.3375C28.562 20.4844 29.3975 20.4752 30.2147 20.5303C31.6286 20.6221 33.0609 20.6313 34.4656 20.8333C36.1091 21.0628 37.5413 21.7789 38.4411 23.2663C39.7999 25.5157 39.0563 28.6832 36.7977 30.3267C35.4113 31.3366 33.8229 31.8049 32.1427 31.9518C29.9668 32.1446 27.8 32.0987 25.7067 31.3458C24.0816 30.7582 22.8146 29.7942 22.4381 27.9947C22.1168 26.4522 22.4473 25.0475 23.4113 23.808C23.6684 23.4683 23.9806 23.1653 24.3203 22.7889C24.1275 22.6052 23.8796 22.44 23.7051 22.2196C22.6585 20.8608 22.7595 19.401 23.4113 17.932C23.6133 17.4821 23.953 17.0873 24.1918 16.6466C24.2652 16.5089 24.2836 16.261 24.2101 16.1416C21.7128 12.0468 24.3111 6.76754 29.0946 6.20748C30.334 6.06058 31.5551 6.17993 32.7854 6.36356C33.777 6.50128 34.7961 6.45537 35.8061 6.46456C36.5406 6.47374 37.2751 6.46456 38.0096 6.46456C38.6156 6.46456 39.0562 6.73081 39.1481 7.30923C39.2399 7.9152 39.2491 8.55789 39.1572 9.16385C39.0654 9.779 38.5972 10.0544 37.9545 10.0636C37.6332 10.0912 37.2934 10.0912 36.8711 10.0912ZM30.3708 24.1293C30.3708 24.1202 30.3708 24.1018 30.3708 24.0926C29.7005 24.0926 29.0303 24.0926 28.3601 24.0926C28.2315 24.0926 28.0479 24.0926 27.9836 24.1661C27.5154 24.7169 26.9461 25.2311 26.6432 25.8646C26.1565 26.847 26.5513 27.6458 27.5613 28.0956C27.8 28.1966 28.0479 28.2884 28.2958 28.3435C29.673 28.6557 31.0594 28.7108 32.4274 28.3986C33.0609 28.2517 33.6944 27.9396 34.2269 27.5631C34.8788 27.1041 35.0348 26.3604 34.8971 25.5892C34.7686 24.873 34.181 24.6159 33.5658 24.414C33.4098 24.3589 33.2445 24.3221 33.0792 24.3038C32.1703 24.2395 31.2705 24.1844 30.3708 24.1293ZM33.3547 12.6436C33.3363 10.8624 32.4733 9.8249 30.8665 9.64128C29.0854 9.43929 27.8551 10.2105 27.4878 11.7897C27.2399 12.8639 27.2399 13.9473 28.0203 14.8287C28.9568 15.8845 30.1963 15.9305 31.445 15.5999C32.6936 15.2694 33.373 14.1493 33.3547 12.6436Z" fill="black"/>
<path d="M19.6195 25.3136C19.2798 25.3136 18.9492 25.332 18.6095 25.3136C17.9301 25.2677 17.4894 24.928 17.2599 24.267C16.6998 22.6327 16.103 21.0168 15.5522 19.3825C15.4328 19.0245 15.2675 18.9235 14.9003 18.9326C12.1459 18.951 9.39152 18.951 6.63714 18.9326C6.29743 18.9326 6.15971 19.0428 6.05872 19.355C5.51702 20.9801 4.94778 22.596 4.41527 24.2211C4.21328 24.8362 3.81848 25.2402 3.18498 25.2861C2.46884 25.3412 1.74352 25.3687 1.03656 25.2953C0.191879 25.2035 -0.166193 24.6434 0.0725206 23.8171C0.302053 22.9999 0.614215 22.192 0.908016 21.3932C3.30433 14.7368 5.70983 8.08954 8.11532 1.43311C8.51012 0.331354 8.87737 0.0467341 10.0709 0.010009C10.6861 -0.00835359 11.292 0.000828253 11.9072 0.0191908C12.807 0.0467347 13.3854 0.44153 13.7067 1.35048C16.002 7.78656 18.3249 14.2043 20.6478 20.6312C20.9691 21.5218 21.2996 22.4123 21.621 23.3029C21.7036 23.5325 21.7679 23.7712 21.8138 24.0099C21.9332 24.6801 21.6302 25.13 20.9599 25.2953C20.8681 25.3136 20.7763 25.3412 20.6937 25.3412C20.3172 25.3228 19.9684 25.3136 19.6195 25.3136ZM7.39918 15.205C9.66696 15.205 11.8705 15.205 14.1382 15.205C13.0181 12.0099 11.9072 8.85159 10.7504 5.56469C9.60269 8.86077 8.51012 12.0099 7.39918 15.205Z" fill="black"/>
<path d="M3.7083 45.9439C2.52392 45.9163 1.62415 45.7143 0.797836 45.2369C0.210234 44.8972 -0.0192984 44.0892 0.265321 43.4741C0.430585 43.1252 0.696842 43.0609 1.02737 43.2262C1.36708 43.3915 1.6976 43.6026 2.03731 43.7587C2.68918 44.0617 3.37778 44.1535 4.09392 44.0617C4.81006 43.9699 5.36094 43.5108 5.48947 42.914C5.64556 42.2071 5.45275 41.7021 4.77333 41.2798C4.26836 40.9676 3.69912 40.7656 3.19415 40.4626C2.50556 40.0403 1.73433 39.6731 1.22018 39.0946C-0.32228 37.3502 0.531579 34.6325 2.77181 33.999C4.02965 33.641 5.25076 33.7603 6.41678 34.3663C6.9952 34.6693 7.2431 35.6608 6.89421 36.2025C6.7014 36.4963 6.44433 36.4596 6.16889 36.3311C5.80164 36.1566 5.44357 35.8995 5.04877 35.8077C4.55298 35.6976 4.02965 35.67 3.52468 35.7159C3.05643 35.7526 2.71673 36.0832 2.59737 36.5606C2.47801 37.0564 2.55146 37.543 2.9738 37.846C3.43286 38.1857 3.9562 38.4611 4.46117 38.7366C4.92023 38.9845 5.40684 39.1773 5.84754 39.4343C7.29819 40.2698 7.85824 41.4359 7.61035 43.0334C7.39918 44.3739 6.32497 45.4756 4.87433 45.797C4.42444 45.8888 3.94702 45.9163 3.7083 45.9439Z" fill="black"/>
<path d="M26.689 41.941C26.7166 43.4743 27.4327 44.2455 28.8925 44.1996C29.5811 44.1812 30.2697 43.9701 30.94 43.7681C31.5368 43.5936 31.7846 43.5753 31.9407 43.9058C32.1703 44.3924 32.0142 45.1545 31.5827 45.3289C31.0226 45.5584 30.435 45.7512 29.8382 45.8522C28.7548 46.0359 27.6714 46.0083 26.6523 45.5125C25.3118 44.8607 24.7885 43.6763 24.6324 42.2899C24.5039 41.1422 24.5773 39.9946 25.0823 38.9204C26.129 36.7169 29.2598 36.0283 31.1052 37.6166C32.2529 38.599 32.4365 39.9395 32.2896 41.3442C32.2437 41.8125 31.8306 41.9502 31.3899 41.9502C29.9208 41.9502 28.4518 41.9502 26.9828 41.9502C26.9094 41.941 26.8176 41.941 26.689 41.941ZM30.2881 40.2792C30.2973 39.1407 29.6546 38.4613 28.5804 38.4521C27.5521 38.4429 26.7441 39.2325 26.7349 40.2792C27.9101 40.2792 29.0853 40.2792 30.2881 40.2792Z" fill="black"/>
<path d="M20.2713 43.0979C20.7763 41.6197 21.2262 40.2793 21.6852 38.9388C21.8505 38.443 22.0341 37.9564 22.181 37.4606C22.282 37.1209 22.5024 36.9465 22.8421 36.9189C23.8704 36.8455 24.5773 36.8363 24.0265 38.2961C23.1726 40.5364 22.3922 42.8041 21.5842 45.0627C21.3547 45.6962 21.2262 45.788 20.5468 45.8156C20.5284 45.8156 20.5192 45.8156 20.5009 45.8156C19.2155 45.8523 19.1604 45.8248 18.7197 44.6037C17.9209 42.4093 17.1313 40.2058 16.3509 38.0023C16.0571 37.176 16.2591 36.9006 17.1313 36.8914C18.0954 36.8822 18.1596 36.9281 18.4718 37.8462C19.0502 39.554 19.6378 41.2617 20.2713 43.0979Z" fill="black"/>
<path d="M15.1573 39.4529C15.1573 41.3075 15.1573 43.153 15.1573 45.0076C15.1573 45.6319 15.0013 45.7788 14.3769 45.8063C14.2392 45.8155 14.1015 45.8155 13.9638 45.8063C13.3027 45.7788 13.165 45.6227 13.165 44.9709C13.165 41.2983 13.165 37.6258 13.165 33.9533C13.165 33.2923 13.3211 33.1362 13.9638 33.1086C14.129 33.0995 14.3035 33.0994 14.4687 33.1178C15.0104 33.1545 15.1665 33.3198 15.1665 33.8615C15.1573 35.7253 15.1573 37.5891 15.1573 39.4529Z" fill="black"/>
<path d="M10.9908 41.4964C10.9908 42.8096 10.9908 44.1163 10.9908 45.4295C10.9908 45.8716 10.8349 45.9756 10.211 45.9951C10.0734 46.0016 9.93578 46.0016 9.79817 45.9951C9.13762 45.9756 9 45.8651 9 45.4035C9 42.8031 9 40.2028 9 37.6024C9 37.1343 9.15596 37.0238 9.79817 37.0043C9.9633 36.9978 10.1376 36.9978 10.3028 37.0108C10.844 37.0368 11 37.1538 11 37.5374C10.9908 38.8571 10.9908 40.1767 10.9908 41.4964Z" fill="black"/>
<path d="M35.9162 37.6715C36.6599 36.7993 37.5413 36.6065 38.5605 36.9003C38.9369 37.0105 39.1205 37.2492 39.1113 37.6348C39.1021 37.8919 39.1205 38.1582 39.093 38.4152C39.0379 38.8376 38.7716 39.0212 38.3768 38.8743C37.7433 38.6356 37.1741 38.6264 36.7242 39.1956C36.3661 39.6547 35.9346 40.0587 35.9621 40.7473C36.008 42.1704 35.9805 43.5935 35.9713 45.0166C35.9713 45.6134 35.8152 45.7786 35.2276 45.8153C35.0624 45.8245 34.8879 45.8245 34.7227 45.8153C34.1351 45.7878 33.9698 45.6134 33.9698 45.0258C33.9698 42.6386 33.9698 40.2515 33.9698 37.8644C33.9698 37.1482 34.0708 36.9921 34.5574 36.9187C35.3929 36.7901 35.7142 36.9646 35.9162 37.6715Z" fill="black"/>
</svg>
