<svg width="27" height="27" viewBox="0 0 27 27" fill="none" xmlns="http://www.w3.org/2000/svg">
<path d="M8.57108 13.5819C9.6102 15.7063 11.3322 17.4205 13.4613 18.4499C13.6171 18.5237 13.7894 18.5557 13.9613 18.5427C14.1332 18.5297 14.2988 18.4721 14.4416 18.3757L17.5766 16.2853C17.7153 16.1928 17.8748 16.1364 18.0407 16.1212C18.2067 16.1059 18.3738 16.1323 18.527 16.198L24.3919 18.7115C24.5912 18.7961 24.7575 18.9432 24.8659 19.1306C24.9742 19.318 25.0188 19.5355 24.9928 19.7504C24.8074 21.201 24.0996 22.5342 23.002 23.5005C21.9045 24.4668 20.4923 24.9999 19.0299 25C14.5133 25 10.1817 23.2058 6.98795 20.0121C3.79422 16.8183 2 12.4867 2 7.97008C2.00008 6.50773 2.53318 5.09555 3.49949 3.99795C4.46579 2.90035 5.79904 2.19261 7.2496 2.00723C7.46449 1.98123 7.68202 2.02576 7.8694 2.13413C8.05678 2.2425 8.20387 2.40883 8.28851 2.60807L10.8042 8.47811C10.8693 8.62995 10.8958 8.79552 10.8814 8.96008C10.867 9.12464 10.8121 9.28308 10.7217 9.4213L8.63847 12.6044C8.54366 12.7475 8.48761 12.9129 8.47579 13.0842C8.46398 13.2555 8.49681 13.427 8.57108 13.5819Z" stroke="white" stroke-width="3" stroke-linecap="round" stroke-linejoin="round"/>
</svg>
