<svg width="69" height="68" viewBox="0 0 69 68" fill="none" xmlns="http://www.w3.org/2000/svg">
<circle cx="32" cy="32" r="25" fill="black"/>
<path fill-rule="evenodd" clip-rule="evenodd" d="M38.4257 37.7079C41.3997 33.8885 41.1311 28.3627 37.6199 24.8515C33.8179 21.0495 27.6536 21.0495 23.8515 24.8515C20.0495 28.6536 20.0495 34.8179 23.8515 38.6199C27.3627 42.1311 32.8885 42.3997 36.7079 39.4257C36.7244 39.4444 36.7416 39.4626 36.7594 39.4804L41.9225 44.6436C42.3978 45.1188 43.1683 45.1188 43.6436 44.6436C44.1188 44.1683 44.1188 43.3978 43.6436 42.9225L38.4804 37.7594C38.4626 37.7416 38.4444 37.7244 38.4257 37.7079ZM35.8989 26.5726C38.7504 29.4241 38.7504 34.0473 35.8989 36.8989C33.0473 39.7504 28.4241 39.7504 25.5726 36.8989C22.721 34.0473 22.721 29.4241 25.5726 26.5726C28.4241 23.721 33.0473 23.721 35.8989 26.5726Z" fill="white"/>
<path d="M31.4465 32C31.4465 32.4909 31.0227 32.8889 30.5 32.8889C29.9773 32.8889 29.5535 32.4909 29.5535 32C29.5535 31.5091 29.9773 31.1111 30.5 31.1111C31.0227 31.1111 31.4465 31.5091 31.4465 32Z" fill="white"/>
<path fill-rule="evenodd" clip-rule="evenodd" d="M30.5 28C27.8539 28 25.6304 29.6997 25 32C25.6304 34.3003 27.8539 36 30.5 36C33.1461 36 35.3696 34.3003 36 32C35.3696 29.6997 33.1461 28 30.5 28ZM32.393 32C32.393 32.9818 31.5455 33.7778 30.5 33.7778C29.4545 33.7778 28.607 32.9818 28.607 32C28.607 31.0182 29.4545 30.2222 30.5 30.2222C31.5455 30.2222 32.393 31.0182 32.393 32Z" fill="white"/>
</svg>
