<svg width="20" height="20" viewBox="0 0 20 20" fill="none" xmlns="http://www.w3.org/2000/svg">
<path fill-rule="evenodd" clip-rule="evenodd" d="M0 10C0 4.47715 4.47715 0 10 0C15.5228 0 20 4.47715 20 10C20 15.5228 15.5228 20 10 20C7.98184 20 6.10332 19.4022 4.53186 18.3739C4.04605 17.9682 2.49342 17.6124 0.35261 19.7484L0.336166 19.7649L0.285685 19.7143L0.235151 19.6638L0.251616 19.6474C2.38755 17.5066 2.03185 15.954 1.62609 15.4681C0.597842 13.8967 0 12.0182 0 10ZM10 17.8573C14.3394 17.8573 17.8571 14.3395 17.8571 10.0001C17.8571 5.66073 14.3394 2.14297 10 2.14297C5.66062 2.14297 2.14286 5.66073 2.14286 10.0001C2.14286 14.3395 5.66062 17.8573 10 17.8573Z" fill="#11D553"/>
<path d="M12.312 15.2859C11.9707 15.2859 11.6324 15.2256 11.3015 15.1054C9.84391 14.5759 8.49094 13.7135 7.38882 12.6114C6.28671 11.5093 5.4243 10.1563 4.89482 8.69871C4.72467 8.23028 4.67446 7.74674 4.74563 7.26147C4.81229 6.80692 4.98837 6.36564 5.25483 5.98533C5.52247 5.60335 5.87929 5.28564 6.28669 5.06656C6.72113 4.83295 7.19532 4.71448 7.69613 4.71448C7.85188 4.71448 7.9865 4.82331 8.01914 4.97559L8.53766 7.39534C8.56113 7.50491 8.52746 7.61892 8.44824 7.69816L7.56223 8.58414C8.39805 10.2459 9.75428 11.6021 11.416 12.4379L12.302 11.5519C12.3813 11.4727 12.4953 11.4391 12.6048 11.4625L15.0246 11.981C15.1769 12.0137 15.2857 12.1483 15.2857 12.304C15.2857 12.8048 15.1673 13.279 14.9336 13.7135C14.7145 14.1209 14.3968 14.4777 14.0148 14.7453C13.6346 15.0118 13.1933 15.1879 12.7387 15.2545C12.5963 15.2755 12.4538 15.2859 12.312 15.2859Z" fill="#11D553"/>
</svg>
