<svg width="50" height="50" viewBox="0 0 50 50" fill="none" xmlns="http://www.w3.org/2000/svg">
<circle cx="25" cy="25" r="25" fill="black"/>
<path d="M24.5 21C22.0973 21 20.15 23.0154 20.15 25.5C20.15 27.9855 22.0973 30 24.5 30C26.9021 30 28.85 27.9855 28.85 25.5C28.85 23.0154 26.9021 21 24.5 21ZM36.1 16.5H32.62C32.1415 16.5 31.6259 16.116 31.4748 15.6462L30.5752 12.8535C30.4235 12.384 29.9085 12 29.43 12H19.57C19.0915 12 18.5759 12.384 18.4248 12.8538L17.5252 15.6465C17.3735 16.116 16.8585 16.5 16.38 16.5H12.9C11.305 16.5 10 17.85 10 19.5V33C10 34.65 11.305 36 12.9 36H36.1C37.695 36 39 34.65 39 33V19.5C39 17.85 37.695 16.5 36.1 16.5ZM24.5 33C20.496 33 17.25 29.6421 17.25 25.5C17.25 21.3582 20.496 18 24.5 18C28.5034 18 31.75 21.3582 31.75 25.5C31.75 29.6421 28.5034 33 24.5 33ZM35.085 21.5979C34.5247 21.5979 34.07 21.1281 34.07 20.5479C34.07 19.9683 34.5247 19.4979 35.085 19.4979C35.6459 19.4979 36.1 19.9683 36.1 20.5479C36.1 21.1281 35.6456 21.5979 35.085 21.5979Z" fill="white"/>
</svg>
