<svg width="20" height="23" viewBox="0 0 20 23" fill="none" xmlns="http://www.w3.org/2000/svg">
<path d="M1.21616 12.8929C0.518853 12.0914 0.518854 10.8985 1.21616 10.097V10.097C2.06411 9.12226 3.57756 9.12081 4.42738 10.0939L8 14.1847L8 2C8 0.89543 8.89543 1.52217e-07 10 1.37076e-07V1.37076e-07C11.1046 1.21935e-07 12 0.895431 12 2L12 14.1847L15.5726 10.0939C16.4224 9.12081 17.9359 9.12226 18.7838 10.097V10.097C19.4811 10.8985 19.4811 12.0914 18.7838 12.8929L10.7545 22.1226C10.3558 22.5808 9.64416 22.5808 9.24554 22.1226L1.21616 12.8929Z" fill="#EEEEEE"/>
</svg>
