<svg width="50" height="50" viewBox="0 0 50 50" fill="none" xmlns="http://www.w3.org/2000/svg">
<circle cx="25" cy="25" r="25" fill="black"/>
<path d="M26.4561 26.8981C28.9617 26.8981 31 24.6779 31 21.9491C31 19.2202 28.9616 17 26.4561 17H21.8919C21.1829 17 20.6082 17.626 20.6082 18.3982V24.1018H19.2837C18.5747 24.1018 18 24.7278 18 25.5C18 26.2722 18.5747 26.8982 19.2837 26.8982H20.6082V28.3629H19.2837C18.5747 28.3629 18 28.9889 18 29.7611C18 30.5333 18.5747 31.1593 19.2837 31.1593H20.6082V32.6018C20.6082 33.374 21.1829 34 21.8919 34C22.6008 34 23.1756 33.374 23.1756 32.6018V31.1593H25.8041C26.5131 31.1593 27.0878 30.5333 27.0878 29.7611C27.0878 28.9889 26.5131 28.3629 25.8041 28.3629H23.1756V26.8982H26.4561V26.8981ZM28.4326 21.949C28.4326 23.136 27.5459 24.1017 26.4561 24.1017H23.1756V19.7962H26.4561C27.5459 19.7963 28.4326 20.762 28.4326 21.949Z" fill="white"/>
<path fill-rule="evenodd" clip-rule="evenodd" d="M24.5 37.9437C31.3724 37.9437 36.9437 32.3724 36.9437 25.5C36.9437 18.6276 31.3724 13.0563 24.5 13.0563C17.6276 13.0563 12.0563 18.6276 12.0563 25.5C12.0563 32.3724 17.6276 37.9437 24.5 37.9437ZM24.5 41C33.0604 41 40 34.0604 40 25.5C40 16.9396 33.0604 10 24.5 10C15.9396 10 9 16.9396 9 25.5C9 34.0604 15.9396 41 24.5 41Z" fill="white"/>
</svg>
