<svg width="161" height="54" viewBox="0 0 161 54" fill="none" xmlns="http://www.w3.org/2000/svg">
<path d="M132.164 53.1101H23.667C10.617 53.1101 0 42.4941 0 29.4441C0 16.3941 10.617 5.7771 23.667 5.7771H132.165C136.394 5.7771 139.834 9.2171 139.834 13.4471V45.4411C139.833 49.6701 136.393 53.1101 132.164 53.1101ZM23.667 9.7771C12.822 9.7771 4 18.6001 4 29.4441C4 40.2881 12.822 49.1101 23.667 49.1101H132.165C134.188 49.1101 135.834 47.4641 135.834 45.4411V13.4471C135.834 11.4241 134.188 9.7771 132.165 9.7771H23.667Z" fill="white"/>
<path d="M15 31.6941C16.2426 31.6941 17.25 30.6867 17.25 29.4441C17.25 28.2015 16.2426 27.1941 15 27.1941C13.7574 27.1941 12.75 28.2015 12.75 29.4441C12.75 30.6867 13.7574 31.6941 15 31.6941Z" fill="white"/>
<path d="M127.999 31.6941C129.242 31.6941 130.249 30.6867 130.249 29.4441C130.249 28.2015 129.242 27.1941 127.999 27.1941C126.756 27.1941 125.749 28.2015 125.749 29.4441C125.749 30.6867 126.756 31.6941 127.999 31.6941Z" fill="white"/>
<path d="M158 20.7771H139.834C138.73 20.7771 137.834 19.8811 137.834 18.7771C137.834 17.6731 138.73 16.7771 139.834 16.7771H158C159.104 16.7771 160 17.6731 160 18.7771C160 19.8811 159.104 20.7771 158 20.7771Z" fill="white"/>
<path d="M153.997 31.4441H139.834C138.73 31.4441 137.834 30.5481 137.834 29.4441C137.834 28.3401 138.73 27.4441 139.834 27.4441H153.997C155.101 27.4441 155.997 28.3401 155.997 29.4441C155.997 30.5481 155.102 31.4441 153.997 31.4441Z" fill="white"/>
<path d="M158 41.7771H139.834C138.73 41.7771 137.834 40.8811 137.834 39.7771C137.834 38.6731 138.73 37.7771 139.834 37.7771H158C159.104 37.7771 160 38.6731 160 39.7771C160 40.8811 159.104 41.7771 158 41.7771Z" fill="white"/>
<path d="M32.775 17.397V25.364H31.316V18.635H27.91V25.364H26.451V17.397H32.775Z" fill="white"/>
<path d="M32.825 25.414H31.266V18.685H27.96V25.414H26.401V17.348H32.825V25.414ZM31.366 25.314H32.725V17.447H26.501V25.314H27.86V18.585H31.366V25.314Z" fill="white"/>
<path d="M42.576 21.381C42.576 21.988 42.49 22.545 42.317 23.051C42.144 23.557 41.892 23.993 41.561 24.359C41.23 24.725 40.823 25.007 40.34 25.21C39.858 25.413 39.309 25.514 38.694 25.514C38.079 25.514 37.53 25.413 37.048 25.21C36.566 25.008 36.159 24.725 35.828 24.359C35.496 23.994 35.244 23.557 35.072 23.051C34.9 22.545 34.813 21.988 34.813 21.381C34.813 20.774 34.899 20.217 35.072 19.71C35.245 19.204 35.497 18.769 35.828 18.403C36.159 18.038 36.566 17.754 37.048 17.551C37.53 17.349 38.079 17.247 38.694 17.247C39.309 17.247 39.858 17.349 40.34 17.551C40.822 17.753 41.229 18.037 41.561 18.403C41.893 18.769 42.144 19.204 42.317 19.71C42.49 20.217 42.576 20.773 42.576 21.381ZM41.07 21.381C41.07 20.897 41.01 20.473 40.891 20.11C40.772 19.747 40.607 19.444 40.397 19.202C40.187 18.96 39.936 18.779 39.647 18.66C39.357 18.541 39.04 18.481 38.694 18.481C38.349 18.481 38.031 18.541 37.741 18.66C37.451 18.779 37.201 18.96 36.991 19.202C36.781 19.444 36.616 19.747 36.497 20.11C36.378 20.473 36.319 20.897 36.319 21.381C36.319 21.865 36.379 22.289 36.497 22.652C36.616 23.015 36.781 23.317 36.991 23.556C37.201 23.796 37.451 23.977 37.741 24.098C38.031 24.219 38.348 24.28 38.694 24.28C39.039 24.28 39.357 24.219 39.647 24.098C39.937 23.977 40.187 23.796 40.397 23.556C40.607 23.317 40.772 23.015 40.891 22.652C41.01 22.289 41.07 21.865 41.07 21.381Z" fill="white"/>
<path d="M38.694 25.563C38.073 25.563 37.513 25.459 37.028 25.255C36.54 25.051 36.124 24.761 35.79 24.392C35.456 24.024 35.198 23.579 35.023 23.068C34.849 22.558 34.761 21.992 34.761 21.381C34.761 20.772 34.849 20.204 35.023 19.693C35.197 19.183 35.455 18.738 35.79 18.37C36.125 18 36.542 17.71 37.028 17.506C37.515 17.302 38.076 17.198 38.694 17.198C39.312 17.198 39.873 17.302 40.36 17.506C40.846 17.709 41.263 18 41.599 18.37C41.933 18.738 42.191 19.183 42.366 19.693C42.54 20.204 42.628 20.771 42.628 21.381C42.628 21.991 42.54 22.558 42.366 23.068C42.191 23.579 41.933 24.025 41.599 24.392C41.264 24.761 40.848 25.051 40.36 25.255C39.875 25.459 39.314 25.563 38.694 25.563ZM38.694 17.298C38.089 17.298 37.542 17.399 37.067 17.598C36.594 17.796 36.19 18.078 35.864 18.437C35.538 18.796 35.287 19.23 35.118 19.727C34.948 20.226 34.862 20.783 34.862 21.381C34.862 21.979 34.948 22.536 35.118 23.034C35.288 23.532 35.539 23.967 35.864 24.325C36.188 24.682 36.593 24.964 37.067 25.163C37.54 25.362 38.087 25.463 38.694 25.463C39.301 25.463 39.849 25.362 40.321 25.163C40.795 24.965 41.199 24.683 41.524 24.325C41.849 23.967 42.1 23.533 42.27 23.034C42.44 22.536 42.526 21.979 42.526 21.381C42.526 20.783 42.44 20.226 42.27 19.727C42.1 19.229 41.849 18.795 41.524 18.437C41.199 18.079 40.794 17.796 40.321 17.598C39.846 17.398 39.299 17.298 38.694 17.298ZM38.694 24.33C38.344 24.33 38.017 24.267 37.722 24.144C37.426 24.021 37.168 23.833 36.953 23.589C36.739 23.346 36.57 23.035 36.449 22.667C36.329 22.3 36.268 21.867 36.268 21.38C36.268 20.893 36.329 20.46 36.449 20.093C36.57 19.725 36.739 19.413 36.953 19.167C37.167 18.921 37.426 18.733 37.722 18.612C38.016 18.491 38.343 18.429 38.694 18.429C39.045 18.429 39.371 18.491 39.666 18.612C39.962 18.733 40.22 18.921 40.435 19.167C40.649 19.413 40.818 19.725 40.939 20.093C41.059 20.459 41.12 20.893 41.12 21.38C41.12 21.867 41.059 22.301 40.939 22.667C40.818 23.036 40.648 23.346 40.435 23.589C40.221 23.833 39.962 24.021 39.666 24.144C39.371 24.268 39.044 24.33 38.694 24.33ZM38.694 18.53C38.357 18.53 38.043 18.589 37.76 18.705C37.479 18.821 37.232 18.999 37.029 19.234C36.824 19.469 36.661 19.769 36.544 20.125C36.427 20.481 36.368 20.904 36.368 21.381C36.368 21.858 36.427 22.28 36.544 22.637C36.66 22.992 36.824 23.291 37.028 23.524C37.232 23.757 37.478 23.935 37.76 24.053C38.042 24.171 38.356 24.231 38.693 24.231C39.03 24.231 39.344 24.171 39.627 24.053C39.908 23.935 40.155 23.757 40.359 23.524C40.564 23.292 40.726 22.993 40.843 22.637C40.96 22.281 41.019 21.858 41.019 21.381C41.019 20.904 40.96 20.482 40.843 20.125C40.727 19.77 40.563 19.47 40.359 19.234C40.155 18.999 39.909 18.821 39.628 18.705C39.345 18.589 39.031 18.53 38.694 18.53Z" fill="white"/>
<path d="M44.612 25.364V17.397H46.071V21.023H46.095L49.102 17.397H50.912L47.589 21.344L51.186 25.364H49.316L46.095 21.767H46.071V25.364H44.612Z" fill="white"/>
<path d="M51.298 25.414H49.294L49.279 25.397L46.121 21.872V25.414H44.562V17.348H46.121V20.914L49.079 17.348H51.02L47.656 21.344L51.298 25.414ZM49.339 25.314H51.074L47.523 21.345L47.551 21.312L50.805 17.447H49.126L46.119 21.073H46.022V17.447H44.663V25.314H46.022V21.717H46.118L49.339 25.314Z" fill="white"/>
<path d="M56.372 23.494C56.193 23.868 56.007 24.183 55.812 24.441C55.618 24.699 55.406 24.908 55.178 25.066C54.95 25.225 54.699 25.339 54.428 25.409C54.156 25.478 53.851 25.513 53.514 25.513C53.383 25.513 53.238 25.506 53.079 25.492C52.92 25.478 52.771 25.455 52.632 25.424V24.18C52.783 24.215 52.928 24.242 53.067 24.257C53.206 24.273 53.333 24.28 53.448 24.28C53.63 24.28 53.795 24.26 53.942 24.22C54.089 24.181 54.226 24.112 54.353 24.012C54.48 23.912 54.602 23.778 54.719 23.607C54.836 23.437 54.954 23.218 55.073 22.953L51.971 17.397H53.591L55.83 21.475L57.705 17.397H59.289L56.372 23.494Z" fill="white"/>
<path d="M53.514 25.563C53.382 25.563 53.234 25.556 53.075 25.542C52.919 25.528 52.767 25.505 52.622 25.473L52.583 25.464V24.116L52.644 24.131C52.8 24.167 52.94 24.193 53.073 24.207C53.425 24.248 53.699 24.235 53.929 24.173C54.069 24.135 54.201 24.069 54.322 23.974C54.445 23.877 54.564 23.745 54.678 23.579C54.789 23.418 54.903 23.208 55.018 22.955L51.886 17.348H53.62L53.634 17.373L55.825 21.364L57.672 17.347H59.367L56.415 23.515C56.236 23.89 56.046 24.211 55.85 24.471C55.652 24.733 55.435 24.947 55.205 25.107C54.973 25.269 54.715 25.386 54.439 25.458C54.167 25.527 53.855 25.563 53.514 25.563ZM52.682 25.384C52.811 25.411 52.945 25.431 53.083 25.443C53.239 25.457 53.384 25.464 53.513 25.464C53.846 25.464 54.149 25.43 54.415 25.361C54.68 25.294 54.927 25.181 55.149 25.026C55.371 24.872 55.58 24.666 55.772 24.412C55.964 24.158 56.151 23.842 56.327 23.474L59.211 17.449H57.738L55.834 21.589L53.562 17.449H52.057L55.13 22.952L55.12 22.975C54.999 23.244 54.879 23.466 54.761 23.637C54.642 23.811 54.515 23.95 54.384 24.053C54.252 24.157 54.108 24.23 53.955 24.27C53.713 24.335 53.426 24.348 53.061 24.308C52.942 24.294 52.817 24.274 52.682 24.244V25.384Z" fill="white"/>
<path d="M67.173 17.397V25.364H65.714V18.635H62.308V25.364H60.849V17.397H67.173Z" fill="white"/>
<path d="M67.223 25.414H65.664V18.685H62.358V25.414H60.799V17.348H67.223V25.414V25.414ZM65.764 25.314H67.123V17.447H60.899V25.314H62.258V18.585H65.764V25.314V25.314Z" fill="white"/>
<path d="M74.127 23.334H71.127L70.347 25.364H68.793L71.955 17.397H73.289L76.451 25.364H74.909L74.127 23.334ZM72.615 19.314C72.336 20.147 72.088 20.844 71.87 21.404L71.598 22.113H73.657L73.385 21.404C73.169 20.84 72.921 20.142 72.64 19.314H72.615Z" fill="white"/>
<path d="M76.523 25.414H74.873L74.861 25.382L74.093 23.384H71.161L70.381 25.414H68.719L68.746 25.346L71.92 17.348H73.322L73.334 17.379L76.523 25.414ZM74.942 25.314H76.376L73.254 17.447H71.988L68.866 25.314H70.312L71.092 23.284H74.161L74.173 23.316L74.942 25.314ZM73.729 22.163H71.524L71.823 21.387C72.039 20.832 72.29 20.13 72.568 19.299L72.579 19.265H72.675L72.686 19.299C72.969 20.132 73.219 20.834 73.431 21.387L73.729 22.163ZM71.67 22.063H73.584L73.338 21.421C73.132 20.883 72.899 20.233 72.628 19.435C72.364 20.222 72.125 20.89 71.917 21.422L71.67 22.063Z" fill="white"/>
<path d="M79.528 24.144H83.446V25.365H78.069V17.398H83.232V18.619H79.528V20.679H82.708V21.9H79.528V24.144V24.144Z" fill="white"/>
<path d="M83.496 25.414H78.019V17.348H83.282V18.668H79.578V20.628H82.758V21.948H79.578V24.094H83.496V25.414V25.414ZM78.119 25.314H83.396V24.193H79.478V21.848H82.658V20.727H79.478V18.568H83.182V17.447H78.119V25.314V25.314Z" fill="white"/>
<path d="M89.579 23.227C89.754 22.6 89.97 21.927 90.228 21.208L91.603 17.397H93.652V25.364H92.193V21.327C92.193 20.735 92.217 20.049 92.265 19.266H92.211C92.143 19.493 92.064 19.746 91.973 20.029C91.881 20.31 91.786 20.589 91.687 20.862L90.038 25.364H89.097L87.448 20.862C87.349 20.589 87.253 20.31 87.162 20.029C87.071 19.747 86.991 19.493 86.924 19.266H86.87C86.918 20 86.942 20.685 86.942 21.321V25.364H85.483V17.397H87.52L88.895 21.19C89.125 21.821 89.342 22.5 89.544 23.226H89.579V23.227Z" fill="white"/>
<path d="M93.702 25.414H92.143V21.327C92.143 20.79 92.163 20.165 92.203 19.466C92.149 19.642 92.089 19.833 92.021 20.045C91.927 20.334 91.831 20.614 91.735 20.879L90.073 25.414H89.062L89.05 25.382L87.4 20.88C87.304 20.614 87.207 20.334 87.113 20.045C87.045 19.834 86.985 19.645 86.932 19.47C86.971 20.127 86.991 20.749 86.991 21.322V25.415H85.432V17.349H87.554L87.566 17.382L88.941 21.175C89.159 21.773 89.368 22.422 89.561 23.107C89.73 22.511 89.938 21.869 90.181 21.193L91.568 17.349H93.702V25.414V25.414ZM92.243 25.314H93.602V17.447H91.639L90.275 21.224C90.018 21.939 89.801 22.617 89.627 23.24L89.617 23.276H89.505L89.495 23.24C89.294 22.518 89.076 21.834 88.847 21.208L87.483 17.447H85.532V25.314H86.891V21.321C86.891 20.691 86.867 20.001 86.82 19.269L86.816 19.216H86.961L86.971 19.251C87.038 19.476 87.116 19.725 87.209 20.013C87.302 20.301 87.398 20.58 87.494 20.845L89.131 25.314H90.002L91.639 20.844C91.734 20.58 91.831 20.301 91.924 20.013C92.017 19.725 92.095 19.476 92.162 19.251L92.172 19.216H92.316L92.313 19.269C92.266 20.048 92.242 20.74 92.242 21.327V25.314H92.243Z" fill="white"/>
<path d="M28.655 36.913C28.524 36.913 28.395 36.911 28.268 36.907C28.141 36.903 28.022 36.895 27.911 36.884V39.998H26.452V32.031H28.751C29.136 32.031 29.472 32.048 29.76 32.081C30.048 32.115 30.305 32.166 30.531 32.233C31.075 32.4 31.493 32.666 31.787 33.031C32.081 33.396 32.228 33.861 32.228 34.425C32.228 34.81 32.148 35.156 31.99 35.464C31.832 35.772 31.599 36.032 31.293 36.247C30.987 36.461 30.614 36.626 30.173 36.741C29.732 36.856 29.226 36.913 28.655 36.913ZM27.91 35.657C27.993 35.669 28.099 35.678 28.229 35.683C28.358 35.689 28.492 35.692 28.631 35.692C29.024 35.692 29.353 35.661 29.62 35.597C29.886 35.534 30.1 35.445 30.263 35.332C30.426 35.219 30.543 35.082 30.614 34.921C30.685 34.76 30.721 34.584 30.721 34.394C30.721 34.16 30.668 33.957 30.56 33.787C30.453 33.617 30.266 33.483 30 33.389C29.861 33.341 29.689 33.306 29.485 33.285C29.28 33.264 29.029 33.253 28.732 33.253H27.91V35.657Z" fill="white"/>
<path d="M27.96 40.048H26.401V31.982H28.75C29.135 31.982 29.477 31.999 29.765 32.032C30.055 32.066 30.317 32.118 30.545 32.186C31.097 32.355 31.527 32.629 31.826 33C32.126 33.373 32.278 33.853 32.278 34.425C32.278 34.816 32.196 35.173 32.034 35.487C31.873 35.8 31.633 36.07 31.322 36.289C31.012 36.506 30.63 36.675 30.186 36.791C29.746 36.905 29.231 36.964 28.655 36.964C28.523 36.964 28.394 36.962 28.266 36.958C28.159 36.955 28.056 36.949 27.96 36.939V40.048ZM26.501 39.948H27.86V36.828L27.915 36.834C28.024 36.846 28.143 36.854 28.268 36.857C28.395 36.861 28.523 36.863 28.654 36.863C29.221 36.863 29.728 36.805 30.16 36.692C30.592 36.58 30.963 36.416 31.264 36.206C31.562 35.996 31.791 35.739 31.945 35.441C32.099 35.141 32.178 34.799 32.178 34.424C32.178 33.874 32.033 33.416 31.748 33.062C31.462 32.707 31.048 32.444 30.516 32.281C30.294 32.215 30.037 32.164 29.754 32.131C29.47 32.098 29.132 32.081 28.751 32.081H26.502V39.948H26.501ZM28.631 35.742C28.492 35.742 28.356 35.739 28.227 35.733C28.097 35.727 27.988 35.718 27.904 35.707L27.86 35.7V33.202H28.732C29.03 33.202 29.285 33.213 29.49 33.234C29.696 33.255 29.873 33.292 30.016 33.341C30.291 33.439 30.488 33.579 30.602 33.76C30.714 33.938 30.77 34.152 30.77 34.394C30.77 34.59 30.732 34.775 30.658 34.942C30.583 35.11 30.459 35.255 30.29 35.374C30.121 35.49 29.899 35.582 29.63 35.646C29.364 35.71 29.027 35.742 28.631 35.742ZM27.96 35.613C28.034 35.622 28.125 35.629 28.231 35.634C28.359 35.64 28.493 35.643 28.631 35.643C29.019 35.643 29.348 35.612 29.608 35.549C29.865 35.487 30.076 35.402 30.234 35.292C30.388 35.185 30.501 35.053 30.568 34.901C30.636 34.748 30.671 34.577 30.671 34.394C30.671 34.17 30.619 33.975 30.518 33.813C30.417 33.653 30.237 33.526 29.984 33.435C29.849 33.388 29.679 33.354 29.481 33.333C29.279 33.312 29.027 33.301 28.733 33.301H27.96V35.613Z" fill="white"/>
<path d="M37.872 37.968H34.872L34.092 39.998H32.538L35.7 32.031H37.034L40.196 39.998H38.654L37.872 37.968ZM36.359 33.948C36.08 34.781 35.832 35.478 35.614 36.038L35.342 36.747H37.401L37.129 36.038C36.913 35.474 36.665 34.776 36.384 33.948H36.359V33.948Z" fill="white"/>
<path d="M40.268 40.048H38.618L38.606 40.016L37.838 38.018H34.906L34.126 40.048H32.464L32.491 39.98L35.665 31.982H37.067L37.079 32.013L40.268 40.048ZM38.686 39.948H40.12L36.998 32.081H35.732L32.61 39.948H34.056L34.836 37.918H37.905L37.917 37.95L38.686 39.948ZM37.474 36.797H35.269L35.568 36.021C35.784 35.466 36.035 34.764 36.313 33.933L36.324 33.899H36.42L36.431 33.933C36.714 34.766 36.964 35.468 37.176 36.021L37.474 36.797ZM35.414 36.697H37.328L37.082 36.055C36.876 35.517 36.643 34.867 36.372 34.069C36.107 34.856 35.868 35.524 35.661 36.056L35.414 36.697Z" fill="white"/>
<path d="M41.825 38.777C42.135 38.381 42.422 37.956 42.689 37.503C42.955 37.051 43.194 36.552 43.407 36.006C43.619 35.46 43.803 34.86 43.958 34.207C44.113 33.555 44.234 32.829 44.321 32.031H48.447V38.777H49.394V42.635H47.941V39.997H42.79V42.635H41.337V38.777H41.825ZM45.547 33.252C45.464 33.863 45.36 34.422 45.237 34.928C45.114 35.434 44.968 35.907 44.799 36.345C44.63 36.783 44.438 37.199 44.221 37.593C44.005 37.986 43.765 38.372 43.503 38.754V38.777H46.986V33.252H45.547V33.252Z" fill="white"/>
<path d="M49.444 42.686H47.891V40.048H42.84V42.686H41.287V38.728H41.801C42.102 38.34 42.386 37.919 42.646 37.478C42.91 37.03 43.15 36.529 43.36 35.988C43.571 35.446 43.756 34.842 43.909 34.196C44.063 33.55 44.184 32.819 44.271 32.026L44.276 31.982H48.497V38.728H49.444V42.686V42.686ZM47.991 42.586H49.344V38.827H48.397V32.081H44.365C44.278 32.86 44.157 33.58 44.006 34.219C43.852 34.869 43.666 35.477 43.453 36.025C43.241 36.57 42.998 37.076 42.732 37.529C42.466 37.982 42.174 38.413 41.865 38.809L41.85 38.828H41.387V42.587H42.74V39.949H47.991V42.586ZM47.038 38.827H43.455V38.738L43.464 38.725C43.725 38.344 43.966 37.955 44.179 37.568C44.393 37.178 44.587 36.76 44.754 36.327C44.921 35.892 45.068 35.418 45.19 34.916C45.313 34.411 45.416 33.849 45.499 33.245L45.505 33.202H47.04V38.827H47.038ZM43.583 38.728H46.938V33.302H45.591C45.509 33.893 45.407 34.444 45.286 34.94C45.163 35.446 45.015 35.924 44.846 36.363C44.678 36.801 44.482 37.223 44.265 37.618C44.061 37.988 43.832 38.361 43.583 38.728Z" fill="white"/>
<path d="M56.985 32.031H58.515V39.998H57.056V36.33C57.056 35.874 57.08 35.137 57.128 34.121H57.104C56.83 34.585 56.354 35.302 55.675 36.27L53.079 39.998H51.548V32.031H53.007V35.699C53.007 36.282 52.983 37.016 52.935 37.902H52.959C53.213 37.481 53.681 36.778 54.364 35.794L56.985 32.031Z" fill="white"/>
<path d="M58.566 40.048H57.007V36.33C57.007 35.899 57.029 35.208 57.071 34.273C56.788 34.739 56.332 35.419 55.716 36.298L53.105 40.047H51.498V31.981H53.057V35.699C53.057 36.245 53.036 36.934 52.994 37.751C53.261 37.32 53.708 36.653 54.324 35.766L56.959 31.982H58.565V40.048H58.566ZM57.107 39.948H58.466V32.081H57.012L54.407 35.822C53.729 36.8 53.257 37.509 53.003 37.927L52.989 37.951H52.884L52.887 37.898C52.935 37.016 52.959 36.276 52.959 35.698V32.08H51.6V39.947H53.054L55.635 36.241C56.309 35.279 56.789 34.557 57.062 34.095L57.076 34.071H57.181L57.179 34.123C57.131 35.135 57.107 35.878 57.107 36.33V39.948Z" fill="white"/>
<path d="M68.316 36.015C68.316 36.622 68.23 37.179 68.057 37.685C67.884 38.191 67.632 38.627 67.301 38.993C66.97 39.359 66.563 39.641 66.08 39.844C65.598 40.047 65.049 40.148 64.434 40.148C63.819 40.148 63.27 40.047 62.788 39.844C62.306 39.642 61.899 39.359 61.568 38.993C61.236 38.628 60.984 38.191 60.812 37.685C60.64 37.179 60.553 36.622 60.553 36.015C60.553 35.408 60.639 34.851 60.812 34.344C60.985 33.838 61.237 33.403 61.568 33.037C61.899 32.672 62.306 32.388 62.788 32.185C63.27 31.983 63.819 31.881 64.434 31.881C65.049 31.881 65.598 31.983 66.08 32.185C66.562 32.387 66.969 32.671 67.301 33.037C67.633 33.403 67.884 33.838 68.057 34.344C68.23 34.851 68.316 35.407 68.316 36.015ZM66.81 36.015C66.81 35.531 66.75 35.107 66.631 34.744C66.512 34.381 66.347 34.078 66.137 33.836C65.927 33.594 65.676 33.413 65.387 33.294C65.097 33.175 64.78 33.115 64.434 33.115C64.089 33.115 63.771 33.175 63.481 33.294C63.191 33.413 62.941 33.594 62.731 33.836C62.521 34.078 62.356 34.381 62.237 34.744C62.118 35.107 62.059 35.531 62.059 36.015C62.059 36.499 62.119 36.923 62.237 37.286C62.356 37.649 62.521 37.951 62.731 38.19C62.941 38.43 63.191 38.611 63.481 38.732C63.771 38.853 64.088 38.914 64.434 38.914C64.779 38.914 65.097 38.853 65.387 38.732C65.677 38.611 65.927 38.43 66.137 38.19C66.347 37.951 66.512 37.649 66.631 37.286C66.75 36.923 66.81 36.499 66.81 36.015Z" fill="white"/>
<path d="M64.434 40.196C63.813 40.196 63.253 40.092 62.768 39.888C62.28 39.684 61.864 39.394 61.53 39.025C61.196 38.657 60.938 38.212 60.763 37.701C60.589 37.191 60.501 36.624 60.501 36.014C60.501 35.404 60.589 34.837 60.763 34.326C60.937 33.816 61.195 33.371 61.53 33.003C61.865 32.633 62.282 32.343 62.768 32.139C63.255 31.935 63.816 31.831 64.434 31.831C65.052 31.831 65.613 31.935 66.1 32.139C66.586 32.342 67.003 32.633 67.339 33.003C67.673 33.371 67.931 33.816 68.106 34.326C68.28 34.837 68.368 35.404 68.368 36.014C68.368 36.624 68.28 37.191 68.106 37.701C67.931 38.212 67.673 38.658 67.339 39.025C67.004 39.394 66.588 39.684 66.1 39.888C65.615 40.093 65.055 40.196 64.434 40.196ZM64.434 31.932C63.829 31.932 63.282 32.034 62.807 32.232C62.334 32.43 61.93 32.712 61.604 33.071C61.278 33.43 61.027 33.864 60.858 34.361C60.688 34.86 60.602 35.417 60.602 36.015C60.602 36.613 60.688 37.17 60.858 37.668C61.028 38.166 61.279 38.601 61.604 38.959C61.928 39.316 62.333 39.598 62.807 39.797C63.28 39.996 63.827 40.097 64.434 40.097C65.041 40.097 65.589 39.996 66.061 39.797C66.535 39.599 66.939 39.317 67.264 38.959C67.589 38.601 67.84 38.167 68.01 37.668C68.18 37.17 68.266 36.613 68.266 36.015C68.266 35.417 68.18 34.86 68.01 34.361C67.84 33.863 67.589 33.429 67.264 33.071C66.939 32.713 66.534 32.43 66.061 32.232C65.586 32.032 65.039 31.932 64.434 31.932ZM64.434 38.964C64.084 38.964 63.757 38.901 63.462 38.778C63.166 38.655 62.908 38.467 62.693 38.223C62.479 37.98 62.31 37.669 62.189 37.301C62.069 36.934 62.008 36.501 62.008 36.014C62.008 35.527 62.069 35.094 62.189 34.727C62.31 34.359 62.479 34.047 62.693 33.801C62.907 33.555 63.166 33.367 63.462 33.246C63.756 33.125 64.083 33.063 64.434 33.063C64.785 33.063 65.111 33.125 65.406 33.246C65.702 33.367 65.96 33.555 66.175 33.801C66.389 34.047 66.558 34.359 66.679 34.727C66.799 35.093 66.86 35.527 66.86 36.014C66.86 36.501 66.799 36.935 66.679 37.301C66.558 37.67 66.388 37.98 66.175 38.223C65.961 38.467 65.702 38.655 65.406 38.778C65.111 38.901 64.784 38.964 64.434 38.964ZM64.434 33.164C64.097 33.164 63.783 33.223 63.5 33.339C63.219 33.455 62.972 33.633 62.769 33.868C62.564 34.103 62.401 34.403 62.284 34.759C62.167 35.115 62.108 35.538 62.108 36.015C62.108 36.492 62.167 36.914 62.284 37.271C62.4 37.626 62.564 37.925 62.768 38.158C62.972 38.391 63.218 38.569 63.5 38.687C63.782 38.805 64.096 38.865 64.433 38.865C64.77 38.865 65.084 38.805 65.367 38.687C65.648 38.569 65.895 38.391 66.099 38.158C66.304 37.926 66.466 37.627 66.583 37.271C66.7 36.915 66.759 36.492 66.759 36.015C66.759 35.538 66.7 35.116 66.583 34.759C66.467 34.404 66.303 34.104 66.099 33.868C65.895 33.633 65.649 33.455 65.368 33.339C65.085 33.223 64.771 33.164 64.434 33.164Z" fill="white"/>
<path d="M69.948 38.777C70.258 38.381 70.545 37.956 70.812 37.503C71.078 37.051 71.317 36.552 71.53 36.006C71.742 35.46 71.926 34.86 72.081 34.207C72.236 33.555 72.357 32.829 72.444 32.031H76.57V38.777H77.517V42.635H76.064V39.997H70.913V42.635H69.46V38.777H69.948ZM73.669 33.252C73.586 33.863 73.482 34.422 73.359 34.928C73.236 35.434 73.09 35.907 72.921 36.345C72.752 36.783 72.56 37.199 72.343 37.593C72.127 37.986 71.887 38.372 71.625 38.754V38.777H75.108V33.252H73.669V33.252Z" fill="white"/>
<path d="M77.566 42.686H76.013V40.048H70.962V42.686H69.409V38.728H69.923C70.224 38.34 70.508 37.919 70.768 37.478C71.032 37.03 71.272 36.529 71.482 35.988C71.693 35.446 71.878 34.842 72.031 34.196C72.185 33.55 72.306 32.819 72.393 32.026L72.398 31.982H76.619V38.728H77.566V42.686ZM76.113 42.586H77.466V38.827H76.519V32.081H72.487C72.4 32.86 72.279 33.58 72.128 34.219C71.974 34.869 71.788 35.477 71.575 36.025C71.363 36.57 71.12 37.076 70.854 37.529C70.588 37.982 70.296 38.413 69.987 38.809L69.972 38.828H69.509V42.587H70.862V39.949H76.113V42.586ZM75.16 38.827H71.577V38.738L71.586 38.725C71.847 38.344 72.088 37.955 72.301 37.568C72.515 37.178 72.709 36.76 72.876 36.327C73.043 35.892 73.19 35.418 73.312 34.916C73.435 34.411 73.538 33.849 73.621 33.245L73.627 33.202H75.162V38.827H75.16ZM71.705 38.728H75.06V33.302H73.713C73.631 33.893 73.529 34.444 73.408 34.94C73.285 35.446 73.137 35.924 72.968 36.363C72.8 36.801 72.604 37.223 72.387 37.618C72.183 37.988 71.954 38.361 71.705 38.728Z" fill="white"/>
<path d="M81.13 38.777H85.048V39.998H79.671V32.031H84.834V33.252H81.13V35.312H84.31V36.533H81.13V38.777Z" fill="white"/>
<path d="M85.098 40.048H79.621V31.982H84.884V33.302H81.18V35.262H84.36V36.582H81.18V38.728H85.098V40.048V40.048ZM79.721 39.948H84.998V38.827H81.08V36.482H84.26V35.361H81.08V33.202H84.784V32.081H79.721V39.948V39.948Z" fill="white"/>
<path d="M90.341 39.998H88.882V33.252H86.31V32.031H92.908V33.252H90.342V39.998H90.341Z" fill="white"/>
<path d="M90.391 40.048H88.832V33.302H86.26V31.982H92.958V33.302H90.392V40.048H90.391ZM88.932 39.948H90.291V33.202H92.857V32.081H86.36V33.202H88.932V39.948Z" fill="white"/>
<path d="M98.433 37.968H95.433L94.653 39.998H93.099L96.261 32.031H97.595L100.757 39.998H99.215L98.433 37.968ZM96.92 33.948C96.641 34.781 96.393 35.478 96.175 36.038L95.903 36.747H97.962L97.69 36.038C97.474 35.474 97.226 34.776 96.945 33.948H96.92V33.948Z" fill="white"/>
<path d="M100.829 40.048H99.179L99.167 40.016L98.399 38.018H95.467L94.687 40.048H93.025L93.052 39.98L96.226 31.982H97.628L97.64 32.013L100.829 40.048ZM99.247 39.948H100.681L97.559 32.081H96.293L93.171 39.948H94.617L95.397 37.918H98.466L98.478 37.95L99.247 39.948ZM98.035 36.797H95.83L96.129 36.021C96.345 35.466 96.596 34.764 96.874 33.933L96.885 33.899H96.981L96.992 33.933C97.275 34.766 97.525 35.468 97.737 36.021L98.035 36.797ZM95.975 36.697H97.889L97.643 36.055C97.437 35.517 97.204 34.867 96.933 34.069C96.668 34.856 96.429 35.524 96.222 36.056L95.975 36.697Z" fill="white"/>
<path d="M105.548 33.252C105.417 34.192 105.282 35.015 105.143 35.72C105.004 36.425 104.857 37.03 104.702 37.536C104.547 38.042 104.382 38.459 104.208 38.786C104.033 39.114 103.845 39.374 103.642 39.566C103.44 39.758 103.221 39.892 102.987 39.968C102.753 40.043 102.493 40.08 102.207 40.08C101.989 40.08 101.786 40.057 101.6 40.009V38.705C101.743 38.74 101.884 38.759 102.023 38.759C102.178 38.759 102.316 38.734 102.437 38.684C102.558 38.635 102.675 38.542 102.788 38.408C102.901 38.273 103.022 38.064 103.151 37.783C103.28 37.501 103.411 37.111 103.544 36.613C103.677 36.114 103.811 35.492 103.946 34.746C104.081 34 104.216 33.095 104.351 32.031H108.597V39.998H107.138V33.252H105.548Z" fill="white"/>
<path d="M102.208 40.131C101.985 40.131 101.777 40.107 101.588 40.059L101.55 40.049V38.643L101.612 38.658C101.91 38.732 102.198 38.728 102.418 38.639C102.53 38.593 102.642 38.505 102.75 38.376C102.859 38.246 102.979 38.039 103.106 37.763C103.233 37.485 103.365 37.094 103.496 36.601C103.628 36.107 103.763 35.48 103.897 34.738C104.031 33.997 104.167 33.085 104.302 32.026L104.308 31.982H108.648V40.048H107.089V33.302H105.593C105.465 34.219 105.331 35.035 105.194 35.73C105.055 36.432 104.907 37.044 104.752 37.551C104.597 38.058 104.429 38.482 104.254 38.81C104.077 39.141 103.884 39.408 103.678 39.603C103.472 39.799 103.245 39.938 103.004 40.017C102.766 40.093 102.498 40.131 102.208 40.131ZM101.65 39.971C101.82 40.011 102.008 40.032 102.207 40.032C102.487 40.032 102.745 39.995 102.972 39.922C103.198 39.849 103.412 39.717 103.608 39.531C103.806 39.343 103.993 39.085 104.164 38.763C104.336 38.44 104.501 38.023 104.654 37.522C104.808 37.019 104.956 36.41 105.093 35.71C105.231 35.007 105.368 34.178 105.497 33.245L105.503 33.202H107.186V39.948H108.545V32.081H104.393C104.26 33.123 104.126 34.022 103.993 34.755C103.858 35.5 103.722 36.129 103.59 36.626C103.457 37.125 103.324 37.521 103.194 37.804C103.063 38.089 102.939 38.304 102.824 38.441C102.705 38.583 102.58 38.68 102.453 38.731C102.23 38.824 101.944 38.833 101.648 38.769V39.971H101.65Z" fill="white"/>
<path d="M116.427 32.031H117.957V39.998H116.498V36.33C116.498 35.874 116.522 35.137 116.57 34.121H116.546C116.272 34.585 115.796 35.302 115.117 36.27L112.521 39.998H110.99V32.031H112.449V35.699C112.449 36.282 112.425 37.016 112.377 37.902H112.401C112.655 37.481 113.123 36.778 113.806 35.794L116.427 32.031Z" fill="white"/>
<path d="M118.007 40.048H116.448V36.33C116.448 35.899 116.47 35.208 116.512 34.273C116.229 34.739 115.773 35.419 115.157 36.298L112.546 40.047H110.939V31.981H112.498V35.699C112.498 36.245 112.477 36.934 112.435 37.751C112.702 37.32 113.149 36.653 113.765 35.766L116.4 31.982H118.006V40.048H118.007ZM116.548 39.948H117.907V32.081H116.453L113.848 35.822C113.17 36.8 112.698 37.509 112.444 37.927L112.43 37.951H112.325L112.328 37.898C112.376 37.016 112.4 36.276 112.4 35.698V32.08H111.041V39.947H112.495L115.076 36.241C115.75 35.279 116.23 34.557 116.503 34.095L116.517 34.071H116.622L116.62 34.123C116.572 35.135 116.548 35.878 116.548 36.33V39.948V39.948Z" fill="white"/>
<path d="M143.722 6.34399H145.167V7.77799H143.722V6.34399Z" fill="white"/>
<path d="M148.9 4.995C148.782 4.995 148.666 4.993 148.551 4.99C148.436 4.986 148.329 4.978 148.229 4.969V7.778H146.913V0.591003H148.986C149.333 0.591003 149.637 0.607003 149.897 0.637003C150.156 0.667003 150.388 0.713003 150.592 0.774003C151.083 0.924003 151.46 1.165 151.725 1.494C151.99 1.823 152.122 2.242 152.122 2.751C152.122 3.099 152.05 3.411 151.907 3.689C151.764 3.967 151.554 4.202 151.279 4.395C151.004 4.588 150.667 4.737 150.269 4.841C149.872 4.943 149.416 4.995 148.9 4.995ZM148.229 3.861C148.304 3.873 148.4 3.881 148.517 3.885C148.633 3.891 148.754 3.894 148.879 3.894C149.233 3.894 149.531 3.865 149.771 3.808C150.011 3.75 150.204 3.67 150.351 3.569C150.498 3.466 150.603 3.343 150.668 3.198C150.732 3.053 150.765 2.894 150.765 2.722C150.765 2.511 150.717 2.328 150.62 2.175C150.523 2.021 150.355 1.901 150.115 1.815C149.99 1.772 149.835 1.741 149.651 1.721C149.466 1.701 149.24 1.691 148.971 1.691H148.23V3.861H148.229Z" fill="white"/>
<path d="M157.553 0V0.961C158.047 1.016 158.485 1.132 158.866 1.311C159.247 1.49 159.567 1.72 159.824 2.001C160.081 2.282 160.278 2.606 160.412 2.976C160.546 3.346 160.613 3.745 160.613 4.174C160.613 4.607 160.549 5.008 160.42 5.377C160.291 5.745 160.098 6.069 159.84 6.349C159.582 6.629 159.263 6.858 158.882 7.037C158.501 7.216 158.057 7.331 157.552 7.381V8.331H156.258V7.38C155.753 7.33 155.31 7.215 154.929 7.036C154.548 6.857 154.228 6.628 153.97 6.348C153.712 6.068 153.519 5.744 153.39 5.376C153.261 5.007 153.197 4.605 153.197 4.173C153.197 3.743 153.264 3.344 153.399 2.975C153.534 2.606 153.729 2.282 153.987 2C154.245 1.718 154.565 1.488 154.946 1.31C155.327 1.132 155.765 1.015 156.259 0.96V0H157.553ZM154.534 4.168C154.534 4.497 154.576 4.789 154.66 5.043C154.744 5.298 154.861 5.516 155.012 5.696C155.163 5.876 155.343 6.021 155.554 6.131C155.765 6.241 156 6.315 156.258 6.354V1.987C156 2.026 155.766 2.1 155.554 2.21C155.342 2.32 155.162 2.465 155.012 2.646C154.862 2.827 154.744 3.043 154.66 3.295C154.576 3.548 154.534 3.839 154.534 4.168ZM159.277 4.168C159.277 3.839 159.235 3.548 159.151 3.295C159.067 3.043 158.949 2.826 158.799 2.646C158.649 2.466 158.468 2.32 158.257 2.21C158.046 2.1 157.811 2.026 157.553 1.987V6.353C157.811 6.314 158.045 6.24 158.257 6.13C158.469 6.02 158.649 5.876 158.799 5.695C158.949 5.514 159.067 5.297 159.151 5.042C159.235 4.789 159.277 4.497 159.277 4.168Z" fill="white"/>
</svg>
