<svg width="67" height="60" viewBox="0 0 67 60" fill="none" xmlns="http://www.w3.org/2000/svg">
<path fill-rule="evenodd" clip-rule="evenodd" d="M57.5055 6H9.07982C7.40827 6 6.05322 7.34315 6.05322 9V51C6.05322 52.6569 7.40827 54 9.07982 54H57.5055C59.1771 54 60.5322 52.6569 60.5322 51V9C60.5322 7.34314 59.1771 6 57.5055 6ZM9.07982 0C4.06518 0 0 4.02944 0 9V51C0 55.9706 4.06517 60 9.07982 60H57.5055C62.5202 60 66.5854 55.9706 66.5854 51V9C66.5854 4.02944 62.5202 0 57.5055 0H9.07982Z" fill="black"/>
<path fill-rule="evenodd" clip-rule="evenodd" d="M15.1328 15H21.186V21H15.1328V15ZM30.2659 15C28.5943 15 27.2392 16.3431 27.2392 18C27.2392 19.6569 28.5943 21 30.2659 21H48.4255C50.097 21 51.4521 19.6569 51.4521 18C51.4521 16.3431 50.097 15 48.4255 15H30.2659ZM21.186 27H15.1328V33H21.186V27ZM27.2392 30C27.2392 28.3431 28.5943 27 30.2659 27H48.4255C50.097 27 51.4521 28.3431 51.4521 30C51.4521 31.6569 50.097 33 48.4255 33H30.2659C28.5943 33 27.2392 31.6569 27.2392 30ZM21.186 39H15.1328V45H21.186V39ZM27.2392 42C27.2392 40.3431 28.5943 39 30.2659 39H48.4255C50.097 39 51.4521 40.3431 51.4521 42C51.4521 43.6569 50.097 45 48.4255 45H30.2659C28.5943 45 27.2392 43.6569 27.2392 42Z" fill="#FF8500"/>
</svg>
