<svg width="62" height="62" viewBox="0 0 62 62" fill="none" xmlns="http://www.w3.org/2000/svg">
<mask id="path-1-outside-1" maskUnits="userSpaceOnUse" x="17.5244" y="15.0249" width="27" height="32" fill="black">
<rect fill="white" x="17.5244" y="15.0249" width="27" height="32"/>
<path d="M34.7547 33.4674C39.5637 33.4674 43.476 29.555 43.476 24.7462C43.476 19.9373 39.5636 16.0249 34.7547 16.0249H25.9943C24.6335 16.0249 23.5304 17.128 23.5304 18.4888V28.5398H20.9883C19.6275 28.5398 18.5244 29.6429 18.5244 31.0037C18.5244 32.3644 19.6275 33.4675 20.9883 33.4675H23.5304V36.0487H20.9883C19.6275 36.0487 18.5244 37.1518 18.5244 38.5126C18.5244 39.8734 19.6275 40.9765 20.9883 40.9765H23.5304V43.5186C23.5304 44.8793 24.6335 45.9825 25.9943 45.9825C27.355 45.9825 28.4581 44.8793 28.4581 43.5186V40.9765H33.5032C34.8639 40.9765 35.9671 39.8734 35.9671 38.5126C35.9671 37.1518 34.8639 36.0487 33.5032 36.0487H28.4581V33.4675H34.7547V33.4674ZM38.5482 24.746C38.5482 26.8379 36.8464 28.5396 34.7547 28.5396H28.4581V20.9524H34.7547C36.8464 20.9525 38.5482 22.6543 38.5482 24.746Z"/>
</mask>
<path d="M34.7547 33.4674C39.5637 33.4674 43.476 29.555 43.476 24.7462C43.476 19.9373 39.5636 16.0249 34.7547 16.0249H25.9943C24.6335 16.0249 23.5304 17.128 23.5304 18.4888V28.5398H20.9883C19.6275 28.5398 18.5244 29.6429 18.5244 31.0037C18.5244 32.3644 19.6275 33.4675 20.9883 33.4675H23.5304V36.0487H20.9883C19.6275 36.0487 18.5244 37.1518 18.5244 38.5126C18.5244 39.8734 19.6275 40.9765 20.9883 40.9765H23.5304V43.5186C23.5304 44.8793 24.6335 45.9825 25.9943 45.9825C27.355 45.9825 28.4581 44.8793 28.4581 43.5186V40.9765H33.5032C34.8639 40.9765 35.9671 39.8734 35.9671 38.5126C35.9671 37.1518 34.8639 36.0487 33.5032 36.0487H28.4581V33.4675H34.7547V33.4674ZM38.5482 24.746C38.5482 26.8379 36.8464 28.5396 34.7547 28.5396H28.4581V20.9524H34.7547C36.8464 20.9525 38.5482 22.6543 38.5482 24.746Z" fill="#FF8500"/>
<path d="M34.7547 33.4674V32.9674H34.2547V33.4674H34.7547ZM23.5304 28.5398V29.0398H24.0304V28.5398H23.5304ZM23.5304 33.4675H24.0304V32.9675H23.5304V33.4675ZM23.5304 36.0487V36.5487H24.0304V36.0487H23.5304ZM23.5304 40.9765H24.0304V40.4765H23.5304V40.9765ZM28.4581 40.9765V40.4765H27.9581V40.9765H28.4581ZM28.4581 36.0487H27.9581V36.5487H28.4581V36.0487ZM28.4581 33.4675V32.9675H27.9581V33.4675H28.4581ZM34.7547 33.4675V33.9675H35.2547V33.4675H34.7547ZM28.4581 28.5396H27.9581V29.0396H28.4581V28.5396ZM28.4581 20.9524V20.4524H27.9581V20.9524H28.4581ZM34.7547 20.9524L34.7547 20.4524H34.7547V20.9524ZM34.7547 33.9674C39.8399 33.9674 43.976 29.8312 43.976 24.7462H42.976C42.976 29.2789 39.2876 32.9674 34.7547 32.9674V33.9674ZM43.976 24.7462C43.976 19.6611 39.8397 15.5249 34.7547 15.5249V16.5249C39.2874 16.5249 42.976 20.2134 42.976 24.7462H43.976ZM34.7547 15.5249H25.9943V16.5249H34.7547V15.5249ZM25.9943 15.5249C24.3574 15.5249 23.0304 16.8519 23.0304 18.4888H24.0304C24.0304 17.4042 24.9097 16.5249 25.9943 16.5249V15.5249ZM23.0304 18.4888V28.5398H24.0304V18.4888H23.0304ZM23.5304 28.0398H20.9883V29.0398H23.5304V28.0398ZM20.9883 28.0398C19.3514 28.0398 18.0244 29.3668 18.0244 31.0037H19.0244C19.0244 29.9191 19.9037 29.0398 20.9883 29.0398V28.0398ZM18.0244 31.0037C18.0244 32.6406 19.3514 33.9675 20.9883 33.9675V32.9675C19.9037 32.9675 19.0244 32.0883 19.0244 31.0037H18.0244ZM20.9883 33.9675H23.5304V32.9675H20.9883V33.9675ZM23.0304 33.4675V36.0487H24.0304V33.4675H23.0304ZM23.5304 35.5487H20.9883V36.5487H23.5304V35.5487ZM20.9883 35.5487C19.3514 35.5487 18.0244 36.8757 18.0244 38.5126H19.0244C19.0244 37.428 19.9037 36.5487 20.9883 36.5487V35.5487ZM18.0244 38.5126C18.0244 40.1495 19.3514 41.4765 20.9883 41.4765V40.4765C19.9037 40.4765 19.0244 39.5972 19.0244 38.5126H18.0244ZM20.9883 41.4765H23.5304V40.4765H20.9883V41.4765ZM23.0304 40.9765V43.5186H24.0304V40.9765H23.0304ZM23.0304 43.5186C23.0304 45.1555 24.3574 46.4825 25.9943 46.4825V45.4825C24.9097 45.4825 24.0304 44.6032 24.0304 43.5186H23.0304ZM25.9943 46.4825C27.6312 46.4825 28.9581 45.1555 28.9581 43.5186H27.9581C27.9581 44.6032 27.0789 45.4825 25.9943 45.4825V46.4825ZM28.9581 43.5186V40.9765H27.9581V43.5186H28.9581ZM28.4581 41.4765H33.5032V40.4765H28.4581V41.4765ZM33.5032 41.4765C35.1401 41.4765 36.4671 40.1495 36.4671 38.5126H35.4671C35.4671 39.5972 34.5878 40.4765 33.5032 40.4765V41.4765ZM36.4671 38.5126C36.4671 36.8757 35.1401 35.5487 33.5032 35.5487V36.5487C34.5878 36.5487 35.4671 37.428 35.4671 38.5126H36.4671ZM33.5032 35.5487H28.4581V36.5487H33.5032V35.5487ZM28.9581 36.0487V33.4675H27.9581V36.0487H28.9581ZM28.4581 33.9675H34.7547V32.9675H28.4581V33.9675ZM35.2547 33.4675V33.4674H34.2547V33.4675H35.2547ZM38.0482 24.746C38.0482 26.5617 36.5703 28.0396 34.7547 28.0396V29.0396C37.1225 29.0396 39.0482 27.114 39.0482 24.746H38.0482ZM34.7547 28.0396H28.4581V29.0396H34.7547V28.0396ZM28.9581 28.5396V20.9524H27.9581V28.5396H28.9581ZM28.4581 21.4524H34.7547V20.4524H28.4581V21.4524ZM34.7547 21.4524C36.5703 21.4525 38.0482 22.9305 38.0482 24.746H39.0482C39.0482 22.3782 37.1226 20.4525 34.7547 20.4524L34.7547 21.4524Z" fill="#FF8500" mask="url(#path-1-outside-1)"/>
<path d="M10.3911 49.4615L10.2433 49.2599L10.3911 49.4615C11.5997 48.5749 11.8606 46.8766 10.9741 45.668L10.7725 45.8159L10.9741 45.668C7.83855 41.3938 6.18138 36.3236 6.18138 31.0036C6.18138 17.3184 17.3155 6.18435 31.0006 6.18435C44.6858 6.18435 55.8198 17.3184 55.8198 31.0036C55.8198 36.3236 54.1626 41.3938 51.027 45.6681C50.1405 46.8767 50.4015 48.5751 51.61 49.4616C52.8211 50.35 54.5188 50.0846 55.4034 48.8786C64.0384 37.1076 63.1736 20.4014 52.3882 9.6161C40.5678 -2.20448 21.4351 -2.20626 9.61301 9.6161C-1.17241 20.4014 -2.03719 37.1077 6.59779 48.8786C7.48422 50.087 9.18258 50.3479 10.3911 49.4615Z" fill="black" stroke="black" stroke-width="0.5"/>
<path d="M58.5332 55.8223H3.46777C1.96894 55.8223 0.753906 57.0373 0.753906 58.5361C0.753906 60.0349 1.96894 61.25 3.46777 61.25H58.5332C60.032 61.25 61.247 60.0349 61.247 58.5361C61.247 57.0373 60.032 55.8223 58.5332 55.8223Z" fill="black" stroke="black" stroke-width="0.5"/>
</svg>
