<svg width="58" height="60" viewBox="0 0 58 60" fill="none" xmlns="http://www.w3.org/2000/svg">
<path fill-rule="evenodd" clip-rule="evenodd" d="M0 57C0 58.6569 1.35558 60 3.02778 60C4.69997 60 6.05556 58.6569 6.05556 57V45H24.2222V52.5C24.2222 54.1569 25.5778 55.5 27.25 55.5H54.5C55.4609 55.5 56.3647 55.0481 56.9355 54.2823C57.5064 53.5165 57.6765 52.5277 57.3939 51.6177L51.6237 33.0366L57.3724 15.9487C57.6802 15.0338 57.5253 14.0282 56.9563 13.2459C56.3872 12.4636 55.4733 12 54.5 12H39.3611V9C39.3611 7.34315 38.0055 6 36.3333 6H6.05556L6.05555 3C6.05555 1.34315 4.69997 0 3.02778 0C1.35558 0 0 1.34315 0 3V57ZM6.05556 12V39H33.3056V12H6.05556ZM39.3611 42V18H50.2992L45.572 32.0513C45.3725 32.6445 45.365 33.2846 45.5506 33.8823L50.4005 49.5H30.2778V45H36.3333C38.0055 45 39.3611 43.6569 39.3611 42Z" fill="black"/>
</svg>
