<svg width="61" height="60" viewBox="0 0 61 60" fill="none" xmlns="http://www.w3.org/2000/svg">
<path fill-rule="evenodd" clip-rule="evenodd" d="M60.8572 30C60.8572 46.5685 47.2338 60 30.4286 60C13.6233 60 0 46.5685 0 30C0 13.4315 13.6233 0 30.4286 0C47.2338 0 60.8572 13.4315 60.8572 30ZM54.7714 30C54.7714 43.2548 43.8728 54 30.4286 54C16.9844 54 6.08572 43.2548 6.08572 30C6.08572 16.7452 16.9844 6 30.4286 6C43.8728 6 54.7714 16.7452 54.7714 30Z" fill="black"/>
<path d="M33.4715 16C33.4715 14.3431 32.1091 13 30.4286 13C28.7481 13 27.3857 14.3431 27.3857 16V31C27.3857 32.6569 28.7481 34 30.4286 34H42.6C44.2806 34 45.6429 32.6569 45.6429 31C45.6429 29.3431 44.2806 28 42.6 28H33.4715V16Z" fill="#FF8500"/>
</svg>
