<svg width="43" height="107" viewBox="0 0 43 107" fill="none" xmlns="http://www.w3.org/2000/svg">
<path d="M1.79121 32.1V24.9667C1.79121 22.0121 4.19778 19.6167 7.1662 19.6167H35.833C38.8014 19.6167 41.208 22.0121 41.208 24.9667V32.1C41.2082 33.8155 40.382 35.427 38.9864 36.4335C37.0447 37.7835 35.8719 39.9791 35.833 42.3362V64.6635C35.8719 67.0206 37.0447 69.2162 38.9864 70.5663C40.382 71.5729 41.2082 73.1844 41.208 74.9V82.0332C41.208 84.9878 38.8014 87.3832 35.833 87.3832H7.16642C4.19778 87.3832 1.79141 84.9878 1.79141 82.0332V74.9C1.7912 73.1844 2.6174 71.5729 4.01301 70.5665C5.95473 69.2164 7.12757 67.0208 7.16642 64.6637V42.3362C7.12757 39.9791 5.95473 37.7835 4.01301 36.4335C2.61719 35.427 1.791 33.8155 1.79121 32.1Z" fill="#FF8500"/>
<path d="M4.01261 36.4335C2.61679 35.427 1.79059 33.8155 1.79101 32.1V24.9667C1.79101 22.0121 4.19759 19.6167 7.16601 19.6167H12.541C9.57259 19.6167 7.16601 22.0121 7.16601 24.9667V32.1C7.1658 33.8155 7.992 35.427 9.38761 36.4335C11.3293 37.7835 12.5022 39.9791 12.541 42.3362V64.6635C12.5022 67.0206 11.3293 69.2162 9.38761 70.5662C7.99179 71.5727 7.16559 73.1842 7.16601 74.8997V82.033C7.16601 84.9876 9.57259 87.383 12.541 87.383H7.16601C4.19738 87.383 1.79101 84.9876 1.79101 82.033V74.9C1.7908 73.1844 2.617 71.5729 4.01261 70.5665C5.95433 69.2164 7.12717 67.0208 7.16601 64.6637V42.3362C7.12717 39.9791 5.95412 37.7835 4.01261 36.4335Z" fill="#E87400"/>
<path d="M8.95762 19.6167C8.95762 19.6167 14.046 17.0844 15.6585 13.0897C16.1595 11.6634 17.5089 10.706 19.0269 10.7H23.9717C25.4897 10.706 26.8391 11.6634 27.3401 13.0897C28.9526 17.0844 34.041 19.6167 34.041 19.6167H8.95762Z" fill="#FF8500"/>
<path d="M15.6591 13.0897C16.1601 11.6634 17.5095 10.706 19.0275 10.7H23.9725H24.1875C22.7583 10.7871 21.5183 11.7127 21.0341 13.054C19.4216 17.0842 14.3332 19.6167 14.3332 19.6167H8.95821C8.95842 19.6167 14.0466 17.0842 15.6591 13.0897Z" fill="#E87400"/>
<path d="M8.95762 87.3833C8.95762 87.3833 14.046 89.9156 15.6585 93.9103C16.1595 95.3366 17.5089 96.294 19.0269 96.3H23.9717C25.4897 96.294 26.8391 95.3366 27.3401 93.9103C28.9526 89.9156 34.041 87.3833 34.041 87.3833H8.95762Z" fill="#FF8500"/>
<path d="M14.3332 87.3833C14.3332 87.3833 19.4216 89.9156 21.0341 93.9103C21.5067 95.2656 22.7491 96.207 24.1875 96.3H23.9725H19.0275C17.5095 96.294 16.1601 95.3366 15.6591 93.9103C14.0466 89.9156 8.95819 87.3833 8.95819 87.3833H14.3332Z" fill="#E87400"/>
<path d="M35.8334 89.1667H34.4896C32.1622 90.3594 30.2514 92.2242 29.0071 94.5167C28.2519 96.6429 26.2382 98.0695 23.9725 98.0835H23.2916V105.217C23.2916 106.202 22.4893 107 21.5 107C20.5104 107 19.7084 106.201 19.7084 105.217V98.0835H19.0275C16.7618 98.0697 14.7481 96.6432 13.9928 94.5167C12.7389 92.2317 10.8306 90.3692 8.51033 89.1667H7.16658C3.20861 89.1667 -1.52588e-05 85.973 -1.52588e-05 82.0335V74.9C-0.00169754 72.6137 1.09745 70.4651 2.95623 69.122C4.44171 68.1149 5.3437 66.4524 5.37499 64.6637V42.3363C5.3437 40.5474 4.44171 38.8851 2.95623 37.878C1.09745 36.5349 -0.00169754 34.3863 -1.52588e-05 32.1V24.9667C-1.52588e-05 21.0272 3.20861 17.8335 7.16658 17.8335H8.51033C10.8378 16.6408 12.7486 14.776 13.9928 12.4835C14.7481 10.3573 16.7618 8.93074 19.0275 8.91674H19.7084V1.78326C19.7084 0.79832 20.5107 0 21.5 0C22.4895 0 23.2916 0.798529 23.2916 1.78326V8.91653H23.9725C26.2382 8.93032 28.2519 10.3568 29.0071 12.4833C30.261 14.7683 32.1694 16.6308 34.4896 17.8333H35.8334C39.7914 17.8333 43 21.027 43 24.9667V32.1C43.0017 34.3863 41.9025 36.5349 40.0437 37.878C38.5583 38.8851 37.6563 40.5476 37.625 42.3363V64.6635C37.6563 66.4524 38.5583 68.1147 40.0437 69.1218C41.9025 70.4651 43.0017 72.6137 43 74.9V82.0333C43 85.973 39.7914 89.1667 35.8334 89.1667ZM17.3075 93.2505C17.5739 94.0085 18.2924 94.5163 19.0991 94.5167H23.9725C24.7794 94.5163 25.4979 94.0085 25.7641 93.2505C26.4043 91.7128 27.3558 90.3226 28.5591 89.1667H14.4407C15.67 90.3157 16.6461 91.7065 17.3075 93.2505ZM25.6925 13.7495C25.4261 12.9915 24.7076 12.4837 23.9009 12.4833H18.9559C18.149 12.4837 17.4305 12.9915 17.1643 13.7495C16.5453 15.2811 15.6186 16.6707 14.4409 17.8333H28.5591C27.33 16.6843 26.3539 15.2937 25.6925 13.7495ZM37.9475 72.011C35.922 70.5887 34.5539 68.4175 34.1491 65.9833H21.5C20.5104 65.9833 19.7084 65.1847 19.7084 64.2C19.7084 63.2151 20.5107 62.4167 21.5 62.4167H34.0416V44.5835H21.5C20.5104 44.5835 19.7084 43.7849 19.7084 42.8002C19.7084 41.8153 20.5107 41.0169 21.5 41.0169H34.1491C34.5539 38.5827 35.922 36.4118 37.9475 34.9892C38.3389 34.6864 38.6672 34.3108 38.915 33.8835H21.5C20.5104 33.8835 19.7084 33.0849 19.7084 32.1002C19.7084 31.1155 20.5107 30.3169 21.5 30.3169H39.4166V24.9669C39.4166 22.9971 37.8123 21.4002 35.8332 21.4002H7.16658C5.18749 21.4002 3.58318 22.9971 3.58318 24.9669V30.3169H14.3332C15.3227 30.3169 16.1248 31.1155 16.1248 32.1002C16.1248 33.0849 15.3227 33.8835 14.3332 33.8835H4.08477C4.33253 34.3108 4.66091 34.6864 5.05228 34.9892C7.07777 36.4116 8.44588 38.5827 8.85068 41.0169H14.3332C15.3227 41.0169 16.1248 41.8155 16.1248 42.8002C16.1248 43.7852 15.3225 44.5835 14.3332 44.5835H8.95818V62.4167H14.3332C15.3227 62.4167 16.1248 63.2153 16.1248 64.2C16.1248 65.1849 15.3225 65.9833 14.3332 65.9833H8.85068C8.44588 68.4175 7.07777 70.5884 5.05228 72.011C4.66091 72.3138 4.33253 72.6894 4.08477 73.1167H14.3332C15.3227 73.1167 16.1248 73.9151 16.1248 74.9C16.1248 75.8849 15.3225 76.6833 14.3332 76.6833H3.58318V82.0333C3.58318 84.0032 5.18749 85.6 7.16658 85.6H35.8334C37.8125 85.6 39.4168 84.0032 39.4168 82.0333V76.6833H21.5C20.5104 76.6833 19.7084 75.8847 19.7084 74.9C19.7084 73.9153 20.5107 73.1167 21.5 73.1167H38.915C38.6672 72.6894 38.3389 72.3138 37.9475 72.011Z" fill="black"/>
</svg>
