<svg width="83" height="108" viewBox="0 0 83 108" fill="none" xmlns="http://www.w3.org/2000/svg">
<path d="M5.41346 1.80005H77.5874C79.5805 1.80005 81.1961 3.41182 81.1961 5.40012V102.6C81.1961 104.588 79.5805 106.2 77.5874 106.2H5.41346C3.42036 106.2 1.80469 104.588 1.80469 102.6V5.40012C1.80469 3.41182 3.42036 1.80005 5.41346 1.80005Z" fill="#FF8500"/>
<path d="M77.5869 1.80005H72.1738C74.1669 1.80005 75.7826 3.41182 75.7826 5.40012V102.6C75.7826 104.588 74.1669 106.2 72.1738 106.2H77.5869C79.58 106.2 81.1956 104.588 81.1956 102.6V5.40012C81.1956 3.41182 79.58 1.80005 77.5869 1.80005Z" fill="#E87400"/>
<path d="M16.2398 23.4001C20.2258 23.4001 23.4571 20.1766 23.4571 16.2002C23.4571 12.2238 20.2258 9.00024 16.2398 9.00024C12.2538 9.00024 9.02246 12.2238 9.02246 16.2002C9.02246 20.1766 12.2538 23.4001 16.2398 23.4001Z" fill="#FF8500"/>
<path d="M41.5005 23.4001C45.4866 23.4001 48.7179 20.1766 48.7179 16.2002C48.7179 12.2238 45.4866 9.00024 41.5005 9.00024C37.5145 9.00024 34.2832 12.2238 34.2832 16.2002C34.2832 20.1766 37.5145 23.4001 41.5005 23.4001Z" fill="#FF8500"/>
<path d="M66.7613 23.4001C70.7473 23.4001 73.9786 20.1766 73.9786 16.2002C73.9786 12.2238 70.7473 9.00024 66.7613 9.00024C62.7752 9.00024 59.5439 12.2238 59.5439 16.2002C59.5439 20.1766 62.7752 23.4001 66.7613 23.4001Z" fill="#FF8500"/>
<path d="M16.2398 99.0002C20.2258 99.0002 23.4571 95.7767 23.4571 91.8003C23.4571 87.8239 20.2258 84.6003 16.2398 84.6003C12.2538 84.6003 9.02246 87.8239 9.02246 91.8003C9.02246 95.7767 12.2538 99.0002 16.2398 99.0002Z" fill="#FF8500"/>
<path d="M41.5005 99.0002C45.4866 99.0002 48.7179 95.7767 48.7179 91.8003C48.7179 87.8239 45.4866 84.6003 41.5005 84.6003C37.5145 84.6003 34.2832 87.8239 34.2832 91.8003C34.2832 95.7767 37.5145 99.0002 41.5005 99.0002Z" fill="#FF8500"/>
<path d="M66.7613 99.0002C70.7473 99.0002 73.9786 95.7767 73.9786 91.8003C73.9786 87.8239 70.7473 84.6003 66.7613 84.6003C62.7752 84.6003 59.5439 87.8239 59.5439 91.8003C59.5439 95.7767 62.7752 99.0002 66.7613 99.0002Z" fill="#FF8500"/>
<path d="M77.587 0H5.41305C2.42361 0 0 2.41777 0 5.4V102.6C0 105.582 2.42361 108 5.41305 108H77.587C80.5764 108 83 105.582 83 102.6V5.4C83 2.41777 80.5766 0 77.587 0ZM77.587 104.4H5.41305C4.4165 104.4 3.60877 103.594 3.60877 102.6V56.538L16.4557 43.74C17.4755 42.7239 18.047 41.344 18.0434 39.906V25.0199C22.5813 24.0958 25.6807 19.8941 25.2151 15.2972C24.7495 10.7002 20.8707 7.20183 16.2391 7.20183C11.6076 7.20183 7.72861 10.7004 7.263 15.2972C6.79739 19.8939 9.89679 24.0958 14.4347 25.0199V39.906C14.4328 40.3871 14.2378 40.8472 13.8933 41.1841L3.60856 51.462V5.4C3.60856 4.40585 4.4165 3.60007 5.41284 3.60007H77.5867C78.5833 3.60007 79.391 4.40606 79.391 5.4V51.462L66.5441 64.26C65.5243 65.2761 64.9528 66.656 64.9564 68.094V82.9801C60.4185 83.9042 57.3191 88.1059 57.7847 92.7028C58.2503 97.2998 62.1293 100.798 66.7609 100.798C71.3924 100.798 75.2714 97.2996 75.737 92.7028C76.2026 88.1061 73.1032 83.9042 68.5653 82.9801V68.094C68.5673 67.6129 68.7622 67.1528 69.1067 66.8159L79.3914 56.538V102.6C79.3914 103.594 78.5835 104.4 77.587 104.4ZM16.2391 21.6C13.2497 21.6 10.8261 19.1822 10.8261 16.2C10.8261 13.2178 13.2497 10.8 16.2391 10.8C19.2286 10.8 21.6522 13.2178 21.6522 16.2C21.6522 17.6323 21.0819 19.0057 20.0668 20.0184C19.0516 21.0311 17.6749 21.6 16.2391 21.6ZM66.7609 86.4C69.7503 86.4 72.1739 88.8178 72.1739 91.8C72.1739 94.7822 69.7503 97.2 66.7609 97.2C63.7714 97.2 61.3478 94.7822 61.3478 91.8C61.3478 88.8178 63.7714 86.4 66.7609 86.4Z" fill="black"/>
<path d="M16.2388 17.9998C17.2353 17.9998 18.0431 17.1939 18.0431 16.1998C18.0431 15.2058 17.2353 14.3999 16.2388 14.3999C15.2424 14.3999 14.4346 15.2058 14.4346 16.1998C14.4346 17.1939 15.2424 17.9998 16.2388 17.9998Z" fill="black"/>
<path d="M41.5006 17.9998C42.497 17.9998 43.3049 17.1939 43.3049 16.1998C43.3049 15.2058 42.497 14.3999 41.5006 14.3999C40.5041 14.3999 39.6963 15.2058 39.6963 16.1998C39.6963 17.1939 40.5041 17.9998 41.5006 17.9998Z" fill="black"/>
<path d="M66.7613 17.9998C67.7578 17.9998 68.5656 17.1939 68.5656 16.1998C68.5656 15.2058 67.7578 14.3999 66.7613 14.3999C65.7648 14.3999 64.957 15.2058 64.957 16.1998C64.957 17.1939 65.7648 17.9998 66.7613 17.9998Z" fill="black"/>
<path d="M18.0432 82.9799V68.0938C18.0405 67.6154 18.2287 67.1555 18.5666 66.8157L41.7164 43.7217C42.7318 42.71 43.3029 41.3374 43.3042 39.9056V25.0195C47.8421 24.0954 50.9414 19.8937 50.4758 15.2968C50.0102 10.6998 46.1312 7.20142 41.4997 7.20142C36.8682 7.20142 32.9892 10.7 32.5236 15.2968C32.0582 19.8937 35.1573 24.0954 39.6952 25.0195V39.9056C39.698 40.384 39.5098 40.8438 39.1719 41.1837L16.0224 64.2777C15.0071 65.2894 14.4359 66.662 14.4347 68.0938V82.9799C9.8968 83.904 6.79741 88.1057 7.26301 92.7026C7.72862 97.2996 11.6076 100.798 16.2392 100.798C20.8707 100.798 24.7497 97.2994 25.2153 92.7026C25.6805 88.1057 22.5811 83.9038 18.0432 82.9799ZM36.0869 16.1998C36.0869 13.2176 38.5105 10.7998 41.4999 10.7998C44.4893 10.7998 46.913 13.2176 46.913 16.1998C46.913 19.182 44.4893 21.5998 41.4999 21.5998C38.5105 21.5998 36.0869 19.182 36.0869 16.1998ZM16.2389 97.1998C13.2495 97.1998 10.8259 94.782 10.8259 91.7998C10.8259 88.8176 13.2495 86.3998 16.2389 86.3998C19.2284 86.3998 21.652 88.8176 21.652 91.7998C21.652 94.7822 19.2284 97.1998 16.2389 97.1998Z" fill="black"/>
<path d="M16.2388 93.5999C17.2353 93.5999 18.0431 92.794 18.0431 91.7999C18.0431 90.8059 17.2353 90 16.2388 90C15.2424 90 14.4346 90.8059 14.4346 91.7999C14.4346 92.794 15.2424 93.5999 16.2388 93.5999Z" fill="black"/>
<path d="M43.304 82.9799V68.0938C43.3012 67.6154 43.4894 67.1555 43.8273 66.8157L66.9772 43.7217C67.9925 42.71 68.5637 41.3374 68.5649 39.9056V25.0195C73.1028 24.0954 76.2022 19.8937 75.7366 15.2968C75.2712 10.6998 71.392 7.20142 66.7604 7.20142C62.1289 7.20142 58.2499 10.7 57.7843 15.2968C57.3187 19.8937 60.4181 24.0954 64.956 25.0195V39.9056C64.9587 40.384 64.7705 40.8438 64.4326 41.1837L41.2832 64.2777C40.2678 65.2894 39.6967 66.662 39.6954 68.0938V82.9799C35.1575 83.904 32.0582 88.1057 32.5238 92.7026C32.9894 97.2996 36.8684 100.798 41.4999 100.798C46.1314 100.798 50.0104 97.2994 50.476 92.7026C50.9412 88.1057 47.8418 83.9038 43.304 82.9799ZM61.3474 16.1998C61.3474 13.2176 63.771 10.7998 66.7604 10.7998C69.7499 10.7998 72.1735 13.2176 72.1735 16.1998C72.1735 19.182 69.7499 21.5998 66.7604 21.5998C63.771 21.5998 61.3474 19.182 61.3474 16.1998ZM41.4997 97.1998C38.5103 97.1998 36.0866 94.782 36.0866 91.7998C36.0866 88.8176 38.5103 86.3998 41.4997 86.3998C44.4891 86.3998 46.9127 88.8176 46.9127 91.7998C46.9127 94.7822 44.4891 97.1998 41.4997 97.1998Z" fill="black"/>
<path d="M41.5006 93.5999C42.497 93.5999 43.3049 92.794 43.3049 91.7999C43.3049 90.8059 42.497 90 41.5006 90C40.5041 90 39.6963 90.8059 39.6963 91.7999C39.6963 92.794 40.5041 93.5999 41.5006 93.5999Z" fill="black"/>
<path d="M66.7613 93.5999C67.7578 93.5999 68.5656 92.794 68.5656 91.7999C68.5656 90.8059 67.7578 90 66.7613 90C65.7648 90 64.957 90.8059 64.957 91.7999C64.957 92.794 65.7648 93.5999 66.7613 93.5999Z" fill="black"/>
</svg>
