<svg width="61" height="108" viewBox="0 0 61 108" fill="none" xmlns="http://www.w3.org/2000/svg">
<path d="M39.4704 12.6001V16.2001H21.5293V12.6001C21.5293 10.6118 23.1358 9 25.1176 9H35.8823C37.8639 9.00021 39.4704 10.612 39.4704 12.6001Z" fill="#FF8500"/>
<path d="M39.4704 12.6001V16.2001H21.5293V12.6001C21.5293 10.6118 23.1358 9 25.1176 9H35.8823C37.8639 9.00021 39.4704 10.612 39.4704 12.6001Z" fill="#FF8500"/>
<path d="M35.8824 9.00024H30.5C32.4818 9.00024 34.0883 10.612 34.0883 12.6003V16.2002H39.4707V12.6001C39.4705 10.612 37.864 9.00024 35.8824 9.00024Z" fill="#E87400"/>
<path d="M59.2059 36V64.8C59.2059 64.8 59.2059 77.3999 46.6471 77.3999C46.6471 77.3999 37.6764 72.8639 36.0977 67.9499C35.8962 67.1669 35.1991 66.6146 34.3932 66.5999H26.6066C25.8007 66.6146 25.1036 67.1669 24.9021 67.9499C23.3234 72.8639 14.3527 77.3999 14.3527 77.3999C1.79394 77.3999 1.79395 64.8 1.79395 64.8V36C1.79395 25.2 10.7646 23.4001 16.147 21.6C21.5293 19.7998 21.5293 16.2 21.5293 16.2H39.4705C39.4705 16.2 39.4705 19.8 44.8528 21.6C50.2352 23.3999 59.2059 25.2 59.2059 36Z" fill="#FF8500"/>
<path d="M44.8526 21.6C39.4702 19.8 39.4702 16.2 39.4702 16.2H34.0879C34.0879 16.2 34.0879 19.8 39.4702 21.6C44.8526 23.3999 53.8233 25.2 53.8233 36V64.8C53.8233 64.8 53.8233 74.3219 45.5523 76.8059L46.6467 77.3999C59.2054 77.3999 59.2054 64.8 59.2054 64.8V36C59.2056 25.2 50.235 23.3999 44.8526 21.6Z" fill="#E87400"/>
<path d="M46.6467 77.4001H14.3525C14.3525 77.4001 23.3232 72.8641 24.902 67.9501C25.1034 67.1671 25.8006 66.6149 26.6064 66.6001H34.393C35.1989 66.6149 35.8961 67.1671 36.0975 67.9501C37.676 72.8641 46.6467 77.4001 46.6467 77.4001Z" fill="#FF8500"/>
<path d="M46.6467 77.4001V91.8002C46.6467 91.8002 45.8753 93.3483 41.2643 94.4101C38.9043 94.9282 36.5022 95.2294 34.0879 95.3102C32.9936 95.3102 31.7914 95.3102 30.4996 95.3102C28.4543 95.3102 26.6781 95.3102 25.1173 95.1121C22.6832 94.9718 20.2742 94.5428 17.9408 93.834C14.9089 92.934 14.3525 91.8 14.3525 91.8V77.3999H46.6467V77.4001Z" fill="#FF8500"/>
<path d="M41.265 77.4001V91.8002C41.265 91.8002 40.4936 93.3483 35.8827 94.4102C33.5226 94.9282 31.1205 95.2294 28.7062 95.3102H27.6836H30.5003H34.0886C36.5031 95.2296 38.9052 94.9284 41.265 94.4102C45.876 93.3481 46.6474 91.8002 46.6474 91.8002V77.4001H41.265Z" fill="#E87400"/>
<path d="M25.118 95.2021V102.6C25.118 104.588 23.5115 106.2 21.5297 106.2C19.5479 106.2 17.9414 104.588 17.9414 102.6V93.9241C20.275 94.6328 22.684 95.0619 25.118 95.2021Z" fill="#FF8500"/>
<path d="M41.2645 94.4102V102.6C41.2645 104.589 39.658 106.2 37.6762 106.2C35.6944 106.2 34.0879 104.589 34.0879 102.6V95.4003C36.5051 95.29 38.9072 94.9586 41.2645 94.4102Z" fill="#FF8500"/>
<path d="M26.9121 59.4001H34.0885V66.6001H26.9121V59.4001Z" fill="#FF8500"/>
<path d="M39.4708 59.4001H21.5297L19.2152 57.0781C18.8757 56.7402 18.6846 56.2801 18.6846 55.8C18.6846 55.3199 18.8757 54.8601 19.2152 54.522L21.5297 52.2H39.4708L41.7852 54.522C42.1248 54.8599 42.3159 55.3199 42.3159 55.8C42.3159 56.2801 42.1248 56.74 41.7852 57.0781L39.4708 59.4001Z" fill="#FF8500"/>
<path d="M39.4708 52.2001H21.5297L19.2152 49.8781C18.8757 49.5402 18.6846 49.0802 18.6846 48.6001C18.6846 48.1202 18.8757 47.6601 19.2152 47.322L21.5297 45H39.4708L41.7852 47.322C42.1248 47.6599 42.3159 48.12 42.3159 48.6001C42.3159 49.08 42.1248 49.54 41.7852 49.8781L39.4708 52.2001Z" fill="#FF8500"/>
<path d="M39.4708 45H21.5297L19.2152 42.678C18.8757 42.3401 18.6846 41.88 18.6846 41.3999C18.6846 40.9198 18.8757 40.46 19.2152 40.1218L21.5297 37.8H39.4708L41.7852 40.122C42.1248 40.46 42.3159 40.92 42.3159 41.4001C42.3159 41.8802 42.1248 42.3401 41.7852 42.6782L39.4708 45Z" fill="#FF8500"/>
<path d="M8.97081 46.8002C7.97991 46.8002 7.17676 45.9942 7.17676 45.0003V36.0002C7.17676 31.2482 13.1152 29.1243 13.7792 28.8901C14.3881 28.6843 15.0602 28.8201 15.5423 29.2464C16.0244 29.6725 16.2433 30.3245 16.1165 30.9565C15.9897 31.5884 15.5364 32.1046 14.9276 32.3103C13.8511 32.6703 10.7653 34.1102 10.7653 36.0002V45.0003C10.7649 45.9942 9.96171 46.8002 8.97081 46.8002Z" fill="#F5F5F5"/>
<path d="M8.97081 55.7999C7.97991 55.7999 7.17676 54.9939 7.17676 54V52.2001C7.17676 51.2059 7.98012 50.4001 8.97081 50.4001C9.9615 50.4001 10.7649 51.2061 10.7649 52.2001V54C10.7649 54.9941 9.9615 55.7999 8.97081 55.7999Z" fill="#F5F5F5"/>
<path d="M34.0885 9.00019V5.40012C34.0885 3.41182 32.482 1.80005 30.5002 1.80005C28.5186 1.80005 26.9121 3.41182 26.9121 5.40012V9.00019H34.0885Z" fill="#FF8500"/>
<path d="M46.8803 20.358L45.4271 19.8899C41.5339 18.5939 41.2648 16.3439 41.2648 16.2V12.5999C41.2648 9.6177 38.855 7.19993 35.8825 7.19993V5.4C35.8825 2.41777 33.4726 0 30.5001 0C27.5276 0 25.1177 2.41777 25.1177 5.4V7.19993C22.1453 7.19993 19.7354 9.6177 19.7354 12.5999V16.2C19.7354 16.3259 19.5201 18.6121 15.5731 19.926L14.1199 20.3941C8.84494 22.032 0 24.8221 0 36.0001V64.8C0 69.498 2.69118 78.1559 12.5588 79.2001V91.8C12.5605 92.0818 12.6282 92.3592 12.7562 92.61C13.556 93.8355 14.7542 94.7451 16.1471 95.1841V102.6C16.1471 105.582 18.5569 108 21.5294 108C24.5019 108 26.9118 105.582 26.9118 102.6V97.2H30.5001H32.2942V102.6C32.2942 105.582 34.704 108 37.6765 108C40.649 108 43.0589 105.582 43.0589 102.6V95.8139C46.8087 94.6979 47.9389 93.2399 48.2438 92.61C48.3719 92.3592 48.4396 92.0818 48.4412 91.8V79.2001C58.3088 78.246 61 69.5881 61 64.8V36.0001C61 24.8221 52.1551 22.032 46.8803 20.358ZM28.7058 5.4C28.7058 4.40585 29.509 3.60007 30.4999 3.60007C31.4908 3.60007 32.2939 4.40606 32.2939 5.4V7.19993H28.7056L28.7058 5.4ZM23.3235 12.5999C23.3235 11.6058 24.1268 10.8 25.1175 10.8H35.8823C36.8732 10.8 37.6763 11.606 37.6763 12.5999V14.3999H23.3233L23.3235 12.5999ZM38.7351 39.5999L40.5292 41.3999L38.7351 43.1998H22.2651L20.471 41.3999L22.2651 39.5999H38.7351ZM20.4708 48.6L22.2649 46.8001H38.7349L40.529 48.6L38.7349 50.3999H22.2649L20.4708 48.6ZM22.2651 54H38.7351L40.5292 55.7999L38.7351 57.5999H22.2651L20.471 55.7999L22.2651 54ZM32.2942 61.1999V64.8H28.7058V61.1999H32.2942ZM26.6067 68.4001H34.3752C35.6089 71.3427 37.6889 73.8492 40.3496 75.6H20.6144C23.2869 73.8579 25.3749 71.349 26.6067 68.4001ZM23.3235 102.6C23.3235 103.594 22.5201 104.4 21.5294 104.4C20.5385 104.4 19.7354 103.594 19.7354 102.6V96.2641C20.7759 96.4801 21.96 96.6781 23.3237 96.8401V102.6H23.3235ZM39.4706 102.6C39.4706 103.594 38.6672 104.4 37.6765 104.4C36.6856 104.4 35.8825 103.594 35.8825 102.6V97.0019C37.2102 96.8939 38.4122 96.768 39.4708 96.5879V102.6H39.4706ZM34.0882 93.5999C32.9939 93.5999 31.8097 93.5999 30.4999 93.5999C26.5031 93.744 22.5069 93.2953 18.6408 92.2679C17.7527 92.0312 16.9099 91.6479 16.1471 91.1339V79.1999H44.8529V91.0978C44.0815 91.6741 41.4442 93.15 34.0882 93.5999ZM57.4119 64.8C57.4119 65.88 57.0351 75.33 47.0418 75.6C44.5659 74.2861 38.7889 70.6499 37.802 67.4281C37.5136 66.4365 36.8143 65.617 35.8823 65.178V61.1999H39.4706C39.9474 61.2027 40.4058 61.0149 40.7445 60.6779L43.0589 58.3379C44.4501 56.9337 44.4501 54.6661 43.0589 53.2619L42.0003 52.1999L43.0589 51.1378C44.4501 49.7336 44.4501 47.466 43.0589 46.0618L42.0003 44.9997L43.0589 43.9376C44.4501 42.5334 44.4501 40.2659 43.0589 38.8616L40.7445 36.5217C40.406 36.1849 39.9476 35.9969 39.4706 35.9996H37.6765V32.4C37.6765 31.4059 36.8732 30.6001 35.8825 30.6001C34.8918 30.6001 34.0884 31.4059 34.0884 32.4V36.0001H26.9118V32.4C26.9118 31.4059 26.1084 30.6001 25.1177 30.6001C24.1268 30.6001 23.3237 31.4059 23.3237 32.4V36.0001H21.5294C21.0526 35.9973 20.5943 36.1851 20.2555 36.5221L17.9411 38.8621C16.5499 40.2663 16.5499 42.5339 17.9411 43.9381L18.9997 45.0001L17.9411 46.0622C16.5499 47.4664 16.5499 49.734 17.9411 51.1382L18.9997 52.2003L17.9411 53.2624C16.5499 54.6666 16.5499 56.9341 17.9411 58.3383L20.2555 60.6783C20.594 61.0151 21.0524 61.2031 21.5294 61.2004H25.1177V65.1784C24.1897 65.6134 23.4911 66.4257 23.198 67.4104C22.1932 70.6504 16.5417 74.2144 13.9582 75.5823C3.96508 75.33 3.58831 65.88 3.58831 64.8V36.0001C3.58831 27.4681 9.76015 25.5061 15.1963 23.7961L16.7213 23.3101C19.5075 22.6093 21.8093 20.6461 22.9469 18.0001H38.0535C39.1686 20.6809 41.474 22.6804 44.2792 23.4001L45.8041 23.8861C51.1864 25.5962 57.4121 27.4862 57.4121 36.0901L57.4119 64.8Z" fill="black"/>
<path d="M25.1174 84.6001H23.3233C22.3324 84.6001 21.5293 85.4061 21.5293 86.4C21.5293 87.3942 22.3327 88.2 23.3233 88.2H25.1174C26.1083 88.2 26.9114 87.394 26.9114 86.4C26.9114 85.4059 26.1081 84.6001 25.1174 84.6001Z" fill="black"/>
<path d="M37.677 84.6001H35.8829C34.892 84.6001 34.0889 85.4061 34.0889 86.4C34.0889 87.3942 34.8922 88.2 35.8829 88.2H37.677C38.6679 88.2 39.471 87.394 39.471 86.4C39.471 85.4059 38.6679 84.6001 37.677 84.6001Z" fill="black"/>
</svg>
