<svg width="109" height="109" viewBox="0 0 109 109" fill="none" xmlns="http://www.w3.org/2000/svg">
<g clip-path="url(#clip0)">
<path d="M107.171 101.749C107.171 104.744 104.743 107.171 101.749 107.171H7.25023C4.25564 107.171 1.82812 104.744 1.82812 101.749V7.25071C1.82812 4.25612 4.25564 1.82861 7.25023 1.82861H101.749C104.744 1.82861 107.171 4.25612 107.171 7.25071V101.749H107.171Z" fill="#FF8500"/>
<path d="M106.957 3.6604H101.449V105.873H106.957V3.6604Z" fill="#E87400"/>
<path d="M101.749 109H7.2507C3.25253 109 0 105.747 0 101.749V7.25069C0 3.25253 3.25253 0 7.2507 0H101.749C105.747 0 109 3.25253 109 7.25069V101.749C109 105.747 105.747 109 101.749 109ZM7.2507 3.65718C5.26915 3.65718 3.65719 5.26914 3.65719 7.25069V101.749C3.65719 103.731 5.26915 105.343 7.2507 105.343H101.749C103.731 105.343 105.343 103.731 105.343 101.749V7.25069C105.343 5.26914 103.731 3.65718 101.749 3.65718H7.2507Z" fill="black"/>
<path d="M42.2432 57.3885C41.6997 57.3885 41.1645 57.3803 40.6377 57.3638C40.1104 57.3476 39.6164 57.3145 39.1556 57.265V70.1826H33.1045V37.135H42.6384C44.2353 37.135 45.6308 37.2051 46.8248 37.345C48.0185 37.485 49.0847 37.6952 50.0233 37.9749C52.2791 38.6665 54.0161 39.7699 55.2348 41.2846C56.4531 42.7998 57.0625 44.7263 57.0625 47.0643C57.0625 48.6616 56.733 50.0984 56.0747 51.3742C55.4159 52.6505 54.4526 53.733 53.1848 54.6222C51.9166 55.5115 50.3692 56.195 48.5415 56.6721C46.7138 57.1497 44.6143 57.3885 42.2432 57.3885ZM39.1559 52.1768C39.5016 52.2261 39.9419 52.2633 40.4772 52.288C41.012 52.3128 41.5679 52.325 42.1444 52.325C43.7745 52.325 45.1412 52.1936 46.2446 51.9298C47.3475 51.6667 48.2367 51.2999 48.9122 50.831C49.587 50.3615 50.073 49.7936 50.3694 49.1267C50.6659 48.4596 50.8141 47.7312 50.8141 46.9408C50.8141 45.9693 50.5919 45.1296 50.1472 44.4214C49.7025 43.7136 48.9285 43.1618 47.8255 42.7666C47.249 42.5692 46.5369 42.4252 45.6891 42.3345C44.8408 42.2441 43.7996 42.1985 42.5646 42.1985H39.1561V52.1768H39.1559Z" fill="black"/>
<path d="M77.3654 70.1577C76.7067 70.3554 75.9204 70.5118 75.0066 70.6271C74.0927 70.7422 73.2406 70.8001 72.4502 70.8001C70.4411 70.8001 68.7986 70.4748 67.5226 69.8244C66.2463 69.1743 65.3449 68.24 64.818 67.0211C64.439 66.1486 64.2499 64.9632 64.2499 63.4646V51.0657H59.7793V46.2492H64.2499V39.5557H70.1035V46.249H77.0193V51.0655H70.1035V62.6985C70.1035 63.621 70.2432 64.304 70.5235 64.7485C71.0174 65.506 71.9969 65.8846 73.4628 65.8846C74.1376 65.8846 74.8089 65.8314 75.4757 65.7241C76.1426 65.6172 76.7725 65.4814 77.3652 65.3164V70.1577H77.3654Z" fill="black"/>
<path d="M19.6206 11.6653H17.7849C16.771 11.6653 15.9492 10.8433 15.9492 9.82959C15.9492 8.8159 16.7712 7.9939 17.7849 7.9939H19.6206C20.6345 7.9939 21.4563 8.8159 21.4563 9.82959C21.4563 10.8433 20.6345 11.6653 19.6206 11.6653Z" fill="#F5F5F5"/>
<path d="M91.2156 11.6653H28.7996C27.7857 11.6653 26.9639 10.8433 26.9639 9.82959C26.9639 8.8159 27.7859 7.9939 28.7996 7.9939H91.2156C92.2295 7.9939 93.0513 8.8159 93.0513 9.82959C93.0513 10.8433 92.2295 11.6653 91.2156 11.6653Z" fill="#F5F5F5"/>
<path d="M26.0786 100.733H24.2429C23.229 100.733 22.4072 99.9106 22.4072 98.897C22.4072 97.8833 23.2292 97.0613 24.2429 97.0613H26.0786C27.0925 97.0613 27.9143 97.8831 27.9143 98.897C27.9143 99.9109 27.0925 100.733 26.0786 100.733Z" fill="black"/>
<path d="M84.7577 100.733H35.2576C34.2437 100.733 33.4219 99.9106 33.4219 98.897C33.4219 97.8833 34.2439 97.0613 35.2576 97.0613H84.7579C85.7718 97.0613 86.5936 97.8831 86.5936 98.897C86.5936 99.9109 85.7716 100.733 84.7577 100.733Z" fill="black"/>
</g>
<defs>
<clipPath id="clip0">
<rect width="109" height="109" fill="white"/>
</clipPath>
</defs>
</svg>
