<svg width="60" height="107" viewBox="0 0 60 107" fill="none" xmlns="http://www.w3.org/2000/svg">
<path d="M46.2175 8.57759C39.6565 1.9509 29.7921 -0.0308968 21.2218 3.5559C12.6515 7.1427 7.06211 15.5924 7.05859 24.9666V62.4166H52.9411V24.9666C52.9388 18.8187 50.5205 12.9236 46.2175 8.57759Z" fill="#FF8500"/>
<path d="M46.2172 8.5777C41.9166 4.22936 36.0831 1.7855 29.9996 1.7832C29.1151 1.79114 28.2317 1.84485 27.3525 1.9437C38.9185 3.30147 47.6439 13.1998 47.6466 24.9665V62.4165H52.9407V24.9665C52.9385 18.8188 50.5201 12.9237 46.2172 8.5777Z" fill="#E87400"/>
<path d="M42.3525 53.4998H30.8818L37.0584 42.7998H42.3525V53.4998Z" fill="#FF8500"/>
<path d="M21.176 13.4108C20.5891 13.4117 20.0401 13.1176 19.7113 12.6261C19.4486 12.2336 19.3512 11.7519 19.4406 11.2867C19.5299 10.8215 19.7987 10.4117 20.1877 10.1471C23.0869 8.17431 26.5043 7.12458 29.9994 7.13336C30.9741 7.13336 31.7641 7.93188 31.7641 8.91662C31.7641 9.90135 30.9739 10.6999 29.9994 10.6999C27.2097 10.7024 24.4832 11.5402 22.1641 13.1074C21.8721 13.3059 21.528 13.4115 21.176 13.4108Z" fill="#F5F5F5"/>
<path d="M14.1172 26.75C13.1425 26.75 12.3526 25.9515 12.3526 24.9667C12.3236 22.219 12.9277 19.502 14.1172 17.031C14.3256 16.6032 14.6948 16.2776 15.1425 16.1267C15.5902 15.9758 16.0789 16.0126 16.4995 16.2285C16.9198 16.4423 17.2382 16.8168 17.384 17.2688C17.5298 17.7208 17.491 18.213 17.2761 18.636C16.3312 20.6082 15.8537 22.7758 15.882 24.9667C15.882 25.4397 15.6961 25.8934 15.3652 26.2278C15.0339 26.5621 14.5852 26.75 14.1172 26.75Z" fill="#F5F5F5"/>
<path d="M12.3525 71.333H22.9408V74.8997C22.9408 76.8696 21.3606 78.4665 19.4113 78.4665H15.882C13.9327 78.4665 12.3525 76.8696 12.3525 74.8997V71.333Z" fill="#FF8500"/>
<path d="M37.0588 71.333H47.647V74.8997C47.647 76.8696 46.0669 78.4665 44.1176 78.4665H40.5881C38.6388 78.4665 37.0586 76.8696 37.0586 74.8997V71.333H37.0588Z" fill="#FF8500"/>
<path d="M29.1172 42.7998L22.9406 53.4998H17.6465V42.7998H29.1172Z" fill="#FF8500"/>
<path d="M3.52929 62.4165H56.4705C57.4452 62.4165 58.2352 63.2148 58.2352 64.1998V69.5498C58.2352 70.5347 57.4452 71.333 56.4705 71.333H3.52929C2.55463 71.333 1.76465 70.5347 1.76465 69.5498V64.1998C1.76444 63.2148 2.55463 62.4165 3.52929 62.4165Z" fill="#FF8500"/>
<path d="M56.4709 62.4165H51.1768C52.1514 62.4165 52.9414 63.2148 52.9414 64.1998V69.5498C52.9414 70.5347 52.1512 71.333 51.1768 71.333H56.4709C57.4455 71.333 58.2355 70.5347 58.2355 69.5498V64.1998C58.2355 63.2148 57.4455 62.4165 56.4709 62.4165Z" fill="#E87400"/>
<path d="M3.52948 73.1167H10.5882V74.9C10.5882 77.8546 12.9586 80.25 15.8824 80.25V105.217C15.8824 106.202 16.6726 107 17.647 107C18.6215 107 19.4117 106.202 19.4117 105.217V80.25C22.3354 80.25 24.7058 77.8546 24.7058 74.9V73.1167H35.294V74.9C35.294 77.8546 37.6644 80.25 40.5881 80.25V105.217C40.5881 106.202 41.3783 107 42.3528 107C43.3274 107 44.1174 106.202 44.1174 105.217V80.25C47.0412 80.25 49.4116 77.8546 49.4116 74.9V73.1167H56.4703C58.4196 73.1167 59.9998 71.5199 59.9998 69.55V64.2C59.9998 62.2301 58.4196 60.6333 56.4703 60.6333H54.7057V24.9667C54.7059 11.1779 43.6447 0 30.0001 0C16.3555 0 5.29412 11.1779 5.29412 24.9667V60.6335H3.52948C1.58017 60.6333 0 62.2301 0 64.2V69.55C0 71.5199 1.58017 73.1167 3.52948 73.1167ZM21.1765 74.9C21.1765 75.8849 20.3863 76.6833 19.4119 76.6833H15.8824C14.9077 76.6833 14.1177 75.8849 14.1177 74.9V73.1167H21.1765V74.9ZM45.8825 74.9C45.8825 75.8849 45.0923 76.6833 44.1178 76.6833H40.5884C39.6137 76.6833 38.8237 75.8849 38.8237 74.9V73.1167H45.8825V74.9V74.9ZM8.82361 24.9667C8.82361 13.1478 18.3046 3.56674 30.0001 3.56674C41.6956 3.56674 51.1766 13.1478 51.1766 24.9667V60.6335H44.1178V42.8C44.1178 41.8151 43.3276 41.0167 42.3532 41.0167H37.0591C36.4325 41.0205 35.8547 41.3599 35.5414 41.9085L29.3648 52.6085C29.0505 53.1585 29.0494 53.836 29.3621 54.3871C29.6748 54.9382 30.2539 55.2797 30.8825 55.2835H40.5884V60.6335H19.4119V55.2835H22.9413C23.568 55.2797 24.1458 54.9403 24.4591 54.3917L30.6356 43.6917C30.9499 43.1417 30.951 42.4642 30.6383 41.9131C30.3256 41.362 29.7466 41.0205 29.1179 41.0167H17.647C16.6724 41.0167 15.8824 41.8153 15.8824 42.8V60.6333H8.82361V24.9667ZM40.5884 51.7167H33.9531L38.065 44.5835H40.5886V51.7167H40.5884ZM19.4119 51.7167V44.5835H26.0471L21.9353 51.7167H19.4119ZM3.52948 64.2H56.4707V69.55H3.52948V64.2V64.2Z" fill="black"/>
</svg>
