<svg width="109" height="109" viewBox="0 0 109 109" fill="none" xmlns="http://www.w3.org/2000/svg">
<path d="M107.171 101.749C107.171 104.744 104.743 107.171 101.749 107.171H7.25022C4.25563 107.171 1.82812 104.744 1.82812 101.749V7.25071C1.82812 4.25612 4.25563 1.82861 7.25022 1.82861H101.749C104.743 1.82861 107.171 4.25612 107.171 7.25071V101.749H107.171Z" fill="#FF8500"/>
<path d="M106.956 3.6604H101.449V105.873H106.956V3.6604Z" fill="#E87400"/>
<path d="M101.749 109H7.25069C3.25253 109 0 105.747 0 101.749V7.25069C0 3.25253 3.25253 0 7.25069 0H101.749C105.747 0 109 3.25253 109 7.25069V101.749C109 105.747 105.747 109 101.749 109ZM7.25069 3.65718C5.26914 3.65718 3.65718 5.26914 3.65718 7.25069V101.749C3.65718 103.731 5.26914 105.343 7.25069 105.343H101.749C103.731 105.343 105.343 103.731 105.343 101.749V7.25069C105.343 5.26914 103.731 3.65718 101.749 3.65718H7.25069Z" fill="black"/>
<path d="M46.2794 61.7601H33.834L30.5969 70.1824H24.1504L37.2657 37.135H42.7984L55.9135 70.1824H49.5164L46.2794 61.7601ZM40.0073 45.0883C38.8518 48.5452 37.8209 51.4344 36.9153 53.7556L35.7856 56.6968H44.3277L43.1983 53.7556C42.3025 51.4137 41.2716 48.525 40.1062 45.0883H40.0073Z" fill="black"/>
<path d="M75.4007 70.7998C75.4007 70.4702 75.4045 70.063 75.4131 69.5772C75.4213 69.0917 75.4415 68.6842 75.4749 68.3544H75.4256C75.0631 68.6509 74.6477 68.9432 74.1783 69.2313C73.7089 69.5196 73.1941 69.7831 72.6345 70.0217C72.0746 70.26 71.4571 70.4496 70.7821 70.5898C70.1068 70.7294 69.4151 70.7998 68.7074 70.7998C67.4392 70.7998 66.2005 70.5733 64.9902 70.1206C63.7798 69.668 62.7055 68.9516 61.7669 67.9719C60.8283 66.9924 60.0708 65.7365 59.4945 64.2052C58.9179 62.674 58.6299 60.8301 58.6299 58.6726C58.6299 56.5157 58.922 54.626 59.5068 53.0041C60.091 51.3825 60.8692 50.0278 61.8409 48.941C62.8122 47.8542 63.9281 47.0354 65.1876 46.4834C66.4472 45.932 67.744 45.656 69.0778 45.656C70.5433 45.656 71.8442 45.9647 72.9802 46.5821C74.1163 47.1996 75.0463 47.9861 75.7713 48.941H75.8701L76.117 46.2487H81.2545V70.6266C81.2545 72.026 81.139 73.2282 80.9088 74.2328C80.678 75.237 80.3407 76.1262 79.896 76.9002C79.3689 77.8057 78.6981 78.5961 77.883 79.2711C77.0679 79.9462 76.1375 80.5062 75.0919 80.9508C74.046 81.3953 72.8976 81.7288 71.6465 81.951C70.3948 82.1732 69.0692 82.2846 67.6698 82.2846C66.8794 82.2846 66.1054 82.2556 65.3481 82.1982C64.5907 82.1403 63.8786 82.0581 63.2117 81.9512C62.5448 81.8441 61.9353 81.7206 61.384 81.5807C60.8322 81.4407 60.367 81.2968 59.9884 81.1483V76.3815C61.0752 76.7436 62.2152 77.0196 63.4092 77.2091C64.6029 77.3982 65.8582 77.4931 67.1759 77.4931C69.794 77.4931 71.8192 76.9867 73.252 75.9739C74.6845 74.9612 75.4007 73.4257 75.4007 71.3675V70.7998ZM70.1646 66.1317C70.7573 66.1317 71.3169 66.0575 71.8442 65.9095C72.371 65.7615 72.8568 65.5722 73.3014 65.3413C73.7459 65.1109 74.1449 64.8558 74.4993 64.5755C74.8532 64.2958 75.1537 64.0159 75.4007 63.7358V53.0412C74.7746 52.3002 74.001 51.6828 73.079 51.1887C72.1565 50.6947 71.177 50.4398 70.1397 50.423C69.7772 50.423 69.3945 50.4686 68.9911 50.5588C68.5875 50.6496 68.1799 50.8101 67.7685 51.0405C67.3568 51.2713 66.9659 51.58 66.5952 51.9668C66.2248 52.3538 65.8995 52.8434 65.6196 53.4363C65.3395 54.0292 65.1132 54.7372 64.9405 55.5605C64.7675 56.384 64.681 57.3388 64.681 58.4254C64.681 59.6277 64.7961 60.7021 65.0267 61.6487C65.2571 62.5957 65.6028 63.4022 66.0641 64.0691C66.5249 64.7362 67.0971 65.2467 67.7806 65.6004C68.4641 65.9551 69.2587 66.1317 70.1646 66.1317Z" fill="black"/>
<path d="M19.6206 11.6653H17.7849C16.771 11.6653 15.9492 10.8433 15.9492 9.82959C15.9492 8.8159 16.7712 7.9939 17.7849 7.9939H19.6206C20.6345 7.9939 21.4563 8.8159 21.4563 9.82959C21.4563 10.8433 20.6345 11.6653 19.6206 11.6653Z" fill="#F5F5F5"/>
<path d="M91.2154 11.6653H28.7996C27.7857 11.6653 26.9639 10.8433 26.9639 9.82959C26.9639 8.8159 27.7859 7.9939 28.7996 7.9939H91.2154C92.2293 7.9939 93.0511 8.8159 93.0511 9.82959C93.0511 10.8433 92.2293 11.6653 91.2154 11.6653Z" fill="#F5F5F5"/>
<path d="M26.0786 100.733H24.2429C23.229 100.733 22.4072 99.9106 22.4072 98.897C22.4072 97.8833 23.2292 97.0613 24.2429 97.0613H26.0786C27.0925 97.0613 27.9143 97.8831 27.9143 98.897C27.9143 99.9109 27.0925 100.733 26.0786 100.733Z" fill="black"/>
<path d="M84.7578 100.733H35.2576C34.2437 100.733 33.4219 99.9106 33.4219 98.897C33.4219 97.8833 34.2439 97.0613 35.2576 97.0613H84.7578C85.7717 97.0613 86.5935 97.8831 86.5935 98.897C86.5935 99.9109 85.7714 100.733 84.7578 100.733Z" fill="black"/>
</svg>
