<svg width="96" height="108" viewBox="0 0 96 108" fill="none" xmlns="http://www.w3.org/2000/svg">
<path d="M94.1535 5.49623V62.1788C94.1535 64.2025 92.5004 65.843 90.4611 65.843H81.2303V67.675C81.2303 69.6987 79.5772 71.3392 77.5379 71.3392C75.4986 71.3392 73.8455 69.6987 73.8455 67.675V65.843H22.1535V67.675C22.1535 69.6987 20.5004 71.3392 18.4611 71.3392C16.4218 71.3392 14.7687 69.6987 14.7687 67.675V65.843H5.53809C3.49881 65.843 1.8457 64.2025 1.8457 62.1788V5.49623C1.8457 3.47251 3.49881 1.83203 5.53809 1.83203H90.4611C92.5004 1.83203 94.1535 3.47251 94.1535 5.49623Z" fill="#FF8500"/>
<path d="M90.4613 1.83203H84.9229C86.9621 1.83203 88.6152 3.47251 88.6152 5.49623V62.1788C88.6152 64.2025 86.9621 65.843 84.9229 65.843H90.4613C92.5006 65.843 94.1537 64.2025 94.1537 62.1788V5.49623C94.1537 3.47251 92.5006 1.83203 90.4613 1.83203Z" fill="#E87400"/>
<path d="M90.4612 65.8428V78.6671H5.53809V65.8428H14.7689V67.6748C14.7689 69.6985 16.422 71.339 18.4613 71.339C20.5006 71.339 22.1537 69.6985 22.1537 67.6748V65.8428H73.846V67.6748C73.846 69.6985 75.4991 71.339 77.5384 71.339C79.5777 71.339 81.2308 69.6985 81.2308 67.6748V65.8428H90.4612Z" fill="#FF8500"/>
<path d="M84.9229 65.8428H90.4613V78.6671H84.9229V65.8428Z" fill="#E87400"/>
<path d="M3.69238 67.3452V106.148C3.69238 107.16 4.51904 107.98 5.53847 107.98C6.55789 107.98 7.38455 107.16 7.38455 106.148V80.4993H16.6154H31.3847H40.6156H55.3847H64.6155H79.3848H88.6154V106.148C88.6154 107.16 89.4421 107.98 90.4615 107.98C91.481 107.98 92.3076 107.16 92.3076 106.148V67.3452C94.5152 66.5708 95.9933 64.5022 96 62.1788V5.49618C96 2.46083 93.5202 0 90.4615 0H44.3077H14.7693H5.53847C2.47976 0 0 2.46083 0 5.49618V62.1788C0.00649039 64.5022 1.48478 66.5706 3.69238 67.3452ZM7.38455 67.675H12.923C12.923 70.7103 15.4028 73.1712 18.4615 73.1712C21.5202 73.1712 23.9999 70.7103 23.9999 67.675H72C72 70.7103 74.4798 73.1712 77.5385 73.1712C80.5972 73.1712 83.077 70.7103 83.077 67.675H88.6154V76.8354H7.38455V67.675ZM20.3078 80.4993H27.6923H20.3078ZM44.3077 80.4993H51.6923H44.3077ZM68.3077 80.4993H75.6922H68.3077ZM40.6153 0H18.4615H40.6153ZM3.69238 5.49618C3.69238 4.48433 4.51904 3.66419 5.53847 3.66419H90.4615C91.4812 3.66419 92.3076 4.48454 92.3076 5.49618V62.1788C92.3076 63.1906 91.4812 64.0108 90.4615 64.0108H81.2307C80.211 64.0108 79.3846 64.8309 79.3846 65.8428V67.6748C79.3846 68.6866 78.5582 69.5068 77.5385 69.5068C76.5189 69.5068 75.6924 68.6864 75.6924 67.6748V65.8428C75.6924 64.8309 74.866 64.0108 73.8464 64.0108H22.1539C21.1342 64.0108 20.3078 64.8309 20.3078 65.8428V67.6748C20.3078 68.6866 19.4811 69.5068 18.4617 69.5068C17.4421 69.5068 16.6156 68.6864 16.6156 67.6748V65.8428C16.6156 64.8309 15.789 64.0108 14.7695 64.0108H5.53847C4.51883 64.0108 3.69238 63.1904 3.69238 62.1788V5.49618Z" fill="black"/>
<path d="M12.9226 11.9086H11.0766C10.0569 11.9086 9.23047 11.0882 9.23047 10.0766C9.23047 9.06495 10.0569 8.24438 11.0766 8.24438H12.9226C13.9423 8.24438 14.7687 9.06473 14.7687 10.0764C14.7687 11.088 13.9423 11.9086 12.9226 11.9086Z" fill="#F5F5F5"/>
<path d="M84.9229 11.9086H22.1537C21.1341 11.9086 20.3076 11.0882 20.3076 10.0766C20.3076 9.06495 21.1341 8.24438 22.1537 8.24438H84.9229C85.9426 8.24438 86.769 9.06473 86.769 10.0764C86.769 11.088 85.9426 11.9086 84.9229 11.9086Z" fill="#F5F5F5"/>
<path d="M45.8232 80.1577V106.168C45.8232 107.18 46.6497 108 47.6693 108C48.689 108 49.5154 107.18 49.5154 106.168V80.3041" fill="black"/>
<path d="M24.332 80.1577V106.168C24.332 107.18 25.1587 108 26.1781 108C27.1975 108 28.0242 107.18 28.0242 106.168V80.3041" fill="black"/>
<path d="M67.3135 80.1577V106.168C67.3135 107.18 68.1399 108 69.1596 108C70.1792 108 71.0056 107.18 71.0056 106.168V80.3041" fill="black"/>
<path d="M56.207 80.1577V106.168C56.207 107.18 57.0337 108 58.0531 108C59.0725 108 59.8992 107.18 59.8992 106.168V80.3041" fill="black"/>
<path d="M77.7695 80.1577V106.168C77.7695 107.18 78.596 108 79.6156 108C80.6353 108 81.4617 107.18 81.4617 106.168V80.3041" fill="black"/>
<path d="M13.876 80.1577V106.168C13.876 107.18 14.7026 108 15.7221 108C16.7415 108 17.5681 107.18 17.5681 106.168V80.3041" fill="black"/>
<path d="M35.2217 80.1577V106.168C35.2217 107.18 36.0483 108 37.0678 108C38.0872 108 38.9138 107.18 38.9138 106.168V80.3041" fill="black"/>
</svg>
