<svg width="140" height="109" viewBox="0 0 140 109" fill="none" xmlns="http://www.w3.org/2000/svg">
<path d="M23.5445 51.0139L18.8471 54.2475L17.4397 58.5002C16.8277 60.3443 14.8348 61.3434 12.9885 60.7321C11.1423 60.1207 10.1421 58.1301 10.7541 56.2859L12.5134 51.0139C12.5799 50.8282 12.6685 50.6511 12.7774 50.4868L13.3756 49.6432L16.8943 44.5293C18.6245 47.1382 20.8917 49.349 23.5445 51.0139Z" fill="#FF8500"/>
<path d="M53.9106 60.7322C53.024 61.0266 52.0566 60.9569 51.2218 60.5383C50.3867 60.1195 49.7527 59.3865 49.4596 58.5005L48.0522 54.2478L43.3548 51.0142C37.3047 54.8326 29.5948 54.8326 23.5447 51.0142C20.8917 49.3493 18.6247 47.1387 16.8945 44.5296C13.88 40.0158 12.2926 34.7016 12.3379 29.2757C12.3379 15.6915 21.7856 4.67285 33.4499 4.67285C45.1141 4.67285 54.5619 15.6915 54.5619 29.2757C54.6072 34.7016 53.0197 40.0156 50.0052 44.5296L53.5239 49.6435L54.1221 50.4871C54.2276 50.6536 54.3158 50.8302 54.3861 51.0142L56.1454 56.2862C56.4402 57.1718 56.3704 58.1382 55.9514 58.972C55.5317 59.8059 54.7976 60.4392 53.9106 60.7322Z" fill="#FF8500"/>
<path d="M56.1451 56.286L54.3858 51.014C54.3157 50.8298 54.2273 50.6534 54.1218 50.4869L53.5236 49.6433L50.0049 44.5294C53.0194 40.0156 54.6068 34.7013 54.5616 29.2755C54.5616 15.6912 45.1138 4.67261 33.4495 4.67261C32.566 4.68036 31.6842 4.7508 30.8105 4.8835C41.2257 6.42995 49.2836 16.728 49.2836 29.2755C49.3288 34.7013 47.7414 40.0154 44.7269 44.5294L48.2456 49.6433L48.8438 50.4869C48.9493 50.6534 49.0375 50.83 49.1078 51.014L50.8671 56.286C51.254 57.4751 50.9793 58.7801 50.1458 59.7128C51.2447 60.9917 53.0979 61.3116 54.5626 60.4749C56.0274 59.6383 56.6914 57.8807 56.1451 56.286Z" fill="#E87400"/>
<path d="M58.3798 81.4337C57.2789 81.2467 56.3322 80.549 55.8288 79.5533C55.327 78.5585 55.327 77.385 55.8288 76.3902L57.0779 73.8595C57.7974 72.4425 57.9787 70.8131 57.5882 69.2729L55.7057 61.769C56.4599 61.2614 57.0667 60.5644 57.465 59.7479C58.0952 58.4992 58.2026 57.0516 57.7641 55.7236L56.0048 50.4515C55.8972 50.1069 55.737 49.781 55.5297 49.485L52.0111 44.4766C54.8452 39.9131 56.3387 34.6458 56.3214 29.2755C56.3214 14.7422 46.0645 2.91528 33.4501 2.91528C20.8356 2.91528 10.5785 14.7422 10.5785 29.2755C10.5352 34.6348 11.9915 39.8997 14.7834 44.4766L11.2647 49.5201C11.0648 49.8077 10.905 50.1209 10.7896 50.4515L9.03031 55.7236C8.28823 57.9837 9.15302 60.4601 11.1416 61.769L9.25912 69.2729C8.87073 70.8058 9.04562 72.427 9.75169 73.842L11.0359 76.4078C11.5319 77.3979 11.5319 78.5635 11.0359 79.5535C10.5289 80.5537 9.57463 81.2521 8.46723 81.4339C5.62702 81.9156 3.41502 84.1604 2.9781 87.0047L0.0225164 106.335C-0.0529637 106.802 0.06306 107.28 0.344493 107.66C0.625926 108.041 1.04883 108.291 1.51789 108.356H1.78185C2.65914 108.366 3.40963 107.729 3.54118 106.863L6.51445 87.5318C6.71048 86.1846 7.75621 85.1188 9.10062 84.8958C11.3044 84.533 13.205 83.1466 14.2218 81.1603C15.2387 79.174 15.2512 76.8232 14.2555 74.8263L12.9712 72.2605C12.6503 71.5871 12.5697 70.8243 12.7424 70.099L14.6072 62.6655C16.6687 62.4775 18.4297 61.1031 19.111 59.1508L20.3249 55.4603L23.6676 53.1759C29.7395 56.5958 37.1596 56.5958 43.2314 53.1759L46.5566 55.478L47.7883 59.1685C48.4697 61.1208 50.2308 62.4951 52.2923 62.6832L54.1747 70.1695C54.3492 70.9023 54.2621 71.673 53.9285 72.3486L52.6794 74.8791C51.6768 76.8727 51.6811 79.2231 52.691 81.2131C53.7009 83.2029 55.5966 84.5957 57.7991 84.9662C59.145 85.1801 60.1978 86.2389 60.4029 87.5846L63.3762 106.915C63.5297 107.754 64.2643 108.362 65.1179 108.357H65.3818C65.8509 108.292 66.2738 108.041 66.5552 107.66C66.8366 107.28 66.9527 106.802 66.8772 106.336L63.9039 87.0047C63.4629 84.1494 61.2336 81.9015 58.3798 81.4337ZM17.915 52.8064C17.6003 53.0247 17.3657 53.3392 17.2464 53.7028L15.8565 57.938C15.6797 58.5569 15.1785 59.0298 14.5498 59.1704C13.9212 59.3113 13.2658 59.0976 12.8412 58.6136C12.4168 58.1295 12.2911 57.4523 12.5138 56.8485L14.2732 51.5764V51.4711L17.0001 47.4995C18.05 48.7879 19.229 49.9656 20.5188 51.0142L17.915 52.8064ZM51.2017 57.9555L49.7943 53.7028C49.6751 53.3394 49.4404 53.0247 49.1258 52.8064L44.4635 49.5905L41.3319 47.4291C40.807 47.0555 40.1225 46.9901 39.5364 47.2572C38.95 47.5245 38.551 48.0837 38.4896 48.7246C38.4281 49.3654 38.7136 49.9903 39.2383 50.3639L39.9245 50.8384C34.8771 52.9587 29.1117 52.4866 24.4776 49.5731C22.0373 48.0357 19.9506 45.9994 18.3551 43.5981C15.5201 39.3631 14.0357 34.3698 14.0976 29.2757C14.0976 16.6755 22.7711 6.43019 33.4503 6.43019C44.1294 6.43019 52.8029 16.6755 52.8029 29.2757C52.8323 33.4534 51.8355 37.5747 49.9 41.2784L49.2843 40.3118C48.8051 39.6278 48.2097 39.0331 47.5249 38.5544C46.7296 38.0614 45.6869 38.2768 45.1525 39.0445C44.6181 39.8122 44.7794 40.8637 45.5191 41.4365C45.8847 41.687 46.2006 42.0028 46.4516 42.3679L52.2047 50.6801L52.8381 51.6115L54.5974 56.8836C54.7452 57.3306 54.707 57.8181 54.492 58.2368C54.2862 58.6498 53.9259 58.9653 53.4892 59.1155C53.024 59.3042 52.5004 59.2852 52.0501 59.0638C51.5998 58.8421 51.2655 58.4391 51.1318 57.9557H51.2017V57.9555Z" fill="black"/>
<path d="M108.332 31.6323V19.3309C108.332 17.3898 106.757 15.8162 104.814 15.8162H69.6271C67.6838 15.8162 66.1084 17.3898 66.1084 19.3309V31.6323C66.1084 32.9239 66.8177 34.1117 67.9557 34.7252C69.0146 35.3441 69.6545 36.4875 69.6271 37.7128V39.6108C69.6545 40.8358 69.0146 41.9795 67.9557 42.5984C66.8177 43.2119 66.1084 44.3996 66.1084 45.6913V59.75C66.1084 61.0417 66.8177 62.2295 67.9557 62.843C69.0146 63.4618 69.6545 64.6053 69.6271 65.8305V86.1103C69.6271 88.0513 71.2024 89.6249 73.1457 89.6249H101.295C103.238 89.6249 104.814 88.0513 104.814 86.1103V65.8305C104.804 64.587 105.48 63.439 106.573 62.843C107.677 62.2064 108.35 61.0231 108.332 59.75V45.6913C108.35 44.4182 107.677 43.2349 106.573 42.5984C105.48 42.0025 104.804 40.8544 104.814 39.6108V37.7128C104.804 36.4692 105.48 35.3212 106.573 34.7252C107.677 34.0886 108.35 32.9056 108.332 31.6323Z" fill="#FF8500"/>
<path d="M106.574 34.7252C107.678 34.0886 108.351 32.9054 108.333 31.6323V19.3309C108.333 17.3898 106.758 15.8162 104.814 15.8162H99.5363C101.48 15.8162 103.055 17.3898 103.055 19.3309V31.6323C103.073 32.9054 102.4 34.0886 101.296 34.7252C100.203 35.321 99.5268 36.4692 99.5363 37.7128V39.6108C99.5268 40.8544 100.203 42.0023 101.296 42.5984C102.4 43.2349 103.073 44.4182 103.055 45.6913V59.75C103.073 61.0231 102.4 62.2064 101.296 62.843C100.203 63.4388 99.5268 64.587 99.5363 65.8305V86.1103C99.5363 88.0513 97.9609 89.6249 96.0176 89.6249H101.296C103.239 89.6249 104.814 88.0513 104.814 86.1103V65.8305C104.805 64.587 105.481 63.439 106.574 62.843C107.678 62.2064 108.351 61.0231 108.333 59.75V45.6913C108.351 44.4182 107.678 43.2349 106.574 42.5984C105.481 42.0025 104.805 40.8544 104.814 39.6108V37.7128C104.805 36.4692 105.481 35.321 106.574 34.7252Z" fill="#E87400"/>
<path d="M83.7013 8.78687H90.7386C92.6819 8.78687 94.2573 10.3605 94.2573 12.3016V15.8162H80.1826V12.3016C80.1826 10.3605 81.758 8.78687 83.7013 8.78687Z" fill="#FF8500"/>
<path d="M90.7389 8.78687H85.4609C87.4042 8.78687 88.9796 10.3605 88.9796 12.3016V15.8162H94.2576V12.3016C94.2576 10.3605 92.6822 8.78687 90.7389 8.78687Z" fill="#E87400"/>
<path d="M80.1826 89.6248H94.2573V93.1394C94.2573 95.0805 92.6819 96.6541 90.7386 96.6541H83.7013C81.758 96.6541 80.1826 95.0805 80.1826 93.1394V89.6248Z" fill="#FF8500"/>
<path d="M88.9796 89.6248V93.1394C88.9796 95.0805 87.4042 96.6541 85.4609 96.6541H90.7389C92.6822 96.6541 94.2576 95.0805 94.2576 93.1394V89.6248H88.9796Z" fill="#E87400"/>
<path d="M92.498 3.51469H138.241C139.213 3.51469 140 2.728 140 1.75735C140 0.786692 139.212 0 138.241 0H92.498C88.6114 0 85.4606 3.1472 85.4606 7.02939H83.7013C80.7863 7.02939 78.4233 9.38968 78.4233 12.3014V14.0588H69.6266C66.7116 14.0588 64.3486 16.4191 64.3486 19.3308V31.6322C64.3504 33.5716 65.4181 35.3537 67.1285 36.2716C67.6124 36.5878 67.8934 37.1356 67.8673 37.7127V39.6107C67.8932 40.1878 67.6124 40.7356 67.1285 41.0519C65.4181 41.97 64.3504 43.7519 64.3486 45.6912V59.75C64.3504 61.6894 65.4181 63.4715 67.1285 64.3894C67.6124 64.7056 67.8934 65.2534 67.8673 65.8305V86.1102C67.8673 89.022 70.2303 91.3822 73.1453 91.3822H78.4233V93.1396C78.4233 96.0513 80.7863 98.4116 83.7013 98.4116H85.4606C85.4606 102.294 88.6114 105.441 92.498 105.441H138.241C139.213 105.441 140 104.654 140 103.684C140 102.713 139.213 101.926 138.241 101.926H92.498C90.5547 101.926 88.9793 100.353 88.9793 98.4116H90.7386C93.6537 98.4116 96.0166 96.0513 96.0166 93.1396V91.3822H101.295C104.21 91.3822 106.573 89.022 106.573 86.1102V65.8305C106.547 65.2534 106.828 64.7056 107.311 64.3894C109.022 63.4713 110.09 61.6894 110.091 59.75V45.6912C110.09 43.7519 109.022 41.9697 107.311 41.0519C106.828 40.7356 106.547 40.1878 106.573 39.6107V37.7127C106.547 37.1356 106.828 36.5878 107.311 36.2716C109.022 35.3535 110.09 33.5716 110.091 31.6322V19.3308C110.091 16.4191 107.728 14.0588 104.813 14.0588H96.0166V12.3014C96.0166 9.38968 93.6537 7.02939 90.7386 7.02939H88.9793C88.9793 5.08829 90.5547 3.51469 92.498 3.51469ZM92.498 93.1394C92.498 94.11 91.7104 94.8967 90.7386 94.8967H83.7013C82.7295 94.8967 81.942 94.11 81.942 93.1394V91.382H92.498V93.1394ZM106.573 19.3308V29.8749H94.2575C93.2858 29.8749 92.4982 30.6616 92.4982 31.6322C92.4982 32.6029 93.2858 33.3896 94.2575 33.3896H105.359C103.905 34.3456 103.037 35.9739 103.054 37.7127V39.6107C103.037 41.3493 103.905 42.9779 105.359 43.9339H94.2575C93.2858 43.9339 92.4982 44.7206 92.4982 45.6912C92.4982 46.6619 93.2858 47.4486 94.2575 47.4486H106.573V59.75C106.571 60.3978 106.213 60.9921 105.64 61.2965C104.271 62.0778 103.352 63.4588 103.16 65.022H94.2573C93.2855 65.022 92.498 65.8087 92.498 66.7794C92.498 67.75 93.2855 68.5367 94.2573 68.5367H103.054V86.1102C103.054 87.0809 102.266 87.8676 101.295 87.8676H73.1453C72.1735 87.8676 71.386 87.0809 71.386 86.1102V68.5367H87.22C88.1917 68.5367 88.9793 67.75 88.9793 66.7794C88.9793 65.8087 88.1917 65.022 87.22 65.022H71.2803C71.0881 63.4588 70.1688 62.0778 68.7996 61.2965C68.2272 60.9921 67.8688 60.3978 67.8671 59.75V47.4486H87.2197C88.1915 47.4486 88.9791 46.6619 88.9791 45.6912C88.9791 44.7206 88.1915 43.9339 87.2197 43.9339H69.081C70.535 42.9779 71.4032 41.3496 71.3858 39.6107V37.7127C71.4032 35.9741 70.535 34.3456 69.081 33.3896H87.2197C88.1915 33.3896 88.9791 32.6029 88.9791 31.6322C88.9791 30.6616 88.1915 29.8749 87.2197 29.8749H67.8671V19.3308C67.8671 18.3602 68.6547 17.5735 69.6264 17.5735H104.813C105.785 17.5735 106.573 18.3604 106.573 19.3308ZM90.7386 10.5441C91.7104 10.5441 92.498 11.3308 92.498 12.3014V14.0588H81.942V12.3014C81.942 11.3308 82.7295 10.5441 83.7013 10.5441H90.7386Z" fill="black"/>
<path d="M20.9004 23.319C19.926 23.0379 19.4552 21.7387 20.0297 20.4624C20.7119 18.9459 21.5743 17.4867 22.6191 16.1169C23.4969 14.9631 24.9446 14.679 25.6668 15.3905C26.3936 16.1033 26.2832 17.3781 25.5734 18.3113C24.697 19.4553 23.9737 20.6739 23.4016 21.9399C22.9327 22.9692 21.8792 23.6023 20.9004 23.319Z" fill="#F5F5F5"/>
<path d="M26.077 44.0702C25.3983 44.823 23.9834 44.6322 23.0808 43.5361C19.8634 39.6328 18.1805 34.8425 18.0856 29.9903C18.0577 28.6291 18.9965 27.605 20.0056 27.7103C21.0185 27.8137 21.7423 28.7934 21.7653 29.8899C21.8382 33.9362 23.2357 37.9268 25.9038 41.1761C26.6237 42.0588 26.7595 43.316 26.077 44.0702Z" fill="#F5F5F5"/>
</svg>
