<svg width="58" height="108" viewBox="0 0 58 108" fill="none" xmlns="http://www.w3.org/2000/svg">
<path d="M7.23172 30.6001H50.6245C53.6201 30.6001 56.0486 33.0179 56.0486 36.0001V84.6001C56.0486 87.5823 53.6201 90.0001 50.6245 90.0001H7.23172C4.23617 90.0001 1.80762 87.5823 1.80762 84.6001V36.0001C1.80762 33.0177 4.23617 30.6001 7.23172 30.6001Z" fill="#FF8500"/>
<path d="M50.6243 30.6001H45.2002C48.1957 30.6001 50.6243 33.0179 50.6243 36.0001V84.6001C50.6243 87.5823 48.1957 90.0001 45.2002 90.0001H50.6243C53.6198 90.0001 56.0484 87.5823 56.0484 84.6001V36.0001C56.0484 33.0177 53.62 30.6001 50.6243 30.6001Z" fill="#E87400"/>
<path d="M12.656 21.5999H45.2006C47.1977 21.5999 48.8167 23.2116 48.8167 25.1999V30.5999H9.04004V25.1999C9.04004 23.2116 10.659 21.5999 12.656 21.5999Z" fill="#FF8500"/>
<path d="M45.2005 21.5999H39.7764C41.7735 21.5999 43.3925 23.2116 43.3925 25.1999V30.5999H48.8166V25.1999C48.8166 23.2116 47.1976 21.5999 45.2005 21.5999Z" fill="#E87400"/>
<path d="M23.5043 14.4001H34.3524C35.351 14.4001 36.1604 15.2061 36.1604 16.2001V21.6001H21.6963V16.2001C21.6963 15.2059 22.5059 14.4001 23.5043 14.4001Z" fill="#FF8500"/>
<path d="M34.3518 14.4001H28.9277C29.9263 14.4001 30.7357 15.2061 30.7357 16.2001V21.6001H36.1598V16.2001C36.16 15.2059 35.3504 14.4001 34.3518 14.4001Z" fill="#E87400"/>
<path d="M28.9284 1.7998C30.9256 1.7998 32.5446 3.41158 32.5446 5.39988V14.3999H25.3125V5.39988C25.3125 3.41158 26.9315 1.7998 28.9284 1.7998Z" fill="#FF8500"/>
<path d="M14.6628 57.978L19.3818 67.4101C19.6911 68.0211 20.3217 68.4048 21.009 68.4H23.5041C24.5027 68.4 25.3121 67.594 25.3121 66.6001V43.1999C25.3121 41.2116 23.6931 39.5999 21.6959 39.5999H18.08C16.0828 39.5999 14.4639 41.2116 14.4639 43.1999V57.168C14.4658 57.4496 14.5338 57.7272 14.6628 57.978Z" fill="#FF8500"/>
<path d="M43.1932 57.978L38.4742 67.4101C38.1649 68.0211 37.5343 68.4048 36.847 68.4H34.3519C33.3533 68.4 32.5439 67.594 32.5439 66.6001V43.1999C32.5439 41.2116 34.1629 39.5999 36.1601 39.5999H39.7762C41.7734 39.5999 43.3924 41.2116 43.3924 43.1999V57.168C43.3904 57.4496 43.3222 57.7272 43.1932 57.978Z" fill="#FF8500"/>
<path d="M23.5036 79.2H34.3518C36.349 79.2 37.968 80.8117 37.968 82.8V90H19.8877V82.8C19.8877 80.8117 21.5067 79.2 23.5036 79.2Z" fill="#FF8500"/>
<path d="M21.6963 90H36.1606V99.0001C36.1606 102.976 32.9227 106.2 28.9286 106.2C24.9344 106.2 21.6963 102.976 21.6963 98.9999V90Z" fill="#FF8500"/>
<path d="M30.7358 90V99.0001C30.7299 101.929 28.9427 104.562 26.2158 105.66C27.0756 106.015 27.9971 106.198 28.9279 106.2C30.846 106.2 32.6855 105.441 34.0418 104.091C35.398 102.741 36.1599 100.91 36.1599 99.0001V90H30.7358Z" fill="#E87400"/>
<path d="M7.23206 91.8H19.8882V98.9999C19.8882 103.97 23.9358 108 28.9285 108C33.9212 108 37.9687 103.971 37.9687 98.9999V91.8H50.6249C54.619 91.8 57.8569 88.5764 57.8569 84.6001V36.0001C57.8569 32.0237 54.619 28.8001 50.6249 28.8001V25.2001C50.6249 22.2178 48.1963 19.8001 45.2008 19.8001H37.9687V16.2C37.9687 14.2117 36.3497 12.5999 34.3526 12.5999V5.4C34.3526 2.41777 31.924 0 28.9285 0C25.9329 0 23.5044 2.41777 23.5044 5.4V12.5999C21.5072 12.5999 19.8882 14.2117 19.8882 16.2V19.8001H12.6562C9.66062 19.8001 7.23206 22.2178 7.23206 25.2001V28.8001C3.23793 28.7999 0 32.0235 0 36.0001V84.6001C0 88.5764 3.23793 91.8 7.23206 91.8ZM3.61614 84.6001H18.0805V88.2001H7.23228C5.2351 88.1999 3.61614 86.5882 3.61614 84.6001ZM36.1607 88.1999H21.6964V82.7999C21.6964 81.8058 22.506 81 23.5044 81H34.3526C35.3512 81 36.1605 81.8058 36.1605 82.7999V88.1999H36.1607ZM34.3526 98.9999C34.3526 101.982 31.924 104.4 28.9285 104.4C25.9329 104.4 23.5044 101.982 23.5044 98.9999V91.8H34.3526V98.9999ZM50.6249 88.1999H39.7767V84.5999H54.241C54.241 86.5882 52.622 88.1999 50.6249 88.1999ZM27.1205 5.4C27.1205 4.40585 27.9301 3.60007 28.9285 3.60007C29.9268 3.60007 30.7364 4.40606 30.7364 5.4V12.5999H27.1205V5.4ZM23.5044 16.2H34.3526V19.8001H23.5044V16.2ZM10.8482 25.2001C10.8482 24.2059 11.6578 23.4001 12.6562 23.4001H45.2008C46.1994 23.4001 47.0087 24.2061 47.0087 25.2001V28.8001H10.8482V25.2001ZM7.23206 32.4H50.6249C52.622 32.4 54.241 34.0118 54.241 36.0001V81H39.4512C38.687 78.8476 36.6455 77.4065 34.3526 77.3999H23.5044C21.2114 77.4063 19.17 78.8476 18.4057 81H3.61614V36.0001C3.61614 34.0118 5.2351 32.4 7.23206 32.4Z" fill="black"/>
<path d="M17.7732 68.2021C18.3838 69.4255 19.6373 70.1994 21.0096 70.2001H23.5047C25.5019 70.2001 27.1208 68.5883 27.1208 66.6V43.2001C27.1208 40.2176 24.6923 37.8 21.6967 37.8H18.0804C15.0848 37.8 12.6563 40.2178 12.6563 43.2001V57.1681C12.6542 57.7303 12.784 58.285 13.036 58.7881L17.7732 68.2021ZM16.2724 43.2001C16.2724 42.2059 17.082 41.4001 18.0804 41.4001H21.6965C22.6951 41.4001 23.5045 42.2061 23.5045 43.2001V66.6H21.0094L16.2724 57.1681V43.2001Z" fill="black"/>
<path d="M34.3525 70.2001H36.8476C38.2197 70.1994 39.4734 69.4255 40.084 68.2021L44.821 58.7881C45.0729 58.285 45.2028 57.7303 45.2007 57.1681V43.2001C45.2007 40.2176 42.7721 37.8 39.7766 37.8H36.1604C33.1649 37.8 30.7363 40.2178 30.7363 43.2001V66.6C30.7365 68.5883 32.3555 70.2001 34.3525 70.2001ZM34.3525 43.2001C34.3525 42.2059 35.1621 41.4001 36.1604 41.4001H39.7766C40.7752 41.4001 41.5845 42.2061 41.5845 43.2001V57.1681L36.8476 66.6002H34.3525V43.2001Z" fill="black"/>
<path d="M28.9281 100.8C29.9266 100.8 30.736 99.994 30.736 98.9999C30.736 98.0058 29.9266 97.2 28.9281 97.2C27.9296 97.2 27.1201 98.0058 27.1201 98.9999C27.1201 99.994 27.9296 100.8 28.9281 100.8Z" fill="black"/>
</svg>
