<svg width="94" height="108" viewBox="0 0 94 108" fill="none" xmlns="http://www.w3.org/2000/svg">
<path d="M92.1922 9.00071V72.0008C92.1922 74.983 89.7641 77.4008 86.7691 77.4008C83.7741 77.4008 81.346 74.983 81.346 72.0008V70.2006C81.346 66.2243 78.1087 63.0007 74.1153 63.0007H19.8845C15.8911 63.0007 12.6538 66.2243 12.6538 70.2006V72.0006C12.6538 74.9828 10.2257 77.4006 7.2307 77.4006C4.23572 77.4006 1.80762 74.9828 1.80762 72.0006V9.00071C1.80762 5.02433 5.04494 1.80078 9.03832 1.80078H84.9615C88.9548 1.80057 92.1922 5.02412 92.1922 9.00071Z" fill="#FF8500"/>
<path d="M84.9612 1.7998H79.5381C83.5315 1.7998 86.7688 5.02335 86.7688 8.99973V71.9998C86.7571 73.9174 85.7251 75.6851 84.0572 76.6438C84.8764 77.134 85.8132 77.3952 86.7688 77.3998C89.7638 77.3998 92.1919 74.982 92.1919 71.9998V8.99994C92.1919 5.02335 88.9545 1.7998 84.9612 1.7998Z" fill="#E87400"/>
<path d="M12.6533 10.8001H10.8457C9.84731 10.8001 9.03809 9.99406 9.03809 9.00013C9.03809 8.00619 9.84752 7.2002 10.8457 7.2002H12.6533C13.6517 7.2002 14.461 8.00619 14.461 9.00013C14.461 9.99406 13.6517 10.8001 12.6533 10.8001Z" fill="#F5F5F5"/>
<path d="M83.1529 10.8001H21.6914C20.693 10.8001 19.8838 9.99406 19.8838 9.00013C19.8838 8.00619 20.6932 7.2002 21.6914 7.2002H83.1529C84.1513 7.2002 84.9605 8.00619 84.9605 9.00013C84.9605 9.99406 84.1513 10.8001 83.1529 10.8001Z" fill="#F5F5F5"/>
<path d="M84.9617 0H9.03854C4.04676 0 0 4.02954 0 9.00007V72.0001C0.010592 75.2745 2.23893 78.1296 5.42308 78.9482V106.2C5.42308 107.194 6.23252 108 7.2307 108C8.22889 108 9.03833 107.194 9.03833 106.2V78.948C12.2225 78.1294 14.4508 75.2745 14.4614 71.9999V70.2C14.4614 67.2178 16.8895 64.8 19.8845 64.8H74.1153C77.1103 64.8 79.5384 67.2178 79.5384 70.2V71.9999C79.549 75.2743 81.7773 78.1294 84.9615 78.948V106.2C84.9615 107.194 85.7709 108 86.7691 108C87.7675 108 88.5767 107.194 88.5767 106.2V78.948C91.7609 78.1294 93.9892 75.2745 93.9998 71.9999V9.00007C94 4.02954 89.9534 0 84.9617 0ZM90.3847 71.9999C90.3847 73.9882 88.7661 75.6 86.7693 75.6C84.7725 75.6 83.1538 73.9882 83.1538 71.9999V70.2C83.1538 65.2295 79.1071 61.1999 74.1153 61.1999H19.8845C14.8927 61.1999 10.846 65.2295 10.846 70.2V71.9999C10.846 73.9882 9.22729 75.6 7.23049 75.6C5.2337 75.6 3.61503 73.9882 3.61503 71.9999V9.00007C3.61503 6.01784 6.04313 3.60007 9.03812 3.60007H84.9612C87.9562 3.60007 90.3843 6.01784 90.3843 9.00007V71.9999H90.3847Z" fill="black"/>
<path d="M23.5 54H19.8848C18.8864 54 18.0771 54.806 18.0771 55.7999C18.0771 56.7939 18.8866 57.5999 19.8848 57.5999H23.5002C24.4986 57.5999 25.3078 56.7941 25.3078 55.7999C25.3078 54.8058 24.4984 54 23.5 54Z" fill="black"/>
<path d="M74.1151 54H30.7305C29.7321 54 28.9229 54.806 28.9229 55.7999C28.9229 56.7939 29.7323 57.5999 30.7305 57.5999H74.1151C75.1135 57.5999 75.9228 56.7941 75.9228 55.7999C75.9228 54.8058 75.1133 54 74.1151 54Z" fill="black"/>
</svg>
