<svg width="94" height="65" viewBox="0 0 94 65" fill="none" xmlns="http://www.w3.org/2000/svg">
<path d="M92.1924 5.4166V19.8611C92.1924 21.8555 90.5737 23.4723 88.5769 23.4723H79.5384V25.2778C79.5384 27.2722 77.9197 28.889 75.9229 28.889C73.9261 28.889 72.3075 27.2722 72.3075 25.2778V23.4723H21.6923V25.2778C21.6923 27.2722 20.0737 28.889 18.0769 28.889C16.0801 28.889 14.4614 27.2722 14.4614 25.2778V23.4723H5.42308C3.42628 23.4723 1.80762 21.8555 1.80762 19.8611V5.4166C1.80762 3.42217 3.42628 1.80542 5.42308 1.80542H88.5769C90.5737 1.80542 92.1924 3.42217 92.1924 5.4166Z" fill="#FF8500"/>
<path d="M88.5774 1.80542H83.1543C85.1511 1.80542 86.7698 3.42217 86.7698 5.4166V19.8611C86.7698 21.8555 85.1511 23.4723 83.1543 23.4723H88.5774C90.5742 23.4723 92.1928 21.8555 92.1928 19.8611V5.4166C92.1928 3.42217 90.5742 1.80542 88.5774 1.80542Z" fill="#E87400"/>
<path d="M88.5767 23.4722V36.111H5.42285V23.4722H14.4614V25.2777C14.4614 27.2721 16.0801 28.8888 18.0768 28.8888C20.0736 28.8888 21.6923 27.2721 21.6923 25.2777V23.4722H72.3077V25.2777C72.3077 27.2721 73.9263 28.8888 75.9231 28.8888C77.9199 28.8888 79.5386 27.2721 79.5386 25.2777V23.4722H88.5767Z" fill="#FF8500"/>
<path d="M83.1543 23.4722H88.5774V36.111H83.1543V23.4722Z" fill="#E87400"/>
<path d="M28.9233 54.1666L25.0549 62.3096C24.7293 62.8578 24.1385 63.1938 23.5002 63.1938C22.862 63.1938 22.2714 62.8578 21.9455 62.3096L18.0771 54.1666V36.1111H28.9233V54.1666Z" fill="#FF8500"/>
<path d="M75.9233 54.1666L72.0549 62.3096C71.7293 62.8578 71.1385 63.1938 70.5002 63.1938C69.8619 63.1938 69.2711 62.8578 68.9455 62.3096L65.0771 54.1666V36.1111H75.9233V54.1666Z" fill="#FF8500"/>
<path d="M70.4996 36.1111V54.1666L67.7881 59.8721L68.9449 62.3096C69.2705 62.8578 69.8613 63.1938 70.4996 63.1938C71.1379 63.1938 71.7285 62.8578 72.0543 62.3096L75.9227 54.1666V36.1111H70.4996Z" fill="#E87400"/>
<path d="M52.4233 54.1666L48.5549 62.3096C48.2293 62.8578 47.6385 63.1938 47.0002 63.1938C46.3622 63.1938 45.7714 62.8578 45.4455 62.3096L41.5771 54.1666V36.1111H52.4233V54.1666Z" fill="#FF8500"/>
<path d="M3.61546 24.9528V63.1945C3.61546 64.1917 4.4249 65 5.42308 65C6.42127 65 7.2307 64.1917 7.2307 63.1945V37.9167H16.2692V54.1667C16.2669 54.4362 16.329 54.7022 16.4499 54.943L20.4088 63.1943C21.0475 64.2994 22.2226 64.9858 23.4999 64.9998C24.8326 64.9962 26.0552 64.2607 26.6816 63.086L30.55 54.943C30.6711 54.7022 30.733 54.436 30.7306 54.1667V37.9167H39.7692V54.1667C39.7669 54.4362 39.8289 54.7022 39.9499 54.943L43.9087 63.1943C44.5474 64.2994 45.7225 64.9858 46.9999 64.9998C48.3326 64.9962 49.5551 64.2607 50.1815 63.086L54.0499 54.943C54.1711 54.7022 54.2329 54.436 54.2306 54.1667V37.9167H63.2691V54.1667C63.2668 54.4362 63.3289 54.7022 63.4498 54.943L67.4087 63.1943C68.0474 64.2994 69.2225 64.9858 70.4998 64.9998C71.8325 64.9962 73.055 64.2607 73.6814 63.086L77.5498 54.943C77.671 54.7022 77.7329 54.436 77.7305 54.1667V37.9167H86.7693V63.1945C86.7693 64.1917 87.5787 65 88.5769 65C89.5751 65 90.3845 64.1917 90.3845 63.1945V24.9528C92.5461 24.1896 93.9934 22.151 94 19.8612V5.41667C94 2.42523 91.5719 0 88.5769 0H43.3846H14.4616H5.42308C2.4281 0 0 2.42523 0 5.41667V19.8612C0.00635517 22.151 1.45385 24.1894 3.61546 24.9528ZM7.2307 25.2778H12.6538C12.6538 28.2693 15.0819 30.6945 18.0769 30.6945C21.0718 30.6945 23.4999 28.2693 23.4999 25.2778H70.5C70.5 28.2693 72.9281 30.6945 75.9231 30.6945C78.9181 30.6945 81.3462 28.2693 81.3462 25.2778H86.7693V34.3057H7.2307V25.2778ZM27.1154 53.7695L23.5904 61.5515L19.8847 53.7515V37.9167H27.1154V53.7695ZM50.6153 53.7695L47.0903 61.5515L43.3846 53.7513V37.9167H50.6153V53.7695ZM74.1155 53.7695L70.5 61.5513L66.8846 53.7513V37.9167H74.1153V53.7695H74.1155ZM39.7692 0H18.0769H39.7692ZM3.61546 5.41667C3.61546 4.41945 4.4249 3.61118 5.42308 3.61118H88.5769C89.5753 3.61118 90.3845 4.41966 90.3845 5.41667V19.8612C90.3845 20.8584 89.5753 21.6667 88.5769 21.6667H79.5384C78.54 21.6667 77.7308 22.4751 77.7308 23.4722V25.2776C77.7308 26.2749 76.9215 27.0831 75.9231 27.0831C74.9247 27.0831 74.1155 26.2746 74.1155 25.2776V23.4722C74.1155 22.4749 73.3063 21.6667 72.3079 21.6667H21.6923C20.6939 21.6667 19.8847 22.4751 19.8847 23.4722V25.2776C19.8847 26.2749 19.0753 27.0831 18.0771 27.0831C17.0787 27.0831 16.2695 26.2746 16.2695 25.2776V23.4722C16.2695 22.4749 15.46 21.6667 14.4618 21.6667H5.42308C4.42468 21.6667 3.61546 20.8582 3.61546 19.8612V5.41667Z" fill="black"/>
</svg>
