<svg width="79" height="107" viewBox="0 0 79 107" fill="none" xmlns="http://www.w3.org/2000/svg">
<g clip-path="url(#clip0)">
<path d="M3.59128 60.6367H75.4093C76.401 60.6367 77.2047 61.435 77.2047 62.4199V73.1191C77.2047 74.1039 76.4008 74.9022 75.4093 74.9022H3.59128C2.59964 74.9022 1.7959 74.1039 1.7959 73.1191V62.4199C1.79569 61.4352 2.59964 60.6367 3.59128 60.6367Z" fill="#FF8500"/>
<path d="M75.4098 60.6367H70.0234C71.0151 60.6367 71.8188 61.435 71.8188 62.4199V73.1191C71.8188 74.1039 71.0149 74.9022 70.0234 74.9022H75.4098C76.4014 74.9022 77.2052 74.1039 77.2052 73.1191V62.4199C77.2052 61.4352 76.4014 60.6367 75.4098 60.6367Z" fill="#E87400"/>
<path d="M12.5683 67.77C14.5516 67.77 16.1593 69.3668 16.1593 71.3365V74.903H8.97754V71.3365C8.97754 69.3668 10.5852 67.77 12.5683 67.77Z" fill="#FF8500"/>
<path d="M66.4316 67.77C68.4149 67.77 70.0226 69.3668 70.0226 71.3365V74.903H62.8408V71.3365C62.8408 69.3668 64.4485 67.77 66.4316 67.77Z" fill="#FF8500"/>
<path d="M5.38672 74.9023H73.614V85.6016C73.614 87.5713 72.0063 89.168 70.023 89.168H8.97769C6.99442 89.168 5.38672 87.5713 5.38672 85.6016V74.9023Z" fill="#FF8500"/>
<path d="M68.2277 74.9023V85.6016C68.2277 87.5713 66.62 89.168 64.6367 89.168H70.0231C72.0063 89.168 73.6141 87.5713 73.6141 85.6016V74.9023H68.2277Z" fill="#E87400"/>
<path d="M10.7734 89.1682H21.5462V103.434C21.5462 104.419 20.7422 105.217 19.7508 105.217H12.5688C11.5772 105.217 10.7734 104.419 10.7734 103.434V89.1682V89.1682Z" fill="#FF8500"/>
<path d="M34.1143 89.1682H44.887V103.434C44.887 104.419 44.083 105.217 43.0916 105.217H35.9099C34.9182 105.217 34.1145 104.419 34.1145 103.434V89.1682H34.1143Z" fill="#FF8500"/>
<path d="M57.4551 89.1682H68.2278V103.434C68.2278 104.419 67.4241 105.217 66.4324 105.217H59.2505C58.2588 105.217 57.4551 104.419 57.4551 103.434V89.1682Z" fill="#FF8500"/>
<path d="M62.8413 89.1682V103.434C62.8413 104.419 62.0375 105.217 61.0459 105.217H66.4323C67.4239 105.217 68.2276 104.419 68.2276 103.434V89.1682H62.8413Z" fill="#E87400"/>
<path d="M19.7502 53.5044H59.2501C61.2333 53.5044 62.841 55.1011 62.841 57.0709V60.6373H16.1592V57.0709C16.1592 55.1011 17.7669 53.5044 19.7502 53.5044Z" fill="#FF8500"/>
<path d="M59.2506 53.5044H53.8643C55.8475 53.5044 57.4552 55.1011 57.4552 57.0709V60.6373H62.8416V57.0709C62.8416 55.1011 61.2339 53.5044 59.2506 53.5044Z" fill="#E87400"/>
<path d="M30.5231 42.8052H48.4776C49.4692 42.8052 50.273 43.6036 50.273 44.5883V53.5044H28.7275V44.5883C28.7275 43.6036 29.5315 42.8052 30.5231 42.8052Z" fill="#FF8500"/>
<path d="M48.4772 42.8052H43.0908C44.0825 42.8052 44.8862 43.6036 44.8862 44.5883V53.5044H50.2726V44.5883C50.2726 43.6036 49.4688 42.8052 48.4772 42.8052Z" fill="#E87400"/>
<path d="M46.1796 42.8049L59.7354 10.6003C59.7972 10.4546 59.8511 10.3058 59.897 10.1545C61.0197 6.86161 59.2668 3.28427 55.9649 2.13013C54.3795 1.59517 52.6443 1.71261 51.1467 2.45633C49.649 3.20006 48.5132 4.5082 47.9931 6.08884L35.6045 42.8049H46.1796Z" fill="#FF8500"/>
<path d="M55.9646 2.13023C54.4085 1.60217 52.7052 1.70456 51.2246 2.41547C54.1271 3.80407 55.5354 7.12103 54.5103 10.1546C54.4644 10.3059 54.4106 10.4547 54.3487 10.6004L40.793 42.805H46.1793L59.7351 10.6004C59.7969 10.4547 59.8508 10.3059 59.8967 10.1546C61.0194 6.8617 59.2665 3.28436 55.9646 2.13023Z" fill="#E87400"/>
<path d="M16.1587 101.65C17.1503 101.65 17.954 100.852 17.954 99.8672V96.3007C17.954 95.3158 17.1503 94.5176 16.1587 94.5176C15.167 94.5176 14.3633 95.3158 14.3633 96.3007V99.8672C14.3633 100.852 15.167 101.65 16.1587 101.65Z" fill="black"/>
<path d="M39.4995 101.65C40.4911 101.65 41.2949 100.852 41.2949 99.8672V96.3007C41.2949 95.3158 40.4909 94.5176 39.4995 94.5176C38.5078 94.5176 37.7041 95.3158 37.7041 96.3007V99.8672C37.7041 100.852 38.5081 101.65 39.4995 101.65Z" fill="black"/>
<path d="M62.8413 101.65C63.8329 101.65 64.6367 100.852 64.6367 99.8672V96.3007C64.6367 95.3158 63.8327 94.5176 62.8413 94.5176C61.8499 94.5176 61.0459 95.3158 61.0459 96.3007V99.8672C61.0457 100.852 61.8496 101.65 62.8413 101.65Z" fill="black"/>
<path d="M61.6021 10.7071C63.0139 6.49036 60.772 1.92627 56.5568 0.435907C54.5341 -0.259751 52.3148 -0.118279 50.3984 0.828141C48.4501 1.78062 46.9688 3.47034 46.2869 5.51803L34.3113 41.0216H30.523C28.5397 41.0216 26.932 42.6184 26.932 44.5881V51.7208H19.7501C16.7754 51.7208 14.3637 54.116 14.3637 57.0704V58.8536H3.59098C1.6077 58.8536 0 60.4503 0 62.42V73.1192C0 75.089 1.6077 76.6857 3.59098 76.6857V85.6018C3.59098 88.5562 6.00263 90.9514 8.97733 90.9514V103.434C8.97733 105.403 10.585 107 12.5683 107H19.7501C21.7333 107 23.341 105.403 23.341 103.434V90.9514H32.3182V103.434C32.3182 105.403 33.9259 107 35.9091 107H43.0909C45.0741 107 46.6818 105.403 46.6818 103.434V90.9514H55.6592V103.434C55.6592 105.403 57.2669 107 59.2502 107H66.4319C68.4152 107 70.0229 105.403 70.0229 103.434V90.9514C72.9976 90.9514 75.4092 88.5562 75.4092 85.6018V76.6857C77.3925 76.6857 79.0002 75.089 79.0002 73.1192V62.42C79.0002 60.4503 77.3925 58.8536 75.4092 58.8536H64.6365V57.0704C64.6365 54.116 62.2249 51.7208 59.2502 51.7208H52.0684V44.5881C52.0785 42.7559 50.6892 41.2141 48.8545 41.0216L61.4226 11.0996C61.4922 10.9734 61.5522 10.8423 61.6021 10.7071ZM19.7501 103.434H12.5681V90.9512H19.7498V103.434H19.7501ZM43.0909 103.434H35.9091V90.9512H43.0909V103.434ZM66.4317 103.434H59.2499V90.9512H66.4317V103.434ZM71.818 85.6016C71.818 86.5865 71.0141 87.3847 70.0227 87.3847H8.97733C7.9857 87.3847 7.18195 86.5865 7.18195 85.6016V76.6855H71.8183V85.6016H71.818ZM14.3637 73.1192H10.7727V71.3361C10.7727 70.3513 11.5767 69.553 12.5681 69.553C13.5595 69.553 14.3635 70.3515 14.3635 71.3361V73.1192H14.3637ZM68.2273 73.1192H64.6363V71.3361C64.6363 70.3513 65.44 69.553 66.4317 69.553C67.4233 69.553 68.2271 70.3515 68.2271 71.3361V73.1192H68.2273ZM75.409 73.1192H71.818V71.3361C71.818 68.3817 69.4064 65.9865 66.4317 65.9865C63.457 65.9865 61.0453 68.3817 61.0453 71.3361V73.1192H17.9545V71.3361C17.9545 68.3817 15.5428 65.9865 12.5681 65.9865C9.5934 65.9865 7.18174 68.3817 7.18174 71.3361V73.1192H3.59098V62.42H75.409V73.1192ZM61.0453 57.0704V58.8536H17.9545V57.0704C17.9545 56.0856 18.7584 55.2873 19.7498 55.2873H59.2499C60.2416 55.2871 61.0453 56.0856 61.0453 57.0704ZM30.5228 51.7208V49.9377H32.3182C33.3098 49.9377 34.1135 49.1392 34.1135 48.1546C34.1135 47.1697 33.3096 46.3714 32.3182 46.3714H30.5228V44.5883H48.4772V46.3714H46.6818C45.6902 46.3714 44.8865 47.1699 44.8865 48.1546C44.8865 49.1394 45.6904 49.9377 46.6818 49.9377H48.4772V51.7208H30.5228ZM58.1548 9.69072L44.9761 41.0216H38.0994L49.698 6.65942C50.0976 5.50277 50.9528 4.55677 52.068 4.03811C53.1217 3.50775 54.3486 3.43043 55.4614 3.82413C57.8341 4.70786 59.0387 7.33209 58.1548 9.69072Z" fill="black"/>
</g>
<defs>
<clipPath id="clip0">
<rect width="79" height="107" fill="white"/>
</clipPath>
</defs>
</svg>
