<svg width="56" height="105" viewBox="0 0 56 105" fill="none" xmlns="http://www.w3.org/2000/svg">
<g clip-path="url(#clip0)">
<path d="M3.49993 36.75H52.4998C53.4663 36.75 54.2497 37.5336 54.2497 38.4999V42C54.2497 42.9665 53.4661 43.7499 52.4998 43.7499H3.49993C2.5334 43.7499 1.75 42.9663 1.75 42V38.4999C1.74979 37.5336 2.5334 36.75 3.49993 36.75Z" fill="#FF8500"/>
<path d="M52.5 36.75H47.25C48.2165 36.75 48.9999 37.5336 48.9999 38.4999V42C48.9999 42.9665 48.2163 43.7499 47.25 43.7499H52.5C53.4665 43.7499 54.2499 42.9663 54.2499 42V38.4999C54.2499 37.5336 53.4665 36.75 52.5 36.75Z" fill="#E87400"/>
<path d="M8.75006 1.75H47.25C49.183 1.75 50.75 3.317 50.75 5.25007V36.7501H5.25V5.25007C5.25 3.317 6.817 1.75 8.75006 1.75Z" fill="#FF8500"/>
<path d="M47.25 1.75H42C43.9331 1.75 45.5001 3.317 45.5001 5.25007V36.7501H50.7501V5.25007C50.7501 3.317 49.1831 1.75 47.25 1.75Z" fill="#E87400"/>
<path d="M12.2499 13.9999C11.2834 13.9999 10.5 13.2163 10.5 12.25V8.74993C10.5 7.7834 11.2836 7 12.2499 7C13.2163 7 13.9999 7.7836 13.9999 8.74993V12.25C14.0001 13.2163 13.2165 13.9999 12.2499 13.9999Z" fill="#F5F5F5"/>
<path d="M12.2499 31.4999C11.2834 31.4999 10.5 30.7163 10.5 29.7499V19.2499C10.5 18.2834 11.2836 17.5 12.2499 17.5C13.2163 17.5 13.9999 18.2836 13.9999 19.2499V29.7499C14.0001 30.7163 13.2165 31.4999 12.2499 31.4999Z" fill="#F5F5F5"/>
<path d="M8.75 43.75H15.7499V101.5C15.7499 102.467 14.9663 103.25 14 103.25H10.4999C9.5334 103.25 8.75 102.466 8.75 101.5V43.75Z" fill="#FF8500"/>
<path d="M24.5 43.75H31.4999V101.5C31.4999 102.467 30.7163 103.25 29.75 103.25H26.2499C25.2834 103.25 24.5 102.466 24.5 101.5V43.75Z" fill="#FF8500"/>
<path d="M40.25 43.75H47.2499V101.5C47.2499 102.467 46.4663 103.25 45.5 103.25H41.9999C41.0334 103.25 40.25 102.466 40.25 101.5V43.75V43.75Z" fill="#FF8500"/>
<path d="M52.4999 35.0001V5.25C52.4999 2.35061 50.1495 0 47.2499 0H8.75006C5.85067 0 3.50006 2.35061 3.50006 5.25V35.0001C1.567 35.0001 0 36.5671 0 38.4999V42C0 43.9331 1.567 45.5001 3.50006 45.5001H7.00013V101.5C7.00013 103.433 8.56713 105 10.5002 105H14.0003C15.9333 105 17.5003 103.433 17.5003 101.5V45.5001H22.7503V101.5C22.7503 103.433 24.3173 105 26.2504 105H29.7504C31.6835 105 33.2505 103.433 33.2505 101.5V45.5001H38.5005V101.5C38.5005 103.433 40.0675 105 42.0006 105H45.5006C47.4337 105 49.0007 103.433 49.0007 101.5V45.5001H52.4999C54.433 45.5001 56 43.9331 56 42V38.4999C56 36.5671 54.433 35.0001 52.4999 35.0001ZM6.99992 5.25C6.99992 4.28347 7.78353 3.50007 8.74985 3.50007H47.2499C48.2165 3.50007 48.9999 4.28367 48.9999 5.25V35.0001H6.99992V5.25V5.25ZM14.0001 101.5H10.5V45.5001H14.0001V101.5ZM29.75 101.5H26.25V45.5001H29.75V101.5ZM45.5 101.5H42V45.5001H45.5V101.5V101.5ZM47.2499 42H3.50006V38.4999H52.4999V42H47.2499Z" fill="black"/>
</g>
<defs>
<clipPath id="clip0">
<rect width="56" height="105" fill="white"/>
</clipPath>
</defs>
</svg>
