<svg width="108" height="108" viewBox="0 0 108 108" fill="none" xmlns="http://www.w3.org/2000/svg">
<path d="M102.599 41.4H5.39941L8.71134 5.07591C8.87946 3.21523 10.4431 1.79224 12.3114 1.79983H95.6874C97.5557 1.79224 99.1194 3.21523 99.2875 5.07591L102.599 41.4Z" fill="#FF8500"/>
<path d="M99.2882 5.07591C99.12 3.21523 97.5564 1.79224 95.6881 1.79983H90.2881C92.1564 1.79224 93.72 3.21523 93.8882 5.07591L97.2001 41.4H102.6L99.2882 5.07591Z" fill="#E87400"/>
<path d="M106.2 43.1998V57.5999C106.2 58.594 105.394 59.3998 104.4 59.3998H100.8V57.5999C100.8 54.6177 98.382 52.1999 95.3997 52.1999H88.1998C85.2176 52.1999 82.7998 54.6177 82.7998 57.5999V59.3998H75.5997V57.5999C75.5997 54.6177 73.1819 52.1999 70.1997 52.1999H62.9997C60.0175 52.1999 57.5997 54.6177 57.5997 57.5999V59.3998H50.3998V57.5999C50.3998 54.6177 47.982 52.1999 44.9998 52.1999H37.7997C34.8172 52.1999 32.3997 54.6177 32.3997 57.5999V59.3998H25.1997V57.5999C25.1997 54.6177 22.782 52.1999 19.7997 52.1999H12.5996C9.61736 52.1999 7.19959 54.6177 7.19959 57.5999V59.3998H3.59973C2.60559 59.3998 1.7998 58.594 1.7998 57.5999V43.1998C1.7998 42.2057 2.6058 41.3999 3.59973 41.3999H104.4C105.394 41.3999 106.2 42.2057 106.2 43.1998Z" fill="#FF8500"/>
<path d="M104.4 41.3999H99C99.9941 41.3999 100.8 42.2059 100.8 43.1998V59.3998H104.4C105.394 59.3998 106.2 58.594 106.2 57.5999V43.1998C106.2 42.2057 105.394 41.3999 104.4 41.3999Z" fill="#E87400"/>
<path d="M25.1994 57.5999V66.6H7.19922V57.5999C7.19922 54.6177 9.61699 52.2 12.5992 52.2H19.7991C22.7816 52.2 25.1994 54.6175 25.1994 57.5999Z" fill="#FF8500"/>
<path d="M19.7994 77.4001H12.5992L7.19922 66.6001H25.1992L19.7994 77.4001Z" fill="#FF8500"/>
<path d="M12.5998 77.4001H19.7997V102.6C19.7997 104.588 18.188 106.2 16.1997 106.2C14.2114 106.2 12.5996 104.588 12.5996 102.6V77.4001H12.5998Z" fill="#FF8500"/>
<path d="M50.3993 57.5999V66.6H32.3994V57.5999C32.3994 54.6177 34.8172 52.2 37.7994 52.2H44.9993C47.9818 52.2 50.3993 54.6175 50.3993 57.5999Z" fill="#FF8500"/>
<path d="M44.9993 77.4001H37.7994L32.3994 66.6001H50.3993L44.9993 77.4001Z" fill="#FF8500"/>
<path d="M37.8 77.4001H44.9999V102.6C44.9999 104.588 43.3882 106.2 41.3999 106.2C39.4116 106.2 37.7998 104.588 37.7998 102.6V77.4001H37.8Z" fill="#FF8500"/>
<path d="M75.5995 57.5999V66.6H57.5996V57.5999C57.5996 54.6177 60.0174 52.2 62.9996 52.2H70.1995C73.182 52.2 75.5995 54.6175 75.5995 57.5999Z" fill="#FF8500"/>
<path d="M70.1995 77.4001H62.9996L57.5996 66.6001H75.5995L70.1995 77.4001Z" fill="#FF8500"/>
<path d="M63.0002 77.4001H70.2001V102.6C70.2001 104.588 68.5884 106.2 66.6001 106.2C64.6118 106.2 63 104.588 63 102.6V77.4001H63.0002Z" fill="#FF8500"/>
<path d="M100.8 57.5999V66.6H82.7998V57.5999C82.7998 54.6177 85.2176 52.2 88.1998 52.2H95.3997C98.382 52.2 100.8 54.6175 100.8 57.5999Z" fill="#FF8500"/>
<path d="M95.4 52.2H90C92.9822 52.2 95.4 54.6177 95.4 57.5999V66.6H100.8V57.5999C100.8 54.6175 98.3822 52.2 95.4 52.2Z" fill="#E87400"/>
<path d="M95.3997 77.4001H88.1998L82.7998 66.6001H100.8L95.3997 77.4001Z" fill="#FF8500"/>
<path d="M95.4 66.6001L90 77.4001H95.4L100.8 66.6001H95.4Z" fill="#E87400"/>
<path d="M88.1994 77.4001H95.3994V102.6C95.3994 104.588 93.7876 106.2 91.7993 106.2C89.811 106.2 88.1992 104.588 88.1992 102.6V77.4001H88.1994Z" fill="#FF8500"/>
<path d="M104.4 39.5999H104.238L101.088 4.9138C100.836 2.12268 98.4905 -0.0115894 95.688 -0.000198761H12.312C9.50948 -0.0115894 7.16428 2.12268 6.912 4.9138L3.76207 39.5999H3.60007C1.61177 39.5999 0 41.2117 0 43.1998V57.5999C0 59.5882 1.61177 61.1999 3.60007 61.1999H5.4V66.5999C5.40084 66.7851 5.43755 66.9687 5.508 67.1399C5.50568 67.1819 5.50568 67.2239 5.508 67.2659L10.8 77.8319V102.6C10.8 105.582 13.2178 108 16.2 108C19.1822 108 21.6 105.582 21.6 102.6V77.8319L26.8019 67.41C26.8042 67.368 26.8042 67.326 26.8019 67.284C26.9241 67.0762 26.9922 66.841 27 66.5999V61.1999H30.6001V66.5999C30.6009 66.7851 30.6376 66.9687 30.7081 67.1399C30.7057 67.1819 30.7057 67.2239 30.7081 67.2659L36.0001 77.8319V102.6C36.0001 105.582 38.4178 108 41.4001 108C44.3823 108 46.8001 105.582 46.8001 102.6V77.8317L52.002 67.4097C52.0043 67.3678 52.0043 67.3258 52.002 67.2838C52.1241 67.076 52.1923 66.8408 52.2001 66.5997V61.1997H55.8001V66.5997C55.801 66.7849 55.8377 66.9685 55.9081 67.1397C55.9058 67.1817 55.9058 67.2237 55.9081 67.2657L61.2001 77.8317V102.6C61.2001 105.582 63.6179 108 66.6001 108C69.5824 108 72.0001 105.582 72.0001 102.6V77.8317L77.2021 67.4097C77.2044 67.3678 77.2044 67.3258 77.2021 67.2838C77.3242 67.076 77.3923 66.8408 77.4001 66.5997V61.1997H81V66.5997C81.0008 66.7849 81.0375 66.9685 81.108 67.1397C81.1057 67.1817 81.1057 67.2237 81.108 67.2657L86.4 77.8317V102.6C86.4 105.582 88.8178 108 91.8 108C94.7822 108 97.2 105.582 97.2 102.6V77.8317L102.402 67.4097C102.404 67.3678 102.404 67.3258 102.402 67.2838C102.524 67.076 102.592 66.8408 102.6 66.5997V61.1997H104.4C106.388 61.1997 108 59.588 108 57.5997V43.1998C108 42.2451 107.621 41.3294 106.946 40.6542C106.271 39.979 105.355 39.5997 104.4 39.5999ZM10.5121 5.2378C10.5962 4.30736 11.378 3.59607 12.312 3.59987H95.688C96.6222 3.59607 97.404 4.30757 97.4879 5.2378L100.62 39.5997H7.38007L10.5121 5.2378ZM23.3999 64.7998H9.00007V57.5999C9.00007 55.6116 10.6118 53.9998 12.6001 53.9998H19.8001C21.7884 53.9998 23.4001 55.6116 23.4001 57.5999V64.7998H23.3999ZM17.9999 102.6C17.9999 103.594 17.1939 104.4 16.2 104.4C15.2059 104.4 14.4001 103.594 14.4001 102.6V79.1999H18.0001V102.6H17.9999ZM18.684 75.5998H13.716L10.1159 68.3999H22.2839L18.684 75.5998ZM48.6 64.7998H34.1999V57.5999C34.1999 55.6116 35.8117 53.9998 37.8 53.9998H44.9999C46.9882 53.9998 48.6 55.6116 48.6 57.5999V64.7998ZM43.2 102.6C43.2 103.594 42.3942 104.4 41.4001 104.4C40.4059 104.4 39.6001 103.594 39.6001 102.6V79.1999H43.2V102.6ZM43.8841 75.5998H38.9161L35.316 68.3999H47.4839L43.8841 75.5998ZM73.8001 64.7998H59.4V57.5999C59.4 55.6116 61.0118 53.9998 63.0001 53.9998H70.2C72.1883 53.9998 73.8001 55.6116 73.8001 57.5999V64.7998ZM68.4001 102.6C68.4001 103.594 67.5941 104.4 66.6001 104.4C65.6062 104.4 64.8002 103.594 64.8002 102.6V79.1999H68.4003V102.6H68.4001ZM69.0839 75.5998H64.1159L60.5159 68.3999H72.6838L69.0839 75.5998ZM98.9999 64.7998H84.5999V57.5999C84.5999 55.6116 86.2116 53.9998 88.1999 53.9998H95.3999C97.3882 53.9998 98.9999 55.6116 98.9999 57.5999V64.7998ZM93.5999 102.6C93.5999 103.594 92.7939 104.4 91.8 104.4C90.8061 104.4 90.0001 103.594 90.0001 102.6V79.1999H93.6001V102.6H93.5999ZM94.284 75.5998H89.316L85.7159 68.3999H97.8839L94.284 75.5998ZM104.4 57.5999H102.6C102.6 53.6235 99.3764 50.3999 95.4001 50.3999H88.2001C84.2238 50.3999 81.0002 53.6235 81.0002 57.5999H77.4001C77.4001 53.6235 74.1766 50.3999 70.2002 50.3999H63.0003C59.0239 50.3999 55.8004 53.6235 55.8004 57.5999H52.2003C52.2003 53.6235 48.9767 50.3999 45.0004 50.3999H37.8C33.8236 50.3999 30.6001 53.6235 30.6001 57.5999H27C27 53.6235 23.7765 50.3999 19.8001 50.3999H12.5999C8.62355 50.3999 5.4 53.6235 5.4 57.5999H3.60007V43.1998H104.4V57.5999H104.4Z" fill="black"/>
<path d="M15.8919 17.3882C14.9024 17.2916 14.1786 16.4114 14.2753 15.4219L14.625 11.8389C14.7216 10.8494 15.6018 10.1257 16.5913 10.2223C17.5809 10.3189 18.3046 11.1991 18.208 12.1886L17.8582 15.7716C17.7616 16.7609 16.8812 17.4846 15.8919 17.3882Z" fill="#F5F5F5"/>
<path d="M14.1438 35.303C13.1543 35.2064 12.4306 34.3261 12.5272 33.3366L13.5764 22.5877C13.673 21.5982 14.5533 20.8744 15.5428 20.9711C16.5323 21.0677 17.256 21.9479 17.1594 22.9374L16.1102 33.6864C16.0136 34.6759 15.1333 35.3996 14.1438 35.303Z" fill="#F5F5F5"/>
</svg>
