<svg width="16" height="16" viewBox="0 0 16 16" fill="none" xmlns="http://www.w3.org/2000/svg">
<path d="M13.7046 15.6062C14.2297 16.1312 15.0811 16.1312 15.6062 15.6062C16.1313 15.0811 16.1313 14.2297 15.6062 13.7046L9.90156 8L15.6062 2.29539C16.1313 1.77029 16.1313 0.918946 15.6062 0.39385C15.0811 -0.131246 14.2297 -0.131246 13.7046 0.39385L8.00001 6.09846L2.29537 0.393822C1.77027 -0.131274 0.918921 -0.131274 0.393824 0.393822C-0.131273 0.918918 -0.131273 1.77027 0.393824 2.29536L6.09847 8L0.393823 13.7046C-0.131274 14.2297 -0.131274 15.0811 0.393823 15.6062C0.91892 16.1313 1.77027 16.1313 2.29537 15.6062L8.00001 9.90154L13.7046 15.6062Z" fill="white"/>
</svg>
