<svg width="24" height="24" viewBox="0 0 24 24" fill="none" xmlns="http://www.w3.org/2000/svg">
<path fill-rule="evenodd" clip-rule="evenodd" d="M12.2727 18.3082C14.281 18.3082 15.9091 16.6802 15.9091 14.6718C15.9091 12.6635 14.281 11.0355 12.2727 11.0355C10.2644 11.0355 8.63636 12.6635 8.63636 14.6718C8.63636 16.6802 10.2644 18.3082 12.2727 18.3082ZM12.2727 16.49C13.2769 16.49 14.0909 15.676 14.0909 14.6718C14.0909 13.6677 13.2769 12.8537 12.2727 12.8537C11.2686 12.8537 10.4545 13.6677 10.4545 14.6718C10.4545 15.676 11.2686 16.49 12.2727 16.49Z" fill="black"/>
<path d="M12.2727 9.31273C13.2769 9.31273 14.0909 8.49871 14.0909 7.49455C14.0909 6.4904 13.2769 5.67637 12.2727 5.67637C11.2686 5.67637 10.4545 6.4904 10.4545 7.49455C10.4545 8.49871 11.2686 9.31273 12.2727 9.31273Z" fill="black"/>
<path fill-rule="evenodd" clip-rule="evenodd" d="M7.72727 2C6.22104 2 5 3.22104 5 4.72727V19.2727C5 20.779 6.22104 22 7.72727 22H16.8182C18.3244 22 19.5455 20.779 19.5455 19.2727V4.72727C19.5455 3.22104 18.3244 2 16.8182 2H7.72727ZM16.8182 3.81818H7.72727C7.2252 3.81818 6.81818 4.2252 6.81818 4.72727V19.2727C6.81818 19.7748 7.2252 20.1818 7.72727 20.1818H16.8182C17.3203 20.1818 17.7273 19.7748 17.7273 19.2727V4.72727C17.7273 4.2252 17.3203 3.81818 16.8182 3.81818Z" fill="black"/>
</svg>
