<svg width="20" height="19" viewBox="0 0 20 19" fill="none" xmlns="http://www.w3.org/2000/svg">
<path d="M17.1308 18.5323C17.7872 19.1559 18.8514 19.1559 19.5077 18.5323C20.1641 17.9088 20.1641 16.8978 19.5077 16.2742L12.3769 9.5L19.5077 2.72578C20.1641 2.10223 20.1641 1.09125 19.5077 0.467697C18.8514 -0.155855 17.7872 -0.155855 17.1308 0.467697L10 7.24192L2.86921 0.467664C2.21284 -0.155888 1.14865 -0.155888 0.49228 0.467664C-0.164091 1.09122 -0.164092 2.10219 0.49228 2.72574L7.62309 9.5L0.492279 16.2743C-0.164093 16.8978 -0.164093 17.9088 0.492279 18.5323C1.14865 19.1559 2.21284 19.1559 2.86921 18.5323L10 11.7581L17.1308 18.5323Z" fill="black"/>
</svg>
