<svg width="39" height="40" viewBox="0 0 39 40" fill="none" xmlns="http://www.w3.org/2000/svg">
<circle cx="19.3333" cy="19.9998" r="19.3333" fill="#11D553"/>
<path fill-rule="evenodd" clip-rule="evenodd" d="M7.25 19.9998C7.25 13.3264 12.6599 7.9165 19.3333 7.9165C26.0068 7.9165 31.4167 13.3264 31.4167 19.9998C31.4167 26.6733 26.0068 32.0832 19.3333 32.0832C16.8947 32.0832 14.6248 31.3608 12.726 30.1183C12.139 29.628 10.2629 29.1982 7.67607 31.7792L7.6562 31.799L7.5952 31.7379L7.53414 31.677L7.55404 31.6571C10.135 29.0703 9.70515 27.1942 9.21486 26.6072C7.97239 24.7083 7.25 22.4384 7.25 19.9998ZM19.3337 29.4943C24.5772 29.4943 28.8278 25.2437 28.8278 20.0003C28.8278 14.7568 24.5772 10.5062 19.3337 10.5062C14.0903 10.5062 9.8397 14.7568 9.8397 20.0003C9.8397 25.2437 14.0903 29.4943 19.3337 29.4943Z" fill="white"/>
<path d="M22.1268 26.3871C21.7145 26.3871 21.3056 26.3142 20.9058 26.1689C19.1446 25.5291 17.5097 24.4871 16.178 23.1554C14.8463 21.8237 13.8042 20.1888 13.1644 18.4276C12.9588 17.8615 12.8982 17.2773 12.9841 16.6909C13.0647 16.1416 13.2775 15.6084 13.5994 15.1489C13.9228 14.6873 14.354 14.3034 14.8463 14.0387C15.3712 13.7564 15.9442 13.6133 16.5493 13.6133C16.7375 13.6133 16.9002 13.7448 16.9396 13.9288L17.5662 16.8527C17.5946 16.9851 17.5539 17.1228 17.4581 17.2186L16.3875 18.2891C17.3975 20.2971 19.0363 21.9359 21.0442 22.9458L22.1148 21.8752C22.2105 21.7795 22.3483 21.7388 22.4807 21.7672L25.4046 22.3937C25.5886 22.4331 25.7201 22.5958 25.7201 22.784C25.7201 23.3891 25.5769 23.9621 25.2946 24.4871C25.0299 24.9794 24.646 25.4105 24.1845 25.7339C23.7249 26.0559 23.1917 26.2686 22.6424 26.3492C22.4703 26.3745 22.2982 26.3871 22.1268 26.3871Z" fill="white"/>
</svg>
