<svg width="25" height="24" viewBox="0 0 25 24" fill="none" xmlns="http://www.w3.org/2000/svg">
<path fill-rule="evenodd" clip-rule="evenodd" d="M12.9874 0.114918C12.6771 -0.038306 12.3229 -0.038306 12.0126 0.114918L1.21263 5.44825C0.77928 5.66225 0.5 6.13975 0.5 6.66667C0.5 7.19359 0.77928 7.67108 1.21263 7.88508L4.14534 9.33333L1.21263 10.7816C0.77928 10.9956 0.5 11.4731 0.5 12C0.5 12.5269 0.77928 13.0044 1.21263 13.2184L4.14534 14.6667L1.21263 16.1149C0.77928 16.3289 0.5 16.8064 0.5 17.3333C0.5 17.8603 0.77928 18.3377 1.21263 18.5518L12.0126 23.8851C12.3229 24.0383 12.6771 24.0383 12.9874 23.8851L23.7874 18.5518C24.2207 18.3377 24.5 17.8603 24.5 17.3333C24.5 16.8064 24.2207 16.3289 23.7874 16.1149L20.8547 14.6667L23.7874 13.2184C24.2207 13.0044 24.5 12.5269 24.5 12C24.5 11.4731 24.2207 10.9956 23.7874 10.7816L20.8547 9.33333L23.7874 7.88508C24.2207 7.67108 24.5 7.19359 24.5 6.66667C24.5 6.13975 24.2207 5.66225 23.7874 5.44825L12.9874 0.114918ZM17.9 10.7924L12.9874 13.2184C12.6771 13.3716 12.3229 13.3716 12.0126 13.2184L7.1 10.7924L4.65466 12L12.5 15.8742L20.3453 12L17.9 10.7924ZM12.5 10.5409L4.65466 6.66667L12.5 2.79242L20.3453 6.66667L12.5 10.5409ZM12.9874 18.5518L17.9 16.1258L20.3453 17.3333L12.5 21.2076L4.65466 17.3333L7.1 16.1258L12.0126 18.5518C12.3229 18.705 12.6771 18.705 12.9874 18.5518Z" fill="white"/>
</svg>
