<svg width="32" height="29" viewBox="0 0 32 29" fill="none" xmlns="http://www.w3.org/2000/svg">
<path d="M12.1677 20.75C11.1091 20.75 10.251 19.9105 10.251 18.875L10.251 5.75C10.251 4.71447 11.1091 3.875 12.1677 3.875C13.2262 3.875 14.0843 4.71447 14.0843 5.75L14.0843 18.875C14.0843 19.9105 13.2262 20.75 12.1677 20.75Z" fill="#8B8B8B"/>
<path d="M17.9177 18.875C17.9177 19.9105 18.7758 20.75 19.8343 20.75C20.8929 20.75 21.751 19.9105 21.751 18.875V5.75C21.751 4.71447 20.8929 3.875 19.8343 3.875C18.7758 3.875 17.9177 4.71447 17.9177 5.75V18.875Z" fill="#8B8B8B"/>
<path fill-rule="evenodd" clip-rule="evenodd" d="M11 0.125H9.1887H8.99998H6.49998C5.44143 0.125 6.49998 0.125 4.61623 0.125C0.999976 0.125 -0.390887 0.125 0.667659 0.125H0.776206L2.34799 26.4842C2.40711 27.4756 3.24622 28.25 4.26141 28.25H27.7406C28.7558 28.25 29.5949 27.4756 29.654 26.4842L31.2258 0.125H31.3343C28.5 0.125 31.2258 0.125 27.3859 0.125C26 0.125 25.8762 0.125 24.8177 0.125H20H16.0011C12.8379 0.125 15.8273 0.125 13.7038 0.125H12.6158C10.4923 0.125 13.6666 0.125 11 0.125ZM27.3859 0.125H4.61623L6.06953 24.5H25.9325L27.3859 0.125Z" fill="#8B8B8B"/>
</svg>
