<svg width="21" height="21" viewBox="0 0 21 21" fill="none" xmlns="http://www.w3.org/2000/svg">
<path d="M10.377 14.2812C12.5343 14.2812 14.2832 12.5324 14.2832 10.375C14.2832 8.21764 12.5343 6.46875 10.377 6.46875C8.21959 6.46875 6.4707 8.21764 6.4707 10.375C6.4707 12.5324 8.21959 14.2812 10.377 14.2812Z" stroke="white" stroke-width="2" stroke-linecap="round" stroke-linejoin="round"/>
<path d="M15.5603 18.1877C13.8198 19.3428 11.7435 19.8836 9.66062 19.7243C7.57779 19.5649 5.60782 18.7146 4.0633 17.3082C2.51877 15.9017 1.48816 14.0198 1.13499 11.961C0.781814 9.90211 1.12631 7.78428 2.11382 5.94352C3.10133 4.10275 4.67528 2.64449 6.58594 1.80011C8.49659 0.955733 10.6345 0.773604 12.6605 1.28262C14.6864 1.79164 16.4844 2.96266 17.769 4.60986C19.0536 6.25705 19.7514 8.28609 19.7516 10.375C19.7516 12.5324 18.9703 14.2813 17.0172 14.2813C15.0641 14.2813 14.2828 12.5324 14.2828 10.375V6.46876" stroke="white" stroke-width="2" stroke-linecap="round" stroke-linejoin="round"/>
</svg>
