<svg width="38" height="38" viewBox="0 0 38 38" fill="none" xmlns="http://www.w3.org/2000/svg">
<path d="M19 38C29.4934 38 38 29.4934 38 19C38 8.50659 29.4934 0 19 0C8.50659 0 0 8.50659 0 19C0 29.4934 8.50659 38 19 38Z" fill="#0088CC"/>
<path d="M7.90769 18.8354L20.7025 13.5637C21.9655 13.0146 26.2487 11.2574 26.2487 11.2574C26.2487 11.2574 28.2256 10.4886 28.0609 12.3556C28.006 13.1244 27.5667 15.8152 27.1273 18.7256L25.7545 27.347C25.7545 27.347 25.6447 28.61 24.7112 28.8296C23.7776 29.0493 22.2401 28.0609 21.9655 27.8412C21.7458 27.6765 17.847 25.2054 16.4193 23.9973C16.0349 23.6678 15.5956 23.0088 16.4742 22.24C18.451 20.4279 20.8123 18.1765 22.2401 16.7487C22.899 16.0898 23.558 14.5522 20.8123 16.4192L13.0695 21.636C13.0695 21.636 12.1909 22.1851 10.5435 21.6909C8.89613 21.1967 6.97417 20.5377 6.97417 20.5377C6.97417 20.5377 5.65625 19.714 7.90769 18.8354V18.8354Z" fill="white"/>
</svg>
