<svg width="40" height="39" viewBox="0 0 40 39" fill="none" xmlns="http://www.w3.org/2000/svg">
<path fill-rule="evenodd" clip-rule="evenodd" d="M0 36.0001C0 37.657 1.35558 39.0001 3.02778 39.0001C4.69997 39.0001 5 39.0001 8 39.0001H6.05556H24.2222H33.3056C34.5 39 34.3278 39 36 39H35C37.5 39 38 38.5 38.5 38C39.0708 37.2342 39.3611 36.4328 39.3611 34.6527V25.5V21.5C39.3611 18.8362 39.3611 19.5 39.3611 17.5C39.3611 15.5 39.3611 15.5 39.3611 14V6.00011V3.00011C39.3611 1.34326 38.0055 0.000110113 36.3333 0.000110113H6.05556L5 9.52716e-05C4 -4.04641e-06 4.69997 2.33503e-08 3.02778 2.33503e-08C1.35558 2.33503e-08 2.38419e-06 1.34315 2.38419e-06 3L0 36.0001ZM6.05556 6.00011V33.0001H33.3056V6.00011H6.05556Z" fill="black"/>
</svg>
