<svg width="23" height="23" viewBox="0 0 23 23" fill="none" xmlns="http://www.w3.org/2000/svg">
<circle cx="11.5" cy="11.5" r="11.5" fill="white"/>
<path d="M7.406 14.544V13.158H8.666V12.038H7.406V10.638H8.666V6.186H12.152C12.936 6.186 13.5847 6.31667 14.098 6.578C14.6207 6.83 15.008 7.18 15.26 7.628C15.512 8.06667 15.638 8.56133 15.638 9.112C15.638 9.644 15.5167 10.134 15.274 10.582C15.0313 11.0207 14.6533 11.3753 14.14 11.646C13.6267 11.9073 12.964 12.038 12.152 12.038H10.458V13.158H13.104V14.544H10.458V16H8.666V14.544H7.406ZM12.096 7.572H10.458V10.638H12.096C12.6933 10.638 13.1273 10.498 13.398 10.218C13.678 9.938 13.818 9.56933 13.818 9.112C13.818 8.64533 13.6827 8.272 13.412 7.992C13.1413 7.712 12.7027 7.572 12.096 7.572Z" fill="black"/>
</svg>
