<svg width="30" height="30" viewBox="0 0 30 30" fill="none" xmlns="http://www.w3.org/2000/svg">
<path d="M18.438 14.5976L20.3236 12.712L14.6667 7.05512L9.00986 12.712L10.8955 14.5976L13.3334 12.1597L13.3334 22.2092L16.0001 22.2092L16.0001 12.1597L18.438 14.5976Z" fill="black"/>
<path fill-rule="evenodd" clip-rule="evenodd" d="M25.0376 4.29593C19.3099 -1.43176 10.0235 -1.43176 4.29577 4.29593C-1.43192 10.0236 -1.43192 19.31 4.29577 25.0377C10.0235 30.7654 19.3099 30.7654 25.0376 25.0377C30.7653 19.31 30.7653 10.0236 25.0376 4.29593Z" fill="black"/>
<path d="M18.4281 14.5974L20.3137 12.7118L14.6569 7.0549L9 12.7118L10.8856 14.5974L13.3235 12.1595L13.3235 22.209L15.9902 22.209L15.9902 12.1595L18.4281 14.5974Z" fill="#FF8500"/>
</svg>
