<svg width="23" height="23" viewBox="0 0 23 23" fill="none" xmlns="http://www.w3.org/2000/svg">
<path d="M6.94458 11.4776C7.88463 13.3995 9.44247 14.9502 11.3686 15.8815C11.5095 15.9483 11.6654 15.9772 11.8209 15.9655C11.9764 15.9537 12.1262 15.9017 12.2554 15.8144L15.0915 13.9233C15.2169 13.8396 15.3613 13.7886 15.5114 13.7748C15.6615 13.761 15.8127 13.7849 15.9513 13.8443L21.257 16.1182C21.4373 16.1947 21.5877 16.3278 21.6858 16.4973C21.7838 16.6668 21.8241 16.8636 21.8006 17.058C21.6329 18.3703 20.9926 19.5764 19.9997 20.4506C19.0067 21.3248 17.7292 21.8071 16.4063 21.8071C12.3203 21.8071 8.40162 20.184 5.51239 17.2947C2.62315 14.4055 1 10.4869 1 6.40088C1.00007 5.07796 1.48234 3.80041 2.35652 2.80746C3.2307 1.81451 4.43683 1.17424 5.74909 1.00654C5.9435 0.983017 6.14028 1.02331 6.3098 1.12134C6.47932 1.21938 6.61238 1.36986 6.68895 1.55009L8.96483 6.86048C9.02369 6.99783 9.04768 7.14762 9.03465 7.29649C9.02162 7.44536 8.97197 7.5887 8.89014 7.71374L7.00555 10.5933C6.91977 10.7229 6.86907 10.8724 6.85838 11.0274C6.84769 11.1824 6.87739 11.3375 6.94458 11.4776Z" stroke="black" stroke-width="2" stroke-linecap="round" stroke-linejoin="round"/>
</svg>
