<svg width="20" height="20" viewBox="0 0 20 20" fill="none" xmlns="http://www.w3.org/2000/svg">
<path d="M12.1953 1.71973C13.4667 2.06167 14.626 2.73168 15.557 3.66267C16.488 4.59365 17.158 5.75292 17.4999 7.02435" stroke="white" stroke-width="2" stroke-linecap="round" stroke-linejoin="round"/>
<path d="M11.4189 4.61816C12.1818 4.82333 12.8774 5.22534 13.436 5.78393C13.9945 6.34252 14.3966 7.03808 14.6017 7.80094" stroke="white" stroke-width="2" stroke-linecap="round" stroke-linejoin="round"/>
<path d="M5.91965 9.67113C6.69762 11.2616 7.98687 12.545 9.5809 13.3157C9.69753 13.371 9.82654 13.395 9.95523 13.3852C10.0839 13.3755 10.2079 13.3324 10.3148 13.2602L12.6619 11.6951C12.7657 11.6259 12.8852 11.5837 13.0094 11.5723C13.1337 11.5608 13.2588 11.5806 13.3735 11.6298L17.7644 13.5116C17.9136 13.575 18.0381 13.6851 18.1193 13.8254C18.2004 13.9657 18.2338 14.1285 18.2143 14.2894C18.0755 15.3754 17.5456 16.3736 16.7239 17.0971C15.9021 17.8205 14.8448 18.2196 13.75 18.2197C10.3685 18.2197 7.12548 16.8764 4.73439 14.4853C2.3433 12.0942 1 8.85121 1 5.4697C1.00006 4.37486 1.39918 3.31758 2.12264 2.49583C2.8461 1.67408 3.84428 1.1442 4.93028 1.00542C5.09117 0.985945 5.25403 1.01929 5.39432 1.10042C5.53461 1.18156 5.64473 1.30609 5.7081 1.45525L7.59158 5.85005C7.6403 5.96372 7.66015 6.08768 7.64936 6.21089C7.63858 6.33409 7.5975 6.45272 7.52977 6.5562L5.97011 8.9393C5.89912 9.0465 5.85716 9.17029 5.84831 9.29856C5.83947 9.42683 5.86405 9.5552 5.91965 9.67113Z" stroke="white" stroke-width="2" stroke-linecap="round" stroke-linejoin="round"/>
</svg>
