<svg width="30" height="22" viewBox="0 0 30 22" fill="none" xmlns="http://www.w3.org/2000/svg">
<path fill-rule="evenodd" clip-rule="evenodd" d="M0.016276 1.53586C0.016276 0.687628 0.762468 0 1.68294 0H28.3333C29.2538 0 30 0.687628 30 1.53586V18.9283C30 20.6247 28.5076 22 26.6667 22H3.33333C1.49238 22 0 20.6247 0 18.9283V2.03382C0 1.96068 0.0055476 1.88873 0.016276 1.81832V1.53586ZM3.33333 4.95124V18.9283H26.6667V4.95176L18.5358 12.4445C16.5832 14.2438 13.4174 14.2438 11.4648 12.4445L3.33333 4.95124ZM5.95387 3.02204H24.0467L16.1788 10.2724C15.5279 10.8722 14.4726 10.8722 13.8218 10.2724L5.95387 3.02204Z" fill="white"/>
</svg>
