<svg width="48" height="48" viewBox="0 0 48 48" fill="none" xmlns="http://www.w3.org/2000/svg">
<circle cx="24" cy="24" r="24" fill="#FF36DF"/>
<path d="M26.1953 15.7197C27.4667 16.0617 28.626 16.7317 29.557 17.6627C30.488 18.5937 31.158 19.7529 31.4999 21.0243" stroke="white" stroke-width="2" stroke-linecap="round" stroke-linejoin="round"/>
<path d="M25.4189 18.6182C26.1818 18.8233 26.8774 19.2253 27.436 19.7839C27.9945 20.3425 28.3966 21.0381 28.6017 21.8009" stroke="white" stroke-width="2" stroke-linecap="round" stroke-linejoin="round"/>
<path d="M19.9197 23.6711C20.6976 25.2616 21.9869 26.545 23.5809 27.3157C23.6975 27.371 23.8265 27.395 23.9552 27.3852C24.0839 27.3755 24.2079 27.3324 24.3148 27.2602L26.6619 25.6951C26.7657 25.6259 26.8852 25.5837 27.0094 25.5723C27.1337 25.5608 27.2588 25.5806 27.3735 25.6298L31.7644 27.5116C31.9136 27.575 32.0381 27.6851 32.1193 27.8254C32.2004 27.9657 32.2338 28.1285 32.2143 28.2894C32.0755 29.3754 31.5456 30.3736 30.7239 31.0971C29.9021 31.8205 28.8448 32.2196 27.75 32.2197C24.3685 32.2197 21.1255 30.8764 18.7344 28.4853C16.3433 26.0942 15 22.8512 15 19.4697C15.0001 18.3749 15.3992 17.3176 16.1226 16.4958C16.8461 15.6741 17.8443 15.1442 18.9303 15.0054C19.0912 14.9859 19.254 15.0193 19.3943 15.1004C19.5346 15.1816 19.6447 15.3061 19.7081 15.4552L21.5916 19.85C21.6403 19.9637 21.6601 20.0877 21.6494 20.2109C21.6386 20.3341 21.5975 20.4527 21.5298 20.5562L19.9701 22.9393C19.8991 23.0465 19.8572 23.1703 19.8483 23.2986C19.8395 23.4268 19.864 23.5552 19.9197 23.6711Z" stroke="white" stroke-width="2" stroke-linecap="round" stroke-linejoin="round"/>
</svg>
