<svg width="48" height="48" viewBox="0 0 48 48" fill="none" xmlns="http://www.w3.org/2000/svg">
<circle cx="24" cy="24" r="24" fill="#11D553"/>
<path fill-rule="evenodd" clip-rule="evenodd" d="M14 24C14 18.4772 18.4772 14 24 14C29.5228 14 34 18.4772 34 24C34 29.5228 29.5228 34 24 34C21.9818 34 20.1033 33.4022 18.5319 32.3739C18.046 31.9682 16.4934 31.6124 14.3526 33.7484L14.3362 33.7649L14.2857 33.7143L14.2352 33.6638L14.2516 33.6474C16.3876 31.5066 16.0318 29.954 15.6261 29.4681C14.5978 27.8967 14 26.0182 14 24ZM24 31.8573C28.3394 31.8573 31.8571 28.3395 31.8571 24.0001C31.8571 19.6607 28.3394 16.143 24 16.143C19.6606 16.143 16.1429 19.6607 16.1429 24.0001C16.1429 28.3395 19.6606 31.8573 24 31.8573Z" fill="white"/>
<path d="M26.3115 29.2858C25.9703 29.2858 25.6319 29.2255 25.3011 29.1053C23.8435 28.5758 22.4905 27.7133 21.3884 26.6113C20.2863 25.5092 19.4239 24.1562 18.8944 22.6986C18.7242 22.2302 18.674 21.7466 18.7452 21.2613C18.8119 20.8068 18.9879 20.3655 19.2544 19.9852C19.522 19.6032 19.8789 19.2855 20.2863 19.0664C20.7207 18.8328 21.1949 18.7144 21.6957 18.7144C21.8515 18.7144 21.9861 18.8232 22.0187 18.9755L22.5372 21.3952C22.5607 21.5048 22.527 21.6188 22.4478 21.698L21.5618 22.584C22.3976 24.2458 23.7539 25.602 25.4156 26.4378L26.3016 25.5518C26.3808 25.4726 26.4949 25.439 26.6044 25.4624L29.0242 25.9809C29.1765 26.0135 29.2853 26.1482 29.2853 26.3039C29.2853 26.8047 29.1668 27.2789 28.9332 27.7134C28.7141 28.1208 28.3964 28.4776 28.0144 28.7452C27.6341 29.0117 27.1928 29.1878 26.7383 29.2544C26.5958 29.2753 26.4534 29.2858 26.3115 29.2858Z" fill="white"/>
</svg>
