<svg width="19" height="19" viewBox="0 0 19 19" fill="none" xmlns="http://www.w3.org/2000/svg">
<path fill-rule="evenodd" clip-rule="evenodd" d="M18.7217 0.27827C18.9639 0.52046 19.057 0.874268 18.9653 1.20428L14.2153 18.3042C14.1179 18.6548 13.8288 18.919 13.4709 18.9845C13.113 19.0499 12.7491 18.9052 12.5339 18.6118L7.39535 11.6046L0.388234 6.46608C0.0948035 6.2509 -0.0499343 5.88702 0.0155325 5.52908C0.0809992 5.17115 0.345168 4.88205 0.695767 4.78466L17.7957 0.0346802C18.1257 -0.0569897 18.4795 0.0360803 18.7217 0.27827ZM9.32306 11.0204L12.9085 15.9097L16.1681 4.17544L9.32306 11.0204ZM14.8246 2.83194L7.97956 9.67694L3.09028 6.09146L14.8246 2.83194Z" fill="black"/>
</svg>
