<svg width="11" height="15" viewBox="0 0 11 15" fill="none" xmlns="http://www.w3.org/2000/svg">
<path d="M5.39997 15.0001C4.42561 14.1384 3.52247 13.1937 2.69999 12.1759C1.46571 10.6474 6.81679e-07 8.37107 6.81679e-07 6.20191C-0.00109332 3.93642 1.3147 1.89351 3.33338 1.0265C5.35206 0.159482 7.67573 0.639252 9.22007 2.24193C10.2356 3.2902 10.8045 4.71613 10.8 6.20191C10.8 8.37107 9.33424 10.6474 8.09996 12.1759C7.27748 13.1937 6.37434 14.1384 5.39997 15.0001ZM5.39997 2.20274C3.2708 2.20538 1.5454 3.99433 1.54285 6.20191C1.54285 7.13452 1.94939 8.74939 3.88412 11.1497C4.36097 11.74 4.86693 12.3044 5.39997 12.8405C5.93306 12.305 6.43927 11.7415 6.91659 11.1521C8.85056 8.74859 9.2571 7.13372 9.2571 6.20191C9.25455 3.99433 7.52915 2.20538 5.39997 2.20274ZM5.39997 8.60142C4.12184 8.60142 3.0857 7.52712 3.0857 6.20191C3.0857 4.8767 4.12184 3.80241 5.39997 3.80241C6.67811 3.80241 7.71425 4.8767 7.71425 6.20191C7.71425 6.8383 7.47042 7.44862 7.03641 7.89862C6.6024 8.34861 6.01376 8.60142 5.39997 8.60142Z" fill="#959595"/>
</svg>
