<svg width="35" height="10" viewBox="0 0 35 10" fill="none" xmlns="http://www.w3.org/2000/svg">
<path fill-rule="evenodd" clip-rule="evenodd" d="M9.87647 2.97794L8.43333 5.625H1.91667C0.858122 5.625 0 6.46447 0 7.5C0 8.53553 0.858122 9.375 1.91667 9.375H2.02522H3.99899C10.2787 9.375 9.26356 9.375 10.2787 9.375H23.999C25.0142 9.375 24.999 9.375 28.999 9.375H32.4748H32.5833C33.6419 9.375 34.5 8.53553 34.5 7.5C34.5 6.46447 33.6419 5.625 32.5833 5.625H26.0667L24.6235 2.97794C23.6242 1.14496 21.6735 0 19.55 0H14.95C12.8265 0 10.8758 1.14496 9.87647 2.97794ZM14.95 3.75C14.2422 3.75 13.5919 4.13165 13.2588 4.74265L12.7778 5.625H21.7222L21.2412 4.74265C20.9081 4.13165 20.2578 3.75 19.55 3.75H14.95Z" fill="#8B8B8B"/>
</svg>
