<svg width="14" height="11" viewBox="0 0 14 11" fill="none" xmlns="http://www.w3.org/2000/svg">
<path fill-rule="evenodd" clip-rule="evenodd" d="M0.00759549 0.76793C0.00759549 0.343814 0.355818 0 0.785373 0H13.2222C13.6518 0 14 0.343814 14 0.76793V9.46414C14 10.3124 13.3036 11 12.4444 11H1.55556C0.696446 11 0 10.3124 0 9.46414V1.01691C0 0.980339 0.00258888 0.944367 0.00759549 0.909162V0.76793ZM1.55556 2.47562V9.46414H12.4444V2.47588L8.65005 6.22224C7.73883 7.12192 6.26144 7.12192 5.35022 6.22224L1.55556 2.47562ZM2.77847 1.51102H11.2218L7.55011 5.13622C7.24636 5.43611 6.7539 5.43611 6.45016 5.13622L2.77847 1.51102Z" fill="#959595"/>
</svg>
