<svg width="26" height="24" viewBox="0 0 26 24" fill="none" xmlns="http://www.w3.org/2000/svg">
<path fill-rule="evenodd" clip-rule="evenodd" d="M12.4874 0.114918C12.1771 -0.038306 11.8229 -0.038306 11.5126 0.114918L0.712634 5.44825C0.27928 5.66225 0 6.13975 0 6.66667C0 7.19359 0.27928 7.67108 0.712634 7.88508L3.64534 9.33333L0.712634 10.7816C0.27928 10.9956 0 11.4731 0 12C0 12.5269 0.27928 13.0044 0.712634 13.2184L3.64534 14.6667L0.712634 16.1149C0.27928 16.3289 0 16.8064 0 17.3333C0 17.8603 0.27928 18.3377 0.712634 18.5517L11.5126 23.8851C11.8229 24.0383 12.1771 24.0383 12.4874 23.8851L23.2874 18.5517C23.7207 18.3377 24 17.8603 24 17.3333C24 16.8064 23.7207 16.3289 23.2874 16.1149L20.3547 14.6667L23.2874 13.2184C23.7207 13.0044 24 12.5269 24 12C24 11.4731 23.7207 10.9956 23.2874 10.7816L20.3547 9.33333L23.2874 7.88508C23.7207 7.67108 24 7.19359 24 6.66667C24 6.13975 23.7207 5.66225 23.2874 5.44825L12.4874 0.114918ZM17.4 10.7924L12.4874 13.2184C12.1771 13.3716 11.8229 13.3716 11.5126 13.2184L6.6 10.7924L4.15466 12L12 15.8742L19.8453 12L17.4 10.7924ZM12 10.5409L4.15466 6.66667L12 2.79242L19.8453 6.66667L12 10.5409ZM12.4874 18.5517L17.4 16.1258L19.8453 17.3333L12 21.2076L4.15466 17.3333L6.6 16.1258L11.5126 18.5517C11.8229 18.705 12.1771 18.705 12.4874 18.5517Z" fill="black"/>
</svg>
