<svg width="20" height="20" viewBox="0 0 20 20" fill="none" xmlns="http://www.w3.org/2000/svg">
<path fill-rule="evenodd" clip-rule="evenodd" d="M0 10C0 4.47715 4.47715 0 10 0C15.5228 0 20 4.47715 20 10C20 15.5228 15.5228 20 10 20C7.98184 20 6.10332 19.4022 4.53186 18.3739C4.04605 17.9682 2.49342 17.6124 0.35261 19.7484L0.336166 19.7649L0.285685 19.7143L0.235151 19.6638L0.251616 19.6474C2.38755 17.5066 2.03185 15.954 1.62609 15.4681C0.597842 13.8967 0 12.0182 0 10ZM10 17.8573C14.3394 17.8573 17.8571 14.3395 17.8571 10.0001C17.8571 5.66073 14.3394 2.14297 10 2.14297C5.66062 2.14297 2.14286 5.66073 2.14286 10.0001C2.14286 14.3395 5.66062 17.8573 10 17.8573Z" fill="black"/>
<path d="M12.312 15.2858C11.9708 15.2858 11.6324 15.2255 11.3016 15.1053C9.84397 14.5758 8.491 13.7133 7.38888 12.6113C6.28677 11.5092 5.42436 10.1562 4.89488 8.69859C4.72473 8.23016 4.67452 7.74662 4.74569 7.26135C4.81236 6.80679 4.98843 6.36552 5.25489 5.98521C5.52254 5.60323 5.87935 5.28552 6.28675 5.06644C6.72119 4.83282 7.19538 4.71436 7.69619 4.71436C7.85194 4.71436 7.98656 4.82318 8.0192 4.97547L8.53772 7.39522C8.5612 7.50479 8.52752 7.6188 8.4483 7.69804L7.56229 8.58402C8.39811 10.2458 9.75434 11.602 11.4161 12.4378L12.3021 11.5518C12.3813 11.4726 12.4954 11.439 12.6049 11.4624L15.0247 11.9809C15.177 12.0135 15.2858 12.1482 15.2858 12.3039C15.2858 12.8047 15.1673 13.2789 14.9337 13.7134C14.7146 14.1208 14.3969 14.4776 14.0149 14.7452C13.6346 15.0117 13.1933 15.1878 12.7388 15.2544C12.5963 15.2753 12.4539 15.2858 12.312 15.2858Z" fill="black"/>
</svg>
