<svg width="7" height="60" viewBox="0 0 7 60" fill="none" xmlns="http://www.w3.org/2000/svg">
<path fill-rule="evenodd" clip-rule="evenodd" d="M0 57C0 58.6569 1.35515 60 3.02734 60C4.69954 60 6.05469 58.6569 6.05469 57V45V33.9971C6.05469 35.6539 5.98731 33.9971 6.05469 31.4971V28.9971C6.05469 25.4971 6.05469 26.9971 6.05469 24.4971C6.05469 19.4971 5.9873 18.9971 6.05469 17.4971V14.9971V13.4971C5.99479 5.49707 6.05469 6.49707 5.9873 4.49707L6.05469 3C6.05469 1.34315 4.69954 0 3.02734 0C1.35515 0 0 1.34315 0 3V57Z" fill="black"/>
</svg>
