<svg width="32" height="32" viewBox="0 0 32 32" fill="none" xmlns="http://www.w3.org/2000/svg">
<path d="M16.0689 19.7714L17.9545 21.6571L23.6114 16.0002L17.9545 10.3434L16.0689 12.229L18.5068 14.6669H8.45729V17.3335H18.5068L16.0689 19.7714Z" fill="black"/>
<path fill-rule="evenodd" clip-rule="evenodd" d="M26.3706 26.3711C32.0983 20.6434 32.0983 11.357 26.3706 5.62926C20.6429 -0.0984261 11.3565 -0.0984261 5.62878 5.62926C-0.0989145 11.357 -0.0989145 20.6434 5.62878 26.3711C11.3565 32.0987 20.6429 32.0987 26.3706 26.3711ZM24.485 24.4854C29.1712 19.7992 29.1712 12.2012 24.485 7.51488C19.7987 2.82859 12.2007 2.82859 7.51439 7.51488C2.8281 12.2012 2.8281 19.7992 7.51439 24.4854C12.2007 29.1717 19.7987 29.1717 24.485 24.4854Z" fill="black"/>
</svg>
