<svg width="39" height="39" viewBox="0 0 39 39" fill="none" xmlns="http://www.w3.org/2000/svg">
<circle cx="19.3333" cy="19.3333" r="19.3333" fill="#FF36DF"/>
<path d="M21.9854 9.32812C23.5217 9.7413 24.9224 10.5509 26.0474 11.6758C27.1723 12.8008 27.9819 14.2016 28.3951 15.7379" stroke="white" stroke-width="2" stroke-linecap="round" stroke-linejoin="round"/>
<path d="M21.0469 12.8306C21.9687 13.0785 22.8091 13.5642 23.4841 14.2392C24.1591 14.9142 24.6448 15.7546 24.8927 16.6764" stroke="white" stroke-width="2" stroke-linecap="round" stroke-linejoin="round"/>
<path d="M14.4026 18.9361C15.3426 20.858 16.9005 22.4087 18.8266 23.34C18.9675 23.4068 19.1234 23.4357 19.2789 23.424C19.4344 23.4122 19.5842 23.3601 19.7134 23.2729L22.5495 21.3818C22.6749 21.2981 22.8193 21.2471 22.9694 21.2333C23.1195 21.2195 23.2707 21.2434 23.4093 21.3028L28.715 23.5767C28.8953 23.6532 29.0458 23.7863 29.1438 23.9558C29.2418 24.1253 29.2821 24.3221 29.2586 24.5165C29.0909 25.8288 28.4506 27.0349 27.4577 27.9091C26.4647 28.7833 25.1872 29.2656 23.8643 29.2656C19.7783 29.2656 15.8596 27.6425 12.9704 24.7532C10.0812 21.864 8.45801 17.9454 8.45801 13.8594C8.45808 12.5365 8.94035 11.2589 9.81453 10.266C10.6887 9.27301 11.8948 8.63274 13.2071 8.46504C13.4015 8.44151 13.5983 8.4818 13.7678 8.57984C13.9373 8.67788 14.0704 8.82835 14.147 9.00859L16.4228 14.319C16.4817 14.4563 16.5057 14.6061 16.4927 14.755C16.4796 14.9039 16.43 15.0472 16.3481 15.1722L14.4636 18.0518C14.3778 18.1814 14.3271 18.3309 14.3164 18.4859C14.3057 18.6409 14.3354 18.796 14.4026 18.9361Z" stroke="white" stroke-width="2" stroke-linecap="round" stroke-linejoin="round"/>
</svg>
