<svg width="46" height="45" viewBox="0 0 46 45" fill="none" xmlns="http://www.w3.org/2000/svg">
<path d="M19.1667 33.75C18.1081 33.75 17.25 32.9105 17.25 31.875L17.25 18.75C17.25 17.7145 18.1081 16.875 19.1667 16.875C20.2252 16.875 21.0833 17.7145 21.0833 18.75L21.0833 31.875C21.0833 32.9105 20.2252 33.75 19.1667 33.75Z" fill="#252930"/>
<path d="M24.9167 31.875C24.9167 32.9105 25.7748 33.75 26.8333 33.75C27.8919 33.75 28.75 32.9105 28.75 31.875V18.75C28.75 17.7145 27.8919 16.875 26.8333 16.875C25.7748 16.875 24.9167 17.7145 24.9167 18.75V31.875Z" fill="#252930"/>
<path fill-rule="evenodd" clip-rule="evenodd" d="M15.6265 6.72794L14.1833 9.375H7.66667C6.60812 9.375 5.75 10.2145 5.75 11.25C5.75 12.2855 6.60812 13.125 7.66667 13.125H7.77521L9.347 39.4842C9.40612 40.4756 10.2452 41.25 11.2604 41.25H34.7396C35.7548 41.25 36.5939 40.4756 36.653 39.4842L38.2248 13.125H38.3333C39.3919 13.125 40.25 12.2855 40.25 11.25C40.25 10.2145 39.3919 9.375 38.3333 9.375H31.8167L30.3735 6.72794C29.3742 4.89496 27.4235 3.75 25.3 3.75H20.7C18.5765 3.75 16.6258 4.89496 15.6265 6.72794ZM20.7 7.5C19.9922 7.5 19.3419 7.88165 19.0088 8.49265L18.5278 9.375H27.4722L26.9912 8.49265C26.6581 7.88165 26.0078 7.5 25.3 7.5H20.7ZM34.3849 13.125H11.6151L13.0685 37.5H32.9315L34.3849 13.125Z" fill="#252930"/>
</svg>
