<svg width="14" height="15" viewBox="0 0 14 15" fill="none" xmlns="http://www.w3.org/2000/svg">
<path d="M1 6.75391H12.3333" stroke="#959595" stroke-width="1.52" stroke-linecap="round" stroke-linejoin="round"/>
<path d="M1 3.39746H12.3333" stroke="#959595" stroke-width="1.52" stroke-linecap="round" stroke-linejoin="round"/>
<path d="M4.50772 11.5488L2.88867 13.4668" stroke="#959595" stroke-width="1.52" stroke-linecap="round" stroke-linejoin="round"/>
<path d="M8.8252 11.5488L10.4442 13.4668" stroke="#959595" stroke-width="1.52" stroke-linecap="round" stroke-linejoin="round"/>
<path d="M10.7143 1H2.61905C1.72487 1 1 1.64402 1 2.43846V10.1103C1 10.9047 1.72487 11.5487 2.61905 11.5487H10.7143C11.6085 11.5487 12.3333 10.9047 12.3333 10.1103V2.43846C12.3333 1.64402 11.6085 1 10.7143 1Z" stroke="#959595" stroke-width="1.52" stroke-linecap="round" stroke-linejoin="round"/>
<path d="M6.6665 3.39746V6.75387" stroke="#959595" stroke-width="1.52" stroke-linecap="round" stroke-linejoin="round"/>
<path d="M3.6982 10.1103C4.14528 10.1103 4.50772 9.78833 4.50772 9.39111C4.50772 8.99389 4.14528 8.67188 3.6982 8.67188C3.25111 8.67188 2.88867 8.99389 2.88867 9.39111C2.88867 9.78833 3.25111 10.1103 3.6982 10.1103Z" stroke="#959595" stroke-width="1.52" stroke-linecap="round" stroke-linejoin="round"/>
<path d="M9.63472 10.1103C10.0818 10.1103 10.4442 9.78833 10.4442 9.39111C10.4442 8.99389 10.0818 8.67188 9.63472 8.67188C9.18763 8.67188 8.8252 8.99389 8.8252 9.39111C8.8252 9.78833 9.18763 10.1103 9.63472 10.1103Z" stroke="#959595" stroke-width="1.52" stroke-linecap="round" stroke-linejoin="round"/>
</svg>
