<svg width="34" height="44" viewBox="0 0 34 44" fill="none" xmlns="http://www.w3.org/2000/svg">
<path fill-rule="evenodd" clip-rule="evenodd" d="M0 30V33V40.5C0 42.1568 1.35558 43.5 3.02778 43.5H30.2778C31.2386 43.5 32.1424 43.0481 32.7133 42.2823C33.2841 41.5165 33.4542 40.5277 33.1717 39.6177L27.4015 21.0366L33.1502 3.94868C33.458 3.03384 33.3031 2.02817 32.734 1.24587C32.165 0.463562 31.251 0 30.2778 0H15.1389H11.1718C9.17182 0 7.34402 0 5.67182 0L0.193848 9.82285e-05C0.193848 4.50059 0.193686 5.74031 0.193686 11.5002C0.193686 11.5002 0.000593185 15.5 0 30ZM6.05556 6H15.1389H26.077L21.3498 20.0513C21.1503 20.6445 21.1427 21.2846 21.3283 21.8822L26.1783 37.5H6.05556V26.5V22.5C6.05556 15 6.05556 7.65685 6.05556 6Z" fill="black"/>
</svg>
