<svg width="162" height="54" viewBox="0 0 162 54" fill="none" xmlns="http://www.w3.org/2000/svg">
<path d="M24.6348 7.77832C12.6688 7.77832 2.96777 17.4783 2.96777 29.4453C2.96777 41.4123 12.6688 51.1123 24.6348 51.1123H24.9708H133.132C136.263 51.1123 138.801 48.5743 138.801 45.4433V13.4473C138.801 10.3163 136.263 7.77832 133.132 7.77832H24.9708H24.6348Z" fill="#FF8500"/>
<path d="M133.133 53.1103H24.6348C11.5848 53.1103 0.967773 42.4943 0.967773 29.4443C0.967773 16.3943 11.5848 5.77734 24.6348 5.77734H133.133C137.362 5.77734 140.802 9.21734 140.802 13.4473V45.4413C140.802 49.6703 137.361 53.1103 133.133 53.1103ZM24.6348 9.77734C13.7908 9.77734 4.96777 18.5993 4.96777 29.4443C4.96777 40.2883 13.7898 49.1103 24.6348 49.1103H133.133C135.156 49.1103 136.802 47.4643 136.802 45.4413V13.4473C136.802 11.4243 135.156 9.77734 133.133 9.77734H24.6348Z" fill="black"/>
<path d="M15.9688 31.6943C17.2114 31.6943 18.2188 30.687 18.2188 29.4443C18.2188 28.2017 17.2114 27.1943 15.9688 27.1943C14.7261 27.1943 13.7188 28.2017 13.7188 29.4443C13.7188 30.687 14.7261 31.6943 15.9688 31.6943Z" fill="black"/>
<path d="M128.968 31.6943C130.21 31.6943 131.218 30.687 131.218 29.4443C131.218 28.2017 130.21 27.1943 128.968 27.1943C127.725 27.1943 126.718 28.2017 126.718 29.4443C126.718 30.687 127.725 31.6943 128.968 31.6943Z" fill="black"/>
<path d="M158.969 20.7773H140.803C139.699 20.7773 138.803 19.8813 138.803 18.7773C138.803 17.6733 139.699 16.7773 140.803 16.7773H158.969C160.073 16.7773 160.969 17.6733 160.969 18.7773C160.969 19.8813 160.073 20.7773 158.969 20.7773Z" fill="black"/>
<path d="M154.966 31.4443H140.803C139.699 31.4443 138.803 30.5483 138.803 29.4443C138.803 28.3403 139.699 27.4443 140.803 27.4443H154.966C156.07 27.4443 156.966 28.3403 156.966 29.4443C156.966 30.5483 156.07 31.4443 154.966 31.4443Z" fill="black"/>
<path d="M158.969 41.7773H140.803C139.699 41.7773 138.803 40.8813 138.803 39.7773C138.803 38.6733 139.699 37.7773 140.803 37.7773H158.969C160.073 37.7773 160.969 38.6733 160.969 39.7773C160.969 40.8813 160.073 41.7773 158.969 41.7773Z" fill="black"/>
<path d="M33.7434 17.397V25.364H32.2844V18.635H28.8784V25.364H27.4194V17.397H33.7434Z" fill="white"/>
<path d="M33.7936 25.4141H32.2346V18.6851H28.9286V25.4141H27.3696V17.3481H33.7936V25.4141ZM32.3346 25.3141H33.6936V17.4471H27.4696V25.3141H28.8286V18.5851H32.3346V25.3141Z" fill="white"/>
<path d="M43.5447 21.3811C43.5447 21.9881 43.4587 22.5451 43.2857 23.0511C43.1127 23.5571 42.8607 23.9931 42.5297 24.3591C42.1987 24.7251 41.7917 25.0071 41.3087 25.2101C40.8267 25.4131 40.2777 25.5141 39.6627 25.5141C39.0477 25.5141 38.4987 25.4131 38.0167 25.2101C37.5347 25.0081 37.1277 24.7251 36.7967 24.3591C36.4647 23.9941 36.2127 23.5571 36.0407 23.0511C35.8687 22.5451 35.7817 21.9881 35.7817 21.3811C35.7817 20.7741 35.8677 20.2171 36.0407 19.7101C36.2137 19.2041 36.4657 18.7691 36.7967 18.4031C37.1277 18.0381 37.5347 17.7541 38.0167 17.5511C38.4987 17.3491 39.0477 17.2471 39.6627 17.2471C40.2777 17.2471 40.8267 17.3491 41.3087 17.5511C41.7907 17.7531 42.1977 18.0371 42.5297 18.4031C42.8617 18.7691 43.1127 19.2041 43.2857 19.7101C43.4577 20.2171 43.5447 20.7731 43.5447 21.3811ZM42.0377 21.3811C42.0377 20.8971 41.9777 20.4731 41.8587 20.1101C41.7397 19.7471 41.5747 19.4441 41.3647 19.2021C41.1547 18.9601 40.9037 18.7791 40.6147 18.6601C40.3247 18.5411 40.0077 18.4811 39.6617 18.4811C39.3167 18.4811 38.9987 18.5411 38.7087 18.6601C38.4187 18.7791 38.1687 18.9601 37.9587 19.2021C37.7487 19.4441 37.5837 19.7471 37.4647 20.1101C37.3457 20.4731 37.2867 20.8971 37.2867 21.3811C37.2867 21.8651 37.3467 22.2891 37.4647 22.6521C37.5837 23.0151 37.7487 23.3171 37.9587 23.5561C38.1687 23.7961 38.4187 23.9771 38.7087 24.0981C38.9987 24.2191 39.3157 24.2801 39.6617 24.2801C40.0067 24.2801 40.3247 24.2191 40.6147 24.0981C40.9047 23.9771 41.1547 23.7961 41.3647 23.5561C41.5747 23.3171 41.7397 23.0151 41.8587 22.6521C41.9777 22.2891 42.0377 21.8651 42.0377 21.3811Z" fill="white"/>
<path d="M39.6615 25.5632C39.0405 25.5632 38.4805 25.4592 37.9955 25.2552C37.5075 25.0512 37.0915 24.7612 36.7575 24.3922C36.4235 24.0242 36.1655 23.5792 35.9905 23.0682C35.8165 22.5582 35.7285 21.9912 35.7285 21.3812C35.7285 20.7712 35.8165 20.2042 35.9905 19.6932C36.1645 19.1832 36.4225 18.7382 36.7575 18.3702C37.0925 18.0002 37.5095 17.7102 37.9955 17.5062C38.4825 17.3022 39.0435 17.1982 39.6615 17.1982C40.2795 17.1982 40.8405 17.3022 41.3275 17.5062C41.8135 17.7092 42.2305 18.0002 42.5665 18.3702C42.9005 18.7382 43.1585 19.1832 43.3335 19.6932C43.5075 20.2042 43.5955 20.7712 43.5955 21.3812C43.5955 21.9912 43.5075 22.5582 43.3335 23.0682C43.1585 23.5792 42.9005 24.0252 42.5665 24.3922C42.2315 24.7612 41.8155 25.0512 41.3275 25.2552C40.8435 25.4592 40.2825 25.5632 39.6615 25.5632ZM39.6615 17.2982C39.0565 17.2982 38.5095 17.3992 38.0345 17.5982C37.5615 17.7962 37.1575 18.0782 36.8315 18.4372C36.5055 18.7962 36.2545 19.2302 36.0855 19.7272C35.9155 20.2262 35.8295 20.7832 35.8295 21.3812C35.8295 21.9792 35.9155 22.5362 36.0855 23.0342C36.2555 23.5322 36.5065 23.9672 36.8315 24.3252C37.1555 24.6822 37.5605 24.9642 38.0345 25.1632C38.5075 25.3622 39.0545 25.4632 39.6615 25.4632C40.2685 25.4632 40.8165 25.3622 41.2885 25.1632C41.7625 24.9652 42.1675 24.6832 42.4915 24.3252C42.8165 23.9672 43.0675 23.5332 43.2375 23.0342C43.4075 22.5362 43.4935 21.9792 43.4935 21.3812C43.4935 20.7832 43.4075 20.2262 43.2375 19.7272C43.0675 19.2292 42.8165 18.7952 42.4915 18.4372C42.1665 18.0792 41.7615 17.7962 41.2885 17.5982C40.8145 17.3982 40.2665 17.2982 39.6615 17.2982ZM39.6615 24.3302C39.3115 24.3302 38.9845 24.2672 38.6895 24.1442C38.3935 24.0212 38.1355 23.8332 37.9205 23.5892C37.7065 23.3462 37.5365 23.0352 37.4165 22.6672C37.2965 22.3002 37.2355 21.8672 37.2355 21.3802C37.2355 20.8932 37.2965 20.4602 37.4165 20.0932C37.5375 19.7252 37.7065 19.4132 37.9205 19.1672C38.1345 18.9212 38.3935 18.7332 38.6895 18.6122C38.9835 18.4912 39.3105 18.4292 39.6615 18.4292C40.0125 18.4292 40.3385 18.4912 40.6335 18.6122C40.9295 18.7332 41.1875 18.9212 41.4025 19.1672C41.6155 19.4132 41.7855 19.7252 41.9065 20.0932C42.0265 20.4592 42.0875 20.8932 42.0875 21.3802C42.0875 21.8672 42.0265 22.3012 41.9065 22.6672C41.7855 23.0362 41.6155 23.3462 41.4025 23.5892C41.1885 23.8332 40.9295 24.0212 40.6335 24.1442C40.3395 24.2682 40.0125 24.3302 39.6615 24.3302ZM39.6615 18.5302C39.3245 18.5302 39.0105 18.5892 38.7275 18.7052C38.4465 18.8212 38.1995 18.9992 37.9965 19.2342C37.7915 19.4692 37.6285 19.7692 37.5115 20.1252C37.3945 20.4812 37.3355 20.9042 37.3355 21.3812C37.3355 21.8582 37.3945 22.2802 37.5115 22.6372C37.6275 22.9922 37.7915 23.2912 37.9955 23.5242C38.1995 23.7572 38.4455 23.9352 38.7275 24.0532C39.0095 24.1712 39.3235 24.2312 39.6605 24.2312C39.9975 24.2312 40.3115 24.1712 40.5945 24.0532C40.8755 23.9352 41.1225 23.7572 41.3265 23.5242C41.5315 23.2922 41.6935 22.9942 41.8105 22.6372C41.9275 22.2812 41.9865 21.8582 41.9865 21.3812C41.9865 20.9042 41.9275 20.4822 41.8105 20.1252C41.6945 19.7702 41.5305 19.4702 41.3265 19.2342C41.1225 18.9992 40.8765 18.8212 40.5955 18.7052C40.3125 18.5892 39.9995 18.5302 39.6615 18.5302Z" fill="white"/>
<path d="M45.5806 25.364V17.397H47.0396V21.023H47.0636L50.0706 17.397H51.8806L48.5576 21.344L52.1546 25.364H50.2846L47.0636 21.767H47.0396V25.364H45.5806Z" fill="white"/>
<path d="M52.2658 25.4141H50.2618L47.0888 21.8721V25.4141H45.5298V17.3481H47.0888V20.9141L50.0468 17.3481H51.9878L48.6238 21.3441L52.2658 25.4141ZM50.3068 25.3141H52.0428L48.4918 21.3451L48.5198 21.3121L51.7738 17.4471H50.0948L47.0878 21.0731H46.9908V17.4471H45.6318V25.3141H46.9908V21.7171H47.0868L47.1018 21.7341L50.3068 25.3141Z" fill="white"/>
<path d="M57.3395 23.494C57.1605 23.868 56.9745 24.183 56.7795 24.441C56.5855 24.699 56.3735 24.908 56.1455 25.066C55.9175 25.225 55.6665 25.339 55.3955 25.409C55.1235 25.478 54.8185 25.513 54.4815 25.513C54.3505 25.513 54.2055 25.506 54.0465 25.492C53.8875 25.478 53.7385 25.455 53.5995 25.424V24.18C53.7505 24.215 53.8955 24.242 54.0345 24.257C54.1735 24.273 54.3005 24.28 54.4155 24.28C54.5975 24.28 54.7625 24.26 54.9095 24.22C55.0565 24.181 55.1935 24.112 55.3205 24.012C55.4475 23.912 55.5695 23.778 55.6865 23.607C55.8035 23.437 55.9215 23.218 56.0405 22.953L52.9385 17.397H54.5585L56.7975 21.475L58.6725 17.397H60.2565L57.3395 23.494Z" fill="white"/>
<path d="M54.4815 25.5632C54.3495 25.5632 54.2015 25.5562 54.0425 25.5422C53.8865 25.5282 53.7345 25.5052 53.5895 25.4732L53.5505 25.4642V24.1162L53.6115 24.1312C53.7675 24.1672 53.9075 24.1932 54.0405 24.2072C54.3925 24.2482 54.6675 24.2352 54.8965 24.1732C55.0365 24.1352 55.1685 24.0692 55.2895 23.9742C55.4125 23.8772 55.5315 23.7452 55.6455 23.5792C55.7565 23.4182 55.8705 23.2082 55.9855 22.9552L52.8535 17.3482H54.5875L54.6015 17.3732L56.7925 21.3642L58.6395 17.3472H60.3345L57.3825 23.5152C57.2035 23.8902 57.0135 24.2112 56.8175 24.4712C56.6195 24.7332 56.4025 24.9472 56.1725 25.1072C55.9405 25.2692 55.6825 25.3862 55.4065 25.4582C55.1345 25.5272 54.8225 25.5632 54.4815 25.5632ZM53.6505 25.3842C53.7795 25.4112 53.9135 25.4312 54.0515 25.4432C54.2075 25.4572 54.3525 25.4642 54.4815 25.4642C54.8145 25.4642 55.1175 25.4302 55.3835 25.3612C55.6485 25.2942 55.8955 25.1812 56.1175 25.0262C56.3395 24.8722 56.5485 24.6662 56.7405 24.4122C56.9325 24.1582 57.1195 23.8422 57.2955 23.4742L60.1795 17.4492H58.7065L56.8025 21.5892L54.5305 17.4492H53.0255L56.0985 22.9522L56.0885 22.9752C55.9675 23.2442 55.8475 23.4662 55.7295 23.6372C55.6105 23.8112 55.4835 23.9502 55.3525 24.0532C55.2205 24.1572 55.0765 24.2302 54.9235 24.2702C54.6815 24.3352 54.3945 24.3482 54.0295 24.3082C53.9105 24.2942 53.7855 24.2742 53.6505 24.2442V25.3842Z" fill="white"/>
<path d="M68.1414 17.397V25.364H66.6824V18.635H63.2764V25.364H61.8174V17.397H68.1414Z" fill="white"/>
<path d="M68.1916 25.4141H66.6326V18.6851H63.3266V25.4141H61.7676V17.3481H68.1916V25.4141ZM66.7326 25.3141H68.0916V17.4471H61.8676V25.3141H63.2266V18.5851H66.7326V25.3141Z" fill="white"/>
<path d="M75.0957 23.334H72.0957L71.3157 25.364H69.7617L72.9237 17.397H74.2577L77.4197 25.364H75.8777L75.0957 23.334ZM73.5827 19.314C73.3037 20.147 73.0557 20.844 72.8377 21.404L72.5657 22.113H74.6247L74.3528 21.404C74.1368 20.84 73.8887 20.142 73.6077 19.314H73.5827Z" fill="white"/>
<path d="M77.4915 25.4141H75.8415L75.8295 25.3821L75.0615 23.3841H72.1295L71.3495 25.4141H69.6875L69.7145 25.3461L72.8885 17.3481H74.2905L74.3025 17.3791L77.4915 25.4141ZM75.9095 25.3141H77.3435L74.2215 17.4471H72.9555L69.8335 25.3141H71.2795L72.0595 23.2841H75.1285L75.1405 23.3161L75.9095 25.3141ZM74.6975 22.1631H72.4925L72.7915 21.3871C73.0075 20.8321 73.2585 20.1301 73.5365 19.2991L73.5475 19.2651H73.6435L73.6545 19.2991C73.9375 20.1321 74.1875 20.8341 74.3995 21.3871L74.6975 22.1631ZM72.6375 22.0631H74.5515L74.3055 21.4211C74.0995 20.8831 73.8665 20.2331 73.5955 19.4351C73.3305 20.2221 73.0915 20.8901 72.8845 21.4221L72.6375 22.0631Z" fill="white"/>
<path d="M80.4956 24.1439H84.4136V25.3649H79.0366V17.3979H84.1996V18.6189H80.4956V20.6789H83.6757V21.8999H80.4956V24.1439Z" fill="white"/>
<path d="M84.4648 25.4141H78.9878V17.3481H84.2508V18.6681H80.5468V20.6281H83.7268V21.9481H80.5468V24.0941H84.4648V25.4141ZM79.0868 25.3141H84.3638V24.1931H80.4458V21.8481H83.6258V20.7271H80.4458V18.5681H84.1498V17.4471H79.0868V25.3141Z" fill="white"/>
<path d="M90.5462 23.227C90.7212 22.6 90.9372 21.927 91.1952 21.208L92.5702 17.397H94.6192V25.364H93.1602V21.327C93.1602 20.735 93.1842 20.049 93.2322 19.266H93.1782C93.1102 19.493 93.0312 19.746 92.9402 20.029C92.8482 20.31 92.7532 20.589 92.6542 20.862L91.0052 25.364H90.0642L88.4152 20.862C88.3162 20.589 88.2202 20.31 88.1292 20.029C88.0382 19.747 87.9582 19.493 87.8912 19.266H87.8372C87.8852 20 87.9092 20.685 87.9092 21.321V25.364H86.4502V17.397H88.4872L89.8622 21.19C90.0922 21.821 90.3092 22.5 90.5112 23.226H90.5462V23.227Z" fill="white"/>
<path d="M94.6694 25.4141H93.1104V21.3271C93.1104 20.7901 93.1304 20.1651 93.1704 19.4661C93.1164 19.6421 93.0564 19.8331 92.9884 20.0451C92.8944 20.3341 92.7984 20.6141 92.7024 20.8791L91.0404 25.4141H90.0294L90.0174 25.3821L88.3684 20.8801C88.2724 20.6141 88.1754 20.3341 88.0814 20.0451C88.0134 19.8341 87.9534 19.6451 87.9004 19.4701C87.9394 20.1271 87.9594 20.7491 87.9594 21.3221V25.4151H86.3994V17.3491H88.5214L88.5334 17.3821L89.9084 21.1751C90.1264 21.7731 90.3354 22.4221 90.5284 23.1071C90.6974 22.5111 90.9054 21.8691 91.1484 21.1931L92.5354 17.3491H94.6694V25.4141ZM93.2104 25.3141H94.5694V17.4471H92.6064L91.2424 21.2241C90.9854 21.9391 90.7684 22.6171 90.5944 23.2401L90.5844 23.2761H90.4724L90.4624 23.2401C90.2614 22.5181 90.0434 21.8341 89.8144 21.2081L88.4504 17.4471H86.4994V25.3141H87.8584V21.3211C87.8584 20.6911 87.8344 20.0011 87.7874 19.2691L87.7834 19.2161H87.9284L87.9384 19.2511C88.0054 19.4761 88.0834 19.7251 88.1764 20.0131C88.2694 20.3011 88.3654 20.5801 88.4614 20.8451L90.0984 25.3141H90.9694L92.6064 20.8441C92.7014 20.5801 92.7984 20.3011 92.8914 20.0131C92.9844 19.7251 93.0624 19.4761 93.1294 19.2511L93.1394 19.2161H93.2834L93.2804 19.2691C93.2334 20.0481 93.2094 20.7401 93.2094 21.3271V25.3141H93.2104Z" fill="white"/>
<path d="M29.6224 36.9132C29.4914 36.9132 29.3624 36.9113 29.2354 36.9073C29.1084 36.9033 28.9894 36.8953 28.8784 36.8843V39.9983H27.4194V32.0312H29.7184C30.1034 32.0312 30.4394 32.0483 30.7274 32.0813C31.0154 32.1153 31.2724 32.1663 31.4984 32.2333C32.0424 32.4003 32.4604 32.6662 32.7544 33.0312C33.0484 33.3963 33.1954 33.8613 33.1954 34.4253C33.1954 34.8103 33.1154 35.1563 32.9574 35.4643C32.7994 35.7723 32.5664 36.0323 32.2604 36.2473C31.9544 36.4613 31.5814 36.6263 31.1404 36.7413C30.6994 36.8563 30.1944 36.9132 29.6224 36.9132ZM28.8784 35.6573C28.9614 35.6693 29.0674 35.6783 29.1974 35.6833C29.3264 35.6893 29.4604 35.6923 29.5994 35.6923C29.9924 35.6923 30.3214 35.6613 30.5884 35.5973C30.8544 35.5343 31.0684 35.4453 31.2314 35.3323C31.3944 35.2193 31.5114 35.0823 31.5824 34.9213C31.6534 34.7603 31.6894 34.5843 31.6894 34.3943C31.6894 34.1603 31.6364 33.9573 31.5284 33.7873C31.4214 33.6173 31.2344 33.4833 30.9684 33.3893C30.8294 33.3413 30.6574 33.3063 30.4534 33.2853C30.2484 33.2643 29.9974 33.2533 29.7004 33.2533H28.8784V35.6573Z" fill="white"/>
<path d="M28.9286 40.0484H27.3696V31.9824H29.7186C30.1036 31.9824 30.4456 31.9994 30.7336 32.0324C31.0236 32.0664 31.2856 32.1184 31.5136 32.1864C32.0656 32.3554 32.4956 32.6294 32.7946 33.0004C33.0946 33.3734 33.2466 33.8534 33.2466 34.4254C33.2466 34.8164 33.1646 35.1734 33.0026 35.4874C32.8416 35.8004 32.6016 36.0704 32.2906 36.2894C31.9806 36.5064 31.5986 36.6754 31.1546 36.7914C30.7146 36.9054 30.1996 36.9644 29.6236 36.9644C29.4916 36.9644 29.3626 36.9624 29.2346 36.9584C29.1276 36.9554 29.0246 36.9494 28.9286 36.9394V40.0484ZM27.4696 39.9484H28.8286V36.8284L28.8836 36.8344C28.9926 36.8464 29.1116 36.8544 29.2376 36.8574C29.3646 36.8614 29.4926 36.8634 29.6236 36.8634C30.1906 36.8634 30.6976 36.8054 31.1296 36.6924C31.5616 36.5804 31.9326 36.4164 32.2336 36.2064C32.5316 35.9964 32.7606 35.7394 32.9146 35.4414C33.0686 35.1414 33.1476 34.7994 33.1476 34.4244C33.1476 33.8744 33.0026 33.4164 32.7176 33.0624C32.4316 32.7074 32.0176 32.4444 31.4856 32.2814C31.2636 32.2154 31.0066 32.1644 30.7236 32.1314C30.4396 32.0984 30.1016 32.0814 29.7206 32.0814H27.4716V39.9484H27.4696ZM29.5986 35.7424C29.4596 35.7424 29.3236 35.7394 29.1946 35.7334C29.0646 35.7274 28.9556 35.7184 28.8716 35.7074L28.8286 35.7004V33.2024H29.7006C29.9986 33.2024 30.2536 33.2134 30.4586 33.2344C30.6646 33.2554 30.8416 33.2924 30.9846 33.3414C31.2596 33.4394 31.4566 33.5794 31.5706 33.7604C31.6826 33.9384 31.7386 34.1524 31.7386 34.3944C31.7386 34.5904 31.7006 34.7754 31.6266 34.9424C31.5516 35.1104 31.4276 35.2554 31.2586 35.3744C31.0896 35.4904 30.8676 35.5824 30.5986 35.6464C30.3316 35.7104 29.9956 35.7424 29.5986 35.7424ZM28.9286 35.6134C29.0026 35.6224 29.0936 35.6294 29.1996 35.6344C29.3276 35.6404 29.4616 35.6434 29.5996 35.6434C29.9876 35.6434 30.3166 35.6124 30.5766 35.5494C30.8336 35.4874 31.0446 35.4024 31.2026 35.2924C31.3566 35.1854 31.4696 35.0534 31.5366 34.9014C31.6046 34.7484 31.6396 34.5774 31.6396 34.3944C31.6396 34.1704 31.5876 33.9754 31.4866 33.8134C31.3856 33.6534 31.2056 33.5264 30.9526 33.4354C30.8176 33.3884 30.6476 33.3544 30.4496 33.3334C30.2476 33.3124 29.9956 33.3014 29.7016 33.3014H28.9296V35.6134H28.9286Z" fill="white"/>
<path d="M38.8398 37.9683H35.8398L35.0598 39.9983H33.5059L36.6678 32.0312H38.0019L41.1638 39.9983H39.6219L38.8398 37.9683ZM37.3279 33.9483C37.0489 34.7813 36.8009 35.4783 36.5829 36.0382L36.3109 36.7473H38.3698L38.0978 36.0382C37.8818 35.4742 37.6338 34.7763 37.3528 33.9483H37.3279Z" fill="white"/>
<path d="M41.2356 40.0484H39.5856L39.5736 40.0164L38.8056 38.0184H35.8736L35.0936 40.0484H33.4316L33.4586 39.9804L36.6326 31.9824H38.0346L38.0466 32.0134L41.2356 40.0484ZM39.6546 39.9484H41.0886L37.9666 32.0814H36.7006L33.5786 39.9484H35.0246L35.8046 37.9184H38.8736L38.8856 37.9504L39.6546 39.9484ZM38.4416 36.7974H36.2366L36.5356 36.0214C36.7516 35.4664 37.0026 34.7644 37.2806 33.9334L37.2916 33.8994H37.3876L37.3986 33.9334C37.6816 34.7664 37.9316 35.4684 38.1436 36.0214L38.4416 36.7974ZM36.3826 36.6974H38.2966L38.0506 36.0554C37.8446 35.5174 37.6116 34.8674 37.3406 34.0694C37.0766 34.8564 36.8376 35.5244 36.6296 36.0564L36.3826 36.6974Z" fill="white"/>
<path d="M42.7937 38.7773C43.1037 38.3813 43.3907 37.9563 43.6577 37.5033C43.9237 37.0512 44.1627 36.5523 44.3757 36.0063C44.5877 35.4603 44.7717 34.8603 44.9267 34.2073C45.0817 33.5553 45.2027 32.8292 45.2897 32.0312H49.4156V38.7773H50.3627V42.6353H48.9097V39.9973H43.7587V42.6353H42.3057V38.7773H42.7937ZM46.5147 33.2523C46.4317 33.8633 46.3277 34.4223 46.2047 34.9283C46.0817 35.4343 45.9357 35.9073 45.7667 36.3453C45.5977 36.7833 45.4057 37.1993 45.1887 37.5933C44.9727 37.9863 44.7327 38.3723 44.4707 38.7543V38.7773H47.9537V33.2523H46.5147Z" fill="white"/>
<path d="M50.4119 42.6864H48.8589V40.0484H43.8079V42.6864H42.2549V38.7284H42.7689C43.0699 38.3404 43.3539 37.9194 43.6139 37.4784C43.8779 37.0304 44.1179 36.5294 44.3279 35.9884C44.5389 35.4464 44.7239 34.8424 44.8769 34.1964C45.0309 33.5504 45.1519 32.8194 45.2389 32.0264L45.2439 31.9824H49.4649V38.7284H50.4119V42.6864ZM48.9589 42.5864H50.3119V38.8274H49.3649V32.0814H45.3329C45.2459 32.8604 45.1249 33.5804 44.9739 34.2194C44.8199 34.8694 44.6339 35.4774 44.4209 36.0254C44.2089 36.5704 43.9659 37.0764 43.6999 37.5294C43.4339 37.9824 43.1419 38.4134 42.8329 38.8094L42.8179 38.8284H42.3549V42.5874H43.7079V39.9494H48.9589V42.5864ZM48.0059 38.8274H44.4229V38.7384L44.4319 38.7254C44.6929 38.3444 44.9339 37.9554 45.1469 37.5684C45.3609 37.1784 45.5549 36.7604 45.7219 36.3274C45.8889 35.8924 46.0359 35.4184 46.1579 34.9164C46.2809 34.4114 46.3839 33.8494 46.4669 33.2454L46.4729 33.2024H48.0079V38.8274H48.0059ZM44.5519 38.7284H47.9069V33.3024H46.5599C46.4779 33.8934 46.3759 34.4444 46.2549 34.9404C46.1319 35.4464 45.9839 35.9244 45.8149 36.3634C45.6469 36.8014 45.4509 37.2234 45.2339 37.6184C45.0299 37.9884 44.7999 38.3614 44.5519 38.7284Z" fill="white"/>
<path d="M57.9536 32.0312H59.4836V39.9983H58.0246V36.3303C58.0246 35.8743 58.0486 35.1373 58.0966 34.1213H58.0726C57.7986 34.5853 57.3226 35.3023 56.6436 36.2703L54.0476 39.9983H52.5166V32.0312H53.9756V35.6993C53.9756 36.2823 53.9516 37.0163 53.9036 37.9023H53.9276C54.1816 37.4813 54.6496 36.7783 55.3326 35.7943L57.9536 32.0312Z" fill="white"/>
<path d="M59.5338 40.0484H57.9748V36.3304C57.9748 35.8994 57.9968 35.2084 58.0388 34.2734C57.7558 34.7394 57.3008 35.4194 56.6838 36.2984L54.0728 40.0474H52.4658V31.9814H54.0248V35.6994C54.0248 36.2454 54.0038 36.9344 53.9618 37.7514C54.2288 37.3204 54.6758 36.6534 55.2918 35.7664L57.9268 31.9824H59.5328V40.0484H59.5338ZM58.0748 39.9484H59.4338V32.0814H57.9798L55.3748 35.8224C54.6968 36.8004 54.2248 37.5094 53.9708 37.9274L53.9568 37.9514H53.8518L53.8548 37.8984C53.9028 37.0164 53.9268 36.2764 53.9268 35.6984V32.0804H52.5678V39.9474H54.0218L56.6028 36.2414C57.2768 35.2794 57.7568 34.5574 58.0298 34.0954L58.0438 34.0714H58.1488L58.1468 34.1234C58.0988 35.1364 58.0748 35.8784 58.0748 36.3304V39.9484Z" fill="white"/>
<path d="M69.285 36.0149C69.285 36.6219 69.199 37.1789 69.026 37.6849C68.853 38.1909 68.601 38.6269 68.27 38.9929C67.939 39.3589 67.532 39.6409 67.049 39.8439C66.567 40.0469 66.018 40.1479 65.403 40.1479C64.788 40.1479 64.239 40.0469 63.757 39.8439C63.275 39.6419 62.868 39.3589 62.537 38.9929C62.205 38.6279 61.953 38.1909 61.781 37.6849C61.609 37.1789 61.522 36.6219 61.522 36.0149C61.522 35.4079 61.608 34.8509 61.781 34.3439C61.954 33.8379 62.206 33.4029 62.537 33.0369C62.868 32.6719 63.275 32.3879 63.757 32.1849C64.239 31.9829 64.788 31.8809 65.403 31.8809C66.018 31.8809 66.567 31.9829 67.049 32.1849C67.531 32.3869 67.938 32.6709 68.27 33.0369C68.602 33.4029 68.853 33.8379 69.026 34.3439C69.198 34.8509 69.285 35.4069 69.285 36.0149ZM67.778 36.0149C67.778 35.5309 67.718 35.1069 67.599 34.7439C67.48 34.3809 67.315 34.0779 67.105 33.8359C66.895 33.5939 66.644 33.4129 66.355 33.2939C66.065 33.1749 65.748 33.1149 65.402 33.1149C65.057 33.1149 64.739 33.1749 64.449 33.2939C64.159 33.4129 63.909 33.5939 63.699 33.8359C63.489 34.0779 63.324 34.3809 63.205 34.7439C63.086 35.1069 63.027 35.5309 63.027 36.0149C63.027 36.4989 63.087 36.9229 63.205 37.2859C63.324 37.6489 63.489 37.9509 63.699 38.1899C63.909 38.4299 64.159 38.6109 64.449 38.7319C64.739 38.8529 65.056 38.9139 65.402 38.9139C65.747 38.9139 66.065 38.8529 66.355 38.7319C66.645 38.6109 66.895 38.4299 67.105 38.1899C67.315 37.9509 67.48 37.6489 67.599 37.2859C67.718 36.9229 67.778 36.4989 67.778 36.0149Z" fill="white"/>
<path d="M65.4018 40.1961C64.7808 40.1961 64.2207 40.0921 63.7357 39.8881C63.2477 39.6841 62.8317 39.3941 62.4977 39.0251C62.1637 38.6571 61.9057 38.2121 61.7307 37.7011C61.5567 37.1911 61.4688 36.6241 61.4688 36.0141C61.4688 35.4041 61.5567 34.8371 61.7307 34.3261C61.9047 33.8161 62.1627 33.3711 62.4977 33.0031C62.8327 32.6331 63.2497 32.3431 63.7357 32.1391C64.2227 31.9351 64.7838 31.8311 65.4018 31.8311C66.0198 31.8311 66.5807 31.9351 67.0677 32.1391C67.5537 32.3421 67.9708 32.6331 68.3068 33.0031C68.6408 33.3711 68.8988 33.8161 69.0738 34.3261C69.2478 34.8371 69.3358 35.4041 69.3358 36.0141C69.3358 36.6241 69.2478 37.1911 69.0738 37.7011C68.8988 38.2121 68.6408 38.6581 68.3068 39.0251C67.9718 39.3941 67.5557 39.6841 67.0677 39.8881C66.5837 40.0931 66.0228 40.1961 65.4018 40.1961ZM65.4018 31.9321C64.7968 31.9321 64.2497 32.0341 63.7747 32.2321C63.3017 32.4301 62.8977 32.7121 62.5717 33.0711C62.2457 33.4301 61.9947 33.8641 61.8257 34.3611C61.6557 34.8601 61.5698 35.4171 61.5698 36.0151C61.5698 36.6131 61.6557 37.1701 61.8257 37.6681C61.9957 38.1661 62.2467 38.6011 62.5717 38.9591C62.8957 39.3161 63.3007 39.5981 63.7747 39.7971C64.2477 39.9961 64.7948 40.0971 65.4018 40.0971C66.0088 40.0971 66.5567 39.9961 67.0287 39.7971C67.5027 39.5991 67.9078 39.3171 68.2318 38.9591C68.5568 38.6011 68.8078 38.1671 68.9778 37.6681C69.1478 37.1701 69.2338 36.6131 69.2338 36.0151C69.2338 35.4171 69.1478 34.8601 68.9778 34.3611C68.8078 33.8631 68.5568 33.4291 68.2318 33.0711C67.9068 32.7131 67.5017 32.4301 67.0287 32.2321C66.5547 32.0321 66.0078 31.9321 65.4018 31.9321ZM65.4018 38.9641C65.0518 38.9641 64.7247 38.9011 64.4297 38.7781C64.1337 38.6551 63.8758 38.4671 63.6608 38.2231C63.4468 37.9801 63.2768 37.6691 63.1568 37.3011C63.0368 36.9341 62.9758 36.5011 62.9758 36.0141C62.9758 35.5271 63.0368 35.0941 63.1568 34.7271C63.2778 34.3591 63.4468 34.0471 63.6608 33.8011C63.8748 33.5551 64.1337 33.3671 64.4297 33.2461C64.7237 33.1251 65.0508 33.0631 65.4018 33.0631C65.7528 33.0631 66.0787 33.1251 66.3737 33.2461C66.6697 33.3671 66.9278 33.5551 67.1428 33.8011C67.3568 34.0471 67.5258 34.3591 67.6468 34.7271C67.7668 35.0931 67.8278 35.5271 67.8278 36.0141C67.8278 36.5011 67.7668 36.9351 67.6468 37.3011C67.5258 37.6701 67.3558 37.9801 67.1428 38.2231C66.9288 38.4671 66.6697 38.6551 66.3737 38.7781C66.0797 38.9011 65.7528 38.9641 65.4018 38.9641ZM65.4018 33.1641C65.0648 33.1641 64.7507 33.2231 64.4677 33.3391C64.1867 33.4551 63.9398 33.6331 63.7368 33.8681C63.5318 34.1031 63.3688 34.4031 63.2518 34.7591C63.1348 35.1151 63.0757 35.5381 63.0757 36.0151C63.0757 36.4921 63.1348 36.9141 63.2518 37.2711C63.3678 37.6261 63.5317 37.9251 63.7357 38.1581C63.9397 38.3911 64.1857 38.5691 64.4677 38.6871C64.7497 38.8051 65.0638 38.8651 65.4008 38.8651C65.7378 38.8651 66.0517 38.8051 66.3347 38.6871C66.6157 38.5691 66.8627 38.3911 67.0667 38.1581C67.2717 37.9261 67.4338 37.6281 67.5508 37.2711C67.6678 36.9151 67.7267 36.4921 67.7267 36.0151C67.7267 35.5381 67.6678 35.1161 67.5508 34.7591C67.4348 34.4041 67.2707 34.1041 67.0667 33.8681C66.8627 33.6331 66.6168 33.4551 66.3358 33.3391C66.0538 33.2231 65.7398 33.1641 65.4018 33.1641Z" fill="white"/>
<path d="M70.9152 38.7773C71.2252 38.3813 71.5123 37.9563 71.7793 37.5033C72.0453 37.0512 72.2842 36.5523 72.4972 36.0063C72.7092 35.4603 72.8932 34.8603 73.0482 34.2073C73.2032 33.5553 73.3242 32.8292 73.4112 32.0312H77.5373V38.7773H78.4842V42.6353H77.0312V39.9973H71.8802V42.6353H70.4272V38.7773H70.9152ZM74.6372 33.2523C74.5542 33.8633 74.4502 34.4223 74.3272 34.9283C74.2042 35.4343 74.0583 35.9073 73.8893 36.3453C73.7203 36.7833 73.5282 37.1993 73.3112 37.5933C73.0952 37.9863 72.8552 38.3723 72.5932 38.7543V38.7773H76.0763V33.2523H74.6372Z" fill="white"/>
<path d="M78.5334 42.6864H76.9805V40.0484H71.9294V42.6864H70.3765V38.7284H70.8904C71.1914 38.3404 71.4755 37.9194 71.7355 37.4784C71.9995 37.0304 72.2395 36.5294 72.4495 35.9884C72.6605 35.4464 72.8455 34.8424 72.9985 34.1964C73.1525 33.5504 73.2735 32.8194 73.3605 32.0264L73.3655 31.9824H77.5864V38.7284H78.5334V42.6864ZM77.0814 42.5864H78.4344V38.8274H77.4874V32.0814H73.4554C73.3684 32.8604 73.2474 33.5804 73.0964 34.2194C72.9424 34.8694 72.7565 35.4774 72.5435 36.0254C72.3315 36.5704 72.0884 37.0764 71.8224 37.5294C71.5564 37.9824 71.2644 38.4134 70.9554 38.8094L70.9405 38.8284H70.4774V42.5874H71.8304V39.9494H77.0814V42.5864ZM76.1285 38.8274H72.5455V38.7384L72.5544 38.7254C72.8154 38.3444 73.0565 37.9554 73.2695 37.5684C73.4835 37.1784 73.6774 36.7604 73.8444 36.3274C74.0114 35.8924 74.1585 35.4184 74.2805 34.9164C74.4035 34.4114 74.5065 33.8494 74.5895 33.2454L74.5955 33.2024H76.1304V38.8274H76.1285ZM72.6735 38.7284H76.0284V33.3024H74.6815C74.5995 33.8934 74.4975 34.4444 74.3765 34.9404C74.2535 35.4464 74.1055 35.9244 73.9365 36.3634C73.7685 36.8014 73.5725 37.2234 73.3555 37.6184C73.1515 37.9884 72.9215 38.3614 72.6735 38.7284Z" fill="white"/>
<path d="M82.0977 38.7773H86.0157V39.9983H80.6387V32.0312H85.8017V33.2523H82.0977V35.3123H85.2777V36.5333H82.0977V38.7773Z" fill="white"/>
<path d="M86.0659 40.0484H80.5889V31.9824H85.8519V33.3024H82.1479V35.2624H85.3279V36.5824H82.1479V38.7284H86.0659V40.0484ZM80.6889 39.9484H85.9659V38.8274H82.0479V36.4824H85.2279V35.3614H82.0479V33.2024H85.7519V32.0814H80.6889V39.9484Z" fill="white"/>
<path d="M91.3093 39.9983H89.8503V33.2523H87.2783V32.0312H93.8763V33.2523H91.3103V39.9983H91.3093Z" fill="white"/>
<path d="M91.3595 40.0484H89.8005V33.3024H87.2285V31.9824H93.9265V33.3024H91.3605V40.0484H91.3595ZM89.9005 39.9484H91.2595V33.2024H93.8255V32.0814H87.3275V33.2024H89.8995V39.9484H89.9005Z" fill="white"/>
<path d="M99.4009 37.9683H96.4009L95.6208 39.9983H94.0669L97.2289 32.0312H98.5629L101.725 39.9983H100.183L99.4009 37.9683ZM97.8889 33.9483C97.6099 34.7813 97.3619 35.4783 97.1439 36.0382L96.8719 36.7473H98.9309L98.6589 36.0382C98.4429 35.4742 98.1949 34.7763 97.9139 33.9483H97.8889Z" fill="white"/>
<path d="M101.797 40.0484H100.147L100.135 40.0164L99.3667 38.0184H96.4347L95.6547 40.0484H93.9927L94.0197 39.9804L97.1937 31.9824H98.5957L98.6077 32.0134L101.797 40.0484ZM100.216 39.9484H101.65L98.5277 32.0814H97.2617L94.1397 39.9484H95.5857L96.3657 37.9184H99.4347L99.4467 37.9504L100.216 39.9484ZM99.0027 36.7974H96.7977L97.0967 36.0214C97.3127 35.4664 97.5637 34.7644 97.8417 33.9334L97.8527 33.8994H97.9487L97.9597 33.9334C98.2427 34.7664 98.4927 35.4684 98.7047 36.0214L99.0027 36.7974ZM96.9437 36.6974H98.8577L98.6117 36.0554C98.4057 35.5174 98.1727 34.8674 97.9017 34.0694C97.6377 34.8564 97.3987 35.5244 97.1907 36.0564L96.9437 36.6974Z" fill="white"/>
<path d="M106.516 33.2523C106.385 34.1923 106.25 35.0153 106.111 35.7203C105.972 36.4253 105.825 37.0303 105.67 37.5363C105.515 38.0423 105.35 38.4593 105.176 38.7863C105.001 39.1143 104.813 39.3743 104.61 39.5663C104.408 39.7583 104.189 39.8923 103.955 39.9683C103.721 40.0433 103.461 40.0803 103.175 40.0803C102.957 40.0803 102.754 40.0573 102.568 40.0093V38.7053C102.711 38.7403 102.852 38.7593 102.991 38.7593C103.146 38.7593 103.284 38.7343 103.405 38.6842C103.526 38.6353 103.643 38.5423 103.756 38.4083C103.869 38.2733 103.99 38.0643 104.119 37.7833C104.248 37.5013 104.379 37.1113 104.512 36.6133C104.645 36.1143 104.779 35.4923 104.914 34.7463C105.049 34.0003 105.184 33.0953 105.319 32.0312H109.565V39.9983H108.106V33.2523H106.516Z" fill="white"/>
<path d="M103.176 40.1314C102.953 40.1314 102.745 40.1074 102.556 40.0594L102.518 40.0494V38.6434L102.58 38.6584C102.878 38.7324 103.166 38.7284 103.386 38.6394C103.498 38.5934 103.61 38.5054 103.718 38.3764C103.827 38.2464 103.947 38.0394 104.074 37.7634C104.201 37.4854 104.333 37.0944 104.464 36.6014C104.596 36.1074 104.731 35.4804 104.865 34.7384C104.999 33.9974 105.135 33.0854 105.27 32.0264L105.276 31.9824H109.616V40.0484H108.057V33.3024H106.561C106.433 34.2194 106.299 35.0354 106.162 35.7304C106.023 36.4324 105.875 37.0444 105.72 37.5514C105.565 38.0584 105.397 38.4824 105.222 38.8104C105.045 39.1414 104.852 39.4084 104.646 39.6034C104.44 39.7994 104.213 39.9384 103.972 40.0174C103.734 40.0934 103.467 40.1314 103.176 40.1314ZM102.619 39.9714C102.789 40.0114 102.977 40.0324 103.176 40.0324C103.456 40.0324 103.714 39.9954 103.941 39.9224C104.167 39.8494 104.381 39.7174 104.577 39.5314C104.775 39.3434 104.962 39.0854 105.133 38.7634C105.305 38.4404 105.47 38.0234 105.623 37.5224C105.777 37.0194 105.925 36.4104 106.062 35.7104C106.2 35.0074 106.337 34.1784 106.466 33.2454L106.472 33.2024H108.155V39.9484H109.514V32.0814H105.362C105.229 33.1234 105.095 34.0224 104.962 34.7554C104.827 35.5004 104.691 36.1294 104.559 36.6264C104.426 37.1254 104.293 37.5214 104.163 37.8044C104.032 38.0894 103.908 38.3044 103.793 38.4414C103.674 38.5834 103.549 38.6804 103.422 38.7314C103.199 38.8244 102.913 38.8334 102.617 38.7694V39.9714H102.619Z" fill="white"/>
<path d="M117.395 32.0312H118.924V39.9983H117.466V36.3303C117.466 35.8743 117.49 35.1373 117.538 34.1213H117.513C117.239 34.5853 116.764 35.3023 116.085 36.2703L113.489 39.9983H111.958V32.0312H113.417V35.6993C113.417 36.2823 113.392 37.0163 113.344 37.9023H113.369C113.623 37.4813 114.09 36.7783 114.773 35.7943L117.395 32.0312Z" fill="white"/>
<path d="M118.976 40.0484H117.417V36.3304C117.417 35.8994 117.439 35.2084 117.481 34.2734C117.198 34.7394 116.743 35.4194 116.126 36.2984L113.515 40.0474H111.908V31.9814H113.467V35.6994C113.467 36.2454 113.446 36.9344 113.404 37.7514C113.671 37.3204 114.118 36.6534 114.734 35.7664L117.369 31.9824H118.975V40.0484H118.976ZM117.517 39.9484H118.876V32.0814H117.422L114.817 35.8224C114.139 36.8004 113.667 37.5094 113.413 37.9274L113.399 37.9514H113.294L113.297 37.8984C113.345 37.0164 113.369 36.2764 113.369 35.6984V32.0804H112.01V39.9474H113.464L116.045 36.2414C116.719 35.2794 117.199 34.5574 117.472 34.0954L117.486 34.0714H117.591L117.589 34.1234C117.541 35.1364 117.517 35.8784 117.517 36.3304V39.9484Z" fill="white"/>
<path d="M144.69 6.34424H146.135V7.77824H144.69V6.34424Z" fill="#575756"/>
<path d="M149.868 4.99482C149.75 4.99482 149.633 4.99282 149.519 4.98982C149.404 4.98582 149.297 4.97782 149.197 4.96882V7.77782H147.881V0.59082H149.954C150.301 0.59082 150.605 0.60682 150.864 0.63682C151.124 0.66682 151.355 0.71282 151.56 0.77382C152.05 0.92382 152.428 1.16482 152.693 1.49382C152.958 1.82282 153.09 2.24182 153.09 2.75082C153.09 3.09882 153.018 3.41082 152.875 3.68882C152.732 3.96582 152.522 4.20182 152.247 4.39482C151.971 4.58782 151.635 4.73682 151.237 4.84082C150.84 4.94282 150.384 4.99482 149.868 4.99482ZM149.197 3.86082C149.272 3.87282 149.368 3.88082 149.484 3.88482C149.6 3.89082 149.721 3.89382 149.847 3.89382C150.201 3.89382 150.499 3.86482 150.739 3.80782C150.979 3.74982 151.172 3.66982 151.319 3.56882C151.466 3.46582 151.571 3.34282 151.636 3.19782C151.7 3.05282 151.733 2.89382 151.733 2.72182C151.733 2.51082 151.685 2.32782 151.588 2.17482C151.491 2.02082 151.323 1.90082 151.083 1.81482C150.958 1.77182 150.803 1.74082 150.618 1.72082C150.433 1.70082 150.207 1.69082 149.939 1.69082H149.198V3.86082H149.197Z" fill="#575756"/>
<path d="M158.521 0V0.961C159.015 1.016 159.454 1.132 159.835 1.311C160.216 1.49 160.536 1.72 160.794 2.001C161.052 2.282 161.248 2.606 161.382 2.976C161.516 3.346 161.583 3.745 161.583 4.174C161.583 4.607 161.519 5.008 161.39 5.377C161.261 5.745 161.068 6.069 160.81 6.349C160.552 6.629 160.233 6.858 159.851 7.037C159.469 7.216 159.026 7.331 158.521 7.381V8.331H157.228V7.38C156.723 7.33 156.279 7.215 155.898 7.036C155.517 6.857 155.198 6.628 154.94 6.348C154.682 6.068 154.488 5.744 154.359 5.376C154.23 5.007 154.167 4.605 154.167 4.173C154.167 3.743 154.233 3.344 154.367 2.975C154.501 2.606 154.698 2.282 154.956 2C155.214 1.718 155.532 1.488 155.914 1.31C156.296 1.132 156.734 1.015 157.228 0.96V0H158.521ZM155.503 4.168C155.503 4.497 155.545 4.789 155.629 5.043C155.713 5.298 155.83 5.516 155.981 5.696C156.132 5.876 156.312 6.021 156.523 6.131C156.734 6.24 156.969 6.315 157.227 6.354V1.987C156.969 2.026 156.735 2.1 156.523 2.21C156.312 2.319 156.131 2.465 155.981 2.646C155.831 2.827 155.713 3.043 155.629 3.295C155.545 3.548 155.503 3.839 155.503 4.168ZM160.245 4.168C160.245 3.839 160.204 3.548 160.12 3.295C160.036 3.043 159.919 2.826 159.768 2.646C159.617 2.466 159.437 2.32 159.226 2.21C159.015 2.101 158.779 2.026 158.521 1.987V6.353C158.779 6.314 159.014 6.24 159.226 6.13C159.437 6.021 159.618 5.876 159.768 5.695C159.918 5.514 160.036 5.297 160.12 5.042C160.204 4.789 160.245 4.497 160.245 4.168Z" fill="#575756"/>
</svg>
