<svg width="160" height="48" viewBox="0 0 160 48" fill="none" xmlns="http://www.w3.org/2000/svg">
<path d="M22.667 2.22266C10.701 2.22266 1 11.9227 1 23.8897C1 35.8567 10.7 45.5567 22.667 45.5567H23.003H131.164C134.295 45.5567 136.833 43.0187 136.833 39.8877V7.89166C136.833 4.76066 134.295 2.22266 131.164 2.22266H23.003H22.667Z" fill="#FF8500"/>
<path d="M132.164 47.333H23.667C10.617 47.333 0 36.717 0 23.667C0 10.617 10.617 0 23.667 0H132.165C136.394 0 139.834 3.44 139.834 7.67V39.664C139.833 43.893 136.393 47.333 132.164 47.333ZM23.667 4C12.822 4 4 12.823 4 23.667C4 34.511 12.822 43.333 23.667 43.333H132.165C134.188 43.333 135.834 41.687 135.834 39.664V7.67C135.834 5.647 134.188 4 132.165 4H23.667Z" fill="black"/>
<path d="M15 25.917C16.2426 25.917 17.25 24.9096 17.25 23.667C17.25 22.4244 16.2426 21.417 15 21.417C13.7574 21.417 12.75 22.4244 12.75 23.667C12.75 24.9096 13.7574 25.917 15 25.917Z" fill="black"/>
<path d="M127.999 25.917C129.242 25.917 130.249 24.9096 130.249 23.667C130.249 22.4244 129.242 21.417 127.999 21.417C126.756 21.417 125.749 22.4244 125.749 23.667C125.749 24.9096 126.756 25.917 127.999 25.917Z" fill="black"/>
<path d="M158 15H139.834C138.73 15 137.834 14.104 137.834 13C137.834 11.896 138.73 11 139.834 11H158C159.104 11 160 11.896 160 13C160 14.104 159.104 15 158 15Z" fill="black"/>
<path d="M153.997 25.667H139.834C138.73 25.667 137.834 24.771 137.834 23.667C137.834 22.563 138.73 21.667 139.834 21.667H153.997C155.101 21.667 155.997 22.563 155.997 23.667C155.997 24.771 155.102 25.667 153.997 25.667Z" fill="black"/>
<path d="M158 36H139.834C138.73 36 137.834 35.104 137.834 34C137.834 32.896 138.73 32 139.834 32H158C159.104 32 160 32.896 160 34C160 35.104 159.104 36 158 36Z" fill="black"/>
<path d="M32.7747 11.6196V19.5866H31.3157V12.8576H27.9097V19.5866H26.4507V11.6196H32.7747Z" fill="black"/>
<path d="M32.8249 19.6368H31.2659V12.9078H27.9599V19.6368H26.4009V11.5708H32.8249V19.6368ZM31.3659 19.5368H32.7249V11.6698H26.5009V19.5368H27.8599V12.8078H31.3659V19.5368Z" fill="black"/>
<path d="M42.5755 15.6037C42.5755 16.2107 42.4895 16.7677 42.3165 17.2737C42.1435 17.7797 41.8915 18.2157 41.5605 18.5817C41.2295 18.9477 40.8225 19.2297 40.3395 19.4327C39.8575 19.6357 39.3085 19.7367 38.6935 19.7367C38.0785 19.7367 37.5295 19.6357 37.0475 19.4327C36.5655 19.2307 36.1585 18.9477 35.8275 18.5817C35.4955 18.2167 35.2435 17.7797 35.0715 17.2737C34.8995 16.7677 34.8125 16.2107 34.8125 15.6037C34.8125 14.9967 34.8985 14.4397 35.0715 13.9327C35.2445 13.4267 35.4965 12.9917 35.8275 12.6257C36.1585 12.2607 36.5655 11.9767 37.0475 11.7737C37.5295 11.5717 38.0785 11.4697 38.6935 11.4697C39.3085 11.4697 39.8575 11.5717 40.3395 11.7737C40.8215 11.9757 41.2285 12.2597 41.5605 12.6257C41.8925 12.9917 42.1435 13.4267 42.3165 13.9327C42.4895 14.4397 42.5755 14.9957 42.5755 15.6037ZM41.0695 15.6037C41.0695 15.1197 41.0095 14.6957 40.8905 14.3327C40.7715 13.9697 40.6065 13.6667 40.3965 13.4247C40.1865 13.1827 39.9355 13.0017 39.6465 12.8827C39.3565 12.7637 39.0395 12.7037 38.6935 12.7037C38.3485 12.7037 38.0305 12.7637 37.7405 12.8827C37.4505 13.0017 37.2005 13.1827 36.9905 13.4247C36.7805 13.6667 36.6155 13.9697 36.4965 14.3327C36.3775 14.6957 36.3185 15.1197 36.3185 15.6037C36.3185 16.0877 36.3785 16.5117 36.4965 16.8747C36.6155 17.2377 36.7805 17.5397 36.9905 17.7787C37.2005 18.0187 37.4505 18.1997 37.7405 18.3207C38.0305 18.4417 38.3475 18.5027 38.6935 18.5027C39.0385 18.5027 39.3565 18.4417 39.6465 18.3207C39.9365 18.1997 40.1865 18.0187 40.3965 17.7787C40.6065 17.5397 40.7715 17.2377 40.8905 16.8747C41.0095 16.5117 41.0695 16.0877 41.0695 15.6037Z" fill="black"/>
<path d="M38.6937 19.7859C38.0727 19.7859 37.5127 19.6819 37.0277 19.4779C36.5397 19.2739 36.1237 18.9839 35.7897 18.6149C35.4557 18.2469 35.1977 17.8019 35.0227 17.2909C34.8487 16.7809 34.7607 16.2149 34.7607 15.6039C34.7607 14.9949 34.8487 14.4269 35.0227 13.9159C35.1967 13.4059 35.4547 12.9609 35.7897 12.5929C36.1247 12.2229 36.5417 11.9329 37.0277 11.7289C37.5147 11.5249 38.0757 11.4209 38.6937 11.4209C39.3117 11.4209 39.8727 11.5249 40.3597 11.7289C40.8457 11.9319 41.2627 12.2229 41.5987 12.5929C41.9327 12.9609 42.1907 13.4059 42.3657 13.9159C42.5397 14.4269 42.6277 14.9939 42.6277 15.6039C42.6277 16.2139 42.5397 16.7809 42.3657 17.2909C42.1907 17.8019 41.9327 18.2479 41.5987 18.6149C41.2637 18.9839 40.8477 19.2739 40.3597 19.4779C39.8747 19.6819 39.3137 19.7859 38.6937 19.7859ZM38.6937 11.5209C38.0887 11.5209 37.5417 11.6219 37.0667 11.8209C36.5937 12.0189 36.1897 12.3009 35.8637 12.6599C35.5377 13.0189 35.2867 13.4529 35.1177 13.9499C34.9477 14.4489 34.8617 15.0059 34.8617 15.6039C34.8617 16.2019 34.9477 16.7589 35.1177 17.2569C35.2877 17.7549 35.5387 18.1899 35.8637 18.5479C36.1877 18.9049 36.5927 19.1869 37.0667 19.3859C37.5397 19.5849 38.0867 19.6859 38.6937 19.6859C39.3007 19.6859 39.8487 19.5849 40.3207 19.3859C40.7947 19.1879 41.1987 18.9059 41.5237 18.5479C41.8487 18.1899 42.0997 17.7559 42.2697 17.2569C42.4397 16.7589 42.5257 16.2019 42.5257 15.6039C42.5257 15.0059 42.4397 14.4489 42.2697 13.9499C42.0997 13.4519 41.8487 13.0179 41.5237 12.6599C41.1987 12.3019 40.7937 12.0189 40.3207 11.8209C39.8457 11.6209 39.2987 11.5209 38.6937 11.5209ZM38.6937 18.5529C38.3437 18.5529 38.0167 18.4899 37.7217 18.3669C37.4257 18.2439 37.1677 18.0559 36.9527 17.8119C36.7387 17.5689 36.5697 17.2579 36.4487 16.8899C36.3287 16.5229 36.2677 16.0899 36.2677 15.6029C36.2677 15.1159 36.3287 14.6829 36.4487 14.3159C36.5697 13.9479 36.7387 13.6359 36.9527 13.3899C37.1667 13.1439 37.4257 12.9559 37.7217 12.8349C38.0157 12.7139 38.3427 12.6519 38.6937 12.6519C39.0447 12.6519 39.3707 12.7139 39.6657 12.8349C39.9617 12.9559 40.2197 13.1439 40.4347 13.3899C40.6487 13.6359 40.8177 13.9479 40.9387 14.3159C41.0587 14.6819 41.1197 15.1159 41.1197 15.6029C41.1197 16.0899 41.0587 16.5239 40.9387 16.8899C40.8177 17.2589 40.6477 17.5689 40.4347 17.8119C40.2207 18.0559 39.9617 18.2439 39.6657 18.3669C39.3707 18.4909 39.0437 18.5529 38.6937 18.5529ZM38.6937 12.7529C38.3567 12.7529 38.0427 12.8119 37.7597 12.9279C37.4787 13.0439 37.2317 13.2219 37.0287 13.4569C36.8237 13.6919 36.6607 13.9919 36.5437 14.3479C36.4267 14.7039 36.3677 15.1269 36.3677 15.6039C36.3677 16.0809 36.4267 16.5029 36.5437 16.8599C36.6597 17.2149 36.8237 17.5139 37.0277 17.7469C37.2317 17.9799 37.4777 18.1579 37.7597 18.2759C38.0417 18.3939 38.3557 18.4539 38.6927 18.4539C39.0297 18.4539 39.3437 18.3939 39.6267 18.2759C39.9077 18.1579 40.1547 17.9799 40.3587 17.7469C40.5637 17.5149 40.7257 17.2159 40.8427 16.8599C40.9597 16.5039 41.0187 16.0809 41.0187 15.6039C41.0187 15.1269 40.9597 14.7049 40.8427 14.3479C40.7267 13.9929 40.5627 13.6929 40.3587 13.4569C40.1547 13.2219 39.9087 13.0439 39.6277 12.9279C39.3447 12.8119 39.0307 12.7529 38.6937 12.7529Z" fill="black"/>
<path d="M44.6118 19.5866V11.6196H46.0708V15.2456H46.0948L49.1018 11.6196H50.9118L47.5888 15.5666L51.1858 19.5866H49.3158L46.0948 15.9896H46.0708V19.5866H44.6118Z" fill="black"/>
<path d="M51.298 19.6368H49.294L49.279 19.6198L46.121 16.0948V19.6368H44.562V11.5708H46.121V15.1368L49.079 11.5708H51.02L47.656 15.5668L51.298 19.6368ZM49.339 19.5368H51.074L47.523 15.5678L47.551 15.5348L50.805 11.6698H49.126L46.119 15.2958H46.022V11.6698H44.663V19.5368H46.022V15.9398H46.118L49.339 19.5368Z" fill="black"/>
<path d="M56.3717 17.7166C56.1927 18.0906 56.0067 18.4056 55.8117 18.6636C55.6177 18.9216 55.4057 19.1306 55.1777 19.2886C54.9497 19.4476 54.6987 19.5616 54.4277 19.6316C54.1557 19.7006 53.8507 19.7356 53.5137 19.7356C53.3827 19.7356 53.2377 19.7286 53.0787 19.7146C52.9197 19.7006 52.7707 19.6776 52.6317 19.6466V18.4026C52.7827 18.4376 52.9277 18.4646 53.0667 18.4796C53.2057 18.4956 53.3327 18.5026 53.4477 18.5026C53.6297 18.5026 53.7947 18.4826 53.9417 18.4426C54.0887 18.4036 54.2257 18.3346 54.3527 18.2346C54.4797 18.1346 54.6017 18.0006 54.7187 17.8296C54.8357 17.6596 54.9537 17.4406 55.0727 17.1756L51.9707 11.6196H53.5907L55.8297 15.6976L57.7047 11.6196H59.2887L56.3717 17.7166Z" fill="black"/>
<path d="M53.5137 19.7858C53.3817 19.7858 53.2337 19.7788 53.0747 19.7648C52.9187 19.7508 52.7667 19.7278 52.6217 19.6958L52.5827 19.6868V18.3388L52.6437 18.3538C52.7997 18.3898 52.9397 18.4158 53.0727 18.4298C53.4247 18.4708 53.6987 18.4578 53.9287 18.3958C54.0687 18.3578 54.2007 18.2918 54.3217 18.1968C54.4447 18.0998 54.5637 17.9678 54.6777 17.8018C54.7887 17.6408 54.9027 17.4308 55.0177 17.1778L51.8857 11.5708H53.6197L53.6337 11.5958L55.8247 15.5868L57.6717 11.5698H59.3667L56.4147 17.7378C56.2357 18.1128 56.0457 18.4338 55.8497 18.6938C55.6517 18.9558 55.4347 19.1698 55.2047 19.3298C54.9727 19.4918 54.7147 19.6088 54.4387 19.6808C54.1667 19.7498 53.8547 19.7858 53.5137 19.7858ZM52.6817 19.6068C52.8107 19.6338 52.9447 19.6538 53.0827 19.6658C53.2387 19.6798 53.3837 19.6868 53.5127 19.6868C53.8457 19.6868 54.1487 19.6528 54.4147 19.5838C54.6797 19.5168 54.9267 19.4038 55.1487 19.2488C55.3707 19.0948 55.5797 18.8888 55.7717 18.6348C55.9637 18.3808 56.1507 18.0648 56.3267 17.6968L59.2107 11.6718H57.7377L55.8337 15.8118L53.5617 11.6718H52.0567L55.1297 17.1748L55.1197 17.1978C54.9987 17.4668 54.8787 17.6888 54.7607 17.8598C54.6417 18.0338 54.5147 18.1728 54.3837 18.2758C54.2517 18.3798 54.1077 18.4528 53.9547 18.4928C53.7127 18.5578 53.4257 18.5708 53.0607 18.5308C52.9417 18.5168 52.8167 18.4968 52.6817 18.4668V19.6068Z" fill="black"/>
<path d="M67.1726 11.6196V19.5866H65.7136V12.8576H62.3076V19.5866H60.8486V11.6196H67.1726Z" fill="black"/>
<path d="M67.2228 19.6368H65.6638V12.9078H62.3578V19.6368H60.7988V11.5708H67.2228V19.6368V19.6368ZM65.7638 19.5368H67.1228V11.6698H60.8988V19.5368H62.2578V12.8078H65.7638V19.5368V19.5368Z" fill="black"/>
<path d="M74.127 17.5566H71.127L70.347 19.5866H68.793L71.955 11.6196H73.289L76.451 19.5866H74.909L74.127 17.5566ZM72.615 13.5366C72.336 14.3696 72.088 15.0666 71.87 15.6266L71.598 16.3356H73.657L73.385 15.6266C73.169 15.0626 72.921 14.3646 72.64 13.5366H72.615Z" fill="black"/>
<path d="M76.5228 19.6368H74.8727L74.8607 19.6048L74.0928 17.6068H71.1608L70.3807 19.6368H68.7188L68.7458 19.5688L71.9197 11.5708H73.3217L73.3337 11.6018L76.5228 19.6368ZM74.9417 19.5368H76.3757L73.2537 11.6698H71.9877L68.8657 19.5368H70.3117L71.0918 17.5068H74.1608L74.1727 17.5388L74.9417 19.5368ZM73.7287 16.3858H71.5238L71.8227 15.6098C72.0387 15.0548 72.2897 14.3528 72.5677 13.5218L72.5788 13.4878H72.6748L72.6857 13.5218C72.9687 14.3548 73.2187 15.0568 73.4307 15.6098L73.7287 16.3858ZM71.6697 16.2858H73.5837L73.3377 15.6438C73.1317 15.1058 72.8987 14.4558 72.6277 13.6578C72.3637 14.4448 72.1247 15.1128 71.9167 15.6448L71.6697 16.2858Z" fill="black"/>
<path d="M79.5278 18.3666H83.4458V19.5876H78.0688V11.6206H83.2318V12.8416H79.5278V14.9016H82.7078V16.1226H79.5278V18.3666V18.3666Z" fill="black"/>
<path d="M83.496 19.6368H78.019V11.5708H83.282V12.8908H79.578V14.8508H82.758V16.1708H79.578V18.3168H83.496V19.6368V19.6368ZM78.119 19.5368H83.396V18.4158H79.478V16.0708H82.658V14.9498H79.478V12.7908H83.182V11.6698H78.119V19.5368V19.5368Z" fill="black"/>
<path d="M89.5784 17.4496C89.7534 16.8226 89.9694 16.1496 90.2274 15.4306L91.6024 11.6196H93.6514V19.5866H92.1924V15.5496C92.1924 14.9576 92.2164 14.2716 92.2644 13.4886H92.2104C92.1424 13.7156 92.0634 13.9686 91.9724 14.2516C91.8804 14.5326 91.7854 14.8116 91.6864 15.0846L90.0374 19.5866H89.0964L87.4474 15.0846C87.3484 14.8116 87.2524 14.5326 87.1614 14.2516C87.0704 13.9696 86.9904 13.7156 86.9234 13.4886H86.8694C86.9174 14.2226 86.9414 14.9076 86.9414 15.5436V19.5866H85.4824V11.6196H87.5194L88.8944 15.4126C89.1244 16.0436 89.3414 16.7226 89.5434 17.4486H89.5784V17.4496Z" fill="black"/>
<path d="M93.7016 19.6368H92.1426V15.5498C92.1426 15.0128 92.1626 14.3878 92.2026 13.6888C92.1486 13.8648 92.0886 14.0558 92.0206 14.2678C91.9266 14.5568 91.8306 14.8368 91.7346 15.1018L90.0726 19.6368H89.0616L89.0496 19.6048L87.3996 15.1028C87.3036 14.8368 87.2066 14.5568 87.1126 14.2678C87.0446 14.0568 86.9846 13.8678 86.9316 13.6928C86.9706 14.3498 86.9906 14.9718 86.9906 15.5448V19.6378H85.4316V11.5718H87.5536L87.5656 11.6048L88.9406 15.3978C89.1586 15.9958 89.3676 16.6448 89.5606 17.3298C89.7296 16.7338 89.9376 16.0918 90.1806 15.4158L91.5676 11.5718H93.7016V19.6368V19.6368ZM92.2426 19.5368H93.6016V11.6698H91.6386L90.2746 15.4468C90.0176 16.1618 89.8006 16.8398 89.6266 17.4628L89.6166 17.4988H89.5046L89.4946 17.4628C89.2936 16.7408 89.0756 16.0568 88.8466 15.4308L87.4826 11.6698H85.5316V19.5368H86.8906V15.5438C86.8906 14.9138 86.8666 14.2238 86.8196 13.4918L86.8156 13.4388H86.9606L86.9706 13.4738C87.0376 13.6988 87.1156 13.9478 87.2086 14.2358C87.3016 14.5238 87.3976 14.8028 87.4936 15.0678L89.1306 19.5368H90.0016L91.6386 15.0668C91.7336 14.8028 91.8306 14.5238 91.9236 14.2358C92.0166 13.9478 92.0946 13.6988 92.1616 13.4738L92.1716 13.4388H92.3156L92.3126 13.4918C92.2656 14.2708 92.2416 14.9628 92.2416 15.5498V19.5368H92.2426Z" fill="black"/>
<path d="M28.6547 31.1359C28.5237 31.1359 28.3947 31.1339 28.2677 31.1299C28.1407 31.1259 28.0217 31.1179 27.9107 31.1069V34.2209H26.4517V26.2539H28.7507C29.1357 26.2539 29.4717 26.2709 29.7597 26.3039C30.0477 26.3379 30.3047 26.3889 30.5307 26.4559C31.0747 26.6229 31.4927 26.8889 31.7867 27.2539C32.0807 27.6189 32.2277 28.0839 32.2277 28.6479C32.2277 29.0329 32.1477 29.3789 31.9897 29.6869C31.8317 29.9949 31.5987 30.2549 31.2927 30.4699C30.9867 30.6839 30.6137 30.8489 30.1727 30.9639C29.7317 31.0789 29.2257 31.1359 28.6547 31.1359ZM27.9097 29.8799C27.9927 29.8919 28.0987 29.9009 28.2287 29.9059C28.3577 29.9119 28.4917 29.9149 28.6307 29.9149C29.0237 29.9149 29.3527 29.8839 29.6197 29.8199C29.8857 29.7569 30.0997 29.6679 30.2627 29.5549C30.4257 29.4419 30.5427 29.3049 30.6137 29.1439C30.6847 28.9829 30.7207 28.8069 30.7207 28.6169C30.7207 28.3829 30.6677 28.1799 30.5597 28.0099C30.4527 27.8399 30.2657 27.7059 29.9997 27.6119C29.8607 27.5639 29.6887 27.5289 29.4847 27.5079C29.2797 27.4869 29.0287 27.4759 28.7317 27.4759H27.9097V29.8799Z" fill="black"/>
<path d="M27.9599 34.2711H26.4009V26.2051H28.7499C29.1349 26.2051 29.4769 26.2221 29.7649 26.2551C30.0549 26.2891 30.3169 26.3411 30.5449 26.4091C31.0969 26.5781 31.5269 26.8521 31.8259 27.2231C32.1259 27.5961 32.2779 28.0761 32.2779 28.6481C32.2779 29.0391 32.1959 29.3961 32.0339 29.7101C31.8729 30.0231 31.6329 30.2931 31.3219 30.5121C31.0119 30.7291 30.6299 30.8981 30.1859 31.0141C29.7459 31.1281 29.2309 31.1871 28.6549 31.1871C28.5229 31.1871 28.3939 31.1851 28.2659 31.1811C28.1589 31.1781 28.0559 31.1721 27.9599 31.1621V34.2711ZM26.5009 34.1711H27.8599V31.0511L27.9149 31.0571C28.0239 31.0691 28.1429 31.0771 28.2679 31.0801C28.3949 31.0841 28.5229 31.0861 28.6539 31.0861C29.2209 31.0861 29.7279 31.0281 30.1599 30.9151C30.5919 30.8031 30.9629 30.6391 31.2639 30.4291C31.5619 30.2191 31.7909 29.9621 31.9449 29.6641C32.0989 29.3641 32.1779 29.0221 32.1779 28.6471C32.1779 28.0971 32.0329 27.6391 31.7479 27.2851C31.4619 26.9301 31.0479 26.6671 30.5159 26.5041C30.2939 26.4381 30.0369 26.3871 29.7539 26.3541C29.4699 26.3211 29.1319 26.3041 28.7509 26.3041H26.5019V34.1711H26.5009ZM28.6309 29.9651C28.4919 29.9651 28.3559 29.9621 28.2269 29.9561C28.0969 29.9501 27.9879 29.9411 27.9039 29.9301L27.8599 29.9231V27.4251H28.7319C29.0299 27.4251 29.2849 27.4361 29.4899 27.4571C29.6959 27.4781 29.8729 27.5151 30.0159 27.5641C30.2909 27.6621 30.4879 27.8021 30.6019 27.9831C30.7139 28.1611 30.7699 28.3751 30.7699 28.6171C30.7699 28.8131 30.7319 28.9981 30.6579 29.1651C30.5829 29.3331 30.4589 29.4781 30.2899 29.5971C30.1209 29.7131 29.8989 29.8051 29.6299 29.8691C29.3639 29.9331 29.0269 29.9651 28.6309 29.9651ZM27.9599 29.8361C28.0339 29.8451 28.1249 29.8521 28.2309 29.8571C28.3589 29.8631 28.4929 29.8661 28.6309 29.8661C29.0189 29.8661 29.3479 29.8351 29.6079 29.7721C29.8649 29.7101 30.0759 29.6251 30.2339 29.5151C30.3879 29.4081 30.5009 29.2761 30.5679 29.1241C30.6359 28.9711 30.6709 28.8001 30.6709 28.6171C30.6709 28.3931 30.6189 28.1981 30.5179 28.0361C30.4169 27.8761 30.2369 27.7491 29.9839 27.6581C29.8489 27.6111 29.6789 27.5771 29.4809 27.5561C29.2789 27.5351 29.0269 27.5241 28.7329 27.5241H27.9599V29.8361Z" fill="black"/>
<path d="M37.8721 32.1909H34.8721L34.0921 34.2209H32.5381L35.7001 26.2539H37.0341L40.1961 34.2209H38.6541L37.8721 32.1909ZM36.3591 28.1709C36.0801 29.0039 35.8321 29.7009 35.6141 30.2609L35.3421 30.9699H37.4011L37.1291 30.2609C36.9131 29.6969 36.6651 28.9989 36.3841 28.1709H36.3591V28.1709Z" fill="black"/>
<path d="M40.2679 34.2711H38.6179L38.6059 34.2391L37.8379 32.2411H34.9059L34.1259 34.2711H32.4639L32.4909 34.2031L35.6649 26.2051H37.0669L37.0789 26.2361L40.2679 34.2711ZM38.6859 34.1711H40.1199L36.9979 26.3041H35.7319L32.6099 34.1711H34.0559L34.8359 32.1411H37.9049L37.9169 32.1731L38.6859 34.1711ZM37.4739 31.0201H35.2689L35.5679 30.2441C35.7839 29.6891 36.0349 28.9871 36.3129 28.1561L36.3239 28.1221H36.4199L36.4309 28.1561C36.7139 28.9891 36.9639 29.6911 37.1759 30.2441L37.4739 31.0201ZM35.4139 30.9201H37.3279L37.0819 30.2781C36.8759 29.7401 36.6429 29.0901 36.3719 28.2921C36.1069 29.0791 35.8679 29.7471 35.6609 30.2791L35.4139 30.9201Z" fill="black"/>
<path d="M41.8249 32.9999C42.1349 32.6039 42.4219 32.1789 42.6889 31.7259C42.9549 31.2739 43.1939 30.7749 43.4069 30.2289C43.6189 29.6829 43.8029 29.0829 43.9579 28.4299C44.1129 27.7779 44.2339 27.0519 44.3209 26.2539H48.4469V32.9999H49.3939V36.8579H47.9409V34.2199H42.7899V36.8579H41.3369V32.9999H41.8249ZM45.5469 27.4749C45.4639 28.0859 45.3599 28.6449 45.2369 29.1509C45.1139 29.6569 44.9679 30.1299 44.7989 30.5679C44.6299 31.0059 44.4379 31.4219 44.2209 31.8159C44.0049 32.2089 43.7649 32.5949 43.5029 32.9769V32.9999H46.9859V27.4749H45.5469V27.4749Z" fill="black"/>
<path d="M49.4441 36.9091H47.8911V34.2711H42.8401V36.9091H41.2871V32.9511H41.8011C42.1021 32.5631 42.3861 32.1421 42.6461 31.7011C42.9101 31.2531 43.1501 30.7521 43.3601 30.2111C43.5711 29.6691 43.7561 29.0651 43.9091 28.4191C44.0631 27.7731 44.1841 27.0421 44.2711 26.2491L44.2761 26.2051H48.4971V32.9511H49.4441V36.9091V36.9091ZM47.9911 36.8091H49.3441V33.0501H48.3971V26.3041H44.3651C44.2781 27.0831 44.1571 27.8031 44.0061 28.4421C43.8521 29.0921 43.6661 29.7001 43.4531 30.2481C43.2411 30.7931 42.9981 31.2991 42.7321 31.7521C42.4661 32.2051 42.1741 32.6361 41.8651 33.0321L41.8501 33.0511H41.3871V36.8101H42.7401V34.1721H47.9911V36.8091ZM47.0381 33.0501H43.4551V32.9611L43.4641 32.9481C43.7251 32.5671 43.9661 32.1781 44.1791 31.7911C44.3931 31.4011 44.5871 30.9831 44.7541 30.5501C44.9211 30.1151 45.0681 29.6411 45.1901 29.1391C45.3131 28.6341 45.4161 28.0721 45.4991 27.4681L45.5051 27.4251H47.0401V33.0501H47.0381ZM43.5831 32.9511H46.9381V27.5251H45.5911C45.5091 28.1161 45.4071 28.6671 45.2861 29.1631C45.1631 29.6691 45.0151 30.1471 44.8461 30.5861C44.6781 31.0241 44.4821 31.4461 44.2651 31.8411C44.0611 32.2111 43.8321 32.5841 43.5831 32.9511Z" fill="black"/>
<path d="M56.9849 26.2539H58.5149V34.2209H57.0559V30.5529C57.0559 30.0969 57.0798 29.3599 57.1278 28.3439H57.1039C56.8299 28.8079 56.3539 29.5249 55.6749 30.4929L53.0788 34.2209H51.5479V26.2539H53.0069V29.9219C53.0069 30.5049 52.9829 31.2389 52.9349 32.1249H52.9589C53.2129 31.7039 53.6808 31.0009 54.3638 30.0169L56.9849 26.2539Z" fill="black"/>
<path d="M58.566 34.2711H57.007V30.5531C57.007 30.1221 57.029 29.4311 57.071 28.4961C56.788 28.9621 56.332 29.6421 55.716 30.5211L53.105 34.2701H51.498V26.2041H53.057V29.9221C53.057 30.4681 53.036 31.1571 52.994 31.9741C53.261 31.5431 53.708 30.8761 54.324 29.9891L56.959 26.2051H58.565V34.2711H58.566ZM57.107 34.1711H58.466V26.3041H57.012L54.407 30.0451C53.729 31.0231 53.257 31.7321 53.003 32.1501L52.989 32.1741H52.884L52.887 32.1211C52.935 31.2391 52.959 30.4991 52.959 29.9211V26.3031H51.6V34.1701H53.054L55.635 30.4641C56.309 29.5021 56.789 28.7801 57.062 28.3181L57.076 28.2941H57.181L57.179 28.3461C57.131 29.3581 57.107 30.1011 57.107 30.5531V34.1711Z" fill="black"/>
<path d="M68.3157 30.2375C68.3157 30.8445 68.2297 31.4015 68.0567 31.9075C67.8837 32.4135 67.6317 32.8495 67.3007 33.2155C66.9697 33.5815 66.5627 33.8635 66.0797 34.0665C65.5977 34.2695 65.0487 34.3705 64.4337 34.3705C63.8187 34.3705 63.2697 34.2695 62.7877 34.0665C62.3057 33.8645 61.8987 33.5815 61.5677 33.2155C61.2357 32.8505 60.9837 32.4135 60.8117 31.9075C60.6397 31.4015 60.5527 30.8445 60.5527 30.2375C60.5527 29.6305 60.6387 29.0735 60.8117 28.5665C60.9847 28.0605 61.2367 27.6255 61.5677 27.2595C61.8987 26.8945 62.3057 26.6105 62.7877 26.4075C63.2697 26.2055 63.8187 26.1035 64.4337 26.1035C65.0487 26.1035 65.5977 26.2055 66.0797 26.4075C66.5617 26.6095 66.9687 26.8935 67.3007 27.2595C67.6327 27.6255 67.8837 28.0605 68.0567 28.5665C68.2297 29.0735 68.3157 29.6295 68.3157 30.2375ZM66.8097 30.2375C66.8097 29.7535 66.7497 29.3295 66.6307 28.9665C66.5117 28.6035 66.3467 28.3005 66.1367 28.0585C65.9267 27.8165 65.6757 27.6355 65.3867 27.5165C65.0967 27.3975 64.7797 27.3375 64.4337 27.3375C64.0887 27.3375 63.7707 27.3975 63.4807 27.5165C63.1907 27.6355 62.9407 27.8165 62.7307 28.0585C62.5207 28.3005 62.3557 28.6035 62.2367 28.9665C62.1177 29.3295 62.0587 29.7535 62.0587 30.2375C62.0587 30.7215 62.1187 31.1455 62.2367 31.5085C62.3557 31.8715 62.5207 32.1735 62.7307 32.4125C62.9407 32.6525 63.1907 32.8335 63.4807 32.9545C63.7707 33.0755 64.0877 33.1365 64.4337 33.1365C64.7787 33.1365 65.0967 33.0755 65.3867 32.9545C65.6767 32.8335 65.9267 32.6525 66.1367 32.4125C66.3467 32.1735 66.5117 31.8715 66.6307 31.5085C66.7497 31.1455 66.8097 30.7215 66.8097 30.2375Z" fill="black"/>
<path d="M64.434 34.4187C63.813 34.4187 63.253 34.3147 62.768 34.1107C62.28 33.9067 61.864 33.6167 61.53 33.2477C61.196 32.8797 60.938 32.4347 60.763 31.9237C60.589 31.4137 60.501 30.8467 60.501 30.2367C60.501 29.6267 60.589 29.0597 60.763 28.5487C60.937 28.0387 61.195 27.5937 61.53 27.2257C61.865 26.8557 62.282 26.5657 62.768 26.3617C63.255 26.1577 63.816 26.0537 64.434 26.0537C65.052 26.0537 65.613 26.1577 66.1 26.3617C66.586 26.5647 67.003 26.8557 67.339 27.2257C67.673 27.5937 67.931 28.0387 68.106 28.5487C68.28 29.0597 68.368 29.6267 68.368 30.2367C68.368 30.8467 68.28 31.4137 68.106 31.9237C67.931 32.4347 67.673 32.8807 67.339 33.2477C67.004 33.6167 66.588 33.9067 66.1 34.1107C65.615 34.3157 65.055 34.4187 64.434 34.4187ZM64.434 26.1547C63.829 26.1547 63.282 26.2567 62.807 26.4547C62.334 26.6527 61.93 26.9347 61.604 27.2937C61.278 27.6527 61.027 28.0867 60.858 28.5837C60.688 29.0827 60.602 29.6397 60.602 30.2377C60.602 30.8357 60.688 31.3927 60.858 31.8907C61.028 32.3887 61.279 32.8237 61.604 33.1817C61.928 33.5387 62.333 33.8207 62.807 34.0197C63.28 34.2187 63.827 34.3197 64.434 34.3197C65.041 34.3197 65.589 34.2187 66.061 34.0197C66.535 33.8217 66.939 33.5397 67.264 33.1817C67.589 32.8237 67.84 32.3897 68.01 31.8907C68.18 31.3927 68.266 30.8357 68.266 30.2377C68.266 29.6397 68.18 29.0827 68.01 28.5837C67.84 28.0857 67.589 27.6517 67.264 27.2937C66.939 26.9357 66.534 26.6527 66.061 26.4547C65.586 26.2547 65.039 26.1547 64.434 26.1547ZM64.434 33.1867C64.084 33.1867 63.757 33.1237 63.462 33.0007C63.166 32.8777 62.908 32.6897 62.693 32.4457C62.479 32.2027 62.31 31.8917 62.189 31.5237C62.069 31.1567 62.008 30.7237 62.008 30.2367C62.008 29.7497 62.069 29.3167 62.189 28.9497C62.31 28.5817 62.479 28.2697 62.693 28.0237C62.907 27.7777 63.166 27.5897 63.462 27.4687C63.756 27.3477 64.083 27.2857 64.434 27.2857C64.785 27.2857 65.111 27.3477 65.406 27.4687C65.702 27.5897 65.96 27.7777 66.175 28.0237C66.389 28.2697 66.558 28.5817 66.679 28.9497C66.799 29.3157 66.86 29.7497 66.86 30.2367C66.86 30.7237 66.799 31.1577 66.679 31.5237C66.558 31.8927 66.388 32.2027 66.175 32.4457C65.961 32.6897 65.702 32.8777 65.406 33.0007C65.111 33.1237 64.784 33.1867 64.434 33.1867ZM64.434 27.3867C64.097 27.3867 63.783 27.4457 63.5 27.5617C63.219 27.6777 62.972 27.8557 62.769 28.0907C62.564 28.3257 62.401 28.6257 62.284 28.9817C62.167 29.3377 62.108 29.7607 62.108 30.2377C62.108 30.7147 62.167 31.1367 62.284 31.4937C62.4 31.8487 62.564 32.1477 62.768 32.3807C62.972 32.6137 63.218 32.7917 63.5 32.9097C63.782 33.0277 64.096 33.0877 64.433 33.0877C64.77 33.0877 65.084 33.0277 65.367 32.9097C65.648 32.7917 65.895 32.6137 66.099 32.3807C66.304 32.1487 66.466 31.8497 66.583 31.4937C66.7 31.1377 66.759 30.7147 66.759 30.2377C66.759 29.7607 66.7 29.3387 66.583 28.9817C66.467 28.6267 66.303 28.3267 66.099 28.0907C65.895 27.8557 65.649 27.6777 65.368 27.5617C65.085 27.4457 64.771 27.3867 64.434 27.3867Z" fill="black"/>
<path d="M69.9475 32.9999C70.2575 32.6039 70.5445 32.1789 70.8115 31.7259C71.0775 31.2739 71.3165 30.7749 71.5295 30.2289C71.7415 29.6829 71.9255 29.0829 72.0805 28.4299C72.2355 27.7779 72.3565 27.0519 72.4435 26.2539H76.5695V32.9999H77.5165V36.8579H76.0635V34.2199H70.9125V36.8579H69.4595V32.9999H69.9475ZM73.6685 27.4749C73.5855 28.0859 73.4815 28.6449 73.3585 29.1509C73.2355 29.6569 73.0895 30.1299 72.9205 30.5679C72.7515 31.0059 72.5595 31.4219 72.3425 31.8159C72.1265 32.2089 71.8865 32.5949 71.6245 32.9769V32.9999H75.1075V27.4749H73.6685V27.4749Z" fill="black"/>
<path d="M77.5657 36.9091H76.0127V34.2711H70.9617V36.9091H69.4087V32.9511H69.9227C70.2237 32.5631 70.5077 32.1421 70.7677 31.7011C71.0317 31.2531 71.2717 30.7521 71.4817 30.2111C71.6927 29.6691 71.8777 29.0651 72.0307 28.4191C72.1847 27.7731 72.3057 27.0421 72.3927 26.2491L72.3977 26.2051H76.6187V32.9511H77.5657V36.9091ZM76.1127 36.8091H77.4657V33.0501H76.5187V26.3041H72.4867C72.3997 27.0831 72.2787 27.8031 72.1277 28.4421C71.9737 29.0921 71.7877 29.7001 71.5747 30.2481C71.3627 30.7931 71.1197 31.2991 70.8537 31.7521C70.5877 32.2051 70.2957 32.6361 69.9867 33.0321L69.9717 33.0511H69.5087V36.8101H70.8617V34.1721H76.1127V36.8091ZM75.1597 33.0501H71.5767V32.9611L71.5857 32.9481C71.8467 32.5671 72.0877 32.1781 72.3007 31.7911C72.5147 31.4011 72.7087 30.9831 72.8757 30.5501C73.0427 30.1151 73.1897 29.6411 73.3117 29.1391C73.4347 28.6341 73.5377 28.0721 73.6207 27.4681L73.6267 27.4251H75.1617V33.0501H75.1597ZM71.7047 32.9511H75.0597V27.5251H73.7127C73.6307 28.1161 73.5287 28.6671 73.4077 29.1631C73.2847 29.6691 73.1367 30.1471 72.9677 30.5861C72.7997 31.0241 72.6037 31.4461 72.3867 31.8411C72.1827 32.2111 71.9537 32.5841 71.7047 32.9511Z" fill="black"/>
<path d="M81.1299 32.9999H85.0479V34.2209H79.6709V26.2539H84.8339V27.4749H81.1299V29.5349H84.3099V30.7559H81.1299V32.9999Z" fill="black"/>
<path d="M85.0981 34.2711H79.6211V26.2051H84.8841V27.5251H81.1801V29.4851H84.3601V30.8051H81.1801V32.9511H85.0981V34.2711V34.2711ZM79.7211 34.1711H84.9981V33.0501H81.0801V30.7051H84.2601V29.5841H81.0801V27.4251H84.7841V26.3041H79.7211V34.1711V34.1711Z" fill="black"/>
<path d="M90.3406 34.2209H88.8816V27.4749H86.3096V26.2539H92.9076V27.4749H90.3416V34.2209H90.3406Z" fill="black"/>
<path d="M90.3908 34.2711H88.8318V27.5251H86.2598V26.2051H92.9578V27.5251H90.3918V34.2711H90.3908ZM88.9318 34.1711H90.2908V27.4251H92.8568V26.3041H86.3598V27.4251H88.9318V34.1711Z" fill="black"/>
<path d="M98.4331 32.1909H95.4331L94.6531 34.2209H93.0991L96.2611 26.2539H97.5951L100.757 34.2209H99.2151L98.4331 32.1909ZM96.9201 28.1709C96.6411 29.0039 96.3931 29.7009 96.1751 30.2609L95.9031 30.9699H97.9621L97.6901 30.2609C97.4741 29.6969 97.2261 28.9989 96.9451 28.1709H96.9201V28.1709Z" fill="black"/>
<path d="M100.829 34.2711H99.1789L99.1669 34.2391L98.3989 32.2411H95.4669L94.6869 34.2711H93.0249L93.0519 34.2031L96.2259 26.2051H97.6279L97.6399 26.2361L100.829 34.2711ZM99.2469 34.1711H100.681L97.5589 26.3041H96.2929L93.1709 34.1711H94.6169L95.3969 32.1411H98.4659L98.4779 32.1731L99.2469 34.1711ZM98.0349 31.0201H95.8299L96.1289 30.2441C96.3449 29.6891 96.5959 28.9871 96.8739 28.1561L96.8849 28.1221H96.9809L96.9919 28.1561C97.2749 28.9891 97.5249 29.6911 97.7369 30.2441L98.0349 31.0201ZM95.9749 30.9201H97.8889L97.6429 30.2781C97.4369 29.7401 97.2039 29.0901 96.9329 28.2921C96.6679 29.0791 96.4289 29.7471 96.2219 30.2791L95.9749 30.9201Z" fill="black"/>
<path d="M105.548 27.4749C105.417 28.4149 105.282 29.2379 105.143 29.9429C105.004 30.6479 104.857 31.2529 104.702 31.7589C104.547 32.2649 104.382 32.6819 104.208 33.0089C104.033 33.3369 103.845 33.5969 103.642 33.7889C103.44 33.9809 103.221 34.1149 102.987 34.1909C102.753 34.2659 102.493 34.3029 102.207 34.3029C101.989 34.3029 101.786 34.2799 101.6 34.2319V32.9279C101.743 32.9629 101.884 32.9819 102.023 32.9819C102.178 32.9819 102.316 32.9569 102.437 32.9069C102.558 32.8579 102.675 32.7649 102.788 32.6309C102.901 32.4959 103.022 32.2869 103.151 32.0059C103.28 31.7239 103.411 31.3339 103.544 30.8359C103.677 30.3369 103.811 29.7149 103.946 28.9689C104.081 28.2229 104.216 27.3179 104.351 26.2539H108.597V34.2209H107.138V27.4749H105.548Z" fill="black"/>
<path d="M102.208 34.3541C101.985 34.3541 101.777 34.3301 101.588 34.2821L101.55 34.2721V32.8661L101.612 32.8811C101.91 32.9551 102.198 32.9511 102.418 32.8621C102.53 32.8161 102.642 32.7281 102.75 32.5991C102.859 32.4691 102.979 32.2621 103.106 31.9861C103.233 31.7081 103.365 31.3171 103.496 30.8241C103.628 30.3301 103.763 29.7031 103.897 28.9611C104.031 28.2201 104.167 27.3081 104.302 26.2491L104.308 26.2051H108.648V34.2711H107.089V27.5251H105.593C105.465 28.4421 105.331 29.2581 105.194 29.9531C105.055 30.6551 104.907 31.2671 104.752 31.7741C104.597 32.2811 104.429 32.7051 104.254 33.0331C104.077 33.3641 103.884 33.6311 103.678 33.8261C103.472 34.0221 103.245 34.1611 103.004 34.2401C102.766 34.3161 102.498 34.3541 102.208 34.3541ZM101.65 34.1941C101.82 34.2341 102.008 34.2551 102.207 34.2551C102.487 34.2551 102.745 34.2181 102.972 34.1451C103.198 34.0721 103.412 33.9401 103.608 33.7541C103.806 33.5661 103.993 33.3081 104.164 32.9861C104.336 32.6631 104.501 32.2461 104.654 31.7451C104.808 31.2421 104.956 30.6331 105.093 29.9331C105.231 29.2301 105.368 28.4011 105.497 27.4681L105.503 27.4251H107.186V34.1711H108.545V26.3041H104.393C104.26 27.3461 104.126 28.2451 103.993 28.9781C103.858 29.7231 103.722 30.3521 103.59 30.8491C103.457 31.3481 103.324 31.7441 103.194 32.0271C103.063 32.3121 102.939 32.5271 102.824 32.6641C102.705 32.8061 102.58 32.9031 102.453 32.9541C102.23 33.0471 101.944 33.0561 101.648 32.9921V34.1941H101.65Z" fill="black"/>
<path d="M116.427 26.2539H117.957V34.2209H116.498V30.5529C116.498 30.0969 116.522 29.3599 116.57 28.3439H116.546C116.272 28.8079 115.796 29.5249 115.117 30.4929L112.521 34.2209H110.99V26.2539H112.449V29.9219C112.449 30.5049 112.425 31.2389 112.377 32.1249H112.401C112.655 31.7039 113.123 31.0009 113.806 30.0169L116.427 26.2539Z" fill="black"/>
<path d="M118.007 34.2711H116.448V30.5531C116.448 30.1221 116.47 29.4311 116.512 28.4961C116.229 28.9621 115.773 29.6421 115.157 30.5211L112.546 34.2701H110.939V26.2041H112.498V29.9221C112.498 30.4681 112.477 31.1571 112.435 31.9741C112.702 31.5431 113.149 30.8761 113.765 29.9891L116.4 26.2051H118.006V34.2711H118.007ZM116.548 34.1711H117.907V26.3041H116.453L113.848 30.0451C113.17 31.0231 112.698 31.7321 112.444 32.1501L112.43 32.1741H112.325L112.328 32.1211C112.376 31.2391 112.4 30.4991 112.4 29.9211V26.3031H111.041V34.1701H112.495L115.076 30.4641C115.75 29.5021 116.23 28.7801 116.503 28.3181L116.517 28.2941H116.622L116.62 28.3461C116.572 29.3581 116.548 30.1011 116.548 30.5531V34.1711V34.1711Z" fill="black"/>
</svg>
