<svg width="161" height="54" viewBox="0 0 161 54" fill="none" xmlns="http://www.w3.org/2000/svg">
<path d="M22.667 8C10.701 8 1 17.7 1 29.667C1 41.634 10.7 51.334 22.667 51.334H23.003H131.164C134.295 51.334 136.833 48.796 136.833 45.665V13.669C136.833 10.538 134.295 8 131.164 8H23.003H22.667Z" fill="#FF8500"/>
<path d="M132.164 53.1103H23.667C10.617 53.1103 0 42.4943 0 29.4443C0 16.3943 10.617 5.77734 23.667 5.77734H132.165C136.394 5.77734 139.834 9.21734 139.834 13.4473V45.4413C139.833 49.6703 136.393 53.1103 132.164 53.1103ZM23.667 9.77734C12.822 9.77734 4 18.6003 4 29.4443C4 40.2883 12.822 49.1103 23.667 49.1103H132.165C134.188 49.1103 135.834 47.4643 135.834 45.4413V13.4473C135.834 11.4243 134.188 9.77734 132.165 9.77734H23.667Z" fill="black"/>
<path d="M15 31.6943C16.2426 31.6943 17.25 30.687 17.25 29.4443C17.25 28.2017 16.2426 27.1943 15 27.1943C13.7574 27.1943 12.75 28.2017 12.75 29.4443C12.75 30.687 13.7574 31.6943 15 31.6943Z" fill="black"/>
<path d="M127.999 31.6943C129.242 31.6943 130.249 30.687 130.249 29.4443C130.249 28.2017 129.242 27.1943 127.999 27.1943C126.756 27.1943 125.749 28.2017 125.749 29.4443C125.749 30.687 126.756 31.6943 127.999 31.6943Z" fill="black"/>
<path d="M158 20.7773H139.834C138.73 20.7773 137.834 19.8813 137.834 18.7773C137.834 17.6733 138.73 16.7773 139.834 16.7773H158C159.104 16.7773 160 17.6733 160 18.7773C160 19.8813 159.104 20.7773 158 20.7773Z" fill="black"/>
<path d="M153.997 31.4443H139.834C138.73 31.4443 137.834 30.5483 137.834 29.4443C137.834 28.3403 138.73 27.4443 139.834 27.4443H153.997C155.101 27.4443 155.997 28.3403 155.997 29.4443C155.997 30.5483 155.102 31.4443 153.997 31.4443Z" fill="black"/>
<path d="M158 41.7773H139.834C138.73 41.7773 137.834 40.8813 137.834 39.7773C137.834 38.6733 138.73 37.7773 139.834 37.7773H158C159.104 37.7773 160 38.6733 160 39.7773C160 40.8813 159.104 41.7773 158 41.7773Z" fill="black"/>
<path d="M32.7747 17.397V25.364H31.3157V18.635H27.9097V25.364H26.4507V17.397H32.7747Z" fill="black"/>
<path d="M32.8249 25.4141H31.2659V18.6851H27.9599V25.4141H26.4009V17.3481H32.8249V25.4141ZM31.3659 25.3141H32.7249V17.4471H26.5009V25.3141H27.8599V18.5851H31.3659V25.3141Z" fill="black"/>
<path d="M42.5755 21.3811C42.5755 21.9881 42.4895 22.5451 42.3165 23.0511C42.1435 23.5571 41.8915 23.9931 41.5605 24.3591C41.2295 24.7251 40.8225 25.0071 40.3395 25.2101C39.8575 25.4131 39.3085 25.5141 38.6935 25.5141C38.0785 25.5141 37.5295 25.4131 37.0475 25.2101C36.5655 25.0081 36.1585 24.7251 35.8275 24.3591C35.4955 23.9941 35.2435 23.5571 35.0715 23.0511C34.8995 22.5451 34.8125 21.9881 34.8125 21.3811C34.8125 20.7741 34.8985 20.2171 35.0715 19.7101C35.2445 19.2041 35.4965 18.7691 35.8275 18.4031C36.1585 18.0381 36.5655 17.7541 37.0475 17.5511C37.5295 17.3491 38.0785 17.2471 38.6935 17.2471C39.3085 17.2471 39.8575 17.3491 40.3395 17.5511C40.8215 17.7531 41.2285 18.0371 41.5605 18.4031C41.8925 18.7691 42.1435 19.2041 42.3165 19.7101C42.4895 20.2171 42.5755 20.7731 42.5755 21.3811ZM41.0695 21.3811C41.0695 20.8971 41.0095 20.4731 40.8905 20.1101C40.7715 19.7471 40.6065 19.4441 40.3965 19.2021C40.1865 18.9601 39.9355 18.7791 39.6465 18.6601C39.3565 18.5411 39.0395 18.4811 38.6935 18.4811C38.3485 18.4811 38.0305 18.5411 37.7405 18.6601C37.4505 18.7791 37.2005 18.9601 36.9905 19.2021C36.7805 19.4441 36.6155 19.7471 36.4965 20.1101C36.3775 20.4731 36.3185 20.8971 36.3185 21.3811C36.3185 21.8651 36.3785 22.2891 36.4965 22.6521C36.6155 23.0151 36.7805 23.3171 36.9905 23.5561C37.2005 23.7961 37.4505 23.9771 37.7405 24.0981C38.0305 24.2191 38.3475 24.2801 38.6935 24.2801C39.0385 24.2801 39.3565 24.2191 39.6465 24.0981C39.9365 23.9771 40.1865 23.7961 40.3965 23.5561C40.6065 23.3171 40.7715 23.0151 40.8905 22.6521C41.0095 22.2891 41.0695 21.8651 41.0695 21.3811Z" fill="black"/>
<path d="M38.6937 25.5632C38.0727 25.5632 37.5127 25.4592 37.0277 25.2552C36.5397 25.0512 36.1237 24.7612 35.7897 24.3922C35.4557 24.0242 35.1977 23.5792 35.0227 23.0682C34.8487 22.5582 34.7607 21.9922 34.7607 21.3812C34.7607 20.7722 34.8487 20.2042 35.0227 19.6932C35.1967 19.1832 35.4547 18.7382 35.7897 18.3702C36.1247 18.0002 36.5417 17.7102 37.0277 17.5062C37.5147 17.3022 38.0757 17.1982 38.6937 17.1982C39.3117 17.1982 39.8727 17.3022 40.3597 17.5062C40.8457 17.7092 41.2627 18.0002 41.5987 18.3702C41.9327 18.7382 42.1907 19.1832 42.3657 19.6932C42.5397 20.2042 42.6277 20.7712 42.6277 21.3812C42.6277 21.9912 42.5397 22.5582 42.3657 23.0682C42.1907 23.5792 41.9327 24.0252 41.5987 24.3922C41.2637 24.7612 40.8477 25.0512 40.3597 25.2552C39.8747 25.4592 39.3137 25.5632 38.6937 25.5632ZM38.6937 17.2982C38.0887 17.2982 37.5417 17.3992 37.0667 17.5982C36.5937 17.7962 36.1897 18.0782 35.8637 18.4372C35.5377 18.7962 35.2867 19.2302 35.1177 19.7272C34.9477 20.2262 34.8617 20.7832 34.8617 21.3812C34.8617 21.9792 34.9477 22.5362 35.1177 23.0342C35.2877 23.5322 35.5387 23.9672 35.8637 24.3252C36.1877 24.6822 36.5927 24.9642 37.0667 25.1632C37.5397 25.3622 38.0867 25.4632 38.6937 25.4632C39.3007 25.4632 39.8487 25.3622 40.3207 25.1632C40.7947 24.9652 41.1987 24.6832 41.5237 24.3252C41.8487 23.9672 42.0997 23.5332 42.2697 23.0342C42.4397 22.5362 42.5257 21.9792 42.5257 21.3812C42.5257 20.7832 42.4397 20.2262 42.2697 19.7272C42.0997 19.2292 41.8487 18.7952 41.5237 18.4372C41.1987 18.0792 40.7937 17.7962 40.3207 17.5982C39.8457 17.3982 39.2987 17.2982 38.6937 17.2982ZM38.6937 24.3302C38.3437 24.3302 38.0167 24.2672 37.7217 24.1442C37.4257 24.0212 37.1677 23.8332 36.9527 23.5892C36.7387 23.3462 36.5697 23.0352 36.4487 22.6672C36.3287 22.3002 36.2677 21.8672 36.2677 21.3802C36.2677 20.8932 36.3287 20.4602 36.4487 20.0932C36.5697 19.7252 36.7387 19.4132 36.9527 19.1672C37.1667 18.9212 37.4257 18.7332 37.7217 18.6122C38.0157 18.4912 38.3427 18.4292 38.6937 18.4292C39.0447 18.4292 39.3707 18.4912 39.6657 18.6122C39.9617 18.7332 40.2197 18.9212 40.4347 19.1672C40.6487 19.4132 40.8177 19.7252 40.9387 20.0932C41.0587 20.4592 41.1197 20.8932 41.1197 21.3802C41.1197 21.8672 41.0587 22.3012 40.9387 22.6672C40.8177 23.0362 40.6477 23.3462 40.4347 23.5892C40.2207 23.8332 39.9617 24.0212 39.6657 24.1442C39.3707 24.2682 39.0437 24.3302 38.6937 24.3302ZM38.6937 18.5302C38.3567 18.5302 38.0427 18.5892 37.7597 18.7052C37.4787 18.8212 37.2317 18.9992 37.0287 19.2342C36.8237 19.4692 36.6607 19.7692 36.5437 20.1252C36.4267 20.4812 36.3677 20.9042 36.3677 21.3812C36.3677 21.8582 36.4267 22.2802 36.5437 22.6372C36.6597 22.9922 36.8237 23.2912 37.0277 23.5242C37.2317 23.7572 37.4777 23.9352 37.7597 24.0532C38.0417 24.1712 38.3557 24.2312 38.6927 24.2312C39.0297 24.2312 39.3437 24.1712 39.6267 24.0532C39.9077 23.9352 40.1547 23.7572 40.3587 23.5242C40.5637 23.2922 40.7257 22.9932 40.8427 22.6372C40.9597 22.2812 41.0187 21.8582 41.0187 21.3812C41.0187 20.9042 40.9597 20.4822 40.8427 20.1252C40.7267 19.7702 40.5627 19.4702 40.3587 19.2342C40.1547 18.9992 39.9087 18.8212 39.6277 18.7052C39.3447 18.5892 39.0307 18.5302 38.6937 18.5302Z" fill="black"/>
<path d="M44.6118 25.364V17.397H46.0708V21.023H46.0948L49.1018 17.397H50.9118L47.5888 21.344L51.1858 25.364H49.3158L46.0948 21.767H46.0708V25.364H44.6118Z" fill="black"/>
<path d="M51.298 25.4141H49.294L49.279 25.3971L46.121 21.8721V25.4141H44.562V17.3481H46.121V20.9141L49.079 17.3481H51.02L47.656 21.3441L51.298 25.4141ZM49.339 25.3141H51.074L47.523 21.3451L47.551 21.3121L50.805 17.4471H49.126L46.119 21.0731H46.022V17.4471H44.663V25.3141H46.022V21.7171H46.118L49.339 25.3141Z" fill="black"/>
<path d="M56.3717 23.494C56.1927 23.868 56.0067 24.183 55.8117 24.441C55.6177 24.699 55.4057 24.908 55.1777 25.066C54.9497 25.225 54.6987 25.339 54.4277 25.409C54.1557 25.478 53.8507 25.513 53.5137 25.513C53.3827 25.513 53.2377 25.506 53.0787 25.492C52.9197 25.478 52.7707 25.455 52.6317 25.424V24.18C52.7827 24.215 52.9277 24.242 53.0667 24.257C53.2057 24.273 53.3327 24.28 53.4477 24.28C53.6297 24.28 53.7947 24.26 53.9417 24.22C54.0887 24.181 54.2257 24.112 54.3527 24.012C54.4797 23.912 54.6017 23.778 54.7187 23.607C54.8357 23.437 54.9537 23.218 55.0727 22.953L51.9707 17.397H53.5907L55.8297 21.475L57.7047 17.397H59.2887L56.3717 23.494Z" fill="black"/>
<path d="M53.5137 25.5632C53.3817 25.5632 53.2337 25.5562 53.0747 25.5422C52.9187 25.5282 52.7667 25.5052 52.6217 25.4732L52.5827 25.4642V24.1162L52.6437 24.1312C52.7997 24.1672 52.9397 24.1932 53.0727 24.2072C53.4247 24.2482 53.6987 24.2352 53.9287 24.1732C54.0687 24.1352 54.2007 24.0692 54.3217 23.9742C54.4447 23.8772 54.5637 23.7452 54.6777 23.5792C54.7887 23.4182 54.9027 23.2082 55.0177 22.9552L51.8857 17.3482H53.6197L53.6337 17.3732L55.8247 21.3642L57.6717 17.3472H59.3667L56.4147 23.5152C56.2357 23.8902 56.0457 24.2112 55.8497 24.4712C55.6517 24.7332 55.4347 24.9472 55.2047 25.1072C54.9727 25.2692 54.7147 25.3862 54.4387 25.4582C54.1667 25.5272 53.8547 25.5632 53.5137 25.5632ZM52.6817 25.3842C52.8107 25.4112 52.9447 25.4312 53.0827 25.4432C53.2387 25.4572 53.3837 25.4642 53.5127 25.4642C53.8457 25.4642 54.1487 25.4302 54.4147 25.3612C54.6797 25.2942 54.9267 25.1812 55.1487 25.0262C55.3707 24.8722 55.5797 24.6662 55.7717 24.4122C55.9637 24.1582 56.1507 23.8422 56.3267 23.4742L59.2107 17.4492H57.7377L55.8337 21.5892L53.5617 17.4492H52.0567L55.1297 22.9522L55.1197 22.9752C54.9987 23.2442 54.8787 23.4662 54.7607 23.6372C54.6417 23.8112 54.5147 23.9502 54.3837 24.0532C54.2517 24.1572 54.1077 24.2302 53.9547 24.2702C53.7127 24.3352 53.4257 24.3482 53.0607 24.3082C52.9417 24.2942 52.8167 24.2742 52.6817 24.2442V25.3842Z" fill="black"/>
<path d="M67.1726 17.397V25.364H65.7136V18.635H62.3076V25.364H60.8486V17.397H67.1726Z" fill="black"/>
<path d="M67.2228 25.4141H65.6638V18.6851H62.3578V25.4141H60.7988V17.3481H67.2228V25.4141V25.4141ZM65.7638 25.3141H67.1228V17.4471H60.8988V25.3141H62.2578V18.5851H65.7638V25.3141V25.3141Z" fill="black"/>
<path d="M74.127 23.334H71.127L70.347 25.364H68.793L71.955 17.397H73.289L76.451 25.364H74.909L74.127 23.334ZM72.615 19.314C72.336 20.147 72.088 20.844 71.87 21.404L71.598 22.113H73.657L73.385 21.404C73.169 20.84 72.921 20.142 72.64 19.314H72.615Z" fill="black"/>
<path d="M76.5228 25.4141H74.8727L74.8607 25.3821L74.0928 23.3841H71.1608L70.3807 25.4141H68.7188L68.7458 25.3461L71.9197 17.3481H73.3217L73.3337 17.3791L76.5228 25.4141ZM74.9417 25.3141H76.3757L73.2537 17.4471H71.9877L68.8657 25.3141H70.3117L71.0918 23.2841H74.1608L74.1727 23.3161L74.9417 25.3141ZM73.7287 22.1631H71.5238L71.8227 21.3871C72.0387 20.8321 72.2897 20.1301 72.5677 19.2991L72.5788 19.2651H72.6748L72.6857 19.2991C72.9687 20.1321 73.2187 20.8341 73.4307 21.3871L73.7287 22.1631ZM71.6697 22.0631H73.5837L73.3377 21.4211C73.1317 20.8831 72.8987 20.2331 72.6277 19.4351C72.3637 20.2221 72.1247 20.8901 71.9167 21.4221L71.6697 22.0631Z" fill="black"/>
<path d="M79.5278 24.1439H83.4458V25.3649H78.0688V17.3979H83.2318V18.6189H79.5278V20.6789H82.7078V21.8999H79.5278V24.1439V24.1439Z" fill="black"/>
<path d="M83.496 25.4141H78.019V17.3481H83.282V18.6681H79.578V20.6281H82.758V21.9481H79.578V24.0941H83.496V25.4141V25.4141ZM78.119 25.3141H83.396V24.1931H79.478V21.8481H82.658V20.7271H79.478V18.5681H83.182V17.4471H78.119V25.3141V25.3141Z" fill="black"/>
<path d="M89.5784 23.227C89.7534 22.6 89.9694 21.927 90.2274 21.208L91.6024 17.397H93.6514V25.364H92.1924V21.327C92.1924 20.735 92.2164 20.049 92.2644 19.266H92.2104C92.1424 19.493 92.0634 19.746 91.9724 20.029C91.8804 20.31 91.7854 20.589 91.6864 20.862L90.0374 25.364H89.0964L87.4474 20.862C87.3484 20.589 87.2524 20.31 87.1614 20.029C87.0704 19.747 86.9904 19.493 86.9234 19.266H86.8694C86.9174 20 86.9414 20.685 86.9414 21.321V25.364H85.4824V17.397H87.5194L88.8944 21.19C89.1244 21.821 89.3414 22.5 89.5434 23.226H89.5784V23.227Z" fill="black"/>
<path d="M93.7016 25.4141H92.1426V21.3271C92.1426 20.7901 92.1626 20.1651 92.2026 19.4661C92.1486 19.6421 92.0886 19.8331 92.0206 20.0451C91.9266 20.3341 91.8306 20.6141 91.7346 20.8791L90.0726 25.4141H89.0616L89.0496 25.3821L87.3996 20.8801C87.3036 20.6141 87.2066 20.3341 87.1126 20.0451C87.0446 19.8341 86.9846 19.6451 86.9316 19.4701C86.9706 20.1271 86.9906 20.7491 86.9906 21.3221V25.4151H85.4316V17.3491H87.5536L87.5656 17.3821L88.9406 21.1751C89.1586 21.7731 89.3676 22.4221 89.5606 23.1071C89.7296 22.5111 89.9376 21.8691 90.1806 21.1931L91.5676 17.3491H93.7016V25.4141V25.4141ZM92.2426 25.3141H93.6016V17.4471H91.6386L90.2746 21.2241C90.0176 21.9391 89.8006 22.6171 89.6266 23.2401L89.6166 23.2761H89.5046L89.4946 23.2401C89.2936 22.5181 89.0756 21.8341 88.8466 21.2081L87.4826 17.4471H85.5316V25.3141H86.8906V21.3211C86.8906 20.6911 86.8666 20.0011 86.8196 19.2691L86.8156 19.2161H86.9606L86.9706 19.2511C87.0376 19.4761 87.1156 19.7251 87.2086 20.0131C87.3016 20.3011 87.3976 20.5801 87.4936 20.8451L89.1306 25.3141H90.0016L91.6386 20.8441C91.7336 20.5801 91.8306 20.3011 91.9236 20.0131C92.0166 19.7251 92.0946 19.4761 92.1616 19.2511L92.1716 19.2161H92.3156L92.3126 19.2691C92.2656 20.0481 92.2416 20.7401 92.2416 21.3271V25.3141H92.2426Z" fill="black"/>
<path d="M28.6547 36.9132C28.5237 36.9132 28.3947 36.9113 28.2677 36.9073C28.1407 36.9033 28.0217 36.8953 27.9107 36.8843V39.9983H26.4517V32.0312H28.7507C29.1357 32.0312 29.4717 32.0483 29.7597 32.0813C30.0477 32.1153 30.3047 32.1663 30.5307 32.2333C31.0747 32.4003 31.4927 32.6662 31.7867 33.0312C32.0807 33.3963 32.2277 33.8613 32.2277 34.4253C32.2277 34.8103 32.1477 35.1563 31.9897 35.4643C31.8317 35.7723 31.5987 36.0323 31.2927 36.2473C30.9867 36.4613 30.6137 36.6263 30.1727 36.7413C29.7317 36.8563 29.2257 36.9132 28.6547 36.9132ZM27.9097 35.6573C27.9927 35.6693 28.0987 35.6783 28.2287 35.6833C28.3577 35.6893 28.4917 35.6923 28.6307 35.6923C29.0237 35.6923 29.3527 35.6613 29.6197 35.5973C29.8857 35.5343 30.0997 35.4453 30.2627 35.3323C30.4257 35.2193 30.5427 35.0823 30.6137 34.9213C30.6847 34.7603 30.7207 34.5843 30.7207 34.3943C30.7207 34.1603 30.6677 33.9573 30.5597 33.7873C30.4527 33.6173 30.2657 33.4833 29.9997 33.3893C29.8607 33.3413 29.6887 33.3063 29.4847 33.2853C29.2797 33.2643 29.0287 33.2533 28.7317 33.2533H27.9097V35.6573Z" fill="black"/>
<path d="M27.9599 40.0484H26.4009V31.9824H28.7499C29.1349 31.9824 29.4769 31.9994 29.7649 32.0324C30.0549 32.0664 30.3169 32.1184 30.5449 32.1864C31.0969 32.3554 31.5269 32.6294 31.8259 33.0004C32.1259 33.3734 32.2779 33.8534 32.2779 34.4254C32.2779 34.8164 32.1959 35.1734 32.0339 35.4874C31.8729 35.8004 31.6329 36.0704 31.3219 36.2894C31.0119 36.5064 30.6299 36.6754 30.1859 36.7914C29.7459 36.9054 29.2309 36.9644 28.6549 36.9644C28.5229 36.9644 28.3939 36.9624 28.2659 36.9584C28.1589 36.9554 28.0559 36.9494 27.9599 36.9394V40.0484ZM26.5009 39.9484H27.8599V36.8284L27.9149 36.8344C28.0239 36.8464 28.1429 36.8544 28.2679 36.8574C28.3949 36.8614 28.5229 36.8634 28.6539 36.8634C29.2209 36.8634 29.7279 36.8054 30.1599 36.6924C30.5919 36.5804 30.9629 36.4164 31.2639 36.2064C31.5619 35.9964 31.7909 35.7394 31.9449 35.4414C32.0989 35.1414 32.1779 34.7994 32.1779 34.4244C32.1779 33.8744 32.0329 33.4164 31.7479 33.0624C31.4619 32.7074 31.0479 32.4444 30.5159 32.2814C30.2939 32.2154 30.0369 32.1644 29.7539 32.1314C29.4699 32.0984 29.1319 32.0814 28.7509 32.0814H26.5019V39.9484H26.5009ZM28.6309 35.7424C28.4919 35.7424 28.3559 35.7394 28.2269 35.7334C28.0969 35.7274 27.9879 35.7184 27.9039 35.7074L27.8599 35.7004V33.2024H28.7319C29.0299 33.2024 29.2849 33.2134 29.4899 33.2344C29.6959 33.2554 29.8729 33.2924 30.0159 33.3414C30.2909 33.4394 30.4879 33.5794 30.6019 33.7604C30.7139 33.9384 30.7699 34.1524 30.7699 34.3944C30.7699 34.5904 30.7319 34.7754 30.6579 34.9424C30.5829 35.1104 30.4589 35.2554 30.2899 35.3744C30.1209 35.4904 29.8989 35.5824 29.6299 35.6464C29.3639 35.7104 29.0269 35.7424 28.6309 35.7424ZM27.9599 35.6134C28.0339 35.6224 28.1249 35.6294 28.2309 35.6344C28.3589 35.6404 28.4929 35.6434 28.6309 35.6434C29.0189 35.6434 29.3479 35.6124 29.6079 35.5494C29.8649 35.4874 30.0759 35.4024 30.2339 35.2924C30.3879 35.1854 30.5009 35.0534 30.5679 34.9014C30.6359 34.7484 30.6709 34.5774 30.6709 34.3944C30.6709 34.1704 30.6189 33.9754 30.5179 33.8134C30.4169 33.6534 30.2369 33.5264 29.9839 33.4354C29.8489 33.3884 29.6789 33.3544 29.4809 33.3334C29.2789 33.3124 29.0269 33.3014 28.7329 33.3014H27.9599V35.6134Z" fill="black"/>
<path d="M37.8721 37.9683H34.8721L34.0921 39.9983H32.5381L35.7001 32.0312H37.0341L40.1961 39.9983H38.6541L37.8721 37.9683ZM36.3591 33.9483C36.0801 34.7813 35.8321 35.4782 35.6141 36.0382L35.3421 36.7473H37.4011L37.1291 36.0382C36.9131 35.4742 36.6651 34.7763 36.3841 33.9483H36.3591V33.9483Z" fill="black"/>
<path d="M40.2679 40.0484H38.6179L38.6059 40.0164L37.8379 38.0184H34.9059L34.1259 40.0484H32.4639L32.4909 39.9804L35.6649 31.9824H37.0669L37.0789 32.0134L40.2679 40.0484ZM38.6859 39.9484H40.1199L36.9979 32.0814H35.7319L32.6099 39.9484H34.0559L34.8359 37.9184H37.9049L37.9169 37.9504L38.6859 39.9484ZM37.4739 36.7974H35.2689L35.5679 36.0214C35.7839 35.4664 36.0349 34.7644 36.3129 33.9334L36.3239 33.8994H36.4199L36.4309 33.9334C36.7139 34.7664 36.9639 35.4684 37.1759 36.0214L37.4739 36.7974ZM35.4139 36.6974H37.3279L37.0819 36.0554C36.8759 35.5174 36.6429 34.8674 36.3719 34.0694C36.1069 34.8564 35.8679 35.5244 35.6609 36.0564L35.4139 36.6974Z" fill="black"/>
<path d="M41.8249 38.7773C42.1349 38.3813 42.4219 37.9563 42.6889 37.5033C42.9549 37.0513 43.1939 36.5523 43.4069 36.0063C43.6189 35.4603 43.8029 34.8603 43.9579 34.2073C44.1129 33.5553 44.2339 32.8292 44.3209 32.0312H48.4469V38.7773H49.3939V42.6353H47.9409V39.9973H42.7899V42.6353H41.3369V38.7773H41.8249ZM45.5469 33.2523C45.4639 33.8633 45.3599 34.4223 45.2369 34.9283C45.1139 35.4343 44.9679 35.9073 44.7989 36.3453C44.6299 36.7833 44.4379 37.1993 44.2209 37.5933C44.0049 37.9863 43.7649 38.3723 43.5029 38.7543V38.7773H46.9859V33.2523H45.5469V33.2523Z" fill="black"/>
<path d="M49.4441 42.6864H47.8911V40.0484H42.8401V42.6864H41.2871V38.7284H41.8011C42.1021 38.3404 42.3861 37.9194 42.6461 37.4784C42.9101 37.0304 43.1501 36.5294 43.3601 35.9884C43.5711 35.4464 43.7561 34.8424 43.9091 34.1964C44.0631 33.5504 44.1841 32.8194 44.2711 32.0264L44.2761 31.9824H48.4971V38.7284H49.4441V42.6864V42.6864ZM47.9911 42.5864H49.3441V38.8274H48.3971V32.0814H44.3651C44.2781 32.8604 44.1571 33.5804 44.0061 34.2194C43.8521 34.8694 43.6661 35.4774 43.4531 36.0254C43.2411 36.5704 42.9981 37.0764 42.7321 37.5294C42.4661 37.9824 42.1741 38.4134 41.8651 38.8094L41.8501 38.8284H41.3871V42.5874H42.7401V39.9494H47.9911V42.5864ZM47.0381 38.8274H43.4551V38.7384L43.4641 38.7254C43.7251 38.3444 43.9661 37.9554 44.1791 37.5684C44.3931 37.1784 44.5871 36.7604 44.7541 36.3274C44.9211 35.8924 45.0681 35.4184 45.1901 34.9164C45.3131 34.4114 45.4161 33.8494 45.4991 33.2454L45.5051 33.2024H47.0401V38.8274H47.0381ZM43.5831 38.7284H46.9381V33.3024H45.5911C45.5091 33.8934 45.4071 34.4444 45.2861 34.9404C45.1631 35.4464 45.0151 35.9244 44.8461 36.3634C44.6781 36.8014 44.4821 37.2234 44.2651 37.6184C44.0611 37.9884 43.8321 38.3614 43.5831 38.7284Z" fill="black"/>
<path d="M56.9849 32.0312H58.5149V39.9983H57.0559V36.3303C57.0559 35.8743 57.0798 35.1373 57.1278 34.1213H57.1039C56.8299 34.5853 56.3539 35.3023 55.6749 36.2703L53.0788 39.9983H51.5479V32.0312H53.0069V35.6993C53.0069 36.2823 52.9829 37.0163 52.9349 37.9023H52.9589C53.2129 37.4813 53.6808 36.7783 54.3638 35.7943L56.9849 32.0312Z" fill="black"/>
<path d="M58.566 40.0484H57.007V36.3304C57.007 35.8994 57.029 35.2084 57.071 34.2734C56.788 34.7394 56.332 35.4194 55.716 36.2984L53.105 40.0474H51.498V31.9814H53.057V35.6994C53.057 36.2454 53.036 36.9344 52.994 37.7514C53.261 37.3204 53.708 36.6534 54.324 35.7664L56.959 31.9824H58.565V40.0484H58.566ZM57.107 39.9484H58.466V32.0814H57.012L54.407 35.8224C53.729 36.8004 53.257 37.5094 53.003 37.9274L52.989 37.9514H52.884L52.887 37.8984C52.935 37.0164 52.959 36.2764 52.959 35.6984V32.0804H51.6V39.9474H53.054L55.635 36.2414C56.309 35.2794 56.789 34.5574 57.062 34.0954L57.076 34.0714H57.181L57.179 34.1234C57.131 35.1354 57.107 35.8784 57.107 36.3304V39.9484Z" fill="black"/>
<path d="M68.3157 36.0149C68.3157 36.6219 68.2297 37.1789 68.0567 37.6849C67.8837 38.1909 67.6317 38.6269 67.3007 38.9929C66.9697 39.3589 66.5627 39.6409 66.0797 39.8439C65.5977 40.0469 65.0487 40.1479 64.4337 40.1479C63.8187 40.1479 63.2697 40.0469 62.7877 39.8439C62.3057 39.6419 61.8987 39.3589 61.5677 38.9929C61.2357 38.6279 60.9837 38.1909 60.8117 37.6849C60.6397 37.1789 60.5527 36.6219 60.5527 36.0149C60.5527 35.4079 60.6387 34.8509 60.8117 34.3439C60.9847 33.8379 61.2367 33.4029 61.5677 33.0369C61.8987 32.6719 62.3057 32.3879 62.7877 32.1849C63.2697 31.9829 63.8187 31.8809 64.4337 31.8809C65.0487 31.8809 65.5977 31.9829 66.0797 32.1849C66.5617 32.3869 66.9687 32.6709 67.3007 33.0369C67.6327 33.4029 67.8837 33.8379 68.0567 34.3439C68.2297 34.8509 68.3157 35.4069 68.3157 36.0149ZM66.8097 36.0149C66.8097 35.5309 66.7497 35.1069 66.6307 34.7439C66.5117 34.3809 66.3467 34.0779 66.1367 33.8359C65.9267 33.5939 65.6757 33.4129 65.3867 33.2939C65.0967 33.1749 64.7797 33.1149 64.4337 33.1149C64.0887 33.1149 63.7707 33.1749 63.4807 33.2939C63.1907 33.4129 62.9407 33.5939 62.7307 33.8359C62.5207 34.0779 62.3557 34.3809 62.2367 34.7439C62.1177 35.1069 62.0587 35.5309 62.0587 36.0149C62.0587 36.4989 62.1187 36.9229 62.2367 37.2859C62.3557 37.6489 62.5207 37.9509 62.7307 38.1899C62.9407 38.4299 63.1907 38.6109 63.4807 38.7319C63.7707 38.8529 64.0877 38.9139 64.4337 38.9139C64.7787 38.9139 65.0967 38.8529 65.3867 38.7319C65.6767 38.6109 65.9267 38.4299 66.1367 38.1899C66.3467 37.9509 66.5117 37.6489 66.6307 37.2859C66.7497 36.9229 66.8097 36.4989 66.8097 36.0149Z" fill="black"/>
<path d="M64.434 40.1961C63.813 40.1961 63.253 40.0921 62.768 39.8881C62.28 39.6841 61.864 39.3941 61.53 39.0251C61.196 38.6571 60.938 38.2121 60.763 37.7011C60.589 37.1911 60.501 36.6241 60.501 36.0141C60.501 35.4041 60.589 34.8371 60.763 34.3261C60.937 33.8161 61.195 33.3711 61.53 33.0031C61.865 32.6331 62.282 32.3431 62.768 32.1391C63.255 31.9351 63.816 31.8311 64.434 31.8311C65.052 31.8311 65.613 31.9351 66.1 32.1391C66.586 32.3421 67.003 32.6331 67.339 33.0031C67.673 33.3711 67.931 33.8161 68.106 34.3261C68.28 34.8371 68.368 35.4041 68.368 36.0141C68.368 36.6241 68.28 37.1911 68.106 37.7011C67.931 38.2121 67.673 38.6581 67.339 39.0251C67.004 39.3941 66.588 39.6841 66.1 39.8881C65.615 40.0931 65.055 40.1961 64.434 40.1961ZM64.434 31.9321C63.829 31.9321 63.282 32.0341 62.807 32.2321C62.334 32.4301 61.93 32.7121 61.604 33.0711C61.278 33.4301 61.027 33.8641 60.858 34.3611C60.688 34.8601 60.602 35.4171 60.602 36.0151C60.602 36.6131 60.688 37.1701 60.858 37.6681C61.028 38.1661 61.279 38.6011 61.604 38.9591C61.928 39.3161 62.333 39.5981 62.807 39.7971C63.28 39.9961 63.827 40.0971 64.434 40.0971C65.041 40.0971 65.589 39.9961 66.061 39.7971C66.535 39.5991 66.939 39.3171 67.264 38.9591C67.589 38.6011 67.84 38.1671 68.01 37.6681C68.18 37.1701 68.266 36.6131 68.266 36.0151C68.266 35.4171 68.18 34.8601 68.01 34.3611C67.84 33.8631 67.589 33.4291 67.264 33.0711C66.939 32.7131 66.534 32.4301 66.061 32.2321C65.586 32.0321 65.039 31.9321 64.434 31.9321ZM64.434 38.9641C64.084 38.9641 63.757 38.9011 63.462 38.7781C63.166 38.6551 62.908 38.4671 62.693 38.2231C62.479 37.9801 62.31 37.6691 62.189 37.3011C62.069 36.9341 62.008 36.5011 62.008 36.0141C62.008 35.5271 62.069 35.0941 62.189 34.7271C62.31 34.3591 62.479 34.0471 62.693 33.8011C62.907 33.5551 63.166 33.3671 63.462 33.2461C63.756 33.1251 64.083 33.0631 64.434 33.0631C64.785 33.0631 65.111 33.1251 65.406 33.2461C65.702 33.3671 65.96 33.5551 66.175 33.8011C66.389 34.0471 66.558 34.3591 66.679 34.7271C66.799 35.0931 66.86 35.5271 66.86 36.0141C66.86 36.5011 66.799 36.9351 66.679 37.3011C66.558 37.6701 66.388 37.9801 66.175 38.2231C65.961 38.4671 65.702 38.6551 65.406 38.7781C65.111 38.9011 64.784 38.9641 64.434 38.9641ZM64.434 33.1641C64.097 33.1641 63.783 33.2231 63.5 33.3391C63.219 33.4551 62.972 33.6331 62.769 33.8681C62.564 34.1031 62.401 34.4031 62.284 34.7591C62.167 35.1151 62.108 35.5381 62.108 36.0151C62.108 36.4921 62.167 36.9141 62.284 37.2711C62.4 37.6261 62.564 37.9251 62.768 38.1581C62.972 38.3911 63.218 38.5691 63.5 38.6871C63.782 38.8051 64.096 38.8651 64.433 38.8651C64.77 38.8651 65.084 38.8051 65.367 38.6871C65.648 38.5691 65.895 38.3911 66.099 38.1581C66.304 37.9261 66.466 37.6271 66.583 37.2711C66.7 36.9151 66.759 36.4921 66.759 36.0151C66.759 35.5381 66.7 35.1161 66.583 34.7591C66.467 34.4041 66.303 34.1041 66.099 33.8681C65.895 33.6331 65.649 33.4551 65.368 33.3391C65.085 33.2231 64.771 33.1641 64.434 33.1641Z" fill="black"/>
<path d="M69.9475 38.7773C70.2575 38.3813 70.5445 37.9563 70.8115 37.5033C71.0775 37.0513 71.3165 36.5523 71.5295 36.0063C71.7415 35.4603 71.9255 34.8603 72.0805 34.2073C72.2355 33.5553 72.3565 32.8292 72.4435 32.0312H76.5695V38.7773H77.5165V42.6353H76.0635V39.9973H70.9125V42.6353H69.4595V38.7773H69.9475ZM73.6685 33.2523C73.5855 33.8633 73.4815 34.4223 73.3585 34.9283C73.2355 35.4343 73.0895 35.9073 72.9205 36.3453C72.7515 36.7833 72.5595 37.1993 72.3425 37.5933C72.1265 37.9863 71.8865 38.3723 71.6245 38.7543V38.7773H75.1075V33.2523H73.6685V33.2523Z" fill="black"/>
<path d="M77.5657 42.6864H76.0127V40.0484H70.9617V42.6864H69.4087V38.7284H69.9227C70.2237 38.3404 70.5077 37.9194 70.7677 37.4784C71.0317 37.0304 71.2717 36.5294 71.4817 35.9884C71.6927 35.4464 71.8777 34.8424 72.0307 34.1964C72.1847 33.5504 72.3057 32.8194 72.3927 32.0264L72.3977 31.9824H76.6187V38.7284H77.5657V42.6864ZM76.1127 42.5864H77.4657V38.8274H76.5187V32.0814H72.4867C72.3997 32.8604 72.2787 33.5804 72.1277 34.2194C71.9737 34.8694 71.7877 35.4774 71.5747 36.0254C71.3627 36.5704 71.1197 37.0764 70.8537 37.5294C70.5877 37.9824 70.2957 38.4134 69.9867 38.8094L69.9717 38.8284H69.5087V42.5874H70.8617V39.9494H76.1127V42.5864ZM75.1597 38.8274H71.5767V38.7384L71.5857 38.7254C71.8467 38.3444 72.0877 37.9554 72.3007 37.5684C72.5147 37.1784 72.7087 36.7604 72.8757 36.3274C73.0427 35.8924 73.1897 35.4184 73.3117 34.9164C73.4347 34.4114 73.5377 33.8494 73.6207 33.2454L73.6267 33.2024H75.1617V38.8274H75.1597ZM71.7047 38.7284H75.0597V33.3024H73.7127C73.6307 33.8934 73.5287 34.4444 73.4077 34.9404C73.2847 35.4464 73.1367 35.9244 72.9677 36.3634C72.7997 36.8014 72.6037 37.2234 72.3867 37.6184C72.1827 37.9884 71.9537 38.3614 71.7047 38.7284Z" fill="black"/>
<path d="M81.1299 38.7773H85.0479V39.9983H79.6709V32.0312H84.8339V33.2523H81.1299V35.3123H84.3099V36.5333H81.1299V38.7773Z" fill="black"/>
<path d="M85.0981 40.0484H79.6211V31.9824H84.8841V33.3024H81.1801V35.2624H84.3601V36.5824H81.1801V38.7284H85.0981V40.0484V40.0484ZM79.7211 39.9484H84.9981V38.8274H81.0801V36.4824H84.2601V35.3614H81.0801V33.2024H84.7841V32.0814H79.7211V39.9484V39.9484Z" fill="black"/>
<path d="M90.3406 39.9983H88.8816V33.2523H86.3096V32.0312H92.9076V33.2523H90.3416V39.9983H90.3406Z" fill="black"/>
<path d="M90.3908 40.0484H88.8318V33.3024H86.2598V31.9824H92.9578V33.3024H90.3918V40.0484H90.3908ZM88.9318 39.9484H90.2908V33.2024H92.8568V32.0814H86.3598V33.2024H88.9318V39.9484Z" fill="black"/>
<path d="M98.4331 37.9683H95.4331L94.6531 39.9983H93.0991L96.2611 32.0312H97.5951L100.757 39.9983H99.2151L98.4331 37.9683ZM96.9201 33.9483C96.6411 34.7813 96.3931 35.4782 96.1751 36.0382L95.9031 36.7473H97.9621L97.6901 36.0382C97.4741 35.4742 97.2261 34.7763 96.9451 33.9483H96.9201V33.9483Z" fill="black"/>
<path d="M100.829 40.0484H99.1789L99.1669 40.0164L98.3989 38.0184H95.4669L94.6869 40.0484H93.0249L93.0519 39.9804L96.2259 31.9824H97.6279L97.6399 32.0134L100.829 40.0484ZM99.2469 39.9484H100.681L97.5589 32.0814H96.2929L93.1709 39.9484H94.6169L95.3969 37.9184H98.4659L98.4779 37.9504L99.2469 39.9484ZM98.0349 36.7974H95.8299L96.1289 36.0214C96.3449 35.4664 96.5959 34.7644 96.8739 33.9334L96.8849 33.8994H96.9809L96.9919 33.9334C97.2749 34.7664 97.5249 35.4684 97.7369 36.0214L98.0349 36.7974ZM95.9749 36.6974H97.8889L97.6429 36.0554C97.4369 35.5174 97.2039 34.8674 96.9329 34.0694C96.6679 34.8564 96.4289 35.5244 96.2219 36.0564L95.9749 36.6974Z" fill="black"/>
<path d="M105.548 33.2523C105.417 34.1923 105.282 35.0153 105.143 35.7203C105.004 36.4253 104.857 37.0303 104.702 37.5363C104.547 38.0423 104.382 38.4593 104.208 38.7863C104.033 39.1143 103.845 39.3743 103.642 39.5663C103.44 39.7583 103.221 39.8923 102.987 39.9683C102.753 40.0433 102.493 40.0803 102.207 40.0803C101.989 40.0803 101.786 40.0573 101.6 40.0093V38.7053C101.743 38.7403 101.884 38.7593 102.023 38.7593C102.178 38.7593 102.316 38.7342 102.437 38.6842C102.558 38.6352 102.675 38.5423 102.788 38.4083C102.901 38.2733 103.022 38.0643 103.151 37.7833C103.28 37.5013 103.411 37.1113 103.544 36.6133C103.677 36.1143 103.811 35.4923 103.946 34.7463C104.081 34.0003 104.216 33.0953 104.351 32.0312H108.597V39.9983H107.138V33.2523H105.548Z" fill="black"/>
<path d="M102.208 40.1314C101.985 40.1314 101.777 40.1074 101.588 40.0594L101.55 40.0494V38.6434L101.612 38.6584C101.91 38.7324 102.198 38.7284 102.418 38.6394C102.53 38.5934 102.642 38.5054 102.75 38.3764C102.859 38.2464 102.979 38.0394 103.106 37.7634C103.233 37.4854 103.365 37.0944 103.496 36.6014C103.628 36.1074 103.763 35.4804 103.897 34.7384C104.031 33.9974 104.167 33.0854 104.302 32.0264L104.308 31.9824H108.648V40.0484H107.089V33.3024H105.593C105.465 34.2194 105.331 35.0354 105.194 35.7304C105.055 36.4324 104.907 37.0444 104.752 37.5514C104.597 38.0584 104.429 38.4824 104.254 38.8104C104.077 39.1414 103.884 39.4084 103.678 39.6034C103.472 39.7994 103.245 39.9384 103.004 40.0174C102.766 40.0934 102.498 40.1314 102.208 40.1314ZM101.65 39.9714C101.82 40.0114 102.008 40.0324 102.207 40.0324C102.487 40.0324 102.745 39.9954 102.972 39.9224C103.198 39.8494 103.412 39.7174 103.608 39.5314C103.806 39.3434 103.993 39.0854 104.164 38.7634C104.336 38.4404 104.501 38.0234 104.654 37.5224C104.808 37.0194 104.956 36.4104 105.093 35.7104C105.231 35.0074 105.368 34.1784 105.497 33.2454L105.503 33.2024H107.186V39.9484H108.545V32.0814H104.393C104.26 33.1234 104.126 34.0224 103.993 34.7554C103.858 35.5004 103.722 36.1294 103.59 36.6264C103.457 37.1254 103.324 37.5214 103.194 37.8044C103.063 38.0894 102.939 38.3044 102.824 38.4414C102.705 38.5834 102.58 38.6804 102.453 38.7314C102.23 38.8244 101.944 38.8334 101.648 38.7694V39.9714H101.65Z" fill="black"/>
<path d="M116.427 32.0312H117.957V39.9983H116.498V36.3303C116.498 35.8743 116.522 35.1373 116.57 34.1213H116.546C116.272 34.5853 115.796 35.3023 115.117 36.2703L112.521 39.9983H110.99V32.0312H112.449V35.6993C112.449 36.2823 112.425 37.0163 112.377 37.9023H112.401C112.655 37.4813 113.123 36.7783 113.806 35.7943L116.427 32.0312Z" fill="black"/>
<path d="M118.007 40.0484H116.448V36.3304C116.448 35.8994 116.47 35.2084 116.512 34.2734C116.229 34.7394 115.773 35.4194 115.157 36.2984L112.546 40.0474H110.939V31.9814H112.498V35.6994C112.498 36.2454 112.477 36.9344 112.435 37.7514C112.702 37.3204 113.149 36.6534 113.765 35.7664L116.4 31.9824H118.006V40.0484H118.007ZM116.548 39.9484H117.907V32.0814H116.453L113.848 35.8224C113.17 36.8004 112.698 37.5094 112.444 37.9274L112.43 37.9514H112.325L112.328 37.8984C112.376 37.0164 112.4 36.2764 112.4 35.6984V32.0804H111.041V39.9474H112.495L115.076 36.2414C115.75 35.2794 116.23 34.5574 116.503 34.0954L116.517 34.0714H116.622L116.62 34.1234C116.572 35.1354 116.548 35.8784 116.548 36.3304V39.9484V39.9484Z" fill="black"/>
<path d="M143.722 6.34424H145.167V7.77824H143.722V6.34424Z" fill="#575756"/>
<path d="M148.9 4.99482C148.782 4.99482 148.666 4.99282 148.551 4.98982C148.436 4.98582 148.329 4.97782 148.229 4.96882V7.77782H146.913V0.59082H148.986C149.333 0.59082 149.637 0.60682 149.897 0.63682C150.156 0.66682 150.388 0.71282 150.592 0.77382C151.083 0.92382 151.46 1.16482 151.725 1.49382C151.99 1.82282 152.122 2.24182 152.122 2.75082C152.122 3.09882 152.05 3.41082 151.907 3.68882C151.764 3.96682 151.554 4.20182 151.279 4.39482C151.004 4.58782 150.667 4.73682 150.269 4.84082C149.872 4.94282 149.416 4.99482 148.9 4.99482ZM148.229 3.86082C148.304 3.87282 148.4 3.88082 148.517 3.88482C148.633 3.89082 148.754 3.89382 148.879 3.89382C149.233 3.89382 149.531 3.86482 149.771 3.80782C150.011 3.74982 150.204 3.66982 150.351 3.56882C150.498 3.46582 150.603 3.34282 150.668 3.19782C150.732 3.05282 150.765 2.89382 150.765 2.72182C150.765 2.51082 150.717 2.32782 150.62 2.17482C150.523 2.02082 150.355 1.90082 150.115 1.81482C149.99 1.77182 149.835 1.74082 149.651 1.72082C149.466 1.70082 149.24 1.69082 148.971 1.69082H148.23V3.86082H148.229Z" fill="#575756"/>
<path d="M157.553 0V0.961C158.047 1.016 158.485 1.132 158.866 1.311C159.247 1.49 159.567 1.72 159.824 2.001C160.081 2.282 160.278 2.606 160.412 2.976C160.546 3.346 160.613 3.745 160.613 4.174C160.613 4.607 160.549 5.008 160.42 5.377C160.291 5.745 160.098 6.069 159.84 6.349C159.582 6.629 159.263 6.858 158.882 7.037C158.501 7.216 158.057 7.331 157.552 7.381V8.331H156.258V7.38C155.753 7.33 155.31 7.215 154.929 7.036C154.548 6.857 154.228 6.628 153.97 6.348C153.712 6.068 153.519 5.744 153.39 5.376C153.261 5.007 153.197 4.605 153.197 4.173C153.197 3.743 153.264 3.344 153.399 2.975C153.534 2.606 153.729 2.282 153.987 2C154.245 1.718 154.565 1.488 154.946 1.31C155.327 1.132 155.765 1.015 156.259 0.96V0H157.553ZM154.534 4.168C154.534 4.497 154.576 4.789 154.66 5.043C154.744 5.298 154.861 5.516 155.012 5.696C155.163 5.876 155.343 6.021 155.554 6.131C155.765 6.241 156 6.315 156.258 6.354V1.987C156 2.026 155.766 2.1 155.554 2.21C155.342 2.32 155.162 2.465 155.012 2.646C154.862 2.827 154.744 3.043 154.66 3.295C154.576 3.548 154.534 3.839 154.534 4.168ZM159.277 4.168C159.277 3.839 159.235 3.548 159.151 3.295C159.067 3.043 158.949 2.826 158.799 2.646C158.649 2.466 158.468 2.32 158.257 2.21C158.046 2.1 157.811 2.026 157.553 1.987V6.353C157.811 6.314 158.045 6.24 158.257 6.13C158.469 6.02 158.649 5.876 158.799 5.695C158.949 5.514 159.067 5.297 159.151 5.042C159.235 4.789 159.277 4.497 159.277 4.168Z" fill="#575756"/>
</svg>
