<svg width="132" height="132" viewBox="0 0 132 132" fill="none" xmlns="http://www.w3.org/2000/svg">
<circle cx="66" cy="66" r="66" fill="black"/>
<path d="M66 56C59.372 56 54 61.3744 54 68C54 74.628 59.372 80 66 80C72.6264 80 78 74.628 78 68C78 61.3744 72.6264 56 66 56Z" fill="#FF8500"/>
<path d="M98 44H88.4C87.08 44 85.6576 42.976 85.2408 41.7232L82.7592 34.276C82.3408 33.024 80.92 32 79.6 32H52.4C51.08 32 49.6576 33.024 49.2408 34.2768L46.7592 41.724C46.3408 42.976 44.92 44 43.6 44H34C29.6 44 26 47.6 26 52V88C26 92.4 29.6 96 34 96H98C102.4 96 106 92.4 106 88V52C106 47.6 102.4 44 98 44ZM66 88C54.9544 88 46 79.0456 46 68C46 56.9552 54.9544 48 66 48C77.044 48 86 56.9552 86 68C86 79.0456 77.044 88 66 88ZM95.2 57.5944C93.6544 57.5944 92.4 56.3416 92.4 54.7944C92.4 53.2488 93.6544 51.9944 95.2 51.9944C96.7472 51.9944 98 53.2488 98 54.7944C98 56.3416 96.7464 57.5944 95.2 57.5944Z" fill="white"/>
</svg>
