<svg width="132" height="132" viewBox="0 0 132 132" fill="none" xmlns="http://www.w3.org/2000/svg">
<circle cx="66" cy="66" r="66" fill="black"/>
<path fill-rule="evenodd" clip-rule="evenodd" d="M87.2772 83.1238C96.199 71.6655 95.3932 55.0881 84.8597 44.5546C73.4536 33.1485 54.9607 33.1485 43.5546 44.5546C32.1485 55.9607 32.1485 74.4536 43.5546 85.8597C54.0881 96.3932 70.6655 97.199 82.1238 88.2772C82.1732 88.3331 82.2247 88.3878 82.2781 88.4413L97.7675 103.931C99.1933 105.356 101.505 105.356 102.931 103.931C104.356 102.505 104.356 100.193 102.931 98.7675L87.4413 83.2781C87.3878 83.2247 87.3331 83.1732 87.2772 83.1238ZM79.6965 49.7177C88.2511 58.2723 88.2511 72.142 79.6965 80.6965C71.142 89.2511 57.2723 89.2511 48.7177 80.6965C40.1631 72.142 40.1631 58.2723 48.7177 49.7177C57.2723 41.1631 71.142 41.1631 79.6965 49.7177Z" fill="white"/>
<path d="M66.5813 65.5C66.5813 66.9114 65.4256 68.0556 64 68.0556C62.5744 68.0556 61.4187 66.9114 61.4187 65.5C61.4187 64.0886 62.5744 62.9444 64 62.9444C65.4256 62.9444 66.5813 64.0886 66.5813 65.5Z" fill="#FF8500"/>
<path fill-rule="evenodd" clip-rule="evenodd" d="M64 54C56.7832 54 50.7193 58.8866 49 65.5C50.7193 72.1134 56.7832 77 64 77C71.2168 77 77.2807 72.1134 79 65.5C77.2807 58.8866 71.2168 54 64 54ZM69.1626 65.5C69.1626 68.3228 66.8513 70.6111 64 70.6111C61.1488 70.6111 58.8374 68.3228 58.8374 65.5C58.8374 62.6772 61.1488 60.3889 64 60.3889C66.8513 60.3889 69.1626 62.6772 69.1626 65.5Z" fill="#FF8500"/>
</svg>
