<svg width="132" height="132" viewBox="0 0 132 132" fill="none" xmlns="http://www.w3.org/2000/svg">
<circle cx="66" cy="66" r="66" fill="black"/>
<path d="M70.9105 69.5469C77.4025 69.5469 82.6839 64.2653 82.6839 57.7735C82.6839 51.2816 77.4023 46 70.9105 46H59.0841C57.2471 46 55.7579 47.4892 55.7579 49.3262V62.8948H52.3261C50.4892 62.8948 49 64.384 49 66.2209C49 68.0579 50.4892 69.5471 52.3261 69.5471H55.7579V73.0316H52.3261C50.4892 73.0316 49 74.5208 49 76.3578C49 78.1948 50.4892 79.6839 52.3261 79.6839H55.7579V83.1157C55.7579 84.9527 57.2471 86.4419 59.0841 86.4419C60.9211 86.4419 62.4102 84.9527 62.4102 83.1157V79.6839H69.2209C71.0579 79.6839 72.5471 78.1948 72.5471 76.3578C72.5471 74.5208 71.0579 73.0316 69.2209 73.0316H62.4102V69.5471H70.9105V69.5469ZM76.0316 57.7733C76.0316 60.5972 73.7342 62.8945 70.9105 62.8945H62.4102V52.652H70.9105C73.7342 52.6521 76.0316 54.9496 76.0316 57.7733Z" fill="#FF8500"/>
<path fill-rule="evenodd" clip-rule="evenodd" d="M66.5 95C82.2401 95 95 82.2401 95 66.5C95 50.7599 82.2401 38 66.5 38C50.7599 38 38 50.7599 38 66.5C38 82.2401 50.7599 95 66.5 95ZM66.5 102C86.1061 102 102 86.1061 102 66.5C102 46.8939 86.1061 31 66.5 31C46.8939 31 31 46.8939 31 66.5C31 86.1061 46.8939 102 66.5 102Z" fill="white"/>
</svg>
