<svg width="142" height="64" viewBox="0 0 142 64" fill="none" xmlns="http://www.w3.org/2000/svg">
<path d="M10.377 24.5275C12.5343 24.5275 14.2832 22.7786 14.2832 20.6212C14.2832 18.4639 12.5343 16.715 10.377 16.715C8.21959 16.715 6.4707 18.4639 6.4707 20.6212C6.4707 22.7786 8.21959 24.5275 10.377 24.5275Z" stroke="#424242" stroke-width="2" stroke-linecap="round" stroke-linejoin="round"/>
<path d="M15.5603 28.4339C13.8198 29.589 11.7435 30.1298 9.66062 29.9705C7.57779 29.8111 5.60782 28.9608 4.0633 27.5544C2.51877 26.148 1.48816 24.266 1.13499 22.2072C0.781814 20.1483 1.12631 18.0305 2.11382 16.1897C3.10133 14.349 4.67528 12.8907 6.58594 12.0463C8.49659 11.2019 10.6345 11.0198 12.6605 11.5288C14.6864 12.0379 16.4844 13.2089 17.769 14.8561C19.0536 16.5033 19.7514 18.5323 19.7516 20.6212C19.7516 22.7786 18.9703 24.5275 17.0172 24.5275C15.0641 24.5275 14.2828 22.7786 14.2828 20.6212V16.715" stroke="#424242" stroke-width="2" stroke-linecap="round" stroke-linejoin="round" />
<path d="M74.0977 27.4542C75.8696 27.9529 77.7104 26.9207 78.2091 25.1488C78.7078 23.3768 77.6757 21.5361 75.9037 21.0374C74.1318 20.5386 72.291 21.5708 71.7923 23.3427C71.2936 25.1147 72.3257 26.9554 74.0977 27.4542Z" stroke="#424242" stroke-width="2" stroke-linecap="round" stroke-linejoin="round"/>
<path d="M77.4526 31.861C75.756 32.4074 73.9255 32.3716 72.2517 31.7592C70.5778 31.1469 69.1563 29.993 68.2128 28.4808C67.2694 26.9686 66.8579 25.1846 67.0438 23.412C67.2297 21.6393 68.0022 19.9794 69.2388 18.6958C70.4754 17.4122 72.1053 16.5783 73.8698 16.3265C75.6343 16.0746 77.4324 16.4193 78.9788 17.3057C80.5251 18.1921 81.7311 19.5696 82.4055 21.2195C83.0798 22.8694 83.1839 24.6972 82.7011 26.413C82.2024 28.1849 81.1565 29.4408 79.5523 28.9893C77.9481 28.5378 77.7107 26.9207 78.2094 25.1488L79.1124 21.9404" stroke="#424242" stroke-width="2" stroke-linecap="round" stroke-linejoin="round"/>
<path d="M48.2003 13.3741C49.3619 12.4024 49.516 10.673 48.5443 9.51131C47.5727 8.34962 45.8432 8.19557 44.6816 9.16724C43.5199 10.1389 43.3658 11.8683 44.3375 13.03C45.3091 14.1917 47.0386 14.3458 48.2003 13.3741Z" stroke="#424242" stroke-width="2" stroke-linecap="round" stroke-linejoin="round"/>
<path d="M52.7506 13.1429C52.3336 14.5488 51.4591 15.7752 50.2658 16.6275C49.0725 17.4798 47.6287 17.9092 46.1636 17.8475C44.6984 17.7858 43.2959 17.2366 42.1784 16.287C41.0609 15.3375 40.2926 14.0419 39.9952 12.6059C39.6979 11.17 39.8887 9.67581 40.5372 8.36058C41.1858 7.04536 42.2549 5.98438 43.5751 5.346C44.8953 4.70761 46.3909 4.52839 47.8245 4.83678C49.2582 5.14516 50.5478 5.92347 51.4887 7.04823C52.4604 8.20992 52.8274 9.50353 51.7757 10.3832C50.7239 11.2629 49.5156 10.673 48.5439 9.51132L46.7845 7.4079" stroke="#424242" stroke-width="2" stroke-linecap="round" stroke-linejoin="round"/>
<path d="M65.377 52.7737C67.5343 52.7737 69.2832 51.0248 69.2832 48.8674C69.2832 46.7101 67.5343 44.9612 65.377 44.9612C63.2196 44.9612 61.4707 46.7101 61.4707 48.8674C61.4707 51.0248 63.2196 52.7737 65.377 52.7737Z" stroke="#424242" stroke-width="2" stroke-linecap="round" stroke-linejoin="round"/>
<path d="M70.5603 56.6801C68.8198 57.8353 66.7435 58.376 64.6606 58.2167C62.5778 58.0574 60.6078 57.207 59.0633 55.8006C57.5188 54.3942 56.4882 52.5122 56.135 50.4534C55.7818 48.3945 56.1263 46.2767 57.1138 44.4359C58.1013 42.5952 59.6753 41.1369 61.5859 40.2925C63.4966 39.4482 65.6345 39.266 67.6605 39.7751C69.6864 40.2841 71.4844 41.4551 72.769 43.1023C74.0536 44.7495 74.7514 46.7785 74.7516 48.8674C74.7516 51.0248 73.9703 52.7737 72.0172 52.7737C70.0641 52.7737 69.2828 51.0248 69.2828 48.8674V44.9612" stroke="#424242" stroke-width="2" stroke-linecap="round" stroke-linejoin="round"/>
<path d="M129.098 55.7004C130.87 56.1991 132.71 55.1669 133.209 53.395C133.708 51.623 132.676 49.7823 130.904 49.2836C129.132 48.7849 127.291 49.817 126.792 51.589C126.294 53.3609 127.326 55.2016 129.098 55.7004Z" stroke="#424242" stroke-width="2" stroke-linecap="round" stroke-linejoin="round"/>
<path d="M132.453 60.1073C130.756 60.6537 128.926 60.6178 127.252 60.0055C125.578 59.3931 124.156 58.2393 123.213 56.727C122.269 55.2148 121.858 53.4308 122.044 51.6582C122.23 49.8855 123.002 48.2257 124.239 46.942C125.475 45.6584 127.105 44.8245 128.87 44.5727C130.634 44.3209 132.432 44.6655 133.979 45.5519C135.525 46.4383 136.731 47.8158 137.405 49.4657C138.08 51.1156 138.184 52.9434 137.701 54.6592C137.202 56.4312 136.156 57.687 134.552 57.2355C132.948 56.784 132.711 55.1669 133.209 53.395L134.112 50.1866" stroke="#424242" stroke-width="2" stroke-linecap="round" stroke-linejoin="round"/>
<path d="M123.198 11.9974C123.27 10.158 121.837 8.60872 119.998 8.53693C118.158 8.46514 116.609 9.89807 116.537 11.7375C116.465 13.5769 117.898 15.1262 119.738 15.198C121.577 15.2697 123.126 13.8368 123.198 11.9974Z" stroke="#424242" stroke-width="2" stroke-linecap="round" stroke-linejoin="round"/>
<path d="M126.701 7.70777C127.628 9.23016 128.02 11.0185 127.815 12.7891C127.61 14.5596 126.819 16.2109 125.569 17.481C124.318 18.7511 122.68 19.5672 120.912 19.7998C119.145 20.0324 117.351 19.6682 115.814 18.765C114.278 17.8618 113.087 16.4713 112.431 14.8141C111.774 13.157 111.69 11.3281 112.191 9.61771C112.693 7.9073 113.751 6.41332 115.198 5.37283C116.645 4.33233 118.399 3.80492 120.18 3.87428C122.019 3.94607 123.484 4.67037 123.419 6.33562C123.354 8.00088 121.837 8.60879 119.998 8.537L116.667 8.40702" stroke="#424242" stroke-width="2" stroke-linecap="round" stroke-linejoin="round"/>
<path d="M103.2 41.6203C104.362 40.6486 104.516 38.9192 103.544 37.7575C102.573 36.5958 100.843 36.4418 99.6816 37.4135C98.5199 38.3851 98.3658 40.1145 99.3375 41.2762C100.309 42.4379 102.039 42.592 103.2 41.6203Z" stroke="#424242" stroke-width="2" stroke-linecap="round" stroke-linejoin="round"/>
<path d="M107.751 41.3891C107.334 42.795 106.459 44.0214 105.266 44.8737C104.072 45.726 102.629 46.1554 101.164 46.0937C99.6984 46.032 98.2959 45.4828 97.1784 44.5333C96.0609 43.5837 95.2926 42.2881 94.9952 40.8521C94.6979 39.4162 94.8887 37.922 95.5372 36.6068C96.1858 35.2916 97.2549 34.2306 98.5751 33.5922C99.8953 32.9538 101.391 32.7746 102.825 33.083C104.258 33.3914 105.548 34.1697 106.489 35.2944C107.46 36.4561 107.827 37.7497 106.776 38.6294C105.724 39.5091 104.516 38.9192 103.544 37.7575L101.785 35.6541" stroke="#424242" stroke-width="2" stroke-linecap="round" stroke-linejoin="round"/>
<path d="M27.5034 43.3672C28.6609 44.3439 30.391 44.1973 31.3676 43.0398C32.3443 41.8823 32.1977 40.1522 31.0402 39.1756C29.8827 38.1989 28.1526 38.3455 27.176 39.503C26.1993 40.6605 26.3459 42.3906 27.5034 43.3672Z" stroke="#424242" stroke-width="2" stroke-linecap="round" stroke-linejoin="round"/>
<path d="M28.5165 47.8099C27.0598 47.6417 25.7009 46.9919 24.6555 45.9635C23.6101 44.9351 22.9381 43.587 22.7461 42.1332C22.5541 40.6794 22.8531 39.2031 23.5957 37.9386C24.3383 36.6741 25.4818 35.6937 26.845 35.1531C28.2082 34.6126 29.7128 34.5427 31.1202 34.9546C32.5276 35.3665 33.7571 36.2367 34.6137 37.4269C35.4702 38.6172 35.9048 40.0594 35.8483 41.5248C35.7919 42.9901 35.2477 44.3946 34.3022 45.5155C33.3255 46.673 32.1146 47.2577 31.0667 46.3735C30.0188 45.4893 30.3913 44.1973 31.368 43.0398L33.1363 40.9439" stroke="#424242" stroke-width="2" stroke-linecap="round" stroke-linejoin="round"/>
</svg>
