<svg width="155" height="64" viewBox="0 0 155 64" fill="none" xmlns="http://www.w3.org/2000/svg">
<path d="M84.4166 36.5122H77.2704C72.7101 36.5122 69 32.8088 69 28.2563C69 23.7038 72.7101 20 77.2704 20H84.4166C85.8944 20 87.0965 21.2001 87.0965 22.6757V33.8369C87.0965 35.3121 85.8944 36.5122 84.4166 36.5122ZM77.2704 21.3954C73.481 21.3954 70.3978 24.473 70.3978 28.2563C70.3978 32.0392 73.4806 35.1168 77.2704 35.1168H84.4166C85.1235 35.1168 85.6987 34.5426 85.6987 33.8369V22.6757C85.6987 21.97 85.1235 21.3954 84.4166 21.3954H77.2704Z" fill="#C76800"/>
<path d="M93.4449 25.2328H87.0968C86.7111 25.2328 86.3979 24.9202 86.3979 24.5351C86.3979 24.15 86.7111 23.8374 87.0968 23.8374H93.4449C93.8307 23.8374 94.1438 24.15 94.1438 24.5351C94.1438 24.9202 93.8307 25.2328 93.4449 25.2328Z" fill="#C76800"/>
<path d="M92.0461 28.954H87.0968C86.7111 28.954 86.3979 28.6414 86.3979 28.2563C86.3979 27.8712 86.7111 27.5586 87.0968 27.5586H92.0461C92.4319 27.5586 92.745 27.8712 92.745 28.2563C92.745 28.6414 92.4322 28.954 92.0461 28.954Z" fill="#C76800"/>
<path d="M93.4449 32.5587H87.0968C86.7111 32.5587 86.3979 32.2462 86.3979 31.861C86.3979 31.4759 86.7111 31.1633 87.0968 31.1633H93.4449C93.8307 31.1633 94.1438 31.4759 94.1438 31.861C94.1438 32.2462 93.8307 32.5587 93.4449 32.5587Z" fill="#C76800"/>
<path d="M15.4166 25.4663H8.27038C3.71008 25.4663 0 21.7629 0 17.2104C0 12.6579 3.71008 8.9541 8.27038 8.9541H15.4166C16.8944 8.9541 18.0965 10.1542 18.0965 11.6298V22.791C18.0965 24.2662 16.8944 25.4663 15.4166 25.4663ZM8.27038 10.3495C4.48097 10.3495 1.39779 13.4271 1.39779 17.2104C1.39779 20.9933 4.48062 24.0709 8.27038 24.0709H15.4166C16.1235 24.0709 16.6987 23.4967 16.6987 22.791V11.6298C16.6987 10.9241 16.1235 10.3495 15.4166 10.3495H8.27038Z" fill="#C76800"/>
<path d="M24.4449 14.1869H18.0968C17.7111 14.1869 17.3979 13.8743 17.3979 13.4892C17.3979 13.1041 17.7111 12.7915 18.0968 12.7915H24.4449C24.8307 12.7915 25.1438 13.1041 25.1438 13.4892C25.1438 13.8743 24.8307 14.1869 24.4449 14.1869Z" fill="#C76800"/>
<path d="M23.0461 17.9081H18.0968C17.7111 17.9081 17.3979 17.5955 17.3979 17.2104C17.3979 16.8253 17.7111 16.5127 18.0968 16.5127H23.0461C23.4319 16.5127 23.745 16.8253 23.745 17.2104C23.745 17.5955 23.4322 17.9081 23.0461 17.9081Z" fill="#C76800"/>
<path d="M24.4449 21.5128H18.0968C17.7111 21.5128 17.3979 21.2003 17.3979 20.8151C17.3979 20.43 17.7111 20.1174 18.0968 20.1174H24.4449C24.8307 20.1174 25.1438 20.43 25.1438 20.8151C25.1438 21.2003 24.8307 21.5128 24.4449 21.5128Z" fill="#C76800"/>
<path d="M76.4166 64H69.2704C64.7101 64 61 60.2966 61 55.7441C61 51.1915 64.7101 47.4878 69.2704 47.4878H76.4166C77.8944 47.4878 79.0965 48.6878 79.0965 50.1635V61.3246C79.0965 62.7999 77.8944 64 76.4166 64ZM69.2704 48.8832C65.481 48.8832 62.3978 51.9608 62.3978 55.7441C62.3978 59.527 65.4806 62.6046 69.2704 62.6046H76.4166C77.1235 62.6046 77.6987 62.0304 77.6987 61.3246V50.1635C77.6987 49.4578 77.1235 48.8832 76.4166 48.8832H69.2704Z" fill="#C76800"/>
<path d="M85.4449 52.7206H79.0968C78.7111 52.7206 78.3979 52.408 78.3979 52.0229C78.3979 51.6378 78.7111 51.3252 79.0968 51.3252H85.4449C85.8307 51.3252 86.1438 51.6378 86.1438 52.0229C86.1438 52.408 85.8307 52.7206 85.4449 52.7206Z" fill="#C76800"/>
<path d="M84.0461 56.4418H79.0968C78.7111 56.4418 78.3979 56.1292 78.3979 55.7441C78.3979 55.359 78.7111 55.0464 79.0968 55.0464H84.0461C84.4319 55.0464 84.745 55.359 84.745 55.7441C84.745 56.1292 84.4322 56.4418 84.0461 56.4418Z" fill="#C76800"/>
<path d="M85.4449 60.0465H79.0968C78.7111 60.0465 78.3979 59.7339 78.3979 59.3488C78.3979 58.9637 78.7111 58.6511 79.0968 58.6511H85.4449C85.8307 58.6511 86.1438 58.9637 86.1438 59.3488C86.1438 59.7339 85.8307 60.0465 85.4449 60.0465Z" fill="#C76800"/>
<path d="M15.4166 55.5122H8.27038C3.71008 55.5122 0 51.8088 0 47.2563C0 42.7038 3.71008 39 8.27038 39H15.4166C16.8944 39 18.0965 40.2 18.0965 41.6757V52.8369C18.0965 54.3121 16.8944 55.5122 15.4166 55.5122ZM8.27038 40.3954C4.48097 40.3954 1.39779 43.473 1.39779 47.2563C1.39779 51.0392 4.48062 54.1168 8.27038 54.1168H15.4166C16.1235 54.1168 16.6987 53.5426 16.6987 52.8369V41.6757C16.6987 40.97 16.1235 40.3954 15.4166 40.3954H8.27038Z" fill="#C76800"/>
<path d="M24.4449 44.2328H18.0968C17.7111 44.2328 17.3979 43.9202 17.3979 43.5351C17.3979 43.15 17.7111 42.8374 18.0968 42.8374H24.4449C24.8307 42.8374 25.1438 43.15 25.1438 43.5351C25.1438 43.9202 24.8307 44.2328 24.4449 44.2328Z" fill="#C76800"/>
<path d="M23.0461 47.954H18.0968C17.7111 47.954 17.3979 47.6414 17.3979 47.2563C17.3979 46.8712 17.7111 46.5586 18.0968 46.5586H23.0461C23.4319 46.5586 23.745 46.8712 23.745 47.2563C23.745 47.6414 23.4322 47.954 23.0461 47.954Z" fill="#C76800"/>
<path d="M24.4449 51.5587H18.0968C17.7111 51.5587 17.3979 51.2461 17.3979 50.861C17.3979 50.4759 17.7111 50.1633 18.0968 50.1633H24.4449C24.8307 50.1633 25.1438 50.4759 25.1438 50.861C25.1438 51.2461 24.8307 51.5587 24.4449 51.5587Z" fill="#C76800"/>
<path d="M93.2604 16.5122H86.1141C81.5538 16.5122 77.8438 12.8088 77.8438 8.25628C77.8438 3.70376 81.5539 0 86.1138 0H93.26C94.7378 0 95.9399 1.20005 95.9399 2.67569V13.8369C95.9403 15.3122 94.7378 16.5122 93.2604 16.5122ZM86.1138 1.39541C82.3244 1.39541 79.2412 4.47298 79.2412 8.25628C79.2412 12.0392 82.324 15.1168 86.1138 15.1168H93.26C93.967 15.1168 94.5422 14.5426 94.5422 13.8369V2.67569C94.5422 1.96997 93.967 1.39541 93.26 1.39541H86.1138Z" fill="#C76800"/>
<path d="M102.288 5.23281H95.9401C95.5543 5.23281 95.2412 4.92024 95.2412 4.5351C95.2412 4.14997 95.5543 3.8374 95.9401 3.8374H102.288C102.674 3.8374 102.987 4.14997 102.987 4.5351C102.987 4.92024 102.674 5.23281 102.288 5.23281Z" fill="#C76800"/>
<path d="M100.89 8.954H95.9406C95.5548 8.954 95.2417 8.64143 95.2417 8.2563C95.2417 7.87116 95.5548 7.55859 95.9406 7.55859H100.89C101.276 7.55859 101.589 7.87116 101.589 8.2563C101.589 8.64143 101.276 8.954 100.89 8.954Z" fill="#C76800"/>
<path d="M102.288 12.5587H95.9401C95.5543 12.5587 95.2412 12.2462 95.2412 11.861C95.2412 11.4759 95.5543 11.1633 95.9401 11.1633H102.288C102.674 11.1633 102.987 11.4759 102.987 11.861C102.987 12.2462 102.674 12.5587 102.288 12.5587Z" fill="#C76800"/>
<path d="M55.4166 16.5122H48.2704C43.7101 16.5122 40 12.8088 40 8.25628C40 3.70376 43.7101 0 48.27 0H55.4162C56.894 0 58.0961 1.20005 58.0961 2.67569V13.8369C58.0965 15.3122 56.894 16.5122 55.4166 16.5122ZM48.27 1.39541C44.4806 1.39541 41.3974 4.47298 41.3974 8.25628C41.3974 12.0392 44.4803 15.1168 48.27 15.1168H55.4162C56.1232 15.1168 56.6984 14.5426 56.6984 13.8369V2.67569C56.6984 1.96997 56.1232 1.39541 55.4162 1.39541H48.27Z" fill="#C76800"/>
<path d="M64.4446 5.23281H58.0966C57.7108 5.23281 57.3977 4.92024 57.3977 4.5351C57.3977 4.14997 57.7108 3.8374 58.0966 3.8374H64.4446C64.8304 3.8374 65.1435 4.14997 65.1435 4.5351C65.1435 4.92024 64.8308 5.23281 64.4446 5.23281Z" fill="#C76800"/>
<path d="M63.0461 8.954H58.0968C57.7111 8.954 57.3979 8.64143 57.3979 8.2563C57.3979 7.87116 57.7111 7.55859 58.0968 7.55859H63.0461C63.4319 7.55859 63.745 7.87116 63.745 8.2563C63.745 8.64143 63.4319 8.954 63.0461 8.954Z" fill="#C76800"/>
<path d="M64.4446 12.5587H58.0966C57.7108 12.5587 57.3977 12.2462 57.3977 11.861C57.3977 11.4759 57.7108 11.1633 58.0966 11.1633H64.4446C64.8304 11.1633 65.1435 11.4759 65.1435 11.861C65.1435 12.2462 64.8308 12.5587 64.4446 12.5587Z" fill="#C76800"/>
<path d="M119.208 36.5122H112.062C107.501 36.5122 103.791 32.8088 103.791 28.2563C103.791 23.7038 107.501 20 112.062 20H119.208C120.686 20 121.888 21.2001 121.888 22.6757V33.8369C121.888 35.3121 120.686 36.5122 119.208 36.5122ZM112.062 21.3954C108.272 21.3954 105.189 24.473 105.189 28.2563C105.189 32.0392 108.272 35.1168 112.062 35.1168H119.208C119.915 35.1168 120.49 34.5426 120.49 33.8369V22.6757C120.49 21.97 119.915 21.3954 119.208 21.3954H112.062Z" fill="#C76800"/>
<path d="M128.236 25.2328H121.888C121.502 25.2328 121.189 24.9202 121.189 24.5351C121.189 24.15 121.502 23.8374 121.888 23.8374H128.236C128.622 23.8374 128.935 24.15 128.935 24.5351C128.935 24.9202 128.622 25.2328 128.236 25.2328Z" fill="#C76800"/>
<path d="M126.838 28.954H121.889C121.503 28.954 121.19 28.6414 121.19 28.2563C121.19 27.8712 121.503 27.5586 121.889 27.5586H126.838C127.224 27.5586 127.537 27.8712 127.537 28.2563C127.537 28.6414 127.224 28.954 126.838 28.954Z" fill="#C76800"/>
<path d="M128.236 32.5587H121.888C121.502 32.5587 121.189 32.2462 121.189 31.861C121.189 31.4759 121.502 31.1633 121.888 31.1633H128.236C128.622 31.1633 128.935 31.4759 128.935 31.861C128.935 32.2462 128.622 32.5587 128.236 32.5587Z" fill="#C76800"/>
<path d="M41.3582 42.5122H34.212C29.6517 42.5122 25.9417 38.8088 25.9417 34.2563C25.9417 29.7038 29.6517 26 34.212 26H41.3582C42.8361 26 44.0382 27.2001 44.0382 28.6757V39.8369C44.0382 41.3121 42.8357 42.5122 41.3582 42.5122ZM34.2117 27.3954C30.4223 27.3954 27.3391 30.473 27.3391 34.2563C27.3391 38.0392 30.4219 41.1168 34.2117 41.1168H41.3579C42.0648 41.1168 42.64 40.5426 42.64 39.8369V28.6757C42.64 27.97 42.0648 27.3954 41.3579 27.3954H34.2117Z" fill="#C76800"/>
<path d="M50.3863 31.2328H44.0382C43.6525 31.2328 43.3394 30.9202 43.3394 30.5351C43.3394 30.15 43.6525 29.8374 44.0382 29.8374H50.3863C50.7721 29.8374 51.0852 30.15 51.0852 30.5351C51.0852 30.9202 50.7724 31.2328 50.3863 31.2328Z" fill="#C76800"/>
<path d="M48.9877 34.954H44.0385C43.6527 34.954 43.3396 34.6414 43.3396 34.2563C43.3396 33.8712 43.6527 33.5586 44.0385 33.5586H48.9877C49.3735 33.5586 49.6866 33.8712 49.6866 34.2563C49.6866 34.6414 49.3735 34.954 48.9877 34.954Z" fill="#C76800"/>
<path d="M50.3863 38.5587H44.0382C43.6525 38.5587 43.3394 38.2462 43.3394 37.861C43.3394 37.4759 43.6525 37.1633 44.0382 37.1633H50.3863C50.7721 37.1633 51.0852 37.4759 51.0852 37.861C51.0852 38.2462 50.7724 38.5587 50.3863 38.5587Z" fill="#C76800"/>
<path d="M145.273 25.5122H138.126C133.566 25.5122 129.856 21.8088 129.856 17.2563C129.856 12.7038 133.566 9 138.126 9H145.273C146.75 9 147.952 10.2001 147.952 11.6757V22.8369C147.952 24.3121 146.75 25.5122 145.273 25.5122ZM138.126 10.3954C134.337 10.3954 131.254 13.473 131.254 17.2563C131.254 21.0392 134.337 24.1168 138.126 24.1168H145.273C145.979 24.1168 146.555 23.5426 146.555 22.8369V11.6757C146.555 10.97 145.979 10.3954 145.273 10.3954H138.126Z" fill="#C76800"/>
<path d="M154.301 14.2328H147.953C147.567 14.2328 147.254 13.9202 147.254 13.5351C147.254 13.15 147.567 12.8374 147.953 12.8374H154.301C154.687 12.8374 155 13.15 155 13.5351C155 13.9202 154.687 14.2328 154.301 14.2328Z" fill="#C76800"/>
<path d="M152.902 17.954H147.953C147.568 17.954 147.254 17.6414 147.254 17.2563C147.254 16.8712 147.568 16.5586 147.953 16.5586H152.903C153.288 16.5586 153.601 16.8712 153.601 17.2563C153.601 17.6414 153.288 17.954 152.902 17.954Z" fill="#C76800"/>
<path d="M154.301 21.5587H147.953C147.567 21.5587 147.254 21.2462 147.254 20.861C147.254 20.4759 147.567 20.1633 147.953 20.1633H154.301C154.687 20.1633 155 20.4759 155 20.861C155 21.2462 154.687 21.5587 154.301 21.5587Z" fill="#C76800"/>
<path d="M119.208 64H112.062C107.501 64 103.791 60.2966 103.791 55.7441C103.791 51.1915 107.501 47.4878 112.062 47.4878H119.208C120.686 47.4878 121.888 48.6878 121.888 50.1635V61.3246C121.888 62.7999 120.686 64 119.208 64ZM112.062 48.8832C108.272 48.8832 105.189 51.9608 105.189 55.7441C105.189 59.527 108.272 62.6046 112.062 62.6046H119.208C119.915 62.6046 120.49 62.0304 120.49 61.3246V50.1635C120.49 49.4578 119.915 48.8832 119.208 48.8832H112.062Z" fill="#C76800"/>
<path d="M128.236 52.7206H121.888C121.502 52.7206 121.189 52.408 121.189 52.0229C121.189 51.6378 121.502 51.3252 121.888 51.3252H128.236C128.622 51.3252 128.935 51.6378 128.935 52.0229C128.935 52.408 128.622 52.7206 128.236 52.7206Z" fill="#C76800"/>
<path d="M126.838 56.4418H121.889C121.503 56.4418 121.19 56.1292 121.19 55.7441C121.19 55.359 121.503 55.0464 121.889 55.0464H126.838C127.224 55.0464 127.537 55.359 127.537 55.7441C127.537 56.1292 127.224 56.4418 126.838 56.4418Z" fill="#C76800"/>
<path d="M128.236 60.0465H121.888C121.502 60.0465 121.189 59.7339 121.189 59.3488C121.189 58.9637 121.502 58.6511 121.888 58.6511H128.236C128.622 58.6511 128.935 58.9637 128.935 59.3488C128.935 59.7339 128.622 60.0465 128.236 60.0465Z" fill="#C76800"/>
<path d="M145.273 55.0459H138.126C133.566 55.0459 129.856 51.3425 129.856 46.79C129.856 42.2375 133.566 38.5337 138.126 38.5337H145.273C146.75 38.5337 147.952 39.7337 147.952 41.2094V52.3706C147.952 53.8459 146.75 55.0459 145.273 55.0459ZM138.126 39.9291C134.337 39.9291 131.254 43.0067 131.254 46.79C131.254 50.5729 134.337 53.6505 138.126 53.6505H145.273C145.979 53.6505 146.555 53.0763 146.555 52.3706V41.2094C146.555 40.5037 145.979 39.9291 145.273 39.9291H138.126V39.9291Z" fill="#C76800"/>
<path d="M154.301 43.7665H147.953C147.567 43.7665 147.254 43.4539 147.254 43.0688C147.254 42.6837 147.567 42.3711 147.953 42.3711H154.301C154.687 42.3711 155 42.6837 155 43.0688C155 43.4539 154.687 43.7665 154.301 43.7665Z" fill="#C76800"/>
<path d="M152.902 47.4877H147.953C147.568 47.4877 147.254 47.1751 147.254 46.79C147.254 46.4049 147.568 46.0923 147.953 46.0923H152.903C153.288 46.0923 153.601 46.4049 153.601 46.79C153.601 47.1751 153.288 47.4877 152.902 47.4877Z" fill="#C76800"/>
<path d="M154.301 51.0924H147.953C147.567 51.0924 147.254 50.7798 147.254 50.3947C147.254 50.0096 147.567 49.697 147.953 49.697H154.301C154.687 49.697 155 50.0096 155 50.3947C155 50.7798 154.687 51.0924 154.301 51.0924Z" fill="#C76800"/>
</svg>
